<svg width="4996" height="5058" viewBox="0 0 4996 5058" fill="none" xmlns="http://www.w3.org/2000/svg">
    <path
        d="M2440.6 5057.83C3788.5 5057.83 4881.19 4426.96 4881.19 3648.74C4881.19 2870.53 3788.5 2239.66 2440.6 2239.66C1092.69 2239.66 0 2870.53 0 3648.74C0 4426.96 1092.69 5057.83 2440.6 5057.83Z"
        fill="#F5F5F5" />
    <path
        d="M3743.82 4725.01C4013.26 4725.01 4231.69 4588.06 4231.69 4419.11C4231.69 4250.17 4013.26 4113.21 3743.82 4113.21C3474.37 4113.21 3255.95 4250.17 3255.95 4419.11C3255.95 4588.06 3474.37 4725.01 3743.82 4725.01Z"
        fill="#E6E6E6" />
    <path
        d="M4629.82 3322.06L4528.61 3265.26C4528.61 3265.26 4519.07 3080.45 4533.61 2933.01C4553.94 2725.82 4687.75 2476.38 4847.46 2535.44C5007.17 2594.51 4774.19 2804.99 4722.51 2980.83C4670.83 3156.67 4629.82 3322.06 4629.82 3322.06Z"
        fill="#37474F" />
    <path
        d="M4582.68 3300.36C4583.39 3300.35 4584.09 3300.19 4584.74 3299.9C4585.39 3299.61 4585.98 3299.2 4586.46 3298.68C4586.95 3298.16 4587.33 3297.55 4587.58 3296.88C4587.82 3296.21 4587.94 3295.51 4587.91 3294.79C4572.23 2834.41 4801.45 2602.69 4803.73 2600.42C4804.74 2599.42 4805.31 2598.07 4805.32 2596.65C4805.33 2595.24 4804.78 2593.87 4803.78 2592.86C4802.79 2591.86 4801.43 2591.28 4800.02 2591.27C4798.6 2591.26 4797.24 2591.81 4796.23 2592.81C4793.84 2595.08 4561.32 2830.1 4577.11 3295.25C4577.14 3295.95 4577.31 3296.64 4577.61 3297.28C4577.9 3297.91 4578.32 3298.48 4578.84 3298.96C4579.35 3299.43 4579.96 3299.8 4580.62 3300.04C4581.28 3300.28 4581.98 3300.39 4582.68 3300.36V3300.36Z"
        fill="white" />
    <path
        d="M4685.37 3354.09L4622.1 3317.51C4622.1 3317.51 4611.3 3186.88 4675.37 3028.09C4731.14 2889.85 4869.61 2775.23 4939.13 2799.32C5008.64 2823.4 5007.28 2872.81 4973.2 2924.26C4939.13 2975.72 4732.73 3099.76 4685.37 3354.09Z"
        fill="#455A64" />
    <path
        d="M4652.54 3340.12C4653.25 3340.13 4653.96 3340 4654.62 3339.74C4655.28 3339.48 4655.88 3339.09 4656.39 3338.59C4656.89 3338.1 4657.3 3337.5 4657.57 3336.85C4657.85 3336.19 4657.99 3335.49 4657.99 3334.78C4656.74 3043.65 4930.04 2846.34 4932.88 2844.86C4934.02 2844.02 4934.79 2842.77 4935.03 2841.37C4935.26 2839.97 4934.94 2838.53 4934.13 2837.37C4933.72 2836.79 4933.2 2836.3 4932.6 2835.92C4932.01 2835.54 4931.34 2835.29 4930.64 2835.17C4929.94 2835.06 4929.23 2835.08 4928.54 2835.24C4927.85 2835.41 4927.2 2835.7 4926.63 2836.12C4923.79 2838.05 4645.95 3038.08 4647.2 3334.78C4647.2 3335.48 4647.34 3336.17 4647.61 3336.82C4647.87 3337.47 4648.27 3338.06 4648.76 3338.55C4649.26 3339.05 4649.85 3339.44 4650.5 3339.71C4651.14 3339.98 4651.84 3340.12 4652.54 3340.12V3340.12Z"
        fill="white" />
    <path
        d="M2811.7 2474.33L2745.93 2436.74C2743.02 2434.56 2740.72 2431.67 2739.25 2428.35C2737.78 2425.03 2737.18 2421.38 2737.52 2417.77V1979.54C2738.17 1967.78 2742.11 1956.45 2748.88 1946.82L2814.31 1984.53C2807.76 1994.14 2804.06 2005.4 2803.63 2017.02V2455.59C2803.22 2459.15 2803.74 2462.75 2805.16 2466.04C2806.57 2469.33 2808.83 2472.19 2811.7 2474.33V2474.33Z"
        fill="#384B78" />
    <path opacity="0.55"
        d="M2811.7 2474.33L2745.93 2436.74C2743.02 2434.56 2740.72 2431.67 2739.25 2428.35C2737.78 2425.03 2737.18 2421.38 2737.52 2417.77V1979.54C2738.17 1967.78 2742.11 1956.45 2748.88 1946.82L2814.31 1984.53C2807.76 1994.14 2804.06 2005.4 2803.63 2017.02V2455.59C2803.22 2459.15 2803.74 2462.75 2805.16 2466.04C2806.57 2469.33 2808.83 2472.19 2811.7 2474.33V2474.33Z"
        fill="white" />
    <path
        d="M2832.6 1965.45L3750.18 1435.78C3766.65 1426.24 3779.94 1433.96 3779.94 1452.93V1892.07C3779.39 1902.39 3776.41 1912.43 3771.24 1921.37C3766.07 1930.32 3758.85 1937.91 3750.18 1943.53L2832.6 2472.4C2816.24 2481.83 2802.84 2474.11 2802.84 2455.14V2017.02C2803.42 2006.7 2806.41 1996.65 2811.58 1987.7C2816.75 1978.74 2823.95 1971.12 2832.6 1965.45V1965.45Z"
        fill="#384B78" />
    <path opacity="0.7"
        d="M2832.6 1965.45L3750.18 1435.78C3766.65 1426.24 3779.94 1433.96 3779.94 1452.93V1892.07C3779.39 1902.39 3776.41 1912.43 3771.24 1921.37C3766.07 1930.32 3758.85 1937.91 3750.18 1943.53L2832.6 2472.4C2816.24 2481.83 2802.84 2474.11 2802.84 2455.14V2017.02C2803.42 2006.7 2806.41 1996.65 2811.58 1987.7C2816.75 1978.74 2823.95 1971.12 2832.6 1965.45V1965.45Z"
        fill="white" />
    <path
        d="M3705.42 1396.14L3770.17 1433.05C3766.88 1431.83 3763.33 1431.43 3759.85 1431.88C3756.37 1432.34 3753.04 1433.64 3750.18 1435.67L2832.6 1965.45C2824.84 1970.25 2818.31 1976.78 2813.51 1984.53L2748.08 1946.82C2752.75 1939.14 2759.18 1932.68 2766.83 1927.97L3684.41 1398.18C3688.41 1395.71 3693 1394.34 3697.7 1394.21C3700.4 1394.18 3703.05 1394.85 3705.42 1396.14V1396.14Z"
        fill="#384B78" />
    <path opacity="0.85"
        d="M3705.42 1396.14L3770.17 1433.05C3766.88 1431.83 3763.33 1431.43 3759.85 1431.88C3756.37 1432.34 3753.04 1433.64 3750.18 1435.67L2832.6 1965.45C2824.84 1970.25 2818.31 1976.78 2813.51 1984.53L2748.08 1946.82C2752.75 1939.14 2759.18 1932.68 2766.83 1927.97L3684.41 1398.18C3688.41 1395.71 3693 1394.34 3697.7 1394.21C3700.4 1394.18 3703.05 1394.85 3705.42 1396.14V1396.14Z"
        fill="white" />
    <path
        d="M2904.39 2006L3678.39 1558.23C3686.34 1553.69 3692.7 1556.87 3692.7 1565.39C3692.36 1570.19 3690.88 1574.85 3688.39 1578.97C3685.9 1583.1 3682.48 1586.58 3678.39 1589.13L2904.39 2036.67C2896.55 2041.22 2890.07 2038.03 2890.07 2029.52C2890.46 2024.75 2891.96 2020.15 2894.44 2016.06C2896.93 2011.98 2900.33 2008.54 2904.39 2006Z"
        fill="#384B78" />
    <path
        d="M2904.39 2319.28L3678.39 1871.74C3686.34 1867.19 3692.7 1870.38 3692.7 1879.01C3692.36 1883.8 3690.88 1888.44 3688.39 1892.55C3685.9 1896.65 3682.47 1900.11 3678.39 1902.63L2904.39 2349.73C2896.55 2354.27 2890.07 2350.97 2890.07 2342.46C2890.53 2337.76 2892.06 2333.22 2894.54 2329.21C2897.02 2325.19 2900.39 2321.8 2904.39 2319.28V2319.28Z"
        fill="#384B78" />
    <path
        d="M2904.39 2162.42L3678.39 1714.76C3686.34 1710.21 3692.7 1713.51 3692.7 1722.03C3692.34 1726.83 3690.85 1731.48 3688.37 1735.6C3685.88 1739.72 3682.46 1743.2 3678.39 1745.77L2904.39 2193.31C2896.55 2197.86 2890.07 2194.56 2890.07 2186.04C2890.44 2181.26 2891.93 2176.63 2894.42 2172.53C2896.9 2168.42 2900.32 2164.96 2904.39 2162.42V2162.42Z"
        fill="#384B78" />
    <path
        d="M2904.39 2240.57L3678.39 1793.02C3686.34 1788.48 3692.7 1791.66 3692.7 1800.18C3692.36 1804.98 3690.88 1809.64 3688.39 1813.76C3685.9 1817.89 3682.48 1821.37 3678.39 1823.92L2904.39 2271.46C2896.55 2276.01 2890.07 2272.83 2890.07 2264.31C2890.43 2259.5 2891.91 2254.85 2894.39 2250.73C2896.88 2246.6 2900.3 2243.12 2904.39 2240.57V2240.57Z"
        fill="#384B78" />
    <path
        d="M2904.39 2084.15L3678.39 1636.61C3686.34 1632.06 3692.7 1635.24 3692.7 1643.88C3692.36 1648.67 3690.88 1653.31 3688.39 1657.41C3685.9 1661.52 3682.47 1664.98 3678.39 1667.5L2904.39 2114.82C2896.55 2119.37 2890.07 2116.07 2890.07 2107.55C2890.5 2102.81 2892.01 2098.24 2894.49 2094.18C2896.97 2090.12 2900.36 2086.69 2904.39 2084.15V2084.15Z"
        fill="#384B78" />
    <path
        d="M2806.7 1805.51L2744.22 1769.96C2741.31 1767.79 2739 1764.9 2737.53 1761.58C2736.06 1758.26 2735.47 1754.61 2735.82 1750.99V585.329C2736.43 573.568 2740.37 562.223 2747.18 552.615L2808.06 587.828C2801.87 597.232 2798.37 608.154 2797.95 619.406V1786.32C2797.53 1790.01 2798.12 1793.75 2799.66 1797.13C2801.2 1800.51 2803.63 1803.41 2806.7 1805.51V1805.51Z"
        fill="#263238" />
    <path
        d="M3760.85 34.1912C3755.35 33.7001 3749.83 35.059 3745.18 38.0532L2827.6 567.838C2819.57 572.862 2812.83 579.712 2807.95 587.829L2746.95 552.617C2751.69 544.996 2758.1 538.549 2765.69 533.76L3683.27 4.08977C3687.25 1.55634 3691.85 0.143642 3696.56 0.000514598C3699.26 -0.0211786 3701.92 0.643326 3704.29 1.93155L3760.85 34.1912Z"
        fill="#37474F" />
    <path
        d="M2827.6 567.839L3745.18 38.1681C3761.65 28.6265 3774.94 36.3506 3774.94 55.3202V1223.25C3774.39 1233.57 3771.41 1243.61 3766.24 1252.56C3761.07 1261.5 3753.85 1269.09 3745.18 1274.71L2827.71 1803.59C2811.24 1813.01 2797.84 1805.29 2797.84 1786.32V619.409C2798.42 609.084 2801.42 599.04 2806.58 590.084C2811.75 581.127 2818.95 573.508 2827.6 567.839V567.839Z"
        fill="#455A64" />
    <path
        d="M2878.49 605.891L3702.02 130.402C3716.78 121.883 3728.71 128.812 3728.71 145.85V1194.74C3728.21 1204 3725.53 1213.02 3720.89 1221.05C3716.26 1229.09 3709.79 1235.91 3702.02 1240.97L2878.49 1715.55C2863.72 1724.07 2851.79 1717.14 2851.79 1700.1V652.122C2852.29 642.859 2854.97 633.845 2859.61 625.811C2864.25 617.778 2870.71 610.953 2878.49 605.891Z"
        fill="#F0F0F0" />
    <path
        d="M3563.09 1035.71C3548.63 1010.45 3525.65 991.144 3498.27 981.259C3470.88 971.375 3440.88 971.552 3413.61 981.76C3413.61 981.76 3408.84 1069.56 3453.82 1195.65C3453.82 1195.65 3649.76 1481.22 3688.84 1507.8L3743.02 1328.1C3743.02 1328.1 3600.01 1093.53 3563.09 1035.71Z"
        fill="#B16668" />
    <path
        d="M3082.95 1096.71C3036.72 1114.32 3043.65 1164.87 3045.12 1209.74C3045.92 1237.34 3050.46 1284.14 3053.42 1348.32L3066.59 1554.94L3063.64 2003.16C3213.92 2054.39 3405.09 2009.3 3565.48 1831.07C3565.48 1831.07 3556.51 1257.44 3556.51 1163.28C3556.51 1158.96 3556.51 1154.76 3556.51 1150.44C3550.83 1021.63 3486.88 966.54 3413.84 981.988C3390.44 986.986 3339.78 1003.12 3306.27 1013.57L3214.26 1043.33C3214.26 1043.33 3129.07 1079.11 3082.95 1096.71Z"
        fill="#384B78" />
    <path opacity="0.2"
        d="M3082.95 1096.71C3036.72 1114.32 3043.65 1164.87 3045.12 1209.74C3045.92 1237.34 3050.46 1284.14 3053.42 1348.32L3066.59 1554.94L3063.64 2003.16C3213.92 2054.39 3405.09 2009.3 3565.48 1831.07C3565.48 1831.07 3556.51 1257.44 3556.51 1163.28C3556.51 1158.96 3556.51 1154.76 3556.51 1150.44C3550.83 1021.63 3486.88 966.54 3413.84 981.988C3390.44 986.986 3339.78 1003.12 3306.27 1013.57L3214.26 1043.33C3214.26 1043.33 3129.07 1079.11 3082.95 1096.71Z"
        fill="black" />
    <path
        d="M3430.99 650.419C3430.99 608.959 3437.46 554.549 3479.61 534.671C3500.96 524.561 3531.4 520.358 3551.73 533.535C3572.07 546.711 3585.02 565.34 3581.38 591.239C3577.83 610.575 3568.15 628.256 3553.78 641.673C3551.29 643.586 3549.44 646.196 3548.44 649.17C3548.06 651.566 3548.26 654.019 3549.01 656.326C3554.46 681.883 3554.12 711.19 3536.74 730.727C3530.76 737.372 3523.2 742.406 3514.77 745.363C3506.33 748.321 3497.29 749.108 3488.47 747.652C3478.56 745.309 3469.31 740.735 3461.44 734.278C3453.56 727.822 3447.27 719.653 3443.03 710.395C3434.37 691.623 3430.25 671.078 3430.99 650.419V650.419Z"
        fill="#263238" />
    <path
        d="M3153.15 796.041C3153.15 796.041 3176.55 916.56 3185.86 934.848C3188.67 940.172 3192.78 944.701 3197.8 948.017C3202.82 951.333 3208.6 953.328 3214.6 953.818L3213.01 865.217L3153.15 796.041Z"
        fill="#263238" />
    <path
        d="M3181.88 606.686C3181.88 606.686 3160.19 612.024 3159.17 612.592C3149.16 616.324 3140.17 622.355 3132.93 630.199C3127.3 636.182 3123.2 643.441 3120.98 651.353C3118.77 659.266 3118.5 667.597 3120.21 675.635C3123.85 687.344 3130.46 697.91 3139.4 706.304C3132.52 713.322 3127.15 721.671 3123.61 730.84C3120.15 740.105 3120.15 750.312 3123.61 759.578C3126.03 764.97 3129.17 770.013 3132.93 774.572C3141.22 785.136 3150.99 795.472 3165.3 793.882C3175.75 792.746 3186.31 791.042 3196.77 789.679L3181.88 606.686Z"
        fill="#263238" />
    <path
        d="M3209.94 786.612C3201.2 795.131 3188.59 778.888 3177.68 768.665C3166.78 758.442 3131.34 750.036 3113.62 797.858C3095.9 845.679 3129.29 895.545 3157.24 898.271C3205.4 902.815 3212.67 865.216 3212.67 865.216L3214.26 1063.09C3266.85 1173.16 3483.58 1131.24 3373.29 1016.97V956.202C3395.37 954.278 3417.15 949.701 3438.14 942.571C3473.58 926.782 3495.96 888.502 3506.3 841.363C3523.56 765.598 3522.09 720.73 3516.29 584.081C3512.32 490.255 3345 461.29 3261.63 544.211C3178.25 627.132 3209.94 786.612 3209.94 786.612Z"
        fill="#B16668" />
    <path
        d="M3177.46 768.665C3171.78 764.235 3172.34 751.286 3172 745.039C3171.42 729.89 3171.68 714.721 3172.8 699.603C3174.28 675.749 3180.86 650.759 3175.41 627.359C3172.7 618.854 3171.89 609.86 3173.03 601.006C3173.67 596.574 3175.72 592.464 3178.86 589.277C3182.01 586.089 3186.09 583.99 3190.52 583.286C3185.29 569.619 3183.85 554.795 3186.34 540.377C3188.84 525.959 3195.18 512.481 3204.69 501.363C3214.2 490.245 3226.54 481.899 3240.4 477.206C3254.26 472.512 3269.12 471.645 3283.44 474.694C3287.27 461.605 3294.57 449.796 3304.57 440.518C3314.57 431.24 3326.89 424.838 3340.23 421.988C3355.5 418.765 3371.33 419.311 3386.35 423.579C3394 425.647 3401.1 429.376 3407.15 434.5C3413.19 439.624 3418.04 446.018 3421.33 453.226C3430.76 433.007 3463.36 414.832 3493.12 418.24C3518.11 421.193 3543.78 436.642 3552.3 456.861C3558.11 469.991 3561.11 484.19 3561.11 498.548C3561.11 512.906 3558.11 527.106 3552.3 540.236C3547.65 549.363 3541.08 557.377 3533.04 563.729C3525 570.081 3515.69 574.622 3505.73 577.039C3485.44 581.95 3464.03 578.599 3446.21 567.725C3446.16 578.466 3442.66 588.907 3436.21 597.5C3429.77 606.093 3420.73 612.381 3410.43 615.432C3396.11 620.056 3380.83 620.801 3366.13 617.591C3352.32 612.31 3339.75 604.227 3329.21 593.85C3328.29 603.555 3324.72 612.821 3318.89 620.634C3313.07 628.447 3305.2 634.507 3296.16 638.15C3287.08 641.557 3277.36 642.946 3267.69 642.22C3258.02 641.495 3248.63 638.672 3240.16 633.948C3244.38 647.46 3246.75 661.484 3247.2 675.635C3247.83 682.989 3246.7 690.387 3243.91 697.217C3242.39 700.544 3239.96 703.374 3236.91 705.384C3233.85 707.393 3230.3 708.5 3226.64 708.576C3234.83 729.27 3237.76 751.673 3235.16 773.777C3234.91 782.617 3231.43 791.061 3225.39 797.517C3205.74 815.692 3189.61 778.207 3177.46 768.665Z"
        fill="#263238" />
    <path
        d="M3182 617.93L3128.61 599.188C3136.22 579.537 3154.28 567.837 3169.05 572.949C3183.82 578.06 3189.5 598.279 3182 617.93Z"
        fill="#263238" />
    <path
        d="M3372.72 956.201C3372.72 956.201 3293.2 958.927 3265.94 949.386C3249.36 943.603 3235.64 931.639 3227.66 915.99C3231.56 932.536 3239 948.039 3249.47 961.426C3269.69 985.848 3372.72 980.282 3372.72 980.282V956.201Z"
        fill="#9A4A4D" />
    <path
        d="M3352.27 741.405C3352.25 746.362 3350.72 751.194 3347.88 755.255C3345.03 759.315 3341.02 762.41 3336.37 764.123C3327.62 766.509 3320.47 759.807 3320.47 749.357C3320.5 744.404 3322.04 739.579 3324.88 735.522C3327.72 731.464 3331.73 728.366 3336.37 726.639C3345.11 724.253 3352.27 730.955 3352.27 741.405Z"
        fill="#263238" />
    <path
        d="M3340.23 689.379L3301.61 713.915C3299.93 708.074 3300.12 701.855 3302.16 696.13C3304.2 690.405 3307.98 685.462 3312.97 681.996C3315.16 680.39 3317.68 679.298 3320.35 678.8C3323.01 678.303 3325.76 678.413 3328.38 679.122C3331 679.832 3333.42 681.122 3335.47 682.898C3337.53 684.674 3339.15 686.889 3340.23 689.379Z"
        fill="#263238" />
    <path
        d="M3365.56 848.52L3401.68 854.426C3400.66 860.182 3397.64 865.392 3393.15 869.133C3388.66 872.875 3382.99 874.908 3377.15 874.872C3367.15 873.282 3361.93 861.469 3365.56 848.52Z"
        fill="#9A4A4D" />
    <path
        d="M3495.85 681.77L3464.95 662.573C3471.2 650.646 3483.24 645.307 3491.76 650.532C3496.12 654.353 3498.94 659.631 3499.69 665.38C3500.45 671.129 3499.08 676.955 3495.85 681.77V681.77Z"
        fill="#263238" />
    <path
        d="M3487.78 709.485C3487.77 714.428 3486.26 719.251 3483.44 723.309C3480.62 727.368 3476.62 730.471 3472 732.203C3463.25 734.589 3456.09 727.887 3456.09 717.437C3456.14 712.488 3457.69 707.67 3460.53 703.615C3463.36 699.561 3467.36 696.46 3472 694.718C3480.74 692.333 3487.78 698.921 3487.78 709.485Z"
        fill="#263238" />
    <path d="M3401.68 713.916L3403.5 824.326L3460.3 794.679L3401.68 713.916Z" fill="#9A4A4D" />
    <path
        d="M3054.21 2042.12C3056.8 2071.94 3065.41 2100.93 3079.54 2127.32C3095.19 2151.87 3114.32 2174.02 3136.34 2193.08C3138.69 2194.89 3140.4 2197.39 3141.22 2200.24C3142.02 2206.15 3135.31 2210.24 3129.86 2211.6C3117.44 2213.45 3104.77 2210.96 3093.97 2204.56C3085.87 2199.83 3078.42 2194.06 3071.82 2187.41C3069.54 2185.36 3055.46 2175.36 3055.46 2173.09C3059.92 2197.02 3068.29 2220.04 3080.22 2241.25C3091.97 2259.5 3102.55 2278.47 3111.91 2298.04C3117.25 2310.88 3119.75 2327.46 3109.87 2337.23C3105.69 2340.77 3100.75 2343.29 3095.44 2344.61C3077.45 2349.68 3058.44 2349.89 3040.34 2345.22C3022.25 2340.56 3005.71 2331.17 2992.42 2318.03C2980.77 2305.37 2971.04 2291.05 2963.57 2275.55C2959.02 2267.03 2954.92 2258.27 2951.3 2249.31C2945.25 2233.69 2940.57 2217.58 2937.33 2201.15C2928.58 2161.73 2925.29 2121.64 2919.27 2082.11C2901.38 1956.21 2894.24 1829.03 2897.91 1701.92C2918.36 1280.96 2947.09 1138.63 3083.18 1096.71C3121.68 1125.34 3138.95 1247.9 3098.4 1357.18C3078.27 1479.24 3065.07 1602.34 3058.87 1725.89C3056.37 1784.27 3046.94 1901.95 3049.67 1960.34C3050.92 1986.46 3050.92 2012.59 3054.21 2042.12Z"
        fill="#B16668" />
    <path
        d="M323.277 3910.11L257.509 3872.51C254.602 3870.33 252.304 3867.44 250.832 3864.12C249.36 3860.8 248.765 3857.16 249.103 3853.54V3415.42C249.755 3403.67 253.691 3392.34 260.462 3382.71L324.754 3420.42C318.204 3430.03 314.503 3441.29 314.076 3452.91V3890.91C313.699 3894.65 314.358 3898.42 315.981 3901.8C317.604 3905.19 320.129 3908.06 323.277 3910.11V3910.11Z"
        fill="#384B78" />
    <path opacity="0.55"
        d="M323.277 3910.11L257.509 3872.51C254.602 3870.33 252.304 3867.44 250.832 3864.12C249.36 3860.8 248.765 3857.16 249.103 3853.54V3415.42C249.755 3403.67 253.691 3392.34 260.462 3382.71L324.754 3420.42C318.204 3430.03 314.503 3441.29 314.076 3452.91V3890.91C313.699 3894.65 314.358 3898.42 315.981 3901.8C317.604 3905.19 320.129 3908.06 323.277 3910.11V3910.11Z"
        fill="white" />
    <path
        d="M344.178 3401.34L1261.76 2871.56C1278.12 2862.02 1291.52 2869.74 1291.52 2888.71V3327.85C1290.93 3338.19 1287.92 3348.24 1282.73 3357.2C1277.55 3366.16 1270.32 3373.77 1261.64 3379.42L344.178 3908.18C327.707 3917.61 314.417 3909.89 314.417 3890.92V3452.8C314.962 3442.48 317.944 3432.44 323.116 3423.5C328.289 3414.55 335.507 3406.96 344.178 3401.34V3401.34Z"
        fill="#384B78" />
    <path opacity="0.7"
        d="M344.178 3401.34L1261.76 2871.56C1278.12 2862.02 1291.52 2869.74 1291.52 2888.71V3327.85C1290.93 3338.19 1287.92 3348.24 1282.73 3357.2C1277.55 3366.16 1270.32 3373.77 1261.64 3379.42L344.178 3908.18C327.707 3917.61 314.417 3909.89 314.417 3890.92V3452.8C314.962 3442.48 317.944 3432.44 323.116 3423.5C328.289 3414.55 335.507 3406.96 344.178 3401.34V3401.34Z"
        fill="white" />
    <path
        d="M1217 2832.03L1281.75 2868.95C1278.46 2867.72 1274.92 2867.32 1271.43 2867.77C1267.95 2868.23 1264.63 2869.53 1261.76 2871.56L344.178 3401.34C336.3 3406.1 329.648 3412.63 324.754 3420.43L259.326 3382.71C264.147 3375.16 270.686 3368.86 278.409 3364.31L1195.99 2834.53C1199.99 2832.06 1204.58 2830.69 1209.28 2830.55C1211.94 2830.39 1214.59 2830.9 1217 2832.03V2832.03Z"
        fill="#384B78" />
    <path opacity="0.85"
        d="M1217 2832.03L1281.75 2868.95C1278.46 2867.72 1274.92 2867.32 1271.43 2867.77C1267.95 2868.23 1264.63 2869.53 1261.76 2871.56L344.178 3401.34C336.3 3406.1 329.648 3412.63 324.754 3420.43L259.326 3382.71C264.147 3375.16 270.686 3368.86 278.409 3364.31L1195.99 2834.53C1199.99 2832.06 1204.58 2830.69 1209.28 2830.55C1211.94 2830.39 1214.59 2830.9 1217 2832.03V2832.03Z"
        fill="white" />
    <path
        d="M415.626 3441.78L1189.63 2994.24C1197.47 2989.69 1203.94 2992.87 1203.94 3001.51C1203.57 3006.29 1202.08 3010.92 1199.6 3015.02C1197.11 3019.13 1193.7 3022.59 1189.63 3025.13L415.626 3472.68C407.675 3477.22 401.313 3474.04 401.313 3465.52C401.659 3460.72 403.135 3456.06 405.623 3451.94C408.11 3447.81 411.538 3444.33 415.626 3441.78V3441.78Z"
        fill="#384B78" />
    <path
        d="M415.626 3754.61L1189.97 3307.52C1197.81 3302.98 1204.28 3306.27 1204.28 3314.79C1203.91 3319.57 1202.42 3324.2 1199.94 3328.31C1197.45 3332.41 1194.04 3335.87 1189.97 3338.42L415.626 3785.51C407.675 3790.05 401.313 3786.76 401.313 3778.24C401.658 3773.45 403.135 3768.81 405.624 3764.7C408.112 3760.59 411.54 3757.14 415.626 3754.61V3754.61Z"
        fill="#384B78" />
    <path
        d="M415.626 3598.19L1189.63 3150.65C1197.47 3146.11 1203.94 3149.29 1203.94 3157.81C1203.57 3162.6 1202.08 3167.25 1199.6 3171.37C1197.11 3175.49 1193.7 3178.98 1189.63 3181.55L415.626 3629.09C407.675 3633.63 401.313 3630.45 401.313 3621.94C401.641 3617.13 403.11 3612.46 405.599 3608.33C408.088 3604.21 411.525 3600.73 415.626 3598.19V3598.19Z"
        fill="#384B78" />
    <path
        d="M415.626 3676.35L1189.63 3228.8C1197.47 3224.26 1203.94 3227.44 1203.94 3235.96C1203.59 3240.76 1202.11 3245.41 1199.62 3249.54C1197.13 3253.66 1193.71 3257.14 1189.63 3259.7L415.626 3707.24C407.675 3711.79 401.313 3708.6 401.313 3700.09C401.659 3695.28 403.135 3690.62 405.623 3686.5C408.11 3682.37 411.538 3678.89 415.626 3676.35V3676.35Z"
        fill="#384B78" />
    <path
        d="M415.626 3520.04L1189.63 3072.39C1197.47 3067.84 1203.94 3071.14 1203.94 3079.66C1203.57 3084.44 1202.08 3089.07 1199.6 3093.17C1197.11 3097.28 1193.7 3100.74 1189.63 3103.28L415.626 3550.94C407.675 3555.48 401.313 3552.19 401.313 3543.67C401.658 3538.88 403.135 3534.24 405.624 3530.13C408.112 3526.03 411.54 3522.57 415.626 3520.04Z"
        fill="#384B78" />
    <path
        d="M319.415 3239.36L256.6 3204.27C253.686 3202.09 251.381 3199.21 249.908 3195.88C248.436 3192.56 247.845 3188.91 248.194 3185.3V2019.63C248.804 2007.87 252.743 1996.53 259.553 1986.92L320.438 2022.13C314.243 2031.54 310.747 2042.46 310.328 2053.71V3220.62C310.024 3224.27 310.708 3227.94 312.306 3231.24C313.905 3234.53 316.36 3237.34 319.415 3239.36V3239.36Z"
        fill="#263238" />
    <path
        d="M1273.57 1468.49C1268.06 1468 1262.55 1469.36 1257.9 1472.35L340.316 2002.14C332.284 2007.16 325.551 2014.01 320.665 2022.13L259.667 1986.92C264.41 1979.3 270.818 1972.85 278.409 1968.06L1195.99 1438.39C1199.97 1435.86 1204.56 1434.44 1209.28 1434.3C1211.98 1434.28 1214.64 1434.94 1217 1436.23L1273.57 1468.49Z"
        fill="#37474F" />
    <path
        d="M340.316 2002.03L1257.9 1472.36C1274.25 1462.81 1287.66 1470.54 1287.66 1489.51V2657.44C1287.08 2667.77 1284.08 2677.81 1278.91 2686.77C1273.74 2695.72 1266.55 2703.34 1257.9 2709.01L340.316 3237.77C323.846 3247.2 310.556 3239.59 310.556 3220.62V2053.6C311.12 2043.27 314.108 2033.22 319.278 2024.26C324.448 2015.3 331.656 2007.68 340.316 2002.03Z"
        fill="#455A64" />
    <path
        d="M387.342 2038.26L1210.76 1562.77C1225.52 1554.25 1237.45 1561.18 1237.45 1578.22V2625.98C1236.97 2635.24 1234.3 2644.27 1229.66 2652.3C1225.02 2660.34 1218.54 2667.16 1210.76 2672.21L387.342 3147.36C372.575 3155.87 360.648 3148.95 360.648 3131.91V2084.49C361.147 2075.23 363.824 2066.22 368.462 2058.18C373.101 2050.15 379.569 2043.32 387.342 2038.26V2038.26Z"
        fill="#F0F0F0" />
    <path
        d="M1048.55 2475.47C984.258 2391.98 878.165 2403.79 878.165 2403.79C887.52 2476.38 905.166 2547.65 930.757 2616.21C930.757 2616.21 1126.81 2901.66 1165.89 2928.35L1220.07 2748.54C1220.07 2748.54 1090.24 2529.76 1048.55 2475.47Z"
        fill="#FFBDA7" />
    <path
        d="M855.219 2407.88C883.005 2398.96 912.17 2395.11 941.32 2396.52C987.551 2399.48 1044.46 2451.84 1078.42 2506.36C1123.86 2579.29 1154.07 2631.31 1154.07 2631.31C1154.07 2631.31 1138.97 2716.96 1022.08 2753.88L913.945 2612.8L855.219 2407.88Z"
        fill="#384B78" />
    <path opacity="0.5"
        d="M855.219 2407.88C883.005 2398.96 912.17 2395.11 941.32 2396.52C987.551 2399.48 1044.46 2451.84 1078.42 2506.36C1123.86 2579.29 1154.07 2631.31 1154.07 2631.31C1154.07 2631.31 1138.97 2716.96 1022.08 2753.88L913.945 2612.8L855.219 2407.88Z"
        fill="black" />
    <path
        d="M556.932 2742.52L541.824 2981.06L553.978 3427.36C704.258 3478.58 895.43 3433.49 1055.82 3255.27C1055.82 3255.27 1049.23 2662.55 1028.33 2561.34C1003.23 2439.46 943.365 2372.79 822.051 2416.18L703.122 2463.66L580.786 2512.39C580.786 2512.39 556.932 2696.4 556.932 2742.52Z"
        fill="#384B78" />
    <path opacity="0.4"
        d="M556.932 2742.52L541.824 2981.06L553.978 3427.36C704.258 3478.58 895.43 3433.49 1055.82 3255.27C1055.82 3255.27 1049.23 2662.55 1028.33 2561.34C1003.23 2439.46 943.365 2372.79 822.051 2416.18L703.122 2463.66L580.786 2512.39C580.786 2512.39 556.932 2696.4 556.932 2742.52Z"
        fill="black" />
    <path
        d="M713.913 2077.34C713.913 2178.43 784.907 2241.36 872.939 2217.85C960.972 2194.33 1031.97 2093.47 1031.97 1992.37C1031.97 1891.27 956.428 1891.27 868.85 1914.79C781.272 1938.3 713.913 1976.24 713.913 2077.34Z"
        fill="#263238" />
    <path
        d="M688.242 2288.84L661.662 2258.06L672.453 2213.76L649.735 2038.71C640.499 2037.17 631.011 2038.63 622.668 2042.89C614.325 2047.14 607.568 2053.96 603.39 2062.34C565.338 2131.4 654.052 2343.7 661.662 2358.47C664.464 2363.81 668.566 2368.36 673.588 2371.69C678.611 2375.03 684.393 2377.04 690.4 2377.55L688.242 2288.84Z"
        fill="#263238" />
    <path
        d="M685.175 2210.24C676.429 2218.76 663.82 2202.51 652.916 2192.29C642.011 2182.07 606.571 2173.66 588.851 2221.48C571.131 2269.3 604.413 2319.28 632.356 2321.9C680.632 2326.44 687.788 2288.84 687.788 2288.84L689.492 2494.44C770.254 2580.2 956.315 2538.28 848.518 2441.17V2380.17C870.634 2378.25 892.444 2373.71 913.491 2366.65C948.931 2350.75 971.195 2312.58 981.645 2265.33C998.911 2189.68 1005.5 2130.5 990.846 1994.53C974.716 1845.5 820.461 1885.26 736.859 1968.18C653.256 2051.1 685.175 2210.24 685.175 2210.24Z"
        fill="#FFBDA7" />
    <path
        d="M683.584 2224.66C668.818 2220.8 659.162 2197.17 652.915 2192.29C646.667 2187.4 647.69 2174.91 647.463 2168.66C647.999 2153.32 647.619 2137.96 646.327 2122.66C643.167 2106.56 641.418 2090.22 641.102 2073.81C641.102 2039.74 641.897 1992.26 655.868 1960.79C681.653 1902.75 721.864 1888.09 770.367 1872.53C807.625 1861.17 848.404 1862.31 884.98 1848.45C914.899 1835.05 942.294 1816.61 965.969 1793.93C974.943 1786.32 987.438 1778.37 997.32 1784.61C1002 1788.26 1005.22 1793.46 1006.41 1799.27C1011.82 1816.75 1013.49 1835.17 1011.29 1853.34C1015.52 1853.64 1019.76 1852.99 1023.7 1851.41C1027.63 1849.84 1031.16 1847.39 1034.01 1844.25C1035.71 1842.2 1037.53 1839.82 1040.14 1839.82C1042.76 1839.82 1045.6 1844.02 1046.16 1847.54C1048.31 1862.79 1046.95 1878.33 1042.19 1892.98C1021.29 1966.13 948.59 2010.43 874.416 2027.47C832.896 2038.83 789.305 2040.39 747.081 2032.01C742.006 2030.94 736.711 2031.87 732.314 2034.63C728.545 2037.49 725.765 2041.46 724.363 2045.99C716.298 2066.77 724.363 2109.25 722.319 2137.88C719.252 2172.75 713.913 2202.28 700.736 2218.76C698.942 2221.51 696.281 2223.58 693.174 2224.65C690.068 2225.72 686.693 2225.73 683.584 2224.66V2224.66Z"
        fill="#263238" />
    <path
        d="M645.077 2041.67L591.804 2022.81C599.301 2003.16 617.361 1991.46 632.128 1996.69C646.895 2001.91 652.688 2021.9 645.077 2041.67Z"
        fill="#263238" />
    <path
        d="M848.063 2380.17C848.063 2380.17 768.55 2383.01 741.402 2373.35C724.815 2367.57 711.102 2355.6 703.122 2339.96C707.001 2356.48 714.402 2371.98 724.818 2385.39C745.037 2409.81 848.063 2404.25 848.063 2404.25V2380.17Z"
        fill="#F0997A" />
    <path
        d="M829.094 2164.35C829.084 2169.29 827.568 2174.11 824.747 2178.17C821.926 2182.23 817.934 2185.33 813.305 2187.07C804.445 2189.34 797.402 2182.75 797.402 2172.19C797.437 2167.23 798.976 2162.41 801.816 2158.35C804.657 2154.29 808.663 2151.19 813.305 2149.47C822.051 2147.2 829.094 2153.78 829.094 2164.35Z"
        fill="#263238" />
    <path
        d="M803.65 2095.4L769.573 2126.07C767.346 2120.37 766.914 2114.13 768.335 2108.18C769.757 2102.23 772.963 2096.86 777.524 2092.78C779.143 2090.73 781.254 2089.11 783.662 2088.09C786.071 2087.06 788.699 2086.66 791.304 2086.92C793.909 2087.18 796.406 2088.09 798.564 2089.58C800.722 2091.06 802.471 2093.06 803.65 2095.4V2095.4Z"
        fill="#263238" />
    <path
        d="M840.907 2271.58L877.142 2277.6C876.054 2283.33 872.994 2288.5 868.492 2292.22C863.989 2295.93 858.329 2297.95 852.493 2297.93C842.611 2296.57 837.386 2284.53 840.907 2271.58Z"
        fill="#F0997A" />
    <path
        d="M974.489 2065.64L943.593 2046.67C949.84 2035.31 961.881 2029.4 970.4 2035.31C974.569 2039.05 977.269 2044.16 978.019 2049.72C978.768 2055.28 977.517 2060.92 974.489 2065.64V2065.64Z"
        fill="#263238" />
    <path
        d="M967.787 2121.86C967.753 2126.81 966.213 2131.64 963.373 2135.7C960.533 2139.75 956.526 2142.85 951.885 2144.58C943.138 2146.97 936.096 2140.26 936.096 2129.81C936.005 2124.78 937.474 2119.84 940.3 2115.67C943.127 2111.5 947.173 2108.31 951.885 2106.53C960.858 2104.71 967.787 2111.3 967.787 2121.86Z"
        fill="#263238" />
    <path d="M882.595 2122.77L884.412 2233.3L941.207 2203.54L882.595 2122.77Z" fill="#F0997A" />
    <path
        d="M368.826 3203.81C418.806 2670.62 486.733 2540.33 584.648 2526.93C623.041 2555.55 635.195 2678 608.047 2805C608.047 2805 552.615 3092.49 547.731 3195.97C543.414 3286.85 518.311 3398.16 529.443 3469.73C531.487 3482.33 538.076 3519.14 544.891 3527.66C567.609 3555.6 562.043 3568.55 578.968 3590.36C592.599 3607.4 615.203 3617.62 613.045 3624.44C609.751 3632.61 594.871 3643.18 571.244 3632.27C557.503 3624.9 545.797 3614.25 537.167 3601.26C537.167 3601.26 539.666 3635.34 571.244 3687.14C600.891 3736.78 609.637 3788.57 527.057 3779.03C480.372 3773.69 446.068 3760.52 415.853 3640.11C407.447 3606.83 400.632 3546.4 394.043 3502.89C374.619 3377.38 361.897 3277.19 368.826 3203.81Z"
        fill="#FFBDA7" />
    <path
        d="M586.011 2510.68C586.011 2510.68 487.074 2530.11 459.472 2622.11C436.754 2699.81 417.898 2769.78 393.362 2932.9C419.126 2956.46 451.089 2972.16 485.483 2978.16C519.878 2984.16 555.27 2980.2 587.488 2966.75C587.488 2966.75 639.739 2753.99 644.964 2658.35C650.644 2553.62 586.011 2510.68 586.011 2510.68Z"
        fill="#384B78" />
    <path opacity="0.5"
        d="M586.011 2510.68C586.011 2510.68 487.074 2530.11 459.472 2622.11C436.754 2699.81 417.898 2769.78 393.362 2932.9C419.126 2956.46 451.089 2972.16 485.483 2978.16C519.878 2984.16 555.27 2980.2 587.488 2966.75C587.488 2966.75 639.739 2753.99 644.964 2658.35C650.644 2553.62 586.011 2510.68 586.011 2510.68Z"
        fill="black" />
    <path
        d="M1568.57 3181.32L1502.8 3143.72C1499.91 3141.53 1497.62 3138.64 1496.15 3135.32C1494.68 3132 1494.08 3128.37 1494.39 3124.75V2686.64C1495.04 2674.88 1498.98 2663.55 1505.75 2653.92L1571.18 2691.63C1564.66 2701.25 1561 2712.51 1560.61 2724.12V3162.12C1560.1 3165.74 1560.57 3169.43 1561.97 3172.81C1563.37 3176.18 1565.65 3179.12 1568.57 3181.32V3181.32Z"
        fill="#384B78" />
    <path opacity="0.55"
        d="M1568.57 3181.32L1502.8 3143.72C1499.91 3141.53 1497.62 3138.64 1496.15 3135.32C1494.68 3132 1494.08 3128.37 1494.39 3124.75V2686.64C1495.04 2674.88 1498.98 2663.55 1505.75 2653.92L1571.18 2691.63C1564.66 2701.25 1561 2712.51 1560.61 2724.12V3162.12C1560.1 3165.74 1560.57 3169.43 1561.97 3172.81C1563.37 3176.18 1565.65 3179.12 1568.57 3181.32V3181.32Z"
        fill="white" />
    <path
        d="M1589.58 2672.55L2507.05 2142.77C2523.52 2133.22 2536.81 2140.95 2536.81 2159.92V2599.06C2536.26 2609.37 2533.28 2619.42 2528.11 2628.36C2522.94 2637.3 2515.72 2644.9 2507.05 2650.51L1589.58 3179.39C1573.11 3188.82 1559.82 3181.09 1559.82 3162.12V2724.01C1560.36 2713.69 1563.35 2703.65 1568.52 2694.7C1573.69 2685.76 1580.91 2678.17 1589.58 2672.55V2672.55Z"
        fill="#384B78" />
    <path opacity="0.7"
        d="M1589.58 2672.55L2507.05 2142.77C2523.52 2133.22 2536.81 2140.95 2536.81 2159.92V2599.06C2536.26 2609.37 2533.28 2619.42 2528.11 2628.36C2522.94 2637.3 2515.72 2644.9 2507.05 2650.51L1589.58 3179.39C1573.11 3188.82 1559.82 3181.09 1559.82 3162.12V2724.01C1560.36 2713.69 1563.35 2703.65 1568.52 2694.7C1573.69 2685.76 1580.91 2678.17 1589.58 2672.55V2672.55Z"
        fill="white" />
    <path
        d="M2462.29 2103.46L2527.04 2140.38C2523.75 2139.15 2520.2 2138.75 2516.72 2139.21C2513.24 2139.66 2509.92 2140.96 2507.05 2142.99L1589.47 2672.55C1581.71 2677.34 1575.18 2683.88 1570.38 2691.63L1504.96 2653.92C1509.62 2646.24 1516.05 2639.78 1523.7 2635.06L2441.28 2105.28C2445.32 2102.81 2449.94 2101.44 2454.68 2101.3C2457.37 2101.33 2459.99 2102.08 2462.29 2103.46V2103.46Z"
        fill="#384B78" />
    <path opacity="0.85"
        d="M2462.29 2103.46L2527.04 2140.38C2523.75 2139.15 2520.2 2138.75 2516.72 2139.21C2513.24 2139.66 2509.92 2140.96 2507.05 2142.99L1589.47 2672.55C1581.71 2677.34 1575.18 2683.88 1570.38 2691.63L1504.96 2653.92C1509.62 2646.24 1516.05 2639.78 1523.7 2635.06L2441.28 2105.28C2445.32 2102.81 2449.94 2101.44 2454.68 2101.3C2457.37 2101.33 2459.99 2102.08 2462.29 2103.46V2103.46Z"
        fill="white" />
    <path
        d="M1661.26 2712.99L2435.37 2265.44C2443.21 2260.9 2449.57 2264.08 2449.57 2272.6C2449.24 2277.39 2447.78 2282.04 2445.31 2286.17C2442.84 2290.29 2439.44 2293.78 2435.37 2296.34L1661.26 2743.88C1653.42 2748.43 1647.06 2745.25 1647.06 2736.73C1647.41 2731.94 1648.87 2727.29 1651.34 2723.17C1653.8 2719.05 1657.2 2715.56 1661.26 2712.99V2712.99Z"
        fill="#384B78" />
    <path
        d="M1661.26 3025.81L2435.37 2578.16C2443.21 2573.61 2449.57 2576.91 2449.57 2585.43C2449.22 2590.2 2447.75 2594.83 2445.29 2598.93C2442.82 2603.03 2439.42 2606.5 2435.37 2609.05L1661.26 3056.71C1653.42 3061.25 1647.06 3057.96 1647.06 3049.44C1647.41 3044.67 1648.87 3040.04 1651.34 3035.94C1653.81 3031.83 1657.2 3028.36 1661.26 3025.81V3025.81Z"
        fill="#384B78" />
    <path
        d="M1661.26 2869.4L2435.37 2421.52C2443.21 2416.97 2449.57 2420.15 2449.57 2428.67C2449.22 2433.46 2447.75 2438.1 2445.29 2442.23C2442.82 2446.35 2439.43 2449.84 2435.37 2452.41L1661.26 2899.96C1653.42 2904.5 1647.06 2901.32 1647.06 2892.69C1647.46 2887.97 1648.95 2883.41 1651.41 2879.37C1653.88 2875.33 1657.25 2871.92 1661.26 2869.4V2869.4Z"
        fill="#384B78" />
    <path
        d="M1661.26 2947.55L2435.37 2500C2443.21 2495.46 2449.57 2498.64 2449.57 2507.16C2449.24 2511.95 2447.78 2516.6 2445.31 2520.73C2442.84 2524.85 2439.44 2528.34 2435.37 2530.9L1661.26 2978.1C1653.42 2982.65 1647.06 2979.47 1647.06 2970.95C1647.46 2966.22 1648.95 2961.64 1651.41 2957.58C1653.88 2953.52 1657.24 2950.09 1661.26 2947.55V2947.55Z"
        fill="#384B78" />
    <path
        d="M1661.26 2791.25L2435.37 2343.59C2443.21 2339.05 2449.57 2342.34 2449.57 2350.86C2449.22 2355.64 2447.75 2360.26 2445.29 2364.37C2442.82 2368.47 2439.42 2371.94 2435.37 2374.49L1661.26 2822.15C1653.42 2826.69 1647.06 2823.4 1647.06 2814.88C1647.41 2810.1 1648.87 2805.48 1651.34 2801.37C1653.81 2797.27 1657.2 2793.8 1661.26 2791.25V2791.25Z"
        fill="#384B78" />
    <path
        d="M1567.32 2524.88L1504.95 2489.67C1502.04 2487.5 1499.74 2484.61 1498.26 2481.29C1496.79 2477.96 1496.2 2474.32 1496.55 2470.7V1304.7C1497.16 1292.94 1501.1 1281.59 1507.91 1271.98L1568.79 1307.2C1562.6 1316.6 1559.1 1327.52 1558.68 1338.77V2505.68C1558.25 2509.37 1558.82 2513.1 1560.34 2516.48C1561.86 2519.86 1564.27 2522.77 1567.32 2524.88V2524.88Z"
        fill="#263238" />
    <path
        d="M2521.47 753.556C2515.96 753.065 2510.45 754.424 2505.8 757.418L1588.22 1287.2C1580.18 1292.23 1573.45 1299.08 1568.57 1307.19L1507.57 1271.98C1512.31 1264.36 1518.72 1257.91 1526.31 1253.13L2443.89 723.455C2447.87 720.922 2452.46 719.509 2457.18 719.366C2459.88 719.344 2462.54 720.009 2464.9 721.297L2521.47 753.556Z"
        fill="#37474F" />
    <path
        d="M1588.22 1287.2L2505.68 757.42C2522.15 747.992 2535.44 755.603 2535.44 774.686V1942.62C2534.9 1952.94 2531.92 1962.98 2526.75 1971.92C2521.57 1980.87 2514.36 1988.46 2505.68 1994.08L1588.1 2522.84C1571.75 2532.38 1558.34 2524.66 1558.34 2505.69V1338.77C1558.93 1328.44 1561.94 1318.38 1567.13 1309.43C1572.32 1300.47 1579.54 1292.85 1588.22 1287.2V1287.2Z"
        fill="#455A64" />
    <path
        d="M1635.36 1323.33L2458.89 847.838C2473.65 839.318 2485.58 846.247 2485.58 863.286V1911.61C2485.08 1920.87 2482.4 1929.89 2477.76 1937.92C2473.13 1945.95 2466.66 1952.78 2458.89 1957.84L1635.36 2432.87C1620.59 2441.39 1608.66 2434.46 1608.66 2417.43V1369.67C1609.16 1360.39 1611.84 1351.36 1616.48 1343.31C1621.11 1335.26 1627.58 1328.41 1635.36 1323.33V1323.33Z"
        fill="#F0F0F0" />
    <path
        d="M2325.3 2258.51C2203.42 1828.8 2202.06 1758.72 2209.33 1708.06C2319.96 1681.36 2368.35 1757.24 2397.89 1885.14C2412.09 1946.59 2452.98 2180.48 2478.31 2278.28C2501.03 2364.04 2528.52 2456.05 2561.91 2516.82C2564.62 2521.96 2568.52 2526.39 2573.28 2529.73C2578.04 2533.07 2583.53 2535.22 2589.29 2536.01C2620.3 2540.44 2629.5 2557.82 2654.71 2570.77C2674.48 2580.77 2688.79 2578.27 2688.22 2585.2C2686.76 2592.91 2682.99 2599.99 2677.41 2605.5C2671.83 2611.02 2664.71 2614.71 2656.99 2616.1C2644.56 2617.43 2632 2616.63 2619.84 2613.71C2634.79 2633.29 2653.1 2650.06 2673.91 2663.24C2722.53 2694.7 2737.64 2742.75 2653.47 2766.49C2620.41 2775.69 2558.84 2765.24 2485.58 2666.3C2461.18 2630.88 2440.94 2592.77 2425.26 2552.71C2383.58 2447.19 2349.61 2344.39 2325.3 2258.51Z"
        fill="#FFA8A7" />
    <path
        d="M2029.4 1757.47C2029.4 1757.47 1908.77 1800.29 1877.65 1814.94C1957.16 1910.36 1861.97 2170.71 1861.97 2170.71L1912.74 2346.09L2294.41 2212.4C2357.56 2053.37 2369.94 1981.24 2364.38 1937.62C2351.77 1838.8 2292.7 1773.94 2209.33 1708.06L2029.4 1757.47Z"
        fill="#384B78" />
    <path
        d="M2315.99 1651.6L2116.98 1714.08C2086.64 1723.61 2054.48 1725.87 2023.11 1720.68C1991.73 1715.49 1962.02 1702.99 1936.37 1684.19C1910.71 1665.39 1889.84 1640.83 1875.44 1612.47C1861.03 1584.12 1853.5 1552.78 1853.45 1520.97V1478.72C1853.45 1336.05 1953.64 1193.61 2077.22 1160.67L2093.92 1156.24C2217.51 1123.07 2317.69 1211.9 2317.69 1354.56V1394.43C2317.69 1522.11 2315.99 1651.6 2315.99 1651.6Z"
        fill="#37474F" />
    <path
        d="M1930.46 1219.85C1918.2 1207.81 1897.64 1212.35 1884.46 1229.96L1909 1254.26C1903.18 1253.58 1897.3 1254.73 1892.18 1257.56C1883.3 1262.55 1876.13 1270.12 1871.63 1279.26C1867.13 1288.41 1865.5 1298.7 1866.97 1308.79L1930.69 1276.19C1930.36 1274.73 1929.94 1273.28 1929.44 1271.87C1941.48 1254.38 1942.28 1231.55 1930.46 1219.85Z"
        fill="#37474F" />
    <path
        d="M2230.57 1267.44C2253.29 1282.32 2285.09 1309.01 2282.14 1459.07C2279.64 1586.17 2244.09 1626.95 2226.25 1640.81C2208.42 1654.67 2174 1658.3 2140.61 1660.8V1741C2140.61 1741 2198.42 1795.75 2195.47 1831.87C2192.52 1867.99 2140.61 1897.64 2062.23 1849.59C2034.63 1831.19 2011.37 1807.01 1994.07 1778.71L1994.76 1607.19C1994.76 1607.19 1975.1 1634.45 1941.82 1609.69C1927.77 1598.55 1918.39 1582.56 1915.53 1564.86C1912.67 1547.16 1916.54 1529.04 1926.37 1514.04C1930.68 1507.37 1936.36 1501.7 1943.04 1497.4C1949.72 1493.11 1957.25 1490.3 1965.11 1489.17C1969.72 1488.95 1974.32 1489.67 1978.64 1491.29C1982.96 1492.91 1986.9 1495.38 1990.24 1498.57C1993.57 1501.75 1996.23 1505.58 1998.04 1509.83C1999.85 1514.07 2000.78 1518.63 2000.78 1523.24V1532.67C2000.78 1532.67 2025.08 1536.42 2026.67 1488.94C2027.58 1462.59 2059.05 1420.79 2089.83 1394.43C2142.2 1349.34 2208.87 1348.77 2230.57 1267.44Z"
        fill="#FFA8A7" />
    <path
        d="M2145.94 1451.23C2146.15 1455.6 2145 1459.92 2142.66 1463.62C2140.33 1467.32 2136.91 1470.21 2132.88 1471.9C2125.27 1474.4 2118.8 1469.06 2118.46 1460.54C2118.25 1456.16 2119.39 1451.82 2121.72 1448.1C2124.06 1444.38 2127.48 1441.47 2131.52 1439.76C2139.01 1436.92 2145.6 1442.14 2145.94 1451.23Z"
        fill="#263238" />
    <path
        d="M2155.14 1560.16L2195.7 1564.25C2194.69 1570.66 2191.51 1576.53 2186.69 1580.87C2181.87 1585.21 2175.71 1587.77 2169.23 1588.11C2158.1 1586.97 2151.74 1574.48 2155.14 1560.16Z"
        fill="#F28F8F" />
    <path
        d="M2265.21 1382.17L2237.38 1367.29C2242.38 1356.72 2252.83 1351.5 2260.1 1355.93C2264.06 1358.88 2266.78 1363.21 2267.73 1368.06C2268.67 1372.91 2267.78 1377.94 2265.21 1382.17V1382.17Z"
        fill="#263238" />
    <path
        d="M2106.53 1423.4L2134.36 1393.53C2129.25 1385.8 2118.91 1386.03 2111.64 1394.32C2107.84 1398.02 2105.3 1402.81 2104.38 1408.04C2103.47 1413.26 2104.22 1418.63 2106.53 1423.4Z"
        fill="#263238" />
    <path
        d="M2261.92 1427.49C2262.16 1431.88 2261.04 1436.24 2258.7 1439.96C2256.36 1443.68 2252.92 1446.59 2248.86 1448.28C2241.25 1450.77 2234.77 1445.44 2234.43 1436.92C2234.21 1432.53 2235.34 1428.18 2237.68 1424.46C2240.01 1420.74 2243.44 1417.83 2247.49 1416.13C2254.99 1413.18 2261.58 1418.52 2261.92 1427.49Z"
        fill="#263238" />
    <path d="M2195.7 1432.03L2197.85 1527.22L2241.47 1499.96L2195.7 1432.03Z" fill="#F28F8F" />
    <path
        d="M2140.61 1660.46C2105.39 1664.55 2032.92 1660.46 2021.56 1629.91C2025.54 1644.38 2034.56 1656.95 2047.01 1665.35C2068.7 1680.91 2140.61 1685.79 2140.61 1685.79V1660.46Z"
        fill="#F28F8F" />
    <path
        d="M1669.77 2501.71C1707.37 2091.08 1728.84 1859.7 1877.64 1814.95C1899.79 1823.01 1920.35 1871.74 1924.22 1907.07C1930.92 1966.82 1922.85 2069.96 1885.82 2122.89C1885.82 2122.89 1839.14 2368.92 1821.08 2510.57C1808.58 2608.6 1781.66 2749.79 1787.91 2829.3C1790.87 2843.67 1797.17 2857.14 1806.31 2868.61L1831.53 2910.52C1836.49 2919.32 1842.19 2927.68 1848.57 2935.51C1854.36 2942.21 1861.06 2948.01 1867.31 2954.25C1871.96 2958.8 1876.51 2965.61 1872.65 2971.07C1871.15 2972.83 1869.18 2974.13 1866.97 2974.81C1859.57 2977.61 1851.62 2978.68 1843.75 2977.93C1835.87 2977.18 1828.27 2974.64 1821.53 2970.5C1813.13 2965.27 1806.31 2957.66 1797.56 2953.12C1798.29 2967.78 1802.45 2982.06 1809.72 2994.81C1814.72 3005.14 1819.71 3015.59 1825.28 3025.82C1831.28 3036.05 1836.59 3046.68 1841.18 3057.62C1845.9 3068.57 1847.05 3080.74 1844.48 3092.38C1841.59 3101.27 1836.27 3109.17 1829.12 3115.19C1821.97 3121.21 1813.29 3125.11 1804.04 3126.46C1785.46 3128.84 1766.6 3125.14 1750.31 3115.89C1694.31 3086.93 1675.57 3028.77 1668.53 2970.38C1661.69 2921.82 1657.89 2872.89 1657.17 2823.85C1659.32 2694.13 1662.5 2581.68 1669.77 2501.71Z"
        fill="#FFA8A7" />
    <path
        d="M1994.53 1766.9C1970.29 1772.08 1947.2 1781.62 1926.37 1795.07C1926.37 1795.07 1979.99 1898.66 2072 1913.65C2164 1928.65 2170.59 1866.74 2170.59 1866.74C2113 1869.13 2054.84 1844.14 1994.53 1766.9Z"
        fill="#455A64" />
    <path
        d="M2140.61 1725.32V1741C2179.68 1791.89 2191.61 1835.85 2170.03 1866.74C2170.03 1866.74 2234.43 1888.66 2245.79 1841.41C2257.15 1794.16 2175.36 1717.6 2175.36 1717.6C2163.46 1718.46 2151.75 1721.06 2140.61 1725.32V1725.32Z"
        fill="#455A64" />
    <path
        d="M1301.63 492.981L1233.47 532.397C1233.83 529.38 1234.02 526.347 1234.04 523.309V503.658C1234.04 468.445 1209.39 454.247 1178.95 471.74C1165.8 479.787 1154.56 490.602 1146.01 503.431C1141.13 459.131 1106.37 442.774 1064.34 467.082C1040.31 482.695 1020.31 503.769 1005.98 528.584C991.65 553.398 983.388 581.249 981.872 609.865V639.399C981.586 651.134 983.954 662.784 988.801 673.476L932.006 706.19C923.123 712.012 915.724 719.831 910.399 729.022C905.074 738.212 901.971 748.52 901.337 759.123C901.337 778.66 915.081 786.611 932.006 776.843L1301.63 563.634C1310.49 557.798 1317.87 549.974 1323.17 540.785C1328.48 531.595 1331.56 521.294 1332.18 510.701C1332.3 491.163 1318.67 483.326 1301.63 492.981Z"
        fill="#EBEBEB" />
    <path
        d="M851.13 311.919L813.191 326.344V243.537C813.191 177.882 760.826 162.093 704.031 194.921C647.236 227.862 601.004 307.716 601.004 373.371V385.411C592.999 382.904 584.526 382.266 576.236 383.546C567.946 384.826 560.059 387.99 553.183 392.795V392.795C531.612 406.856 513.663 425.809 500.795 448.112C487.926 470.415 480.501 495.439 479.122 521.151V526.604L426.984 556.819C412.775 566.076 400.947 578.553 392.461 593.236C383.975 607.919 379.068 624.396 378.141 641.33C378.141 672.454 400.064 685.062 426.984 669.5L851.13 424.6C865.325 415.336 877.135 402.856 885.602 388.172C894.069 373.488 898.954 357.015 899.86 340.089C899.86 308.738 878.051 296.357 851.13 311.919Z"
        fill="#EBEBEB" />
    <path
        d="M3217.78 2682.77C3201.76 2669.59 3177.12 2666.87 3147.58 2677.89C3088.4 2699.81 3031.83 2768.08 3021.16 2830.21C3015.82 2861.34 3023.09 2885.08 3038.99 2898.37L4124.34 3870.92C4146.38 3891.71 4182.05 3896.82 4225.44 3880.81C4308.13 3850.14 4387.3 3754.83 4402.07 3667.82C4409.91 3622.39 4398.32 3588.31 4373.67 3570.25L3217.78 2682.77Z"
        fill="#384B78" />
    <path opacity="0.15"
        d="M3190.58 2841.89C3239.93 2782.41 3252.07 2711.07 3217.69 2682.55C3183.32 2654.03 3115.44 2679.13 3066.09 2738.61C3016.75 2798.09 3004.61 2869.43 3038.99 2897.95C3073.36 2926.47 3141.23 2901.37 3190.58 2841.89Z"
        fill="black" />
    <path
        d="M2809.08 2447.75C2789.99 2456 2773.13 2468.64 2759.86 2484.65C2746.59 2500.66 2737.3 2519.59 2732.75 2539.87C2730.72 2547.06 2730.64 2554.66 2732.51 2561.88C2734.39 2569.11 2738.16 2575.71 2743.43 2580.99L3074.32 2855.54C3080.47 2859.78 3087.64 2862.3 3095.08 2862.84C3102.53 2863.38 3109.99 2861.92 3116.69 2858.61C3135.78 2850.36 3152.66 2837.71 3165.94 2821.7C3179.23 2805.69 3188.54 2786.78 3193.13 2766.49C3195.17 2759.28 3195.25 2751.65 3193.35 2744.4C3191.45 2737.15 3187.65 2730.54 3182.34 2725.25L2851.57 2450.82C2845.4 2446.57 2838.21 2444.04 2830.74 2443.51C2823.27 2442.97 2815.8 2444.43 2809.08 2447.75V2447.75Z"
        fill="#263238" />
    <path opacity="0.1"
        d="M3161.67 2870.99L4282.12 3849C4264.68 3861.95 4245.58 3872.49 4225.33 3880.35C4181.93 3896.37 4145.81 3891.71 4124.12 3870.36L3039.56 2898.59C3055.69 2911.88 3080.11 2914.38 3109.76 2903.48C3128.77 2895.66 3146.33 2884.68 3161.67 2870.99Z"
        fill="black" />
    <path
        d="M3389.3 1387.84C3389.3 1376.48 3388.39 1365.13 3387.48 1353.77C3386.58 1342.41 3386.12 1331.62 3384.99 1320.71C3384.99 1313.33 3383.62 1306.17 3382.71 1298.79C3380.78 1279.82 3378.06 1260.96 3374.88 1243.13C3373.51 1234.95 3372.04 1226.66 3370.45 1218.48C3368.86 1210.3 3367.27 1203.03 3365.68 1195.76C3360.9 1175.09 3355.79 1154.87 3350 1135.45C3346.93 1126.25 3344.09 1117.05 3341.03 1108.07C3340.42 1106.72 3339.96 1105.32 3339.66 1103.87C3336.37 1094.9 3333.19 1086.26 3329.78 1077.74C3326.37 1069.22 3322.06 1058.21 3317.51 1048.89C3314.33 1041.96 3311.38 1035.26 3307.74 1028.56C3305.69 1023.54 3303.26 1018.68 3300.47 1014.02C3297.66 1008.04 3294.55 1002.2 3291.16 996.526C3290.5 995.186 3289.74 993.896 3288.89 992.664C3286.16 987.666 3282.98 982.554 3280.03 977.556C3277.07 972.558 3275.83 971.195 3273.89 968.015C3259.59 945.369 3243.44 923.941 3225.62 903.95C3222.55 900.542 3219.48 897.135 3216.76 893.841L3209.15 885.889C3206.08 882.595 3202.67 879.528 3199.27 876.12C3190.1 866.838 3180.39 858.114 3170.19 849.995C3165.42 845.906 3160.42 842.043 3155.31 838.636C3150.19 835.228 3145.31 831.139 3139.97 827.277C3131.96 821.39 3123.62 815.966 3114.98 811.033L3108.28 806.831L3106.92 805.695L2950.28 713.687L2948 712.324C2871.63 669.784 2785.4 648.118 2697.99 649.508C2567.93 649.508 2421.29 692.104 2265.78 781.613C1731.91 1090.01 1299.02 1839.82 1299.02 2456.5C1299.02 2764.1 1406.59 2980.38 1580.49 3081.25L1582.08 3082.04L1738.95 3173.82L1740.77 3174.84L1743.04 3176.09L1745.54 3177.46C1753.04 3181.77 1760.53 3185.75 1768.26 3189.5C1775.98 3193.25 1787.57 3198.47 1797.34 3202.22C1806.03 3206.03 1814.95 3209.33 1824.03 3212.1C1828.64 3213.76 1833.35 3215.16 1838.12 3216.3C1843.14 3218.21 1848.31 3219.73 1853.56 3220.85C1858.72 3222.4 1863.95 3223.69 1869.24 3224.71C1872.96 3225.8 1876.76 3226.64 1880.6 3227.21C1887.3 3228.57 1894.57 3230.05 1901.61 3230.96C1903.16 3231.44 1904.76 3231.71 1906.38 3231.75C1914.68 3233.12 1923.19 3234.36 1931.49 3235.16C2075.52 3250.27 2242.95 3209.6 2422.2 3106.24C2956.07 2797.95 3389.42 2047.8 3389.42 1431.35C3390.1 1417.04 3389.76 1402.5 3389.3 1387.84ZM1627.29 2842.93C1604.93 2760.45 1593.93 2675.31 1594.58 2589.85C1594.58 2005.55 2022.13 1264.83 2528.18 972.672C2602.07 928.916 2681.81 895.909 2765.01 874.644C2804.9 864.779 2845.81 859.633 2886.89 859.309C2907.59 859.214 2928.25 860.81 2948.69 864.08H2950.39C3053.98 986.644 3069.2 1182.93 3069.2 1287.88C3069.2 1872.19 2642.11 2612.91 2135.83 2904.95C2007.02 2979.24 1883.21 3018.54 1777 3018.54C1754.96 3018.69 1733 3015.91 1711.69 3010.25C1672.41 2960.84 1643.68 2903.89 1627.29 2842.93V2842.93Z"
        fill="#384B78" />
    <path opacity="0.15"
        d="M3251.06 1390.46C3251.06 1700.9 3130.43 2055.3 2941.42 2363.36C2932.56 2378.01 2923.47 2392.32 2914.15 2406.75C2906.32 2419.13 2898.25 2431.51 2889.85 2443.78C2872.13 2470.13 2854.18 2496.14 2835.32 2521.59C2826.46 2533.74 2817.49 2545.78 2808.29 2557.6C2799.09 2569.41 2788.3 2583.61 2778.07 2596.44C2758.65 2620.98 2738.54 2644.83 2718.1 2668.12C2704.7 2683.68 2690.95 2698.9 2677.09 2713.56C2565.77 2833.28 2444.12 2934.37 2317.58 3007.3C2293.39 3021.27 2269.53 3033.99 2245.79 3045.47C2168.83 3084.56 2085.44 3109.46 1999.64 3118.96C1985.78 3120.32 1972.15 3120.89 1958.98 3120.89C1951.93 3120.89 1945.23 3120.89 1938.53 3120.32H1937.73C1924.87 3119.77 1912.05 3118.45 1899.34 3116.35C1893.09 3115.44 1886.96 3114.42 1881.05 3113.05C1875.12 3111.91 1869.24 3110.47 1863.45 3108.74C1803.51 3093.51 1750.24 3059.03 1711.8 3010.59C1733.07 3016.25 1755 3019.04 1777 3018.89C1883.21 3018.89 2007.02 2979.7 2135.84 2905.3C2642.11 2613.26 3069.21 1872.53 3069.21 1288.23C3069.21 1183.27 3053.98 986.986 2950.39 864.422H2948.69C3080.68 885.55 3155.76 975.286 3198.02 1078.99C3210 1108.48 3219.65 1138.87 3226.87 1169.87C3226.87 1171.57 3227.66 1173.27 3228 1174.98C3229.37 1180.54 3230.73 1186.34 3231.75 1191.79C3232.78 1197.24 3233.91 1203.15 3234.93 1208.15C3235.27 1209.53 3235.54 1210.93 3235.73 1212.35C3236.86 1218.26 3237.89 1224.05 3238.8 1229.73C3242.09 1251.42 3244.82 1272.55 3246.63 1292.77C3246.63 1298.68 3247.66 1304.13 3248 1309.81C3248.34 1315.49 3248.68 1318.33 3248.91 1322.42C3248.91 1324.12 3248.91 1325.94 3248.91 1327.64C3248.91 1332.19 3249.47 1336.62 3249.7 1341.05C3249.7 1342.3 3249.7 1343.43 3249.7 1344.79C3249.7 1350.36 3249.7 1356.15 3250.27 1361.27C3250.95 1371.03 3251.06 1381.03 3251.06 1390.46Z"
        fill="black" />
    <path opacity="0.1"
        d="M1725.55 3166.66L1580.38 3081.36C1406.47 2979.7 1298.9 2763.31 1298.9 2456.61C1298.9 2181.5 1385.12 1880.14 1527.79 1603.44L1693.06 1698.51C1550.28 1975.22 1455.66 2273.51 1455.66 2548.51C1455.66 2849.18 1558 3062.5 1725.55 3166.66Z"
        fill="black" />
    <path opacity="0.4"
        d="M3108.39 806.83L3107.03 805.694L2950.5 713.686H2949.94L2947.78 712.323C2871.47 669.837 2785.32 648.173 2697.99 649.507C2568.05 649.507 2421.29 691.99 2265.78 781.613C1970.45 951.998 1704.99 1258.69 1527.45 1603.55L1691.92 1700.33L1688.4 1707.15C1866.17 1366.37 2129.81 1058.2 2422.54 873.734C2687.54 706.757 2939.03 704.485 3114.64 811.26L3108.39 806.83Z"
        fill="white" />
    <path opacity="0.3"
        d="M3166.89 1340.93C3166.89 1925.24 2739.34 2665.96 2233.3 2958.11C2159.41 3001.87 2079.66 3034.88 1996.46 3056.14C1956.57 3066.01 1915.67 3071.16 1874.58 3071.48C1832.37 3072.01 1790.41 3064.85 1750.76 3050.35C1687.95 2997.64 1650.01 2921.31 1627.29 2842.93C1604.93 2760.45 1593.93 2675.31 1594.58 2589.85C1594.58 2005.55 2022.13 1264.83 2528.18 972.671C2602.07 928.916 2681.81 895.908 2765.01 874.643C2804.9 864.779 2845.81 859.632 2886.89 859.308C2929.09 858.783 2971.04 865.902 3010.71 880.323C3073.63 933.028 3111.57 1009.47 3134.29 1087.85C3156.56 1170.35 3167.53 1255.48 3166.89 1340.93Z"
        fill="white" />
    <path
        d="M1525.52 3096.69L1433.96 3044.33C1429.67 3041.13 1426.27 3036.88 1424.1 3031.98C1421.94 3027.09 1421.07 3021.72 1421.58 3016.39V1304.24C1422.36 1287 1428.03 1270.33 1437.94 1256.19L1527.33 1307.88C1518.29 1321.7 1513.19 1337.72 1512.57 1354.22V3068.98C1512.07 3074.33 1513.01 3079.72 1515.29 3084.59C1517.57 3089.46 1521.09 3093.64 1525.52 3096.69Z"
        fill="#263238" />
    <path
        d="M2927.22 494.571C2919.23 493.94 2911.25 495.934 2904.5 500.25L1556.18 1278.57C1544.41 1285.95 1534.53 1295.99 1527.33 1307.88L1437.94 1256.19C1444.84 1244.96 1454.25 1235.47 1465.43 1228.48L2813.29 450.384C2819.14 446.659 2825.89 444.579 2832.82 444.364C2836.79 444.333 2840.7 445.31 2844.18 447.204L2927.22 494.571Z"
        fill="#37474F" />
    <path
        d="M1556.3 1278.46L2904.16 500.364C2928.24 486.393 2947.89 497.638 2947.89 525.581V2240.79C2947.05 2255.95 2942.66 2270.7 2935.06 2283.84C2927.46 2296.98 2916.88 2308.15 2904.16 2316.44L1556.3 3093.74C1532.1 3107.6 1512.57 3096.35 1512.57 3068.41V1353.77C1513.45 1338.67 1517.86 1323.98 1525.46 1310.9C1533.05 1297.82 1543.62 1286.71 1556.3 1278.46V1278.46Z"
        fill="#455A64" />
    <path
        d="M1625.47 1331.62L2835.1 633.15C2856.68 620.655 2874.28 630.765 2874.28 655.868V2195.7C2873.59 2209.34 2869.67 2222.63 2862.86 2234.47C2856.05 2246.32 2846.54 2256.38 2835.1 2263.85L1625.36 2961.07C1603.67 2973.56 1586.06 2963.45 1586.06 2938.35V1399.2C1586.89 1385.64 1590.88 1372.46 1597.73 1360.72C1604.57 1348.98 1614.08 1339.02 1625.47 1331.62V1331.62Z"
        fill="#F0F0F0" />
    <path
        d="M2638.92 2705.49C2459.91 2074.27 2457.98 1970.9 2468.54 1896.95C2631.09 1857.76 2701.85 1969.08 2745.47 2157.07C2766.49 2247.95 2826.46 2591.22 2863.72 2734.57C2896.43 2860.54 2937.44 2995.82 2986.4 3085.79C2990.4 3093.31 2996.13 3099.78 3003.12 3104.66C3010.11 3109.54 3018.16 3112.68 3026.61 3113.84C3072.04 3120.32 3085.67 3145.99 3122.82 3164.85C3151.9 3179.73 3173.37 3176.21 3172 3186.2C3169.87 3197.55 3164.32 3207.99 3156.1 3216.1C3147.88 3224.22 3137.38 3229.64 3126 3231.64C3110.44 3234.36 3098.4 3231.64 3071.59 3228C3093.54 3256.85 3120.47 3281.55 3151.1 3300.93C3222.44 3347.16 3244.7 3418.27 3121 3452.57C3072.5 3465.97 2981.97 3450.64 2874.51 3305.47C2838.68 3253.47 2808.96 3197.52 2785.91 3138.72C2724.57 2982.53 2674.82 2831.57 2638.92 2705.49Z"
        fill="#FFA8A7" />
    <path
        d="M2204.44 1969.31C2204.44 1969.31 2027.24 2032.24 1981.35 2053.82C2097.44 2193.88 1958.63 2576.34 1958.63 2576.34L2033.26 2834.07C1952.95 2974.24 2582.47 2714.01 2593.94 2637.56C2686.63 2403.22 2704.69 2298.04 2696.17 2233.98C2677.77 2088.81 2590.99 1993.51 2468.99 1896.73L2204.44 1969.31Z"
        fill="#384B78" />
    <path
        d="M2033.04 2834.07C2184.34 2830.1 2525.45 2699.47 2593.72 2637.56C2686.41 2403.22 2704.47 2298.04 2695.95 2233.97"
        fill="#384B78" />
    <path
        d="M2625.29 1813.69L2333.03 1905.47C2288.43 1919.49 2241.17 1922.8 2195.05 1915.16C2148.94 1907.52 2105.27 1889.13 2067.58 1861.48C2029.89 1833.84 1999.24 1797.71 1978.1 1756.01C1956.96 1714.32 1945.94 1668.24 1945.91 1621.5V1560.5C1945.91 1350.93 2093.01 1141.58 2274.53 1092.96L2299.06 1086.37C2480.81 1037.64 2627.79 1168.16 2627.79 1377.85V1436.35C2627.79 1623.54 2625.29 1813.69 2625.29 1813.69Z"
        fill="#37474F" />
    <path
        d="M2058.93 1179.52C2041.1 1161.91 2010.77 1168.16 1991.35 1194.4L2027.47 1230.07C2018.91 1229.15 2010.28 1230.86 2002.71 1234.95C1989.64 1242.28 1979.11 1253.4 1972.52 1266.85C1965.92 1280.31 1963.58 1295.44 1965.79 1310.26L2059.39 1262.44C2058.9 1260.24 2058.25 1258.07 2057.46 1255.96C2075.29 1230.29 2076.31 1196.67 2058.93 1179.52Z"
        fill="#37474F" />
    <path
        d="M2499.78 1249.6C2533.85 1271.3 2579.97 1310.49 2575.54 1530.97C2571.91 1717.71 2519.66 1777.68 2493.53 1797.9C2467.4 1818.12 2416.74 1823.57 2367.67 1827.32V1945.12C2367.67 1945.12 2452.52 2025.65 2448.32 2077.9C2444.12 2130.15 2367.67 2174.45 2252.61 2103.91C2212.21 2076.84 2178.15 2041.34 2152.76 1999.87L2153.78 1747.81C2153.78 1747.81 2124.93 1788.02 2075.97 1751.67C2055.33 1735.29 2041.55 1711.78 2037.35 1685.76C2033.14 1659.75 2038.82 1633.1 2053.25 1611.05C2059.55 1601.25 2067.88 1592.92 2077.68 1586.63C2087.48 1580.34 2098.52 1576.23 2110.05 1574.58C2116.85 1574.17 2123.67 1575.18 2130.07 1577.54C2136.46 1579.9 2142.3 1583.56 2147.21 1588.28C2152.12 1593.01 2156 1598.71 2158.6 1605.01C2161.19 1611.32 2162.45 1618.09 2162.3 1624.91V1638.76C2162.3 1638.76 2198.08 1644.33 2200.47 1574.58C2201.83 1535.85 2248.06 1474.63 2293.27 1435.78C2370.28 1369.78 2467.97 1368.99 2499.78 1249.6Z"
        fill="#FFA8A7" />
    <path
        d="M2375.51 1519.38C2375.83 1525.83 2374.16 1532.22 2370.73 1537.68C2367.29 1543.15 2362.26 1547.43 2356.31 1549.94C2344.95 1553.57 2335.64 1545.73 2335.07 1532.44C2334.79 1526.02 2336.48 1519.66 2339.91 1514.22C2343.34 1508.78 2348.35 1504.52 2354.27 1502C2365.4 1498.37 2374.94 1506.2 2375.51 1519.38Z"
        fill="#263238" />
    <path
        d="M2389.03 1679.54L2448.55 1685.56C2443.55 1706.58 2425.83 1722.25 2409.81 1720.55C2393.8 1718.84 2384.03 1700.56 2389.03 1679.54Z"
        fill="#F28F8F" />
    <path
        d="M2551.12 1418.06L2510.23 1396.25C2517.72 1380.69 2532.95 1373.53 2544.3 1379.1C2555.66 1384.66 2558.16 1402.5 2551.12 1418.06Z"
        fill="#263238" />
    <path
        d="M2317.58 1478.72L2358.47 1434.98C2350.97 1423.62 2335.75 1423.62 2324.39 1436.01C2318.93 1441.51 2315.33 1448.6 2314.1 1456.26C2312.88 1463.93 2314.1 1471.78 2317.58 1478.72V1478.72Z"
        fill="#263238" />
    <path
        d="M2545.9 1484.62C2546.22 1491.07 2544.55 1497.46 2541.11 1502.93C2537.68 1508.39 2532.65 1512.67 2526.7 1515.18C2515.34 1518.7 2506.02 1510.98 2505.46 1497.69C2505.18 1491.26 2506.86 1484.9 2510.29 1479.46C2513.72 1474.02 2518.73 1469.76 2524.65 1467.24C2535.79 1463.61 2545.33 1471.45 2545.9 1484.62Z"
        fill="#263238" />
    <path d="M2448.55 1491.32L2451.84 1631.15L2515.91 1591.05L2448.55 1491.32Z" fill="#F28F8F" />
    <path
        d="M2367.67 1827.32C2315.87 1833.34 2209.44 1826.53 2192.86 1782.46C2198.72 1803.7 2211.97 1822.14 2230.23 1834.48C2262.03 1857.2 2367.67 1864.58 2367.67 1864.58V1827.32Z"
        fill="#F28F8F" />
    <path
        d="M1676.48 3062.61C1731.79 2459.34 1763.26 2119.82 1981.81 2053.82C2014.41 2065.18 2044.62 2137.65 2049.96 2189.11C2059.73 2276.8 2047.92 2428.44 1993.17 2506.48C1993.17 2506.48 1925.01 2867.92 1898.09 3075.9C1879.69 3219.94 1840.16 3427.47 1849.36 3544.24C1851.18 3566.27 1865.26 3583.43 1876.39 3601.94L1913.43 3663.39C1920.74 3676.35 1929.13 3688.66 1938.53 3700.2C1946.93 3710.08 1956.82 3718.6 1966.02 3727.68C1972.83 3734.39 1979.53 3744.84 1973.86 3752.45C1971.68 3755.03 1968.8 3756.92 1965.56 3757.9C1954.63 3762.09 1942.87 3763.7 1931.21 3762.62C1919.55 3761.53 1908.3 3757.78 1898.32 3751.65C1885.94 3743.93 1875.6 3732.68 1862.99 3726.09C1864.06 3747.6 1870.21 3768.54 1880.94 3787.21C1888.21 3802.54 1895.48 3817.88 1903.66 3832.64C1912.67 3847.54 1920.68 3863.02 1927.62 3878.99C1934.53 3895.14 1936.24 3913.05 1932.51 3930.22C1928.17 3943.21 1920.31 3954.74 1909.8 3963.52C1899.29 3972.31 1886.54 3978 1872.99 3979.97C1845.67 3983.38 1817.98 3977.88 1794.04 3964.29C1711.92 3921.81 1684.43 3836.39 1673.98 3750.63C1664.13 3679.29 1658.78 3607.39 1657.96 3535.38C1660.69 3345.57 1665.12 3179.95 1676.48 3062.61Z"
        fill="#FFA8A7" />
    <path
        d="M2152.76 1983.17C2116.99 1990.74 2082.89 2004.75 2052.12 2024.51C2052.12 2024.51 2130.95 2176.73 2266.12 2198.76C2401.3 2220.8 2410.84 2129.81 2410.84 2129.81C2327.12 2133.33 2241.59 2096.76 2152.76 1983.17Z"
        fill="#455A64" />
    <path
        d="M2367.67 1921.72V1944.43C2425.03 2019.18 2442.64 2083.7 2410.84 2129.13C2410.84 2129.13 2505.57 2161.28 2522.15 2091.99C2538.74 2022.7 2418.79 1910.24 2418.79 1910.24C2401.28 1911.55 2384.06 1915.41 2367.67 1921.72Z"
        fill="#455A64" />
    <path
        d="M3932.26 2466.95C4010.98 2458.2 4041.19 2481.26 4070.5 2546.46C4098.44 2608.71 4184.09 2796.36 4179.77 2840.09C4175.46 2883.83 3996.44 3070 3996.44 3070L3945.44 3007.98L4056.07 2821.92L3968.04 2634.15L3932.26 2466.95Z"
        fill="#FFA8A7" />
    <path d="M3774.14 2405.84L3788.91 2560.32L3926.92 2551.69L3915.9 2380.4L3774.14 2405.84Z" fill="#FFA8A7" />
    <path
        d="M3597.28 2108.92C3596.1 2101.66 3596.1 2094.25 3597.28 2086.99C3599.02 2077.6 3602.77 2068.7 3608.28 2060.89C3613.79 2053.09 3620.93 2046.58 3629.2 2041.81C3637.47 2037.03 3646.68 2034.11 3656.2 2033.25C3665.71 2032.38 3675.29 2033.59 3684.29 2036.79C3681.63 2022.6 3683.79 2007.93 3690.44 1995.13C3697.09 1982.32 3707.85 1972.11 3720.98 1966.13C3731.19 1962.26 3742.08 1960.49 3752.99 1960.92C3763.9 1961.34 3774.61 1963.97 3784.48 1968.63C3796.34 1972.79 3806.19 1981.27 3812.08 1992.37C3819.07 1980.67 3829.34 1971.27 3841.61 1965.35C3853.89 1959.42 3867.63 1957.23 3881.14 1959.05C3894.65 1960.86 3907.33 1966.6 3917.61 1975.55C3927.89 1984.51 3935.31 1996.28 3938.96 2009.41C3959.98 2004.75 3989.62 2014.07 3999.05 2034.97C4009.73 2058.71 3996.67 2088.13 4001.55 2113.01C4004.73 2129.14 4011.66 2144.24 4014.61 2160.6C4017.63 2178.82 4019.34 2197.23 4019.73 2215.69C4022.79 2291.91 3845.71 2341.44 3849.34 2393.8L3755.17 2278.96C3755.17 2274.19 3741.77 2262.26 3738.82 2258.29C3733.14 2250.68 3728.14 2242.61 3722.91 2234.66C3706.69 2211.45 3684.14 2193.39 3657.94 2182.64C3639.44 2174.12 3623.41 2161.02 3611.37 2144.58C3604.03 2133.92 3599.22 2121.72 3597.28 2108.92V2108.92Z"
        fill="#263238" />
    <path
        d="M3671.69 2236.36C3671.69 2236.36 3641.13 2281.8 3645.11 2286.57C3652.25 2291.26 3660.18 2294.64 3668.51 2296.57L3671.69 2236.36Z"
        fill="#F28F8F" />
    <path
        d="M3765.06 2092.11C3735.41 2107.21 3684.07 2135.04 3670.78 2242.73C3657.26 2353.14 3682.14 2391.53 3697.58 2405.95C3707.92 2415.72 3761.31 2419.24 3789.14 2410.84C3823.9 2400.16 3899.43 2363.59 3934.76 2306.56C3976.33 2239.43 3984.97 2150.04 3936.92 2115.05C3869.33 2066.09 3790.27 2079.72 3765.06 2092.11Z"
        fill="#FFA8A7" />
    <path
        d="M3700.42 2408.34C3712.92 2415.16 3748.47 2418 3774.94 2414.13L3774.03 2394.37C3762.67 2399.25 3750.88 2403.05 3738.82 2405.73C3726.22 2408.5 3713.28 2409.39 3700.42 2408.34V2408.34Z"
        fill="#F28F8F" />
    <path
        d="M3752.11 2089.15C3739.49 2093.76 3727.77 2100.52 3717.46 2109.14C3712.3 2113.43 3708.12 2118.78 3705.2 2124.82C3702.95 2130.44 3702.1 2136.52 3702.7 2142.54C3703.58 2150.83 3706.61 2158.74 3711.49 2165.49C3716.37 2172.25 3722.93 2177.61 3730.53 2181.05C3726.5 2186.48 3723.73 2192.75 3722.43 2199.39C3721.14 2206.04 3721.34 2212.89 3723.03 2219.44C3728.46 2234.7 3737.87 2248.23 3750.29 2258.63C3750.92 2259.35 3751.69 2259.93 3752.56 2260.33C3753.43 2260.48 3754.33 2260.42 3755.18 2260.16C3756.02 2259.9 3756.8 2259.46 3757.45 2258.86C3776.08 2246.36 3787.66 2224.78 3814.24 2233.52C3848.89 2244.88 3847.18 2287.59 3820.03 2314.17C3810.35 2323.97 3797.52 2330.05 3783.8 2331.33C3776.83 2331.49 3770.05 2329.11 3764.72 2324.62C3764.72 2324.62 3765.74 2380.28 3814.13 2402.43C3847.87 2412.26 3883.64 2412.69 3917.61 2403.68C3935.9 2380.4 3966.57 2350.75 3991.78 2324.17C4074.82 2236.82 4079.59 2109.94 3957.02 2069.84C3952.82 2068.48 3948.62 2067.23 3944.3 2066.09C3904.89 2055.81 3863.61 2054.91 3823.78 2063.48C3804.16 2067.71 3785.1 2074.23 3766.99 2082.9L3752.11 2089.15Z"
        fill="#263238" />
    <path
        d="M3748.13 2297.59C3744.92 2296.51 3741.95 2294.79 3739.41 2292.54C3736.87 2290.29 3734.81 2287.55 3733.34 2284.49C3731.88 2281.43 3731.05 2278.11 3730.9 2274.72C3730.75 2271.33 3731.28 2267.94 3732.46 2264.76C3734.86 2258.3 3739.72 2253.05 3745.97 2250.16C3752.23 2247.27 3759.37 2246.96 3765.85 2249.31L3748.13 2297.59Z"
        fill="#263238" />
    <path
        d="M3761.76 4416.05C3766.72 4431.19 3770.89 4446.59 3774.26 4462.16C3777.78 4479.32 3782.78 4507.6 3776.76 4520.78C3770.74 4533.95 3747.34 4542.02 3711.1 4541.68C3687.7 4541.68 3651.13 4557.47 3626.02 4571.44C3600.92 4585.41 3546.51 4591.66 3519.02 4588.36C3486.76 4584.61 3453.37 4565.64 3448.14 4552.58C3442.92 4539.52 3438.6 4520.89 3525.84 4492.95C3526.63 4492.95 3631.48 4458.87 3668.28 4417.98L3761.76 4416.05Z"
        fill="#263238" />
    <path
        d="M3761.76 4418.43L3745.06 4416.39L3668.28 4417.98C3631.47 4458.53 3526.63 4492.72 3525.84 4492.95L3511.86 4497.6C3496.76 4509.87 3509.59 4530.66 3545.94 4533.84C3582.29 4537.02 3694.18 4499.76 3719.05 4487.38C3732.08 4481.25 3743.05 4471.48 3750.63 4459.24C3758.21 4447 3762.08 4432.82 3761.76 4418.43V4418.43Z"
        fill="#FFA8A7" />
    <path
        d="M3761.76 4385.49C3761.76 4385.49 3761.76 4406.5 3761.76 4418.43C3761.76 4430.36 3747.68 4448.3 3710.99 4447.05C3685.2 4446.15 3667.26 4439.22 3668.28 4417.98V4387.42L3761.76 4385.49Z"
        fill="#FFA8A7" />
    <path
        d="M4008.25 4278.03C4014.84 4280.76 4016.2 4293.48 4016.55 4318.81C4016.55 4337.9 4019.95 4371.41 3997.35 4377.43C3974.74 4383.45 3942.14 4379.24 3928.17 4360.84C3910.91 4338.12 3899.32 4317.68 3874.56 4289.62C3852.98 4265.2 3829.12 4242.37 3821.51 4208.63C3814.24 4178.3 3821.51 4165.35 3842.18 4157.17C3862.86 4149 3881.83 4155.7 3910.34 4179.89C3918.4 4185.28 3927.01 4189.81 3936.01 4193.41C3955.21 4199.09 4001.66 4275.31 4008.25 4278.03Z"
        fill="#263238" />
    <path
        d="M4008.82 4254.63L4008.03 4285.64C4008.03 4285.64 3987.24 4326.31 3929.54 4285.64C3928.29 4282.69 3923.17 4222.6 3923.17 4222.6L4008.82 4254.63Z"
        fill="#FFA8A7" />
    <path
        d="M3936.24 4193.52C3927.23 4189.92 3918.63 4185.39 3910.57 4180.01V4180.01C3887.85 4172.51 3838.32 4181.14 3860.47 4214.88C3878.78 4242.71 3902.21 4266.81 3929.54 4285.87C3955.66 4298.71 3964.86 4282.81 3964.86 4282.81L3955.55 4209.99C3950.45 4203.1 3943.85 4197.47 3936.24 4193.52V4193.52Z"
        fill="#FFA8A7" />
    <path
        d="M4050.51 3825.26C4045.15 3770.66 4033.72 3716.83 4016.43 3664.76C4016.43 3664.76 4035.97 3527.77 4051.3 3396.23C4087.43 3087.72 4063.34 3082.84 4019.73 2975.95C4019.73 2975.95 3624.21 2925.06 3607.73 3089.54C3587.06 3294 3596.38 3691.57 3599.9 3764.26C3603.42 3836.96 3609.21 3869.79 3630.79 4022C3647.26 4137.86 3662.83 4391.06 3662.83 4391.06C3714.62 4420.93 3765.06 4385.94 3765.06 4385.94C3765.06 4385.94 3814.58 4074.48 3813.45 3990.65C3812.64 3928.66 3803.82 3867.04 3787.21 3807.32C3787.21 3807.32 3821.28 3473.47 3829.35 3420.43C3829.35 3420.43 3838.89 3526.86 3842.41 3599.56C3845.93 3672.26 3865.13 3742 3882.96 3877.29C3897.96 3994.63 3922.95 4239.53 3922.95 4239.53C3974.86 4269.4 4011.09 4255.88 4011.09 4255.88C4011.09 4255.88 4062.44 3927.04 4050.51 3825.26Z"
        fill="#384B78" />
    <g opacity="0.4">
        <path
            d="M4050.51 3825.26C4045.15 3770.66 4033.72 3716.83 4016.43 3664.76C4016.43 3664.76 4035.97 3527.77 4051.3 3396.23C4087.43 3087.72 4063.34 3082.84 4019.73 2975.95C4019.73 2975.95 3624.2 2925.06 3607.73 3089.54C3587.06 3294 3596.38 3691.57 3599.9 3764.26C3603.42 3836.96 3609.21 3869.79 3630.79 4022C3647.26 4137.86 3662.83 4391.06 3662.83 4391.06C3714.62 4420.93 3765.06 4385.94 3765.06 4385.94C3765.06 4385.94 3814.58 4074.48 3813.45 3990.65C3812.64 3928.66 3803.82 3867.04 3787.21 3807.32C3787.21 3807.32 3821.28 3473.47 3829.35 3420.43C3829.35 3420.43 3838.89 3526.86 3842.41 3599.56C3845.93 3672.26 3865.13 3742 3882.96 3877.29C3897.96 3994.63 3922.95 4239.53 3922.95 4239.53C3974.86 4269.4 4011.09 4255.88 4011.09 4255.88C4011.09 4255.88 4062.44 3927.04 4050.51 3825.26Z"
            fill="black" />
    </g>
    <path opacity="0.15"
        d="M3829.35 3419.86L3848.43 3275.6C3904.17 3275.5 3958.26 3256.65 4002.01 3222.1C4002.01 3222.1 3976.11 3274.81 3871.04 3297.87L3850.48 3446.33L3843.09 3609.9C3839.61 3545.98 3835.03 3482.64 3829.35 3419.86Z"
        fill="black" />
    <path
        d="M4033.58 2531.24C4020.18 2491.49 3992.8 2468.09 3932.26 2467.4H3921.58C3917.27 2490.12 3846.27 2509.89 3781.87 2487.17C3773.01 2488.76 3742.34 2492.17 3728.25 2494.1L3697.47 2498.53C3650.67 2513.86 3630 2595.31 3625.45 2724.23C3620.91 2853.16 3601.71 3129.07 3601.71 3129.07C3601.71 3129.07 3702.47 3183.14 3861.38 3162.24C4003.71 3143.49 4066.87 3060 4061.98 3070.45C4040.44 2999.37 4013.24 2930.13 3980.65 2863.38C4055.62 2679.7 4053.58 2590.42 4033.58 2531.24Z"
        fill="#455A64" />
    <path
        d="M3782.66 3167.24C3808.98 3167.55 3835.29 3166 3861.38 3162.58C3991.21 3145.54 4056.42 3074.43 4061.87 3070.12C4040.6 2999.17 4013.43 2930.13 3980.65 2863.72C4018.59 2770.69 4036.76 2701.97 4042.9 2649.04C4036.76 2687.66 3979.74 2837.14 3905.11 2881.9C3905.11 2881.9 3947.14 2888.48 3983.15 2937.9C4019.16 2987.31 3989.62 3156.67 3782.66 3167.24Z"
        fill="#37474F" />
    <path
        d="M3728.25 2494.44C3666.23 2502.28 3617.16 2515.23 3590.01 2573.96C3544.58 2674.26 3494.49 2756.61 3458.36 2795.34C3419.74 2836.69 3261.4 2908.93 3225.73 2903.6C3190.06 2898.26 3154.51 2856.8 3136.11 2867.36C3117.71 2877.92 3151.78 2917.79 3149.51 2926.77C3147.24 2935.74 3082.61 2930.97 3052.05 2909.39C3021.5 2887.81 3010.14 2932.11 3049.67 2978.68C3089.2 3025.25 3163.26 3028.66 3244.25 3012.76C3325.24 2996.85 3477.33 2954.03 3539.58 2903.03C3614.66 2841.23 3640.22 2794.44 3672.14 2739C3787.43 2619.96 3728.25 2494.44 3728.25 2494.44Z"
        fill="#FFA8A7" />
</svg>