<svg width="5833" height="6559" viewBox="0 0 5833 6559" fill="none" xmlns="http://www.w3.org/2000/svg">
<path d="M2916.32 6558.01C4526.94 6558.01 5832.6 5804.2 5832.6 4874.32C5832.6 3944.44 4526.94 3190.63 2916.32 3190.63C1305.7 3190.63 0.0432129 3944.44 0.0432129 4874.32C0.0432129 5804.2 1305.7 6558.01 2916.32 6558.01Z" fill="#F5F5F5"/>
<path d="M3655.79 5945.76L4380.96 5527C4468.61 5476.46 4468.61 5394.3 4380.96 5343.76L3159.2 4638.37C3071.55 4587.69 2929.32 4587.69 2841.52 4638.37L2116.35 5057.13C2028.56 5107.81 2028.56 5189.83 2116.35 5240.52L3337.96 5945.9C3426.05 5996.44 3567.99 5996.44 3655.79 5945.76Z" fill="#E0E0E0"/>
<path d="M2050.65 5083.55C2467.9 5083.55 2806.14 4888.25 2806.14 4647.33C2806.14 4406.4 2467.9 4211.1 2050.65 4211.1C1633.4 4211.1 1295.16 4406.4 1295.16 4647.33C1295.16 4888.25 1633.4 5083.55 2050.65 5083.55Z" fill="#E0E0E0"/>
<path d="M2338.15 1504.63C2360.85 1500.12 2384.25 1500.45 2406.82 1505.6C2429.39 1510.75 2450.62 1520.61 2469.12 1534.52C2530.05 1581.74 2552 1644.7 2569.19 1756.9C2586.37 1869.1 2612.51 2068.37 2612.51 2068.37L2981.3 2330.59C2969.03 2338.1 2889.17 2431.67 2881.95 2473.84C2881.95 2473.84 2590.7 2363.95 2469.7 2297.67C2348.69 2231.39 2351 2201.5 2338.73 2151.25C2326.45 2101 2275.77 1715.46 2287.46 1629.39C2299.16 1543.33 2308.98 1516.62 2338.15 1504.63Z" fill="#263238"/>
<path d="M519.734 4001.29C506.738 3994.07 469.483 4013.42 457.931 4023.96C446.379 4034.5 432.95 4072.47 431.94 4106.12C431.218 4129.51 442.769 4160.99 423.853 4207.2C398.006 4270.44 371.87 4329.65 380.534 4407.62C389.197 4485.6 406.814 4506.54 430.64 4534.69C444.405 4550.81 461.739 4563.5 481.266 4571.75C500.793 4580 521.974 4583.57 543.127 4582.2C553.581 4582.15 563.858 4579.49 573.015 4574.44C582.172 4569.4 589.918 4562.13 595.543 4553.32L519.734 4001.29Z" fill="#263238"/>
<path d="M1805.46 4540.76L1985.09 4577.15L2051.95 4265.1L1872.17 4228.71L1805.46 4540.76Z" fill="#FFA8A7"/>
<path d="M2017 3587.15C2020.9 3622.39 1998.52 3673.79 1976.28 3717.11C1908.13 3851.98 1834.92 4293.26 1813.55 4416.87C1875 4457.76 1949.6 4474 2022.49 4462.35C2022.49 4462.35 2347.39 3715.52 2363.56 3651.55C2387.97 3555.1 2413.38 3114.39 2421.32 2945.73C2431 2739.24 2447.75 2530.01 2447.75 2530.01L1659.33 2463.01C1659.33 2463.01 1609.37 2655.35 1574.57 2768.99C1539.77 2882.63 1454.28 3214.31 1404.03 3303.26C1378.86 3345.5 1341.3 3378.98 1296.46 3399.14C1069.46 3485.78 811.853 3841.87 709.185 3918.98C709.185 4063.38 828.748 4091.1 828.748 4091.1C828.748 4091.1 1516.66 3654.88 1573.56 3618.05C1660.2 3562.17 1725.32 3475.82 1793.19 3335.18C1868.42 3179.23 1997.08 2881.91 1997.08 2881.91C1997.08 2881.91 2004.01 3470.33 2017 3587.15Z" fill="#384B78"/>
<path opacity="0.5" d="M2017 3587.15C2020.9 3622.39 1998.52 3673.79 1976.28 3717.11C1908.13 3851.98 1834.92 4293.26 1813.55 4416.87C1875 4457.76 1949.6 4474 2022.49 4462.35C2022.49 4462.35 2347.39 3715.52 2363.56 3651.55C2387.97 3555.1 2413.38 3114.39 2421.32 2945.73C2431 2739.24 2447.75 2530.01 2447.75 2530.01L1659.33 2463.01C1659.33 2463.01 1609.37 2655.35 1574.57 2768.99C1539.77 2882.63 1454.28 3214.31 1404.03 3303.26C1378.86 3345.5 1341.3 3378.98 1296.46 3399.14C1069.46 3485.78 811.853 3841.87 709.185 3918.98C709.185 4063.38 828.748 4091.1 828.748 4091.1C828.748 4091.1 1516.66 3654.88 1573.56 3618.05C1660.2 3562.17 1725.32 3475.82 1793.19 3335.18C1868.42 3179.23 1997.08 2881.91 1997.08 2881.91C1997.08 2881.91 2004.01 3470.33 2017 3587.15Z" fill="black"/>
<path opacity="0.2" d="M1996.5 2882.77C1996.5 2885.37 2001.27 3421.38 2014.84 3569.53L2050.36 2905.3C2103.95 2880.14 2150.08 2841.47 2184.22 2793.1C2080.54 2866.6 1997.37 2882.77 1997.37 2882.77H1996.5Z" fill="black"/>
<path opacity="0.05" d="M2339.45 3421.67C2301.61 3414.59 2268.98 3390.91 2230.28 3390.04C2225.73 3389.54 2221.11 3389.95 2216.72 3391.27C2212.33 3392.58 2208.25 3394.77 2204.72 3397.7C2188.98 3417.17 2178.31 3440.24 2173.68 3464.84C2172.38 3480.58 2176.42 3498.34 2166.17 3510.76C2155.92 3523.18 2141.62 3523.32 2129.2 3529.68C2119.4 3535.23 2110.84 3542.76 2104.08 3551.77C2092.52 3566.21 2083.14 3587.15 2094.84 3601.3C2100.66 3606.42 2107.72 3609.92 2115.32 3611.47C2122.92 3613.01 2130.79 3612.54 2138.15 3610.11C2152.81 3605.2 2168.52 3604.3 2183.64 3607.51C2192.88 3612.02 2200.42 3619.39 2205.15 3628.51C2209.88 3637.64 2211.55 3648.04 2209.92 3658.19C2208.33 3678.41 2199.81 3697.61 2197.65 3717.83C2195.46 3730.85 2198.3 3744.22 2205.59 3755.23C2221.62 3776.74 2257.86 3774.87 2279.52 3758.55C2299.44 3740.49 2314.02 3717.32 2321.69 3691.55L2350.57 3618.05C2356.58 3600.18 2365.46 3583.4 2376.85 3568.38C2381.47 3530.54 2385.8 3484.77 2390.13 3434.95C2373.7 3428.92 2356.73 3424.48 2339.45 3421.67V3421.67Z" fill="black"/>
<path opacity="0.05" d="M2124.73 3417.48C2135.7 3412.56 2144.72 3404.12 2150.36 3393.51C2156.01 3382.9 2157.96 3370.7 2155.92 3358.85C2150.79 3335.2 2137.25 3314.21 2117.79 3299.8C2100.61 3285.36 2079.67 3273.52 2072.6 3253.01C2070.28 3243.8 2069.8 3234.23 2071.19 3224.84C2072.58 3215.45 2075.8 3206.43 2080.68 3198.28C2090.52 3182.01 2098.09 3164.47 2103.21 3146.16C2105.46 3136.88 2104.68 3127.12 2100.99 3118.31C2097.31 3109.51 2090.9 3102.11 2082.71 3097.2C2060.32 3086.66 2034.33 3102.55 2017.73 3120.31C2011.71 3126.68 2006.12 3133.43 2000.98 3140.52C2002.56 3216.91 2004.44 3299.36 2006.61 3374.74C2020.94 3380.57 2034.47 3388.19 2046.89 3397.41C2070 3412.72 2098.59 3427.3 2124.73 3417.48Z" fill="black"/>
<path opacity="0.15" d="M1925.31 2996.99C1918.8 2971.73 1919.9 2945.1 1928.49 2920.46C1937.09 2895.91 1939.42 2869.61 1935.27 2843.93C1931.2 2830.1 1922.49 2818.09 1910.6 2809.94C1898.71 2801.79 1884.37 2797.98 1870.01 2799.17C1859.81 2801.61 1850.47 2806.79 1842.99 2814.14C1835.51 2821.49 1830.17 2830.74 1827.55 2840.9C1822.88 2860.92 1819.22 2881.16 1816.58 2901.54C1813.7 2918.65 1804.6 2934.08 1791.02 2944.86C1776.25 2951.41 1762.57 2960.18 1750.44 2970.86C1739.73 2981.24 1732.81 2994.92 1730.81 3009.7C1730.33 3015.79 1731.13 3021.91 1733.14 3027.67C1735.16 3033.44 1738.34 3038.73 1742.5 3043.2C1749.87 3051.14 1759.97 3056.77 1765.03 3066.01C1773.26 3080.45 1765.03 3099.08 1762.57 3115.98C1761.35 3126.94 1762.41 3138.05 1765.69 3148.59C1768.97 3159.12 1774.4 3168.87 1781.63 3177.2C1796.85 3194.35 1817.04 3206.32 1839.39 3211.42C1843 3212.29 1846.76 3212.72 1850.51 3213.3C1880.4 3147.89 1911.45 3077.85 1937.15 3019.08C1932.5 3012.12 1928.54 3004.72 1925.31 2996.99V2996.99Z" fill="black"/>
<path opacity="0.05" d="M1814.12 3291.71L1808.64 3286.51C1788.02 3266.93 1761.2 3255.18 1732.83 3253.3C1727.08 3252.5 1721.25 3252.5 1715.5 3253.3C1707.59 3255.26 1700.2 3258.9 1693.84 3263.98C1682.41 3271.33 1671.94 3280.06 1662.65 3289.98C1648.21 3306.58 1639.55 3328.24 1625.68 3345.71C1611.72 3365.65 1591.33 3380.18 1567.92 3386.87C1551.9 3390.48 1533.7 3389.32 1520.56 3398.85C1517.06 3401.6 1514.17 3405.06 1512.09 3408.99C1510.02 3412.93 1508.8 3417.27 1508.51 3421.71C1508.22 3426.16 1508.88 3430.61 1510.43 3434.78C1511.99 3438.96 1514.41 3442.75 1517.53 3445.93C1530.53 3458.2 1554.35 3460.37 1559.55 3477.55C1560.37 3483.1 1559.9 3488.76 1558.17 3494.1C1556.44 3499.43 1553.5 3504.3 1549.59 3508.31C1542.94 3517.26 1535.15 3525.92 1528.21 3534.3C1523.9 3538.17 1520.75 3543.17 1519.12 3548.74C1518.95 3553.2 1520.28 3557.58 1522.89 3561.2C1525.51 3564.81 1529.27 3567.44 1533.56 3568.67C1542.26 3571.14 1551.45 3571.39 1560.27 3569.39C1608.7 3561.43 1652.58 3536.13 1683.73 3498.2C1695.42 3480.8 1709.04 3464.77 1724.31 3450.4C1727.82 3447.83 1731.49 3445.47 1735.28 3443.33C1754.78 3411.42 1773.98 3376.04 1793.04 3335.9C1799.68 3322.32 1806.76 3307.16 1814.12 3291.71Z" fill="black"/>
<path opacity="0.15" d="M1963.87 4032.47C1955.49 4011.54 1974.7 3989.16 1970.65 3966.63C1968.9 3958.86 1965.23 3951.66 1959.97 3945.69C1947.6 3930.94 1931.03 3920.31 1912.46 3915.22C1899.61 3966.92 1887.33 4022.94 1875.93 4078.39C1904.21 4099.19 1939.18 4108.81 1974.12 4105.4C1979.34 4105.28 1984.45 4103.9 1989.02 4101.39C1993.6 4098.88 1997.5 4095.3 2000.4 4090.96C2005.31 4079.98 1997.51 4067.56 1988.56 4059.33C1978.42 4052.34 1969.99 4043.16 1963.87 4032.47V4032.47Z" fill="black"/>
<path opacity="0.1" d="M2270.86 3239.73C2251.22 3252 2228.55 3268.61 2231.73 3290.99C2234.9 3313.37 2264.36 3324.49 2288.19 3331.71C2320.84 3341.81 2351.95 3356.39 2380.6 3375.03C2385.08 3377.92 2389.7 3380.95 2395.04 3383.4C2403.7 3271.93 2411.21 3148.18 2416.56 3051.29C2406.31 3045.03 2394.62 3041.5 2382.62 3041.03C2375.73 3040.47 2368.81 3041.57 2362.42 3044.23C2356.04 3046.9 2350.39 3051.05 2345.95 3056.34C2341.09 3064.1 2338.81 3073.2 2339.45 3082.33C2340.17 3103.7 2349.56 3124.35 2348.54 3145.72C2346.09 3187.02 2307.25 3217.2 2270.86 3239.73Z" fill="black"/>
<path opacity="0.1" d="M2312.01 2634.12C2311.77 2626.48 2309.36 2619.07 2305.08 2612.75C2299.1 2605.88 2291.65 2600.44 2283.28 2596.86C2247.38 2578.79 2209.8 2564.29 2171.08 2553.54C2141.13 2544.21 2109.88 2539.77 2078.52 2540.4C2055.27 2541.41 2020.76 2537.23 2000.54 2548.06C1993.45 2551.05 1987.09 2555.56 1981.93 2561.27C1976.77 2566.99 1972.92 2573.76 1970.65 2581.12C1969.54 2590.98 1971.09 2600.95 1975.13 2610C1987.48 2640.67 1990.93 2674.21 1985.09 2706.75C1980.91 2740.11 1984.08 2769.13 2015.99 2788.91C2026.6 2795.28 2038.47 2799.23 2050.77 2800.51C2063.07 2801.78 2075.5 2800.34 2087.18 2796.28C2103.21 2789.8 2117.9 2780.4 2130.5 2768.55C2153.75 2748.91 2176.42 2726.97 2205.73 2717.44C2227.39 2710.36 2251.36 2710.5 2271.87 2700.83C2284.42 2694.95 2294.94 2685.46 2302.09 2673.58C2309.24 2661.7 2312.69 2647.97 2312.01 2634.12V2634.12Z" fill="black"/>
<path opacity="0.15" d="M2263.06 2972.16C2248.62 2962.91 2228.12 2959.3 2215.55 2947.03C2202.99 2934.76 2204.72 2914.4 2193.46 2898.66C2190.16 2893.76 2185.71 2889.75 2180.5 2886.98C2175.29 2884.21 2169.47 2882.76 2163.57 2882.77C2144.65 2883.93 2133.25 2903.71 2129.64 2921.47C2126.03 2939.23 2126.31 2958.87 2115.2 2973.6C2107.39 2982.27 2098.62 2990.02 2089.06 2996.7C2048.92 3031.07 2095.85 3050.13 2117.94 3072.08C2157.22 3111.65 2101.19 3163.2 2132.38 3203.77C2140.92 3212.83 2152.2 3218.84 2164.48 3220.88C2176.77 3222.91 2189.38 3220.86 2200.39 3215.03C2221.9 3202.92 2238.51 3183.66 2247.32 3160.6C2257.14 3138.5 2262.92 3114.97 2273.17 3093.02C2282.75 3076.59 2290.13 3058.96 2295.12 3040.6C2296.93 3027.32 2294.87 3013.79 2289.19 3001.65C2283.5 2989.51 2274.43 2979.27 2263.06 2972.16V2972.16Z" fill="black"/>
<path opacity="0.1" d="M2089.2 3917.1C2106.96 3895.15 2104.94 3863.96 2098.01 3836.96C2091.02 3819.36 2088.97 3800.19 2092.09 3781.51C2103.07 3746.13 2156.78 3728.52 2154.47 3691.69C2152.88 3667.58 2125.59 3651.7 2100.76 3649.1C2075.92 3646.5 2050.36 3652.71 2025.09 3651.41C2018.87 3651 2012.74 3649.69 2006.9 3647.51C1998.2 3671.34 1987.98 3694.59 1976.28 3717.11C1956.49 3760.51 1940.64 3805.6 1928.92 3851.83C1952.17 3870.75 1963.58 3900.78 1986.68 3920.28C2014.98 3944.97 2065.67 3946.27 2089.2 3917.1Z" fill="black"/>
<path opacity="0.15" d="M2160.97 3826.99C2149.14 3838.88 2140.04 3853.21 2134.31 3868.97C2128.57 3884.72 2126.34 3901.54 2127.76 3918.25C2129.35 3957.1 2142.2 4000.56 2117.65 4032.04C2103.21 4050.24 2077.22 4065.54 2081.84 4087.78C2085.31 4104.67 2105.09 4112.76 2122.13 4118.1C2136.56 4122.97 2151.33 4126.78 2166.31 4129.51C2213.82 4018.61 2264.22 3900.35 2302.19 3808.66C2251.22 3795.66 2190.43 3800.43 2160.97 3826.99Z" fill="black"/>
<path opacity="0.05" d="M2354.46 2655.35C2344.07 2684.23 2342.34 2715.42 2327.61 2741.99C2313.77 2764.02 2295.77 2783.15 2274.61 2798.3C2263.3 2806.07 2254 2816.41 2247.47 2828.48C2236.2 2854.33 2254.69 2884.22 2278.66 2900.68C2302.63 2917.14 2331.94 2924.07 2356.92 2938.66C2373.96 2948.62 2388.83 2961.76 2406.16 2971.29C2410.53 2973.68 2415.07 2975.75 2419.73 2977.5C2419.73 2966.24 2420.74 2955.84 2421.18 2946.17C2427.24 2816.21 2435.62 2686.25 2441.83 2606.54C2438.36 2605.1 2434.89 2603.65 2431.28 2602.5C2391.58 2589.36 2366.16 2623.72 2354.46 2655.35Z" fill="black"/>
<path opacity="0.05" d="M1582.08 2744.01C1602.72 2763.64 1632.47 2771.59 1657.31 2786.31C1678.11 2798.48 1695.53 2815.66 1707.99 2836.28C1712.82 2846.49 1719.47 2855.74 1727.63 2863.57C1737.33 2869.89 1749.01 2872.42 1760.46 2870.69C1771.91 2868.96 1782.32 2863.09 1789.72 2854.18C1796.42 2845.17 1800.79 2834.63 1802.42 2823.52C1804.06 2812.41 1802.92 2801.07 1799.11 2790.5C1793.72 2777.68 1789.7 2764.32 1787.12 2750.65C1784.96 2723.36 1805.32 2699.53 1825.97 2680.76C1846.61 2661.99 1869.28 2642.78 1876.79 2616.21C1879.29 2603.93 1878.87 2591.23 1875.56 2579.14C1872.25 2567.05 1866.14 2555.91 1857.73 2546.61C1840.5 2527.63 1819.69 2512.22 1796.51 2501.27C1774.47 2489.04 1751.6 2478.38 1728.06 2469.36L1659.18 2463.44C1659.18 2463.44 1616.01 2628.49 1582.08 2744.01Z" fill="black"/>
<path opacity="0.15" d="M1473.78 3647.08C1462.95 3643.14 1451.85 3640 1440.56 3637.69C1435.02 3636.49 1429.84 3633.99 1425.45 3630.4C1421.06 3626.81 1417.58 3622.23 1415.3 3617.04C1411.83 3605.49 1419.19 3595.38 1423.67 3585.27C1429.94 3571.96 1433.81 3557.63 1435.08 3542.96C1436.08 3533.69 1434.78 3524.32 1431.27 3515.67C1427.77 3507.03 1422.18 3499.39 1415.01 3493.44C1405.6 3487.13 1394.69 3483.44 1383.38 3482.75C1370.47 3481.15 1357.37 3482.9 1345.33 3487.83C1333.29 3492.77 1322.73 3500.71 1314.65 3510.91C1307.17 3523.54 1302.27 3537.53 1300.21 3552.06C1297.97 3566.59 1292.66 3580.48 1284.61 3592.78C1273.35 3607.22 1249.81 3613.14 1230.46 3622.38C1222.33 3625.07 1215.17 3630.12 1209.9 3636.88C1204.63 3643.64 1201.49 3651.81 1200.86 3660.36C1199.13 3693.57 1252.41 3711.62 1249.96 3744.69C1247.31 3756.76 1242.04 3768.1 1234.51 3777.9C1225.53 3793.72 1221.6 3811.91 1223.24 3830.03C1223.59 3833.54 1224.22 3837.02 1225.12 3840.43C1328.22 3775.01 1429.16 3710.47 1496.3 3668.16C1491.19 3658.94 1483.31 3651.57 1473.78 3647.08V3647.08Z" fill="black"/>
<path opacity="0.1" d="M1486.34 3156.12C1490.38 3174.75 1487.35 3194.24 1490.09 3213.01C1490.7 3220.36 1492.83 3227.49 1496.37 3233.96C1499.9 3240.43 1504.75 3246.08 1510.6 3250.56C1521.79 3257.26 1535.14 3259.39 1547.85 3256.48C1559.09 3255.44 1569.99 3252.14 1579.92 3246.78C1589.84 3241.42 1598.58 3234.11 1605.61 3225.29C1619.91 3203.42 1626.37 3177.36 1623.95 3151.35C1621.56 3138.18 1620.01 3124.87 1619.33 3111.5C1620.05 3078.58 1644.6 3051.14 1666.26 3024.86C1687.92 2998.58 1709.58 2967.1 1701.06 2935.33C1696.92 2921.45 1689.49 2908.77 1679.4 2898.37C1645.66 2863.95 1603.8 2838.57 1557.67 2824.58C1534.86 2904.43 1502.66 3021.4 1471.03 3122.33C1478.26 3132.5 1483.46 3143.98 1486.34 3156.12Z" fill="black"/>
<path opacity="0.15" d="M1296.31 3399.43C1278.92 3406.06 1261.99 3413.83 1245.63 3422.68C1246.52 3434.97 1248.75 3447.12 1252.27 3458.92C1253.21 3464.14 1255.38 3469.06 1258.59 3473.28C1261.8 3477.5 1265.97 3480.89 1270.75 3483.18C1285.19 3487.8 1298.77 3474.52 1309.6 3463.98C1326.05 3447.86 1345.74 3435.41 1367.35 3427.45C1388.29 3419.5 1407.64 3421.67 1428.72 3417.05C1445.75 3412.7 1460.86 3402.85 1471.72 3389.04C1482.58 3375.23 1488.58 3358.23 1488.79 3340.66C1488.16 3323.05 1483.11 3305.89 1474.1 3290.75C1465.09 3275.61 1452.42 3262.98 1437.24 3254.02C1434.21 3252.15 1431.03 3250.27 1427.86 3248.68C1420.95 3267.19 1412.85 3285.23 1403.6 3302.68C1378.64 3345.2 1341.17 3378.98 1296.31 3399.43Z" fill="black"/>
<path opacity="0.1" d="M956.829 3662.81C959.044 3666.07 961.719 3668.99 964.771 3671.48C977.911 3682.31 998.705 3686.93 1004.05 3702.81C1005.18 3708.29 1005.02 3713.96 1003.59 3719.37C1002.17 3724.78 999.504 3729.79 995.817 3734C988.444 3742.52 982.672 3752.31 978.778 3762.88C973.724 3783.67 991.196 3804.76 1012.28 3811.54C1034.05 3816.79 1056.91 3815.33 1077.84 3807.36C1108.88 3797.54 1141.66 3779.2 1148.45 3748.73C1154.08 3724.18 1141.08 3699.35 1126.35 3678.7C1122.1 3673.53 1118.78 3667.67 1116.53 3661.37C1114.58 3650.43 1116.91 3639.16 1123.03 3629.89C1137.47 3603.18 1161.44 3582.53 1180.79 3559.13C1200.14 3535.74 1217.32 3506.72 1212.85 3476.97C1211.57 3466.83 1206.82 3457.45 1199.42 3450.4C1115.67 3504.7 1032.21 3583.97 956.829 3662.81Z" fill="black"/>
<path d="M1752.32 1572.07C1732.11 1598.06 1717.38 1649.18 1718.1 1706.5V2125.26L1635.5 2509.22C1743.8 2628.78 2330.78 2752.67 2438.36 2578.96C2438.36 2578.96 2534.82 1955.59 2534.39 1834.3C2534.39 1750.4 2510.7 1559.94 2364.14 1505.21L2041.84 1497.12L1959.1 1486.01C1878.82 1489.04 1813.98 1492.94 1752.32 1572.07Z" fill="#37474F"/>
<path d="M2503.07 1141.16C2593.91 1059.69 2601.5 920.006 2520.03 829.174C2438.56 738.341 2298.88 730.752 2208.04 812.223C2117.21 893.693 2109.62 1033.37 2191.09 1124.2C2272.56 1215.04 2412.24 1222.63 2503.07 1141.16Z" fill="#263238"/>
<path d="M1965.74 1112.3C1965.74 1112.3 1992.31 1282.26 2005.16 1310.56C2013.77 1328.12 2028.82 1341.67 2047.18 1348.39L2051.08 1230.13L1965.74 1112.3Z" fill="#263238"/>
<path d="M2023.65 874.62C2011.07 872.497 1998.18 873.293 1985.96 876.949C1973.74 880.604 1962.52 887.021 1953.18 895.703C1922.14 924.582 1933.54 1019.31 1965.17 1113.6L2032.02 1125.01L2023.65 874.62Z" fill="#263238"/>
<path d="M2052.82 1125.44C2038.38 1132.81 2021.05 1105.8 2005.31 1087.46C1989.57 1069.13 1936.57 1042.27 1906.25 1098.01C1875.93 1153.74 1922.86 1234.46 1965.02 1250.2C2037.22 1277.49 2051.66 1230.71 2051.66 1230.71L2042.85 1497.12C2102.63 1571.63 2332.66 1638.92 2283.28 1503.04L2287.46 1422.18C2314.61 1429.83 2342.73 1433.47 2370.93 1433.01C2425.65 1427.67 2462.19 1393.59 2484.86 1336.99C2523.27 1241.25 2535.4 1142.77 2530.78 973.245C2525.29 768.199 2280.97 753.614 2148.84 826.969C2016.72 900.323 2052.82 1125.44 2052.82 1125.44Z" fill="#FFA8A7"/>
<path d="M2051.66 1148.11C2045.6 1144.93 2021.34 1103.64 2005.31 1087.46C1983.22 1064.94 2023.65 874.619 2023.65 874.619C2023.65 874.619 2003.86 825.668 2051.37 778.738C2075.45 754.567 2105.26 736.882 2138.01 727.332C2185.37 714.192 2231.58 724.445 2278.22 734.841C2327.58 748.253 2378.55 754.765 2429.7 754.191C2469.46 751.881 2508.27 741.047 2543.48 722.423C2550.25 717.778 2558.23 715.218 2566.44 715.059C2583.63 716.503 2586.66 736.141 2584.93 749.859C2581.59 775.517 2571.14 799.728 2554.75 819.748C2566.88 818.015 2583.63 818.448 2586.95 830.144C2587.96 833.635 2587.96 837.34 2586.95 840.83C2583.99 851.63 2578.44 861.544 2570.77 869.71C2520.52 928.769 2428.69 951.151 2353.45 946.819C2290.5 943.064 2230.43 916.35 2167.32 913.751C2158.75 912.918 2150.1 913.852 2141.91 916.495C2130.52 921.221 2121.3 930.026 2116.06 941.187C2110.84 952.3 2107.29 964.124 2105.52 976.276C2097.58 1018.44 2098.01 1061.18 2091.95 1103.64C2088.92 1124.86 2081.41 1164.43 2051.66 1148.11Z" fill="#263238"/>
<path d="M2022.92 889.638L1943.65 841.264C1946.57 835.919 1950.55 831.22 1955.33 827.45C1960.12 823.679 1965.62 820.915 1971.5 819.323C1977.38 817.732 1983.52 817.346 1989.55 818.188C1995.59 819.03 2001.39 821.084 2006.61 824.225C2017.25 830.912 2024.89 841.455 2027.93 853.648C2030.97 865.841 2029.18 878.737 2022.92 889.638Z" fill="#263238"/>
<path d="M2286.89 1422.18C2286.89 1422.18 2167.18 1391.14 2126.03 1366.3C2101.79 1352.02 2082.46 1330.72 2070.58 1305.22C2075.67 1330.35 2085.74 1354.21 2100.18 1375.4C2129.06 1416.55 2285.15 1454.38 2285.15 1454.38L2286.89 1422.18Z" fill="#F28F8F"/>
<path d="M2312.44 1106.67C2311.99 1111.4 2310.15 1115.88 2307.17 1119.58C2304.18 1123.27 2300.18 1126.01 2295.65 1127.45C2291.13 1128.89 2286.28 1128.97 2281.71 1127.68C2277.14 1126.39 2273.05 1123.78 2269.94 1120.19C2266.84 1116.6 2264.86 1112.17 2264.24 1107.46C2263.63 1102.75 2264.41 1097.97 2266.49 1093.7C2268.57 1089.43 2271.86 1085.87 2275.95 1083.45C2280.04 1081.03 2284.74 1079.87 2289.49 1080.1C2292.74 1080.32 2295.93 1081.18 2298.85 1082.64C2301.77 1084.1 2304.38 1086.12 2306.51 1088.59C2308.65 1091.06 2310.27 1093.93 2311.29 1097.04C2312.31 1100.14 2312.7 1103.41 2312.44 1106.67V1106.67Z" fill="#263238"/>
<path d="M2292.52 1022.63L2239.09 1048.48C2235.77 1041.14 2235.43 1032.8 2238.12 1025.21C2240.81 1017.62 2246.33 1011.37 2253.53 1007.76C2257.05 1006.08 2260.88 1005.14 2264.77 1004.99C2268.67 1004.84 2272.56 1005.48 2276.2 1006.87C2279.84 1008.26 2283.17 1010.37 2285.97 1013.08C2288.78 1015.79 2291 1019.04 2292.52 1022.63V1022.63Z" fill="#263238"/>
<path d="M2284.14 1275.76L2351 1304.64C2349.26 1309.14 2346.62 1313.24 2343.26 1316.7C2339.9 1320.16 2335.88 1322.91 2331.43 1324.78C2326.98 1326.66 2322.21 1327.61 2317.38 1327.6C2312.56 1327.59 2307.78 1326.61 2303.35 1324.71C2294.5 1320.55 2287.58 1313.16 2284.01 1304.06C2280.43 1294.95 2280.48 1284.83 2284.14 1275.76V1275.76Z" fill="#F28F8F"/>
<path d="M2500.02 1064.22L2454.68 1025.66C2457.09 1022.61 2460.09 1020.08 2463.5 1018.21C2466.91 1016.35 2470.67 1015.19 2474.54 1014.82C2478.41 1014.44 2482.31 1014.85 2486.02 1016.02C2489.73 1017.18 2493.17 1019.09 2496.12 1021.62C2502.02 1026.92 2505.69 1034.26 2506.42 1042.15C2507.14 1050.05 2504.85 1057.93 2500.02 1064.22V1064.22Z" fill="#263238"/>
<path d="M2493.38 1114.32C2493.26 1117.57 2492.51 1120.76 2491.17 1123.71C2489.82 1126.66 2487.91 1129.32 2485.54 1131.54C2483.16 1133.75 2480.38 1135.47 2477.34 1136.61C2474.29 1137.74 2471.06 1138.27 2467.82 1138.15C2462.77 1138.08 2457.86 1136.51 2453.72 1133.63C2449.58 1130.75 2446.39 1126.7 2444.58 1121.99C2442.76 1117.28 2442.39 1112.14 2443.52 1107.22C2444.65 1102.31 2447.23 1097.84 2450.92 1094.4C2454.61 1090.96 2459.24 1088.7 2464.23 1087.92C2469.21 1087.14 2474.32 1087.86 2478.88 1090.01C2483.45 1092.15 2487.27 1095.61 2489.85 1099.95C2492.44 1104.28 2493.66 1109.29 2493.38 1114.32V1114.32Z" fill="#263238"/>
<path d="M2383.2 1088.33L2362.12 1234.17L2451.21 1229.41L2383.2 1088.33Z" fill="#F28F8F"/>
<path d="M1736.58 4668.84C1727.05 4673.75 1725.46 4685.16 1727.77 4707.11C1730.08 4729.06 1755.21 4767.47 1806.04 4783.64C1856.87 4799.81 1914.48 4795.62 1939.17 4807.03C1975.42 4823.78 2000.11 4856.56 2076.64 4894.83C2135.01 4924.67 2201.25 4935.52 2266.09 4925.87C2327.75 4918.22 2344.36 4887.17 2344.36 4887.17C2344.36 4887.17 2361.83 4843.85 2348.83 4834.03C2335.84 4824.21 1736.58 4668.84 1736.58 4668.84Z" fill="#263238"/>
<path d="M1876.22 4076.37C1832.9 4074.2 1844.3 4101.35 1834.48 4188.42C1824.23 4280.12 1819.18 4388.7 1791.16 4474.77C1763.15 4560.83 1736.58 4618.59 1736.58 4678.95C1755.84 4709.96 1785.3 4733.3 1819.9 4744.94C1877.66 4764 1919.82 4759.38 1954.77 4774.68C2011.37 4798.94 2042.27 4851.79 2142.49 4872.3C2251.22 4894.53 2306.81 4869.55 2348.69 4846.45C2348.69 4846.45 2363.13 4779.88 2326.74 4748.55C2242.12 4705.23 2105.52 4605.45 2075.34 4552.89C2045.16 4500.33 2087.47 4422.93 2125.45 4304.09C2160.25 4194.78 2188.41 4174.13 2154.33 4158.82L2142.78 4185.1C2142.78 4185.1 2112.16 4191.17 2004.44 4159.54C1896.72 4127.92 1871.45 4103.66 1871.45 4103.66L1876.22 4076.37Z" fill="#37474F"/>
<path d="M906.867 3714.94C906.867 3714.94 885.063 3686.93 856.183 3717.25C827.303 3747.58 724.925 3879.99 659.945 3919.41C594.966 3958.83 583.991 3973.27 510.926 4005.04C495.974 4019.79 484.646 4037.81 477.831 4057.68C471.016 4077.55 468.9 4098.72 471.649 4119.55C479.447 4174.27 463.13 4224.38 437.571 4279.25C408.691 4341.34 413.89 4428.27 453.166 4498.59C474.75 4535.78 507.628 4565.12 547.025 4582.34C604.785 4582.34 660.956 4577.15 659.945 4478.96C657.033 4398.76 669.583 4318.75 696.911 4243.3C730.267 4145.54 777.63 4144.96 884.63 4075.36C991.629 4005.76 1095.16 3968.36 1078.99 3933.27L1055.89 3947.71C1055.89 3947.71 980.366 3921.72 907.445 3827.43C868.89 3777.76 879.576 3744.54 879.576 3744.54L906.867 3714.94Z" fill="#37474F"/>
<path d="M3494.64 5697.68C3492.79 5663.42 3482.88 5630.08 3465.71 5600.38C3448.55 5570.67 3424.62 5545.43 3395.87 5526.71C3366.99 5510.11 3341.58 5509.53 3323.67 5521.51L3256.96 5559.78L3398.61 5800.35L3464.6 5762.37C3483.81 5752.12 3494.64 5729.88 3494.64 5697.68Z" fill="#455A64"/>
<path d="M3326.7 5566.57C3355.56 5585.22 3379.6 5610.43 3396.87 5640.14C3414.13 5669.85 3424.13 5703.23 3426.05 5737.54C3426.05 5800.49 3381.86 5826.05 3327.28 5794.57C3298.55 5775.81 3274.65 5750.54 3257.51 5720.81C3240.38 5691.08 3230.49 5657.73 3228.65 5623.46C3228.08 5560.5 3272.26 5535.09 3326.7 5566.57Z" fill="#37474F"/>
<path d="M3293.35 5660.86C3293.35 5636.17 3307.79 5624.91 3326.85 5635.59C3337.01 5642.88 3345.32 5652.45 3351.11 5663.54C3356.9 5674.62 3360.02 5686.91 3360.2 5699.42C3360.2 5723.96 3345.76 5735.37 3326.85 5724.68C3316.67 5717.4 3308.33 5707.84 3302.51 5696.75C3296.7 5685.67 3293.56 5673.38 3293.35 5660.86V5660.86Z" fill="#455A64"/>
<path d="M3442.51 5461.45C3442.51 5461.45 3442.51 5574.08 3388.79 5613.93C3378.69 5621.44 3367.86 5626.64 3361.5 5631.98C3347.78 5643.39 3356.88 5664.33 3373.63 5673.28C3397.75 5686.27 3529.58 5651.19 3585.46 5544.04L3442.51 5461.45Z" fill="#37474F"/>
<path d="M3391.39 5490.9C3391.39 5490.9 3391.39 5603.53 3337.53 5643.39C3327.42 5650.89 3316.74 5656.09 3310.38 5661.44C3296.67 5672.84 3305.76 5693.78 3322.37 5702.59C3346.63 5715.58 3478.46 5680.5 3534.35 5573.35L3391.39 5490.9Z" fill="#263238"/>
<path d="M3326.85 5669.67C3329.6 5671.44 3331.89 5673.85 3333.52 5676.68C3335.16 5679.52 3336.08 5682.71 3336.23 5685.98C3336.23 5692.05 3332.04 5694.5 3326.85 5691.47C3324.06 5689.68 3321.75 5687.26 3320.09 5684.39C3318.43 5681.53 3317.48 5678.31 3317.32 5675.01C3317.32 5669.09 3321.5 5666.63 3326.85 5669.67Z" fill="#263238"/>
<path d="M4249.12 5262.03C4247.26 5227.77 4237.37 5194.43 4220.23 5164.7C4203.1 5134.98 4179.21 5109.7 4150.5 5090.92C4121.62 5074.46 4096.2 5073.73 4078.3 5085.86L4011.73 5123.84L4153.24 5364.41L4219.37 5326.43C4237.86 5316.32 4249.12 5294.09 4249.12 5262.03Z" fill="#455A64"/>
<path d="M4081.62 5130.77C4110.37 5149.49 4134.3 5174.73 4151.46 5204.44C4168.63 5234.14 4178.54 5267.48 4180.39 5301.74C4180.39 5364.7 4136.2 5390.26 4081.62 5358.78C4052.87 5340.06 4028.94 5314.82 4011.77 5285.11C3994.61 5255.41 3984.7 5222.07 3982.85 5187.81C3982.85 5124.85 4027.04 5099.29 4081.62 5130.77Z" fill="#37474F"/>
<path d="M4048.26 5225.5C4048.26 5200.95 4062.7 5189.54 4081.62 5200.23C4091.78 5207.52 4100.09 5217.09 4105.88 5228.17C4111.68 5239.26 4114.79 5251.55 4114.97 5264.05C4114.97 5288.74 4100.53 5300.01 4081.62 5289.32C4071.46 5282.03 4063.15 5272.46 4057.35 5261.38C4051.56 5250.29 4048.45 5238 4048.26 5225.5Z" fill="#455A64"/>
<path d="M4197.28 5025.5C4197.28 5025.5 4197.28 5138.28 4143.57 5178.13C4133.46 5185.64 4122.77 5190.84 4116.42 5196.04C4102.7 5207.45 4111.8 5228.53 4128.4 5237.34C4152.66 5250.33 4284.5 5215.24 4340.24 5108.1L4197.28 5025.5Z" fill="#37474F"/>
<path d="M4146.16 5055.11C4146.16 5055.11 4146.16 5167.74 4092.45 5207.59C4082.34 5215.1 4071.51 5220.3 4065.16 5225.64C4051.58 5237.05 4060.54 5257.99 4077.29 5266.94C4101.4 5279.94 4233.24 5244.85 4289.12 5136.98L4146.16 5055.11Z" fill="#263238"/>
<path d="M4081.62 5233.87C4084.38 5235.69 4086.68 5238.12 4088.33 5240.98C4089.98 5243.83 4090.95 5247.04 4091.15 5250.33C4091.15 5256.25 4086.82 5258.71 4081.62 5255.68C4078.86 5253.89 4076.56 5251.49 4074.91 5248.65C4073.25 5245.82 4072.29 5242.64 4072.09 5239.36C4072.09 5233.29 4075.84 5230.84 4081.62 5233.87Z" fill="#263238"/>
<path d="M2822.17 5314.3C2820.29 5280.05 2810.36 5246.73 2793.2 5217.02C2776.04 5187.32 2752.13 5162.08 2723.4 5143.33C2694.52 5126.73 2669.11 5126.15 2651.2 5138.13L2584.64 5176.11L2726.29 5416.82L2792.28 5378.85C2810.48 5368.02 2822.17 5345.78 2822.17 5314.3Z" fill="#455A64"/>
<path d="M2654.24 5182.47C2682.98 5201.22 2706.91 5226.49 2724.07 5256.22C2741.23 5285.95 2751.14 5319.3 2753.01 5353.58C2753.01 5416.54 2708.82 5442.1 2654.24 5410.62C2625.48 5391.87 2601.55 5366.6 2584.39 5336.87C2567.23 5307.14 2557.32 5273.78 2555.47 5239.5C2555.47 5176.55 2599.65 5150.99 2654.24 5182.47Z" fill="#37474F"/>
<path d="M2620.88 5277.19C2620.88 5252.64 2635.32 5241.38 2654.24 5251.92C2664.44 5259.22 2672.78 5268.81 2678.6 5279.92C2684.42 5291.03 2687.55 5303.35 2687.74 5315.89C2687.74 5340.44 2673.3 5351.7 2654.24 5341.16C2644.06 5333.85 2635.73 5324.26 2629.94 5313.15C2624.14 5302.04 2621.04 5289.72 2620.88 5277.19V5277.19Z" fill="#455A64"/>
<path d="M2769.9 5077.49C2769.9 5077.49 2769.9 5190.12 2716.18 5229.97C2706.08 5237.48 2695.39 5242.68 2689.04 5248.02C2674.6 5259.43 2684.42 5280.37 2701.02 5289.32C2725.28 5302.32 2857.12 5267.08 2912.85 5159.36L2769.9 5077.49Z" fill="#37474F"/>
<path d="M2718.49 5106.8C2718.49 5106.8 2718.49 5219.58 2664.78 5259.43C2654.67 5266.94 2643.84 5272.14 2637.49 5277.34C2623.91 5288.75 2632.87 5309.68 2649.62 5318.64C2673.73 5331.63 2805.57 5296.54 2861.45 5189.4L2718.49 5106.8Z" fill="#263238"/>
<path d="M2654.24 5285.42C2657 5287.24 2659.29 5289.67 2660.95 5292.53C2662.6 5295.39 2663.57 5298.59 2663.77 5301.89C2663.77 5307.95 2659.44 5310.4 2654.24 5307.37C2651.48 5305.56 2649.18 5303.13 2647.52 5300.27C2645.87 5297.41 2644.91 5294.21 2644.71 5290.91C2644.71 5285.42 2649.04 5282.54 2654.24 5285.42Z" fill="#263238"/>
<path d="M3576.95 4877.93C3575.09 4843.67 3565.18 4810.33 3548.02 4780.63C3530.86 4750.92 3506.93 4725.68 3478.18 4706.96C3449.3 4690.5 3423.88 4689.78 3405.98 4701.91L3339.41 4739.88L3481.06 4980.45L3547.05 4942.48C3565.39 4932.37 3576.95 4909.99 3576.95 4877.93Z" fill="#455A64"/>
<path d="M3409.01 4746.81C3437.76 4765.53 3461.69 4790.77 3478.85 4820.48C3496.02 4850.19 3505.93 4883.52 3507.78 4917.78C3507.78 4980.74 3463.59 5006.3 3409.01 4974.82C3380.33 4956.05 3356.46 4930.8 3339.35 4901.1C3322.25 4871.39 3312.37 4838.08 3310.53 4803.85C3310.53 4740.89 3354.57 4715.34 3409.01 4746.81Z" fill="#37474F"/>
<path d="M3375.65 4841.54C3375.65 4816.85 3390.09 4805.58 3409.15 4816.27C3419.29 4823.58 3427.58 4833.16 3433.37 4844.24C3439.16 4855.32 3442.29 4867.6 3442.51 4880.09C3442.51 4904.64 3428.07 4916.05 3409.15 4905.36C3398.97 4898.08 3390.64 4888.51 3384.82 4877.43C3379 4866.35 3375.86 4854.06 3375.65 4841.54V4841.54Z" fill="#455A64"/>
<path d="M3524.82 4641.69C3524.82 4641.69 3524.82 4754.32 3471.1 4794.32C3460.99 4801.83 3450.16 4807.03 3443.81 4812.23C3429.37 4823.63 3439.19 4844.57 3455.94 4853.52C3480.05 4866.52 3611.89 4831.43 3667.77 4724.29L3524.82 4641.69Z" fill="#E0E0E0"/>
<path d="M3473.7 4671.15C3473.7 4671.15 3473.7 4783.78 3419.84 4823.63C3409.73 4831.14 3399.04 4836.34 3392.69 4841.68C3378.97 4853.09 3388.07 4874.03 3404.68 4882.98C3428.94 4895.83 3560.77 4860.74 3616.65 4753.02L3473.7 4671.15Z" fill="#263238"/>
<path d="M3409.15 4849.91C3411.89 4851.7 3414.17 4854.12 3415.8 4856.95C3417.43 4859.79 3418.37 4862.97 3418.54 4866.23C3418.54 4872.3 3414.35 4874.75 3409.15 4871.72C3406.37 4869.93 3404.05 4867.5 3402.4 4864.64C3400.74 4861.78 3399.79 4858.56 3399.62 4855.26C3399.62 4849.34 3403.81 4846.88 3409.15 4849.91Z" fill="#263238"/>
<path d="M3743.73 5659.13C3707.83 5659.89 3672.33 5651.44 3640.62 5634.58L2678.21 5083.26C2624.06 5052.07 2565.58 4975.54 2565.58 4906.23V3977.75H2617.42V4906.23C2617.42 4953.45 2663.19 5014.96 2704.05 5038.5L3666.33 5589.24C3690.54 5601.07 3717.14 5607.21 3744.09 5607.21C3771.04 5607.21 3797.63 5601.07 3821.85 5589.24L4396.12 5257.12C4411.42 5248.31 4420.52 5237.19 4420.52 5227.52C4420.52 5217.84 4411.86 5207.3 4396.7 5198.64L3431.25 4648.34C3377.1 4617.15 3318.76 4540.61 3318.76 4471.3V3803.03H3370.31V4471.74C3370.31 4518.95 3416.08 4580.47 3456.95 4604.01L4422.4 5154.31C4454.46 5172.79 4472.07 5198.93 4472.07 5227.81C4472.07 5256.69 4453.88 5283.69 4421.97 5302.17L3847.69 5634.29C3815.74 5651.35 3779.94 5659.9 3743.73 5659.13V5659.13Z" fill="#37474F"/>
<path d="M3325.55 3869.45L2535.69 4325.46L3819.25 5066.66L4609.11 4610.65L3325.55 3869.45Z" fill="#384B78"/>
<path opacity="0.1" d="M3325.55 3869.45L2535.69 4325.46L3819.25 5066.66L4609.11 4610.65L3325.55 3869.45Z" fill="black"/>
<path d="M2466.09 3034.53C2459.21 3000.54 2462.8 2965.25 2476.39 2933.34C2489.97 2901.42 2512.91 2874.38 2542.18 2855.77L3122.81 2518.16C3180.57 2484.66 3240.21 2513.54 3256.38 2578.38L3324.97 2859.52L3256.52 2899.09L3188.22 2637C3186.83 2629.36 3183.54 2622.18 3178.65 2616.13C3173.77 2610.09 3167.45 2605.36 3160.27 2602.39C3153.09 2599.41 3145.27 2598.29 3137.54 2599.11C3129.81 2599.94 3122.42 2602.69 3116.02 2607.11L2596.19 2911.22C2577.39 2923.38 2562.63 2940.85 2553.78 2961.42C2544.94 2981.99 2542.41 3004.73 2546.52 3026.74L2604.27 3275.53L2534.67 3315.68L2466.09 3034.53Z" fill="#E0E0E0"/>
<path d="M3271.97 2609.72C3254.79 2646.97 3165.99 2686.54 3124.4 2692.02C3082.81 2697.51 3030.97 2657.8 3030.97 2657.8L3065.63 2637.44C3069.1 2631.1 3071.13 2624.07 3071.58 2616.85C3072.02 2609.63 3070.86 2602.4 3068.18 2595.68C3065.5 2588.96 3061.38 2582.92 3056.09 2577.98C3050.81 2573.04 3044.5 2569.33 3037.62 2567.12L3004.4 2586.32C2977.4 2565.1 2972.78 2527.55 2933.79 2501.85C2916.92 2491.44 2899.41 2482.08 2881.38 2473.84C2885.13 2431.67 2958.34 2339.26 2979.28 2329.44C3003.39 2345.32 3032.13 2363.66 3048.45 2372.76C3048.45 2372.76 3243.82 2420.12 3274.57 2485.68C3284.68 2507.19 3279.63 2592.68 3271.97 2609.72Z" fill="#FFA8A7"/>
<path d="M2535.69 3315.54L3325.55 2859.53V3869.45L2535.69 4325.46V3315.54Z" fill="#384B78"/>
<path opacity="0.2" d="M2535.69 3315.54L3325.55 2859.53V3869.45L2535.69 4325.46V3315.54Z" fill="white"/>
<path d="M3324.97 2859.53V3869.45L4608.53 4610.5L4904.84 3771.55L3324.97 2859.53ZM3745.02 3874.07C3727.33 3878.59 3708.57 3875.92 3692.85 3866.63C3677.12 3857.35 3665.72 3842.22 3661.13 3824.54L3491.17 3296.33C3487.27 3287.96 3485.2 3278.85 3485.08 3269.62C3484.97 3260.38 3486.83 3251.22 3490.52 3242.76C3494.22 3234.29 3499.68 3226.71 3506.53 3220.52C3513.38 3214.32 3521.47 3209.66 3530.26 3206.83C3539.06 3204 3548.35 3203.08 3557.53 3204.12C3566.71 3205.16 3575.56 3208.14 3583.5 3212.86C3591.44 3217.58 3598.28 3223.94 3603.57 3231.51C3608.87 3239.08 3612.49 3247.69 3614.2 3256.77L3784.16 3784.83C3790.76 3801.79 3790.42 3820.66 3783.2 3837.37C3775.98 3854.07 3762.48 3867.26 3745.6 3874.07H3745.02ZM4111.8 4072.47C4094.13 4076.95 4075.4 4074.26 4059.71 4064.98C4044.02 4055.7 4032.64 4040.59 4028.05 4022.95L3857.94 3494.88C3854.04 3486.51 3851.97 3477.4 3851.86 3468.16C3851.74 3458.93 3853.6 3449.77 3857.3 3441.31C3860.99 3432.84 3866.45 3425.26 3873.3 3419.07C3880.15 3412.87 3888.24 3408.21 3897.04 3405.38C3905.83 3402.55 3915.12 3401.62 3924.3 3402.66C3933.48 3403.7 3942.33 3406.68 3950.27 3411.41C3958.21 3416.13 3965.05 3422.49 3970.35 3430.06C3975.64 3437.63 3979.26 3446.24 3980.97 3455.31L4150.93 3983.53C4157.49 4000.51 4157.06 4019.41 4149.72 4036.08C4142.39 4052.75 4128.75 4065.83 4111.8 4072.47ZM4478.14 4270.73C4460.45 4275.22 4441.7 4272.52 4425.99 4263.25C4410.28 4253.97 4398.86 4238.86 4394.24 4221.21L4224.28 3693.14C4212.01 3654.73 4229.48 3614.73 4263.42 3603.9C4281.15 3599.39 4299.94 3602.1 4315.68 3611.44C4331.41 3620.79 4342.79 3635.99 4347.31 3653.72L4517.27 4181.93C4523.74 4198.88 4523.26 4217.7 4515.93 4234.31C4508.61 4250.91 4495.02 4263.95 4478.14 4270.59V4270.73Z" fill="#384B78"/>
<path opacity="0.55" d="M3324.97 2859.53V3869.45L4608.53 4610.5L4904.84 3771.55L3324.97 2859.53ZM3745.02 3874.07C3727.33 3878.59 3708.57 3875.92 3692.85 3866.63C3677.12 3857.35 3665.72 3842.22 3661.13 3824.54L3491.17 3296.33C3487.27 3287.96 3485.2 3278.85 3485.08 3269.62C3484.97 3260.38 3486.83 3251.22 3490.52 3242.76C3494.22 3234.29 3499.68 3226.71 3506.53 3220.52C3513.38 3214.32 3521.47 3209.66 3530.26 3206.83C3539.06 3204 3548.35 3203.08 3557.53 3204.12C3566.71 3205.16 3575.56 3208.14 3583.5 3212.86C3591.44 3217.58 3598.28 3223.94 3603.57 3231.51C3608.87 3239.08 3612.49 3247.69 3614.2 3256.77L3784.16 3784.83C3790.76 3801.79 3790.42 3820.66 3783.2 3837.37C3775.98 3854.07 3762.48 3867.26 3745.6 3874.07H3745.02ZM4111.8 4072.47C4094.13 4076.95 4075.4 4074.26 4059.71 4064.98C4044.02 4055.7 4032.64 4040.59 4028.05 4022.95L3857.94 3494.88C3854.04 3486.51 3851.97 3477.4 3851.86 3468.16C3851.74 3458.93 3853.6 3449.77 3857.3 3441.31C3860.99 3432.84 3866.45 3425.26 3873.3 3419.07C3880.15 3412.87 3888.24 3408.21 3897.04 3405.38C3905.83 3402.55 3915.12 3401.62 3924.3 3402.66C3933.48 3403.7 3942.33 3406.68 3950.27 3411.41C3958.21 3416.13 3965.05 3422.49 3970.35 3430.06C3975.64 3437.63 3979.26 3446.24 3980.97 3455.31L4150.93 3983.53C4157.49 4000.51 4157.06 4019.41 4149.72 4036.08C4142.39 4052.75 4128.75 4065.83 4111.8 4072.47ZM4478.14 4270.73C4460.45 4275.22 4441.7 4272.52 4425.99 4263.25C4410.28 4253.97 4398.86 4238.86 4394.24 4221.21L4224.28 3693.14C4212.01 3654.73 4229.48 3614.73 4263.42 3603.9C4281.15 3599.39 4299.94 3602.1 4315.68 3611.44C4331.41 3620.79 4342.79 3635.99 4347.31 3653.72L4517.27 4181.93C4523.74 4198.88 4523.26 4217.7 4515.93 4234.31C4508.61 4250.91 4495.02 4263.95 4478.14 4270.59V4270.73Z" fill="white"/>
<path d="M5426.12 2739.38C5412.83 2708.19 5356.66 2740.68 5298.03 2775.63C5244.03 2807.69 5139.19 2869.2 5130.67 2858.66C5122.16 2848.12 5124.18 2800.9 5108 2771.15C5091.83 2741.41 5054.87 2735.34 5057.32 2762.49C5058.76 2778.08 5053.57 2830.93 5052.41 2855.05C5051.26 2879.16 5048.08 2911.8 5025.7 2927.97C5003.32 2944.14 4551.49 3053.89 4551.49 3053.89C4551.49 3053.89 4176.92 2872.81 4100.39 2830.64C4023.86 2788.48 3961.62 2747.33 3854.05 2761.91C3716.58 2824.87 3775.49 2951.36 3843.5 3029.77C3880.76 3073.09 3899.39 3042.48 4027.61 3084.35C4182.55 3134.89 4422.98 3277.85 4551.49 3286.51C4693 3259.94 5060.06 3122.76 5096.31 3113.23C5139.63 3102.26 5168.51 3108.47 5203.45 3098.79C5245.62 3087.82 5281.86 3080.31 5318.97 3054.03C5324.53 3050.83 5329.34 3046.46 5333.05 3041.22C5336.76 3035.99 5339.3 3030.01 5340.49 3023.71C5340.49 3017.21 5338.9 3010.71 5339.33 3004.07C5341.93 2993.53 5343.76 2982.81 5344.82 2972.01C5343.52 2957.57 5326.91 2946.16 5326.48 2932.16C5326.48 2926.09 5334.13 2908.76 5331.82 2903.28C5326.91 2891.15 5320.85 2888.84 5314.93 2879.45C5311.61 2874.54 5302.51 2866.31 5307.71 2860.1C5312.91 2853.89 5332.4 2843.5 5371.1 2811.58C5409.8 2779.67 5435.21 2760.61 5426.12 2739.38Z" fill="#9A4A4D"/>
<path d="M4175.77 4570.5C3995.41 4710.86 3677.88 4651.08 3515.72 4541.63C3369.88 4443.58 3199.63 4220.48 3199.63 4220.48C3199.63 4220.48 3187.21 4101.5 3248.29 4084.03L4175.77 4570.5Z" fill="#384B78"/>
<path opacity="0.5" d="M4175.77 4570.5C3995.41 4710.86 3677.88 4651.08 3515.72 4541.63C3369.88 4443.58 3199.63 4220.48 3199.63 4220.48C3199.63 4220.48 3187.21 4101.5 3248.29 4084.03L4175.77 4570.5Z" fill="black"/>
<path opacity="0.2" d="M3214.36 4111.32C3206.3 4126.37 3201.76 4143.06 3201.07 4160.12C3267.19 4234.2 3343.35 4298.65 3427.35 4351.6C3634.56 4485.16 3778.38 4495.99 3778.38 4495.99C3659.46 4449.44 3546.12 4389.72 3440.49 4317.95C3311.54 4231.31 3250.46 4171.24 3214.36 4111.32Z" fill="black"/>
<path d="M3025.92 4348.56C2988.95 4359.54 2920.8 4347.84 2871.12 4298.31C2821.45 4248.78 2801.38 4168.35 2846.29 4101.35C2891.2 4034.35 2938.41 4003.59 2964.12 3961.86C2989.82 3920.13 3002.53 3854.14 3031.41 3819.2C3042.83 3805.73 3057.03 3794.89 3073.03 3787.42C3089.03 3779.94 3106.45 3776 3124.11 3775.88C3135.41 3775.65 3146.62 3778 3156.88 3782.75C3167.14 3787.51 3176.18 3794.54 3183.31 3803.31L3197.75 3820.06L3025.92 4348.56Z" fill="#263238"/>
<path d="M3394.86 4450.51C3394.86 4450.51 3240.64 4285.32 3171.76 4214.71C3102.88 4144.09 3068.95 4128.07 3085.84 4048.07C3102.74 3968.07 3220.86 3906.56 3220.86 3906.56L3368.29 4078.25L3536.08 4286.04C3476.01 4297.16 3397.17 4371.81 3394.86 4450.51Z" fill="#37474F"/>
<path d="M3171.76 4214.7L3091.33 4216C3091.33 4216 3100 4309.72 3074.15 4330.08C3035.74 4360.4 3003.25 4354.19 2938.99 4306.11C2865.35 4251.24 2844.7 4183.23 2869.68 4126.62C2905.2 4045.9 3004.11 4011.1 3024.04 3928.36C3043.97 3845.62 3119.78 3749.88 3210.46 3831.33C3275.01 3887.5 3304.18 4070.74 3304.18 4070.74L3171.76 4214.7Z" fill="#37474F"/>
<path d="M3143.03 3989.44C3139.71 3989.44 3136.53 3989.44 3133.35 3989.44C3051.04 3981.94 3017.11 3941.79 3015.67 3940.2L3028.95 3929.23L3022.31 3934.72L3028.95 3929.09C3028.95 3929.09 3060.29 3965.47 3134.94 3972.4C3209.59 3979.34 3297.1 3887.35 3297.97 3885.77L3310.53 3897.61C3306.77 3901.79 3223.89 3989.44 3143.03 3989.44Z" fill="#263238"/>
<path d="M2941.45 4200.27C2916.61 4200.27 2880.94 4197.23 2863.9 4222.36C2883.11 4256.29 2892.78 4278.67 2932.93 4309C2997.33 4357.08 3035.74 4360.69 3074.15 4330.37C3100 4310.01 3091.33 4216.29 3091.33 4216.29C3027.8 4219.76 2981.01 4199.25 2941.45 4200.27Z" fill="#263238"/>
<path d="M3140.86 4216.87C3124.11 4208.64 3104.9 4208.5 3088.3 4198.68C3079.82 4194.1 3072.44 4187.74 3066.64 4180.05C3063.03 4175.43 3060.57 4171.1 3054.22 4170.66C3051.04 4170.66 3046.42 4171.96 3047 4176.01C3052.92 4215.72 3107.94 4231.31 3140.57 4221.35C3141.08 4221.26 3141.54 4221 3141.89 4220.61C3142.23 4220.23 3142.43 4219.74 3142.47 4219.22C3142.5 4218.71 3142.36 4218.2 3142.07 4217.77C3141.78 4217.34 3141.35 4217.03 3140.86 4216.87V4216.87Z" fill="#263238"/>
<path d="M3194.14 4178.61C3198.19 4173.41 3202.52 4170.67 3204.54 4164.17C3204.65 4163.45 3204.51 4162.71 3204.15 4162.07C3203.78 4161.44 3203.2 4160.96 3202.52 4160.7C3183.75 4153.77 3169.74 4186.69 3171.04 4212.4L3160.93 4206.48C3153.63 4202.02 3147.01 4196.52 3141.29 4190.16C3135.67 4184.17 3131.17 4177.23 3128.01 4169.65C3125.99 4163.59 3128.01 4155.21 3124.69 4150.16C3124.09 4149.51 3123.37 4148.99 3122.56 4148.63C3121.75 4148.27 3120.88 4148.09 3119.99 4148.09C3119.11 4148.09 3118.24 4148.27 3117.43 4148.63C3116.62 4148.99 3115.9 4149.51 3115.3 4150.16C3102.16 4166.33 3118.19 4190.16 3129.74 4202.58C3138.98 4212.4 3157.76 4225.1 3172.34 4221.64C3172.85 4226.13 3174.83 4230.33 3177.96 4233.59C3181.09 4236.85 3185.2 4238.99 3189.67 4239.69C3191.4 4239.69 3194.29 4238.82 3192.99 4236.51C3188.3 4224.74 3186.52 4212.01 3187.79 4199.4C3187.63 4191.97 3189.86 4184.68 3194.14 4178.61V4178.61Z" fill="#263238"/>
<path d="M3229.96 4193.05C3231.4 4191.17 3229.95 4189.29 3227.93 4188.71C3212.05 4183.08 3202.09 4210.52 3199.05 4220.92C3195.88 4235.36 3195.3 4269.29 3215.66 4268.57C3217.1 4268.57 3220.28 4267.7 3219.85 4265.68C3215.5 4252.21 3213.5 4238.09 3213.93 4223.95C3216.6 4212.47 3222.11 4201.84 3229.96 4193.05Z" fill="#263238"/>
<path d="M3264.47 4227.56C3265.91 4225.68 3264.47 4223.8 3262.3 4223.08C3246.56 4217.45 3236.6 4245.03 3233.42 4255.43C3230.1 4269.15 3229.67 4303.66 3250.03 4302.93C3251.33 4302.93 3254.5 4302.07 3254.21 4300.05C3249.74 4286.6 3247.69 4272.48 3248.15 4258.32C3250.82 4246.82 3256.44 4236.22 3264.47 4227.56V4227.56Z" fill="#263238"/>
<path d="M3298.83 4261.93C3300.28 4260.05 3298.83 4258.17 3296.81 4257.59C3280.93 4251.96 3270.96 4279.4 3267.93 4289.79C3264.75 4304.23 3264.18 4338.17 3284.54 4337.45C3285.98 4337.45 3289.16 4336.58 3288.72 4334.56C3284.38 4321.09 3282.38 4306.97 3282.8 4292.83C3285.47 4281.35 3290.98 4270.72 3298.83 4261.93Z" fill="#263238"/>
<path d="M3333.34 4296.44C3334.79 4294.56 3333.34 4292.68 3331.18 4292.1C3315.44 4286.33 3305.48 4313.91 3303.02 4324.3C3299.7 4338.02 3299.27 4372.68 3319.63 4371.81C3320.93 4371.81 3324.1 4370.94 3323.81 4368.92C3319.41 4355.46 3317.36 4341.35 3317.75 4327.19C3320.24 4315.78 3325.61 4305.19 3333.34 4296.44Z" fill="#263238"/>
<path d="M3368.29 4330.95C3369.73 4329.07 3368.29 4327.05 3366.27 4326.47C3350.38 4320.84 3340.42 4348.28 3337.39 4358.67C3334.21 4373.11 3333.63 4407.05 3354.14 4406.32C3355.44 4406.32 3358.61 4405.46 3358.18 4403.44C3353.84 4389.97 3351.83 4375.85 3352.26 4361.71C3354.9 4350.26 3360.42 4339.67 3368.29 4330.95V4330.95Z" fill="#263238"/>
<path d="M4498.79 4233.48C4484.35 4171.53 4365.07 4032.76 4248.83 3935.3C4132.59 3837.83 3947.18 3674.37 3947.18 3674.37L3202.37 3718.84C3157.03 3785.7 3141.44 3914.5 3167.14 3997.53C3201.94 4110.02 3234.72 4178.46 3440.2 4318.39C3545.96 4390.24 3659.45 4450 3778.52 4496.57C3876.43 4534.84 3935.63 4596.06 3958.01 4600.69C4013.75 4612.24 4078.3 4615.13 4131.29 4596.06C4202.48 4570.22 4229.05 4503.94 4208.98 4433.33C4223.42 4434.63 4236.7 4435.35 4249.55 4435.49C4263.99 4435.49 4278.43 4435.49 4289.12 4435.49C4328.35 4436.54 4367.47 4430.63 4404.64 4418.02C4486.94 4387.84 4519.43 4323.15 4498.79 4233.48Z" fill="#384B78"/>
<path opacity="0.5" d="M4498.79 4233.48C4484.35 4171.53 4365.07 4032.76 4248.83 3935.3C4132.59 3837.83 3947.18 3674.37 3947.18 3674.37L3202.37 3718.84C3157.03 3785.7 3141.44 3914.5 3167.14 3997.53C3201.94 4110.02 3234.72 4178.46 3440.2 4318.39C3545.96 4390.24 3659.45 4450 3778.52 4496.57C3876.43 4534.84 3935.63 4596.06 3958.01 4600.69C4013.75 4612.24 4078.3 4615.13 4131.29 4596.06C4202.48 4570.22 4229.05 4503.94 4208.98 4433.33C4223.42 4434.63 4236.7 4435.35 4249.55 4435.49C4263.99 4435.49 4278.43 4435.49 4289.12 4435.49C4328.35 4436.54 4367.47 4430.63 4404.64 4418.02C4486.94 4387.84 4519.43 4323.15 4498.79 4233.48Z" fill="black"/>
<path opacity="0.05" d="M4043.64 3816.74C4021.12 3844.03 4008.84 3858.76 3972.45 3868.87C3943.57 3876.81 3907.19 3877.53 3895.92 3904.68C3883.79 3933.56 3915.99 3962.44 3946.03 3973.13C3976.06 3983.81 4012.31 3989.73 4027.47 4017.75C4032.06 4028.37 4035.83 4039.32 4038.73 4050.52C4043.91 4065.6 4053.15 4078.96 4065.43 4089.12C4077.71 4099.29 4092.56 4105.87 4108.34 4108.14C4124.12 4110.41 4140.22 4108.28 4154.87 4101.98C4169.52 4095.69 4182.14 4085.48 4191.36 4072.47C4198.39 4060.55 4206.15 4049.07 4214.61 4038.11C4243.49 4008.5 4292.01 4017.6 4330.13 4032.91C4340.95 4037.51 4352.16 4041.13 4363.63 4043.74C4327.53 4005.46 4289.3 3969.26 4249.12 3935.29C4199.3 3893.42 4137.07 3839.7 4081.91 3791.91C4066.89 3796.03 4053.52 3804.7 4043.64 3816.74Z" fill="black"/>
<path opacity="0.15" d="M3466.48 4059.77C3467.78 4109.01 3513.7 4148.72 3562.36 4156.08C3611.02 4163.45 3660.12 4144.82 3702.14 4119.26C3719.37 4109.73 3734.54 4096.87 3746.76 4081.43C3752.78 4073.65 3756.96 4064.6 3758.99 4054.97C3761.01 4045.34 3760.83 4035.38 3758.45 4025.83C3751.75 4008.36 3739.13 3993.79 3722.79 3984.68C3698.81 3969.17 3671.77 3959.02 3643.51 3954.93C3625.06 3953.38 3606.69 3950.88 3588.5 3947.42C3537.09 3934.14 3494.78 3909.01 3441.07 3904.1C3406.41 3900.35 3334.35 3918.54 3368.87 3971.39C3390.67 4004.75 3454.49 3997.53 3464.6 4036.23C3466.12 4043.98 3466.75 4051.88 3466.48 4059.77V4059.77Z" fill="black"/>
<path opacity="0.05" d="M3641.2 4379.47C3647.84 4398.09 3672.1 4402.43 3691.89 4403C3759.32 4404.74 3857.08 4368.64 3905.31 4435.35C3917 4451.38 3923.93 4472.75 3942.27 4480.4C3949.79 4482.85 3957.85 4483.12 3965.52 4481.18C3973.19 4479.23 3980.15 4475.16 3985.59 4469.43C3996.43 4457.62 4003.87 4443.1 4007.11 4427.41C4016.12 4396 4015.01 4362.55 4003.93 4331.82C3998.18 4316.56 3988.89 4302.89 3976.81 4291.95C3964.73 4281 3950.22 4273.08 3934.48 4268.86C3914.98 4264.53 3892.74 4266.4 3876.72 4254.42C3841.19 4225.54 3879.6 4180.77 3836.57 4156.95C3782.42 4126.77 3636 4160.41 3648.85 4241.57C3649.52 4246.14 3650.63 4250.64 3652.18 4255C3657.52 4270.3 3669.79 4283.87 3670.08 4299.61C3671.53 4328.49 3631.53 4351.6 3641.2 4379.47Z" fill="black"/>
<path opacity="0.05" d="M4176.92 4456.86C4152.08 4449.93 4093.6 4458.02 4075.84 4477.66C4058.08 4497.29 4063.28 4525.02 4053.6 4547.98C4048.45 4558.59 4041.06 4567.96 4031.93 4575.44C4022.81 4582.92 4012.17 4588.33 4000.75 4591.3C3977.92 4596.95 3954.31 4598.8 3930.87 4596.78C3912.82 4596.06 3892.46 4595.63 3879.89 4608.48C3874.95 4614.44 3871.84 4621.7 3870.94 4629.39C3870.05 4637.08 3871.4 4644.86 3874.84 4651.8C3975.92 4655.84 4077 4637.36 4155.12 4585.23C4173.22 4575.17 4188.39 4560.55 4199.1 4542.82C4209.82 4525.09 4215.71 4504.86 4216.2 4484.15C4206.45 4471 4192.65 4461.42 4176.92 4456.86V4456.86Z" fill="black"/>
<path opacity="0.05" d="M3281.65 4095.43C3316.02 4072.62 3317.32 4023.23 3310.53 3981.93C3303.74 3940.64 3291.9 3896.45 3312.55 3860.64C3331.47 3828 3374.5 3807.93 3376.95 3770.25C3378.54 3745.84 3361.36 3724.9 3341.14 3710.18L3194 3718.84C3148.66 3785.7 3133.06 3914.5 3158.77 3997.53C3168.47 4031.88 3181.63 4065.17 3198.04 4096.88C3201.51 4098.32 3204.97 4099.76 3208.58 4100.92C3220.44 4105.31 3233.11 4107.09 3245.71 4106.15C3258.32 4105.2 3270.58 4101.55 3281.65 4095.43Z" fill="black"/>
<path opacity="0.1" d="M3898.09 3699.35C3815.48 3685.74 3730.69 3696.64 3654.2 3730.68C3636.73 3738.62 3615.21 3735.3 3603.51 3753.06C3545.76 3841.29 3685.1 3910.17 3753.69 3907.42C3766.3 3907.46 3778.74 3904.44 3789.93 3898.62C3818.81 3882.3 3827.19 3840.86 3858.38 3830.17C3877.87 3823.96 3899.97 3832.91 3919.31 3825.98C3940.97 3818.33 3951.37 3793.78 3955.13 3771.26C3958.96 3755.5 3956.79 3738.87 3949.06 3724.62C3942.72 3717.17 3934.93 3711.09 3926.17 3706.75C3917.41 3702.4 3907.85 3699.89 3898.09 3699.35V3699.35Z" fill="black"/>
<path opacity="0.05" d="M4492.29 4242.72C4492.29 4239.69 4491.13 4236.66 4490.41 4233.48C4482.9 4200.41 4445.21 4145.4 4394.1 4086.48C4381.57 4094.41 4367.39 4099.35 4352.66 4100.92C4334.6 4099.74 4316.53 4102.91 4299.95 4110.16C4294.75 4113.6 4290.28 4118.03 4286.82 4123.21C4283.35 4128.39 4280.94 4134.2 4279.75 4140.32C4278.55 4146.43 4278.59 4152.73 4279.85 4158.83C4281.11 4164.93 4283.57 4170.72 4287.1 4175.86C4306.16 4200.99 4350.2 4206.04 4355.54 4236.94C4357.13 4246.33 4354.39 4256 4355.54 4265.82C4358.07 4275.52 4363.89 4284.05 4372 4289.94C4383.25 4299.13 4397.06 4304.6 4411.54 4305.61C4426.02 4306.62 4440.46 4303.11 4452.87 4295.57C4470.02 4281.33 4483.53 4263.22 4492.29 4242.72V4242.72Z" fill="black"/>
<path opacity="0.05" d="M3539.4 4406.47C3555.52 4405.95 3571.17 4400.95 3584.6 4392.03C3613.48 4370.51 3615.5 4326.33 3599.04 4294.41C3595.52 4286.34 3590.39 4279.08 3583.96 4273.07C3577.53 4267.06 3569.93 4262.43 3561.64 4259.47C3544.6 4254.56 3526.26 4260.19 3509.08 4256.58C3500.4 4254.74 3492.35 4250.68 3485.69 4244.82C3479.04 4238.95 3474.01 4231.46 3471.1 4223.08C3466.19 4208.64 3467.92 4192.61 3462.29 4178.61C3458.06 4169.94 3452 4162.3 3444.51 4156.22C3437.03 4150.13 3428.32 4145.75 3418.97 4143.37C3384.89 4132.54 3335.94 4133.99 3308.51 4157.81C3286.7 4176.87 3271.25 4206.76 3278.76 4234.78C3286.05 4254.35 3298.65 4271.5 3315.15 4284.31C3380.27 4344.66 3440.49 4415.85 3539.4 4406.47Z" fill="black"/>
<path opacity="0.05" d="M4419.37 4412.39C4419.13 4409.43 4418.75 4406.49 4418.21 4403.58C4409.98 4361.7 4370.56 4333.55 4331.57 4315.64C4302.69 4302.36 4266.88 4286.76 4262.69 4254.7C4261.54 4246.18 4262.69 4237.38 4261.54 4228.86C4258.93 4219.67 4254.08 4211.27 4247.43 4204.42C4240.77 4197.56 4232.52 4192.46 4223.42 4189.58C4184.29 4173.55 4128.4 4172.25 4113.82 4216.87C4089.7 4290.51 4154.83 4317.95 4180.39 4372.97C4187.17 4387.41 4192.95 4403.29 4200.31 4417.87C4203.06 4423.33 4206.1 4428.63 4209.41 4433.76V4433.76C4223.85 4435.06 4237.14 4435.78 4249.99 4435.92C4264.43 4435.92 4278.87 4435.92 4289.55 4435.92C4328.79 4436.97 4367.9 4431.06 4405.07 4418.45C4409.98 4416.43 4414.75 4414.41 4419.37 4412.39Z" fill="black"/>
<path opacity="0.05" d="M3507.34 4542.06C3580.26 4588.52 3661.29 4620.81 3746.18 4637.22C3770.87 4629.56 3796.72 4620.18 3812.31 4599.53C3827.91 4578.88 3826.75 4543.07 3802.78 4531.95C3776.65 4519.53 3748.92 4543.5 3721.34 4551.88C3708.88 4555.59 3695.7 4556.15 3682.97 4553.51C3670.24 4550.86 3658.37 4545.09 3648.42 4536.71C3637.54 4525.9 3627.49 4514.26 3618.39 4501.91C3588.64 4467.84 3452.47 4420.18 3425.76 4477.51C3451.39 4500.93 3478.66 4522.5 3507.34 4542.06Z" fill="black"/>
<path opacity="0.2" d="M4250.13 4435.49C4237.28 4435.49 4223.42 4434.63 4209.56 4433.33C4136.49 4277.52 3801.49 4014.71 3780.26 3997.24L3779.25 3996.23C3779.97 3995.22 3780.84 3994.64 3781.7 3993.63L3797.15 3971.39C3812.1 3940.22 3829.73 3910.41 3849.86 3882.3C3841.37 3917.85 3829.52 3952.52 3814.48 3985.83C3863.72 4029.88 4048.7 4185.97 4104 4238.39C4162.48 4293.69 4222.12 4357.52 4250.13 4435.49Z" fill="black"/>
<path d="M3854.05 2762.05C3918.61 2809.93 3969.21 2874.19 4000.61 2948.18C4051.44 3059.08 4048.7 3152.22 3953.25 3278.28C3953.25 3308.17 3903.72 3478.27 3903.72 3478.27C3903.72 3478.27 3947.9 3660.07 3947.04 3674.51C3947.04 3674.51 3895.63 3824.11 3634.85 3845.33C3387.49 3865.41 3276.74 3819.05 3185.77 3741.22C3240.35 3586.14 3352.69 3425.42 3352.69 3425.42C3344.03 3256.04 3288 3037.42 3304.18 2975.62C3324.25 2898.8 3452.76 2814.9 3484.53 2811.87L3704.74 2772.88L3854.05 2762.05Z" fill="#37474F"/>
<path d="M3308.94 3697.04C3292.34 3622.38 3377.24 3475.68 3377.24 3475.68L3453.34 3543.54C3412.62 3455.89 3399.48 3355.82 3409.01 3246.08C3409.01 3246.08 3793.83 3366.36 3931.73 3377.34C3941.39 3344.91 3948.58 3311.8 3953.25 3278.28C3954.55 3276.69 3955.56 3275.11 3956.71 3273.52L3870.07 3196.26L3499.69 2971.29L3326.41 2929.99C3316.04 2943.69 3308.21 2959.15 3303.31 2975.62C3287.14 3037.42 3343.16 3256.04 3351.83 3425.42C3351.83 3425.42 3239.48 3586.14 3184.9 3741.22C3275.87 3819.06 3387.06 3865.41 3633.98 3845.34C3634.85 3845.34 3324.97 3771.55 3308.94 3697.04Z" fill="#263238"/>
<path d="M3776.65 2690.29L3747.77 2692.02C3704.22 2694.62 3660.58 2688.61 3619.35 2674.34C3578.13 2660.07 3540.11 2637.82 3507.49 2608.86C3474.86 2579.89 3448.26 2544.78 3429.21 2505.54C3410.16 2466.29 3399.02 2423.67 3396.45 2380.12C3393.83 2336.5 3399.85 2292.79 3414.15 2251.5C3428.46 2210.21 3450.77 2172.15 3479.81 2139.5C3508.85 2106.85 3544.05 2080.25 3583.39 2061.23C3622.73 2042.21 3665.44 2031.14 3709.07 2028.65L3737.95 2027.06C3781.5 2024.57 3825.11 2030.67 3866.3 2045.03C3907.49 2059.39 3945.45 2081.72 3978.01 2110.75C4010.56 2139.78 4037.08 2174.94 4056.05 2214.22C4075.02 2253.51 4086.06 2296.14 4088.55 2339.69V2339.69C4093.6 2427.52 4063.59 2513.77 4005.12 2579.5C3946.64 2645.23 3864.47 2685.08 3776.65 2690.29Z" fill="#263238"/>
<path d="M3213.93 2857.65C3276.15 2854.07 3334.41 2825.93 3375.9 2779.41C3417.38 2732.89 3438.69 2671.8 3435.14 2609.57L3414.93 2255.94C3352.7 2259.51 3294.44 2287.65 3252.96 2334.17C3211.47 2380.69 3190.16 2441.79 3193.71 2504.01L3213.93 2857.65Z" fill="#263238"/>
<path d="M3434.28 2249.15C3424.28 2258.84 3410.85 2264.16 3396.93 2263.94C3383.01 2263.73 3369.75 2257.99 3360.06 2247.99C3350.37 2238 3345.05 2224.56 3345.26 2210.64C3345.48 2196.73 3351.22 2183.46 3361.21 2173.77L3434.28 2249.15Z" fill="#263238"/>
<path d="M3936.35 2182.87C3972.6 2207.13 4058.23 2306.62 4042.77 2504.3C4029.78 2671.81 3973.03 2710.36 3945.16 2720.9C3917.29 2731.44 3864.88 2720.9 3814.19 2709.93L3810 2786.03C3810 2786.03 3851.16 2829.35 3854.05 2858.23C3858.81 2904.43 3775.2 2908.62 3708.49 2881.62C3664.14 2863.62 3625.86 2833.31 3598.17 2794.26L3610.44 2563.22C3610.44 2563.22 3562.5 2594.55 3522.22 2564.66C3467.49 2524.23 3466.62 2452.32 3501.28 2420.26C3535.94 2388.21 3606.26 2403.23 3616.8 2450.01C3616.8 2450.01 3685.39 2471.53 3797.44 2417.67C3909.49 2363.8 3925.52 2247.56 3936.35 2182.87Z" fill="#B16668"/>
<path d="M3823.14 2385.18L3777.95 2410.01C3774.72 2403.8 3774.03 2396.58 3776.03 2389.88C3778.02 2383.17 3782.54 2377.5 3788.63 2374.06C3791.61 2372.43 3794.89 2371.42 3798.26 2371.11C3801.64 2370.79 3805.05 2371.16 3808.28 2372.2C3811.51 2373.24 3814.49 2374.93 3817.05 2377.16C3819.6 2379.39 3821.68 2382.12 3823.14 2385.18V2385.18Z" fill="#263238"/>
<path d="M3855.63 2594.41L3903.72 2612.75C3902.67 2615.98 3900.97 2618.97 3898.74 2621.53C3896.5 2624.1 3893.77 2626.18 3890.71 2627.66C3887.65 2629.15 3884.32 2630 3880.92 2630.16C3877.53 2630.33 3874.13 2629.81 3870.94 2628.63C3864.46 2626.02 3859.24 2620.99 3856.38 2614.61C3853.53 2608.23 3853.26 2600.98 3855.63 2594.41Z" fill="#9A4A4D"/>
<path d="M4021.84 2445.53C4021.67 2449.7 4020.28 2453.72 4017.84 2457.09C4015.4 2460.47 4012.02 2463.06 4008.12 2464.53C4004.22 2466 3999.97 2466.29 3995.91 2465.36C3991.85 2464.44 3988.15 2462.33 3985.27 2459.32C3982.4 2456.31 3980.47 2452.51 3979.73 2448.41C3979 2444.31 3979.49 2440.08 3981.14 2436.26C3982.79 2432.43 3985.53 2429.17 3989.02 2426.9C3992.51 2424.62 3996.59 2423.41 4000.76 2423.44C4006.47 2423.59 4011.9 2426 4015.85 2430.14C4019.8 2434.28 4021.95 2439.81 4021.84 2445.53V2445.53Z" fill="#263238"/>
<path d="M3854.62 2455.21C3854.66 2458.03 3854.14 2460.82 3853.09 2463.44C3852.05 2466.06 3850.49 2468.44 3848.52 2470.46C3846.54 2472.47 3844.19 2474.07 3841.6 2475.17C3839 2476.27 3836.22 2476.85 3833.4 2476.87C3829.02 2477.01 3824.69 2475.84 3820.98 2473.5C3817.27 2471.17 3814.35 2467.78 3812.58 2463.76C3810.82 2459.75 3810.3 2455.3 3811.08 2450.99C3811.87 2446.68 3813.93 2442.7 3817 2439.57C3820.07 2436.44 3824 2434.3 3828.3 2433.42C3832.59 2432.55 3837.05 2432.98 3841.1 2434.66C3845.15 2436.35 3848.6 2439.2 3851.01 2442.86C3853.42 2446.53 3854.68 2450.82 3854.62 2455.21V2455.21Z" fill="#263238"/>
<path d="M3922.92 2428.06L3919.31 2555.28L3987.33 2538.24L3922.92 2428.06Z" fill="#9A4A4D"/>
<path d="M3814.19 2709.78C3771.74 2702.56 3687.7 2671.95 3669.79 2642.2C3669.79 2642.2 3669.79 2661.84 3695.93 2690C3722.07 2718.16 3811.45 2742.42 3811.45 2742.42L3814.19 2709.78Z" fill="#9A4A4D"/>
<path d="M3910.36 2166.41C3910.36 2166.41 3940.54 2297.52 3889.42 2415.64C3889.42 2415.64 4050.72 2434.56 4066.31 2312.68C4066.31 2312.68 4064 2211.61 3995.7 2147.93L3910.36 2166.41Z" fill="#263238"/>
<path d="M3484.53 2811.87C3365.69 2828.48 3291.32 2897.21 3294.36 2991.65C3297.39 3086.08 3400.92 3142.54 3508.93 3196.12C3649.29 3265.86 3937.94 3364.34 4016.78 3368.38C4095.62 3372.43 4418.64 2904.58 4418.64 2904.58L4243.63 2836.13L3979.53 3118L3629.51 2960.6C3629.51 2960.6 3562.36 2857.36 3484.53 2811.87Z" fill="#B16668"/>
<path d="M4509.76 2456.07C4502.44 2452.63 4494.33 2451.22 4486.28 2451.98C4478.23 2452.75 4470.53 2455.65 4463.99 2460.41C4445.15 2472.79 4429.47 2489.42 4418.21 2508.95C4406.96 2528.48 4400.43 2550.38 4399.15 2572.89C4398.35 2580.78 4399.6 2588.75 4402.79 2596.01C4405.98 2603.27 4410.99 2609.59 4417.35 2614.34C4421.24 2616.65 4446.23 2630.51 4450.41 2632.67C4457.78 2636.05 4465.91 2637.41 4473.98 2636.62C4482.04 2635.83 4489.75 2632.93 4496.33 2628.2C4515.17 2615.81 4530.85 2599.18 4542.1 2579.65C4553.36 2560.12 4559.89 2538.22 4561.17 2515.71C4561.99 2507.75 4560.71 2499.72 4557.44 2492.42C4554.17 2485.11 4549.03 2478.81 4542.54 2474.12C4538.79 2471.81 4513.52 2458.1 4509.76 2456.07Z" fill="#455A64"/>
<path d="M4431.35 2590.65C4431.35 2632.1 4460.23 2648.41 4496.33 2628.2C4515.17 2615.81 4530.85 2599.18 4542.1 2579.65C4553.36 2560.12 4559.89 2538.22 4561.17 2515.71C4561.17 2474.41 4532.29 2457.95 4496.33 2478.31C4477.42 2490.6 4461.68 2507.18 4450.39 2526.7C4439.1 2546.22 4432.57 2568.13 4431.35 2590.65V2590.65Z" fill="#37474F"/>
<path d="M4906.71 2622.86L4532.86 2486.98C4530.46 2485.88 4527.85 2485.34 4525.21 2485.39C4517.79 2485.81 4510.59 2488.09 4504.27 2492.03C4487.84 2502.98 4474.15 2517.57 4464.28 2534.68C4454.41 2551.79 4448.63 2570.94 4447.38 2590.65C4447.38 2598.31 4448.68 2614.34 4459.65 2619.53L4793.94 2819.38L4906.71 2622.86Z" fill="#384B78"/>
<path opacity="0.5" d="M4906.71 2622.86L4532.86 2486.98C4530.46 2485.88 4527.85 2485.34 4525.21 2485.39C4517.79 2485.81 4510.59 2488.09 4504.27 2492.03C4487.84 2502.98 4474.15 2517.57 4464.28 2534.68C4454.41 2551.79 4448.63 2570.94 4447.38 2590.65C4447.38 2598.31 4448.68 2614.34 4459.65 2619.53L4793.94 2819.38L4906.71 2622.86Z" fill="black"/>
<path d="M4872.78 2576.79C4855.16 2566.54 4831.05 2567.98 4804.19 2583.43C4775.9 2601.85 4752.36 2626.69 4735.47 2655.92C4718.58 2685.15 4708.83 2717.95 4707.01 2751.66C4707.01 2782.12 4717.55 2803.5 4734.44 2813.89C4740.22 2817.36 4777.76 2838.01 4783.83 2841.18C4801.3 2851.29 4825.56 2849.99 4852.42 2834.54C4880.71 2816.09 4904.25 2791.23 4921.14 2761.98C4938.02 2732.72 4947.77 2699.9 4949.6 2666.17C4949.6 2635.56 4939.06 2614.04 4921.73 2603.79C4916.24 2600.47 4878.27 2579.97 4872.78 2576.79Z" fill="#455A64"/>
<path d="M4755.38 2778.37C4755.38 2840.32 4798.7 2865.01 4852.42 2834.54C4880.71 2816.09 4904.25 2791.23 4921.14 2761.98C4938.02 2732.72 4947.77 2699.9 4949.6 2666.17C4949.6 2604.23 4906.28 2579.53 4852.42 2610.15C4824.16 2628.59 4800.65 2653.43 4783.8 2682.66C4766.94 2711.89 4757.2 2744.68 4755.38 2778.37V2778.37Z" fill="#37474F"/>
<path d="M4809.1 2823.86C4782.1 2823.86 4779.21 2792.09 4779.21 2778.37C4781.06 2748.87 4789.72 2720.19 4804.5 2694.59C4819.28 2668.99 4839.78 2647.16 4864.4 2630.8C4873.89 2624.88 4884.72 2621.46 4895.88 2620.83C4922.74 2620.83 4925.77 2652.6 4925.77 2666.17C4923.91 2695.67 4915.25 2724.34 4900.47 2749.94C4885.69 2775.54 4865.19 2797.38 4840.58 2813.75C4831.13 2819.76 4820.29 2823.24 4809.1 2823.86V2823.86Z" fill="#263238"/>
<path d="M4893.86 2634.26C4893.83 2629.82 4893.49 2625.38 4892.85 2620.98C4882.62 2622.08 4872.75 2625.43 4863.97 2630.8C4839.35 2647.16 4818.85 2668.99 4804.07 2694.59C4789.29 2720.19 4780.63 2748.87 4778.78 2778.37C4778.81 2782.82 4779.15 2787.26 4779.79 2791.66C4790.03 2790.62 4799.91 2787.26 4808.67 2781.84C4833.31 2765.5 4853.83 2743.67 4868.61 2718.07C4883.4 2692.46 4892.04 2663.77 4893.86 2634.26Z" fill="#384B78"/>
<path opacity="0.3" d="M4893.86 2634.26C4893.83 2629.82 4893.49 2625.38 4892.85 2620.98C4882.62 2622.08 4872.75 2625.43 4863.97 2630.8C4839.35 2647.16 4818.85 2668.99 4804.07 2694.59C4789.29 2720.19 4780.63 2748.87 4778.78 2778.37C4778.81 2782.82 4779.15 2787.26 4779.79 2791.66C4790.03 2790.62 4799.91 2787.26 4808.67 2781.84C4833.31 2765.5 4853.83 2743.67 4868.61 2718.07C4883.4 2692.46 4892.04 2663.77 4893.86 2634.26Z" fill="black"/>
<path d="M4839.42 2660.83C4857.62 2638.74 4881.15 2631.95 4884.91 2639.6C4888.66 2647.26 4877.11 2727.4 4800.15 2774.18C4825.7 2751.29 4846.67 2723.75 4861.95 2693.03C4873.79 2666.46 4862.96 2644.8 4839.42 2660.83Z" fill="#E0E0E0"/>
<path d="M4347.89 2549.5C4340.56 2546.08 4332.44 2544.69 4324.39 2545.48C4316.34 2546.27 4308.65 2549.2 4302.12 2553.97C4283.21 2566.26 4267.46 2582.84 4256.17 2602.36C4244.88 2621.89 4238.36 2643.8 4237.14 2666.32C4236.34 2674.24 4237.6 2682.24 4240.82 2689.53C4244.03 2696.82 4249.08 2703.15 4255.47 2707.9C4259.37 2710.21 4284.35 2723.93 4288.4 2726.1C4295.75 2729.51 4303.89 2730.9 4311.97 2730.11C4320.04 2729.33 4327.76 2726.39 4334.32 2721.62C4353.21 2709.32 4368.94 2692.73 4380.23 2673.21C4391.52 2653.7 4398.05 2631.79 4399.3 2609.28C4400.09 2601.3 4398.79 2593.26 4395.52 2585.94C4392.26 2578.62 4387.13 2572.28 4380.67 2567.55L4347.89 2549.5Z" fill="#455A64"/>
<path d="M4269.48 2684.22C4269.48 2725.52 4298.36 2741.98 4334.32 2721.62C4353.21 2709.32 4368.94 2692.73 4380.23 2673.22C4391.52 2653.7 4398.05 2631.79 4399.3 2609.28C4399.3 2567.84 4370.42 2551.52 4334.32 2571.74C4315.42 2584.06 4299.7 2600.68 4288.44 2620.22C4277.17 2639.77 4270.68 2661.69 4269.48 2684.22V2684.22Z" fill="#37474F"/>
<path d="M4680.01 2753.82L4372.44 2580.54H4371.43C4369.08 2579.45 4366.51 2578.9 4363.92 2578.96C4356.42 2579.35 4349.16 2581.69 4342.84 2585.74C4326.39 2596.68 4312.7 2611.28 4302.83 2628.39C4292.96 2645.5 4287.18 2664.65 4285.94 2684.37C4285.58 2689.24 4286.21 2694.13 4287.8 2698.75C4289.39 2703.37 4291.9 2707.61 4295.18 2711.23L4566.8 2950.21L4680.01 2753.82Z" fill="#384B78"/>
<path opacity="0.5" d="M4680.01 2753.82L4372.44 2580.54H4371.43C4369.08 2579.45 4366.51 2578.9 4363.92 2578.96C4356.42 2579.35 4349.16 2581.69 4342.84 2585.74C4326.39 2596.68 4312.7 2611.28 4302.83 2628.39C4292.96 2645.5 4287.18 2664.65 4285.94 2684.37C4285.58 2689.24 4286.21 2694.13 4287.8 2698.75C4289.39 2703.37 4291.9 2707.61 4295.18 2711.23L4566.8 2950.21L4680.01 2753.82Z" fill="black"/>
<path d="M4676.11 2747.9C4667.37 2736.8 4663 2722.88 4663.83 2708.77C4665.04 2680.17 4674.3 2652.49 4690.55 2628.92L4560.59 2703.57C4566.6 2700.54 4573.1 2698.59 4579.79 2697.8L4679.57 2753.82L4676.11 2747.9Z" fill="#263238"/>
<path d="M4646.07 2707.62C4628.46 2697.51 4604.34 2698.81 4577.48 2714.4C4549.16 2732.8 4525.58 2757.62 4508.67 2786.86C4491.76 2816.09 4481.99 2848.9 4480.16 2882.63C4480.16 2912.95 4490.56 2934.32 4507.59 2944.72C4513.37 2948.18 4550.91 2968.83 4556.98 2972.01C4574.45 2982.26 4598.71 2980.82 4625.57 2965.37C4653.86 2946.95 4677.4 2922.11 4694.29 2892.88C4711.17 2863.65 4720.92 2830.85 4722.75 2797.14C4722.75 2766.53 4712.21 2745.02 4694.88 2734.76C4689.39 2731.3 4651.56 2710.79 4646.07 2707.62Z" fill="#455A64"/>
<path d="M4528.68 2909.34C4528.68 2971.29 4572 2995.98 4625.71 2965.37C4654 2946.95 4677.55 2922.11 4694.43 2892.88C4711.32 2863.65 4721.07 2830.85 4722.89 2797.14C4722.89 2735.2 4679.57 2710.5 4625.71 2740.97C4597.46 2759.46 4573.96 2784.33 4557.1 2813.58C4540.25 2842.83 4530.51 2875.63 4528.68 2909.34V2909.34Z" fill="#37474F"/>
<path d="M4582.39 2954.68C4555.39 2954.68 4552.5 2922.92 4552.5 2909.34C4554.32 2879.83 4562.97 2851.14 4577.75 2825.54C4592.53 2799.93 4613.05 2778.1 4637.7 2761.77C4647.14 2755.73 4657.99 2752.25 4669.18 2751.66C4696.04 2751.66 4699.07 2783.43 4699.07 2797.14C4697.18 2826.64 4688.51 2855.3 4673.73 2880.9C4658.96 2906.49 4638.47 2928.34 4613.87 2944.72C4604.38 2950.63 4593.56 2954.06 4582.39 2954.68Z" fill="#263238"/>
<path d="M4667.88 2765.23C4667.84 2760.79 4667.5 2756.35 4666.87 2751.95C4656.62 2752.98 4646.74 2756.34 4637.99 2761.77C4613.34 2778.1 4592.82 2799.93 4578.04 2825.54C4563.26 2851.14 4554.61 2879.83 4552.79 2909.34C4552.83 2913.79 4553.16 2918.23 4553.8 2922.63C4564.04 2921.52 4573.9 2918.17 4582.68 2912.81C4607.3 2896.45 4627.81 2874.61 4642.59 2849.01C4657.37 2823.41 4666.02 2794.74 4667.88 2765.23V2765.23Z" fill="#384B78"/>
<path opacity="0.3" d="M4667.88 2765.23C4667.84 2760.79 4667.5 2756.35 4666.87 2751.95C4656.62 2752.98 4646.74 2756.34 4637.99 2761.77C4613.34 2778.1 4592.82 2799.93 4578.04 2825.54C4563.26 2851.14 4554.61 2879.83 4552.79 2909.34C4552.83 2913.79 4553.16 2918.23 4553.8 2922.63C4564.04 2921.52 4573.9 2918.17 4582.68 2912.81C4607.3 2896.45 4627.81 2874.61 4642.59 2849.01C4657.37 2823.41 4666.02 2794.74 4667.88 2765.23V2765.23Z" fill="black"/>
<path d="M4612.72 2791.66C4630.91 2769.56 4654.45 2762.78 4658.2 2770.43C4661.96 2778.08 4650.4 2858.22 4573.44 2905.15C4599.02 2882.23 4619.99 2854.64 4635.24 2823.86C4647.08 2797.43 4636.25 2775.63 4612.72 2791.66Z" fill="#E0E0E0"/>
<path d="M4561.02 2553.25L4690.55 2628.77L4561.02 2703.57L4430.77 2628.49L4561.02 2553.25Z" fill="#37474F"/>
<path d="M4243.63 2836.13C4300.09 2777.36 4277.28 2708.92 4300.38 2660.11C4323.49 2611.3 4420.96 2570.44 4462.54 2580.26C4504.13 2590.08 4632.36 2668.77 4610.7 2701.99C4605.34 2702.85 4600.07 2704.2 4594.96 2706.03L4580.52 2698.38C4544.67 2706.97 4512.89 2727.68 4490.56 2757C4458.21 2804.08 4458.07 2813.17 4457.34 2830.5C4456.62 2847.83 4480.01 2873.82 4480.01 2873.82C4462.69 2890.43 4432.36 2888.26 4405.5 2922.19C4376.62 2957.72 4359.44 2983.27 4359.44 2983.27L4243.63 2836.13Z" fill="#B16668"/>
<path d="M2535.69 3315.54V4325.46L3819.25 5066.51L4115.41 4227.7L2535.69 3315.54ZM2955.6 4330.23C2937.93 4334.7 2919.2 4332.01 2903.51 4322.73C2887.82 4313.45 2876.44 4298.34 2871.85 4280.7L2701.89 3752.49C2698.09 3744.14 2696.11 3735.09 2696.06 3725.93C2696.01 3716.77 2697.9 3707.69 2701.61 3699.31C2705.31 3690.93 2710.75 3683.43 2717.56 3677.3C2724.37 3671.16 2732.4 3666.54 2741.12 3663.73C2749.85 3660.93 2759.07 3659.99 2768.17 3661C2777.28 3662.01 2786.08 3664.93 2793.98 3669.57C2801.88 3674.22 2808.7 3680.48 2814.01 3687.95C2819.32 3695.42 2822.99 3703.93 2824.77 3712.92L2994.87 4241.13C3001.43 4258.16 3000.98 4277.09 2993.62 4293.78C2986.26 4310.48 2972.59 4323.58 2955.6 4330.23V4330.23ZM3321.94 4528.48C3304.25 4532.97 3285.5 4530.27 3269.79 4521C3254.07 4511.72 3242.66 4496.61 3238.04 4478.96L3068.08 3950.89C3064.2 3942.52 3062.14 3933.43 3062.04 3924.21C3061.94 3914.99 3063.8 3905.85 3067.49 3897.4C3071.18 3888.95 3076.63 3881.38 3083.47 3875.19C3090.31 3869.01 3098.38 3864.34 3107.16 3861.51C3115.93 3858.68 3125.21 3857.74 3134.38 3858.76C3143.54 3859.78 3152.38 3862.74 3160.32 3867.44C3168.26 3872.13 3175.11 3878.46 3180.42 3886C3185.72 3893.54 3189.37 3902.12 3191.11 3911.18L3361.07 4439.39C3367.67 4456.4 3367.26 4475.33 3359.93 4492.03C3352.59 4508.73 3338.93 4521.84 3321.94 4528.48V4528.48ZM3688.28 4726.89C3670.57 4731.33 3651.83 4728.6 3636.12 4719.3C3620.41 4710 3609.01 4694.87 3604.38 4677.22L3434.42 4149.15C3427.85 4132.12 3428.28 4113.19 3435.61 4096.47C3442.94 4079.75 3456.58 4066.61 3473.56 4059.91C3507.49 4048.94 3545.03 4071.17 3557.45 4109.58L3727.41 4637.65C3733.94 4654.68 3733.5 4673.6 3726.17 4690.31C3718.84 4707.01 3705.23 4720.16 3688.28 4726.89V4726.89Z" fill="#384B78"/>
<path opacity="0.65" d="M2535.69 3315.54V4325.46L3819.25 5066.51L4115.41 4227.7L2535.69 3315.54ZM2955.6 4330.23C2937.93 4334.7 2919.2 4332.01 2903.51 4322.73C2887.82 4313.45 2876.44 4298.34 2871.85 4280.7L2701.89 3752.49C2698.09 3744.14 2696.11 3735.09 2696.06 3725.93C2696.01 3716.77 2697.9 3707.69 2701.61 3699.31C2705.31 3690.93 2710.75 3683.43 2717.56 3677.3C2724.37 3671.16 2732.4 3666.54 2741.12 3663.73C2749.85 3660.93 2759.07 3659.99 2768.17 3661C2777.28 3662.01 2786.08 3664.93 2793.98 3669.57C2801.88 3674.22 2808.7 3680.48 2814.01 3687.95C2819.32 3695.42 2822.99 3703.93 2824.77 3712.92L2994.87 4241.13C3001.43 4258.16 3000.98 4277.09 2993.62 4293.78C2986.26 4310.48 2972.59 4323.58 2955.6 4330.23V4330.23ZM3321.94 4528.48C3304.25 4532.97 3285.5 4530.27 3269.79 4521C3254.07 4511.72 3242.66 4496.61 3238.04 4478.96L3068.08 3950.89C3064.2 3942.52 3062.14 3933.43 3062.04 3924.21C3061.94 3914.99 3063.8 3905.85 3067.49 3897.4C3071.18 3888.95 3076.63 3881.38 3083.47 3875.19C3090.31 3869.01 3098.38 3864.34 3107.16 3861.51C3115.93 3858.68 3125.21 3857.74 3134.38 3858.76C3143.54 3859.78 3152.38 3862.74 3160.32 3867.44C3168.26 3872.13 3175.11 3878.46 3180.42 3886C3185.72 3893.54 3189.37 3902.12 3191.11 3911.18L3361.07 4439.39C3367.67 4456.4 3367.26 4475.33 3359.93 4492.03C3352.59 4508.73 3338.93 4521.84 3321.94 4528.48V4528.48ZM3688.28 4726.89C3670.57 4731.33 3651.83 4728.6 3636.12 4719.3C3620.41 4710 3609.01 4694.87 3604.38 4677.22L3434.42 4149.15C3427.85 4132.12 3428.28 4113.19 3435.61 4096.47C3442.94 4079.75 3456.58 4066.61 3473.56 4059.91C3507.49 4048.94 3545.03 4071.17 3557.45 4109.58L3727.41 4637.65C3733.94 4654.68 3733.5 4673.6 3726.17 4690.31C3718.84 4707.01 3705.23 4720.16 3688.28 4726.89V4726.89Z" fill="white"/>
<path d="M4115.55 4227.7L4905.41 3771.84L4609.11 4610.65L3819.25 5066.66L4115.55 4227.7Z" fill="#384B78"/>
<path opacity="0.3" d="M4115.55 4227.7L4905.41 3771.84L4609.11 4610.65L3819.25 5066.66L4115.55 4227.7Z" fill="white"/>
<path d="M1901.34 1486.01C1838.38 1486.01 1704.09 1585.79 1723.15 1763.83C1733.12 1856.82 1946.11 2256.08 2000.69 2346.19C2055.27 2436.29 2495.83 2709.06 2534.96 2734.77C2574.1 2760.47 2578.28 2798.16 2605.57 2819.24L2638.79 2800.03C2645.66 2802.29 2651.95 2806.03 2657.22 2810.98C2662.49 2815.94 2666.61 2821.99 2669.28 2828.71C2671.95 2835.44 2673.11 2842.66 2672.69 2849.88C2672.26 2857.1 2670.25 2864.14 2666.8 2870.5L2631.85 2890.86C2631.85 2890.86 2681.67 2930.86 2725.43 2925.08C2766.87 2919.45 2855.38 2879.89 2872.86 2842.78C2880.65 2825.74 2885.56 2740.25 2875.46 2718.88C2844.84 2653.33 2649.33 2605.96 2649.33 2605.96L2236.2 2209.73L1901.34 1486.01Z" fill="#FFA8A7"/>
<path d="M1935.42 1486.01C1935.42 1486.01 1829 1470.41 1762.14 1552.29C1701.78 1626.36 1694.42 1738.71 1728.93 1838.92C1763.44 1939.13 1934.41 2284.97 1965.6 2346.19C1996.79 2407.42 2339.74 2609 2339.74 2609C2339.74 2609 2383.06 2477.74 2481.54 2445.39L2248.76 2202.8L2008.34 1686.72C2008.34 1686.72 2010.94 1567.3 1935.42 1486.01Z" fill="#263238"/>
<path d="M3656.07 5.48313L3121.8 313.63C3115.58 317.671 3110.4 323.126 3106.68 329.551C3102.97 335.975 3100.82 343.186 3100.43 350.596V1081.98C3100.82 1089.38 3102.97 1096.59 3106.72 1103C3110.46 1109.4 3115.68 1114.82 3121.94 1118.8L3198.47 1162.12C3205.17 1165.56 3212.6 1167.36 3220.13 1167.36C3227.67 1167.36 3235.09 1165.56 3241.79 1162.12L3776.07 853.97C3782.29 849.929 3787.47 844.474 3791.19 838.05C3794.9 831.625 3797.04 824.414 3797.44 817.004V84.9024C3797.07 77.5101 3794.91 70.3171 3791.17 63.9326C3787.42 57.5481 3782.19 52.1602 3775.93 48.2251L3699.39 4.90552C3692.64 1.58324 3685.19 -0.0961238 3677.66 0.00424863C3670.14 0.104621 3662.74 1.9819 3656.07 5.48313V5.48313Z" fill="#384B78"/>
<path d="M3219.27 1149.12V417.743C3219.7 410.341 3221.86 403.142 3225.57 396.723C3229.28 390.304 3234.44 384.843 3240.64 380.777L3775.49 72.6296C3787.33 65.8429 3796.86 71.3301 3796.86 84.9035V816.428C3796.47 823.837 3794.32 831.049 3790.61 837.473C3786.9 843.897 3781.72 849.352 3775.49 853.394L3241.22 1161.54C3228.94 1168.33 3219.27 1162.84 3219.27 1149.12Z" fill="#384B78"/>
<path opacity="0.2" d="M3240.64 1161.54C3233.89 1164.81 3226.48 1166.51 3218.98 1166.51C3211.48 1166.51 3204.07 1164.81 3197.32 1161.54L3120.93 1118.22C3114.69 1114.26 3109.48 1108.86 3105.74 1102.48C3102 1096.11 3099.83 1088.93 3099.42 1081.54V350.595C3099.69 342.851 3102.03 335.321 3106.2 328.791L3225.19 396.658C3221.29 403.021 3219.1 410.283 3218.84 417.741V1149.12C3219.27 1161.54 3228.08 1168.76 3240.64 1161.54Z" fill="black"/>
<path opacity="0.4" d="M3796.57 81.0031C3794.99 70.3176 3786.18 66.5633 3775.49 72.628L3241.22 380.775C3234.92 384.724 3229.71 390.184 3226.06 396.659L3106.93 328.791C3110.36 322.581 3115.33 317.359 3121.37 313.629L3655.64 5.48259C3662.35 2.05989 3669.77 0.275391 3677.3 0.275391C3684.83 0.275391 3692.25 2.05989 3698.96 5.48259L3775.35 48.8022C3780.97 52.3596 3785.76 57.07 3789.42 62.6213C3793.08 68.1727 3795.52 74.4384 3796.57 81.0031V81.0031Z" fill="white"/>
<path d="M3041.23 892.957C3027.8 885.015 2927.44 828.411 2924.12 826.533C2921.67 824.93 2919.6 822.807 2918.07 820.314C2916.53 817.822 2915.56 815.022 2915.23 812.113C2914.9 809.204 2915.22 806.258 2916.15 803.485C2917.09 800.711 2918.63 798.178 2920.65 796.065L3102.45 569.359L3219.27 635.783L3037.62 863.066C3035.74 865.202 3034.34 867.709 3033.5 870.423C3032.66 873.137 3032.41 875.998 3032.75 878.818C3033.09 881.638 3034.02 884.355 3035.48 886.791C3036.94 889.227 3038.9 891.328 3041.23 892.957Z" fill="#384B78"/>
<path opacity="0.4" d="M3041.23 892.957C3027.8 885.015 2927.44 828.411 2924.12 826.533C2921.67 824.93 2919.6 822.807 2918.07 820.314C2916.53 817.822 2915.56 815.022 2915.23 812.113C2914.9 809.204 2915.22 806.258 2916.15 803.485C2917.09 800.711 2918.63 798.178 2920.65 796.065L3102.45 569.359L3219.27 635.783L3037.62 863.066C3035.74 865.202 3034.34 867.709 3033.5 870.423C3032.66 873.137 3032.41 875.998 3032.75 878.818C3033.09 881.638 3034.02 884.355 3035.48 886.791C3036.94 889.227 3038.9 891.328 3041.23 892.957Z" fill="white"/>
<path d="M3219.27 635.785L3037.62 863.069C3035.01 865.726 3033.23 869.083 3032.5 872.73C3031.77 876.378 3032.11 880.16 3033.49 883.617C3034.87 887.073 3037.22 890.056 3040.26 892.201C3043.3 894.347 3046.89 895.563 3050.61 895.703L3219.99 914.041L3219.27 635.785Z" fill="#384B78"/>
<path d="M3450.6 472.179C3451.32 485.03 3451.61 496.438 3451.61 506.546C3451.61 516.654 3451.61 528.061 3450.6 540.624C3449.51 568.867 3441.95 596.483 3428.5 621.343C3416.61 644.144 3398.61 663.191 3376.52 676.359C3355.15 688.633 3337.82 690.799 3324.54 681.268C3311.25 671.738 3303.74 654.121 3302.3 626.83C3302.3 614.989 3301.29 604.015 3301.29 593.907C3301.29 583.799 3301.29 571.959 3302.3 558.385C3303.12 530.413 3310.33 503.001 3323.38 478.244C3335.33 454.919 3353.79 435.559 3376.52 422.506C3399.04 409.51 3416.81 408.066 3429.51 416.874C3442.22 425.683 3449.44 444.166 3450.6 472.179ZM3585.9 340.487C3587.74 335.743 3589.96 331.155 3592.54 326.769C3595.01 322.886 3598.44 319.703 3602.5 317.528L3650.01 289.948C3653.48 288.071 3656.07 287.782 3658.1 289.948C3659.24 291.028 3660.11 292.363 3660.63 293.844C3661.16 295.324 3661.33 296.909 3661.13 298.467C3661.29 299.713 3661.29 300.976 3661.13 302.222C3660.81 303.935 3660.38 305.623 3659.83 307.276L3432.98 895.701C3431.17 900.413 3428.95 904.956 3426.34 909.274C3423.92 913.152 3420.53 916.336 3416.52 918.516L3368.29 945.951C3364.97 947.829 3362.22 948.117 3360.35 945.951C3359.2 944.871 3358.33 943.536 3357.81 942.055C3357.28 940.575 3357.11 938.99 3357.31 937.432C3357.2 936.183 3357.2 934.926 3357.31 933.677C3357.68 931.962 3358.16 930.273 3358.76 928.623L3585.9 340.487ZM3359.91 600.405C3359.9 607.097 3361.38 613.706 3364.24 619.755C3366.7 624.086 3370.74 624.664 3376.52 621.343C3382.33 617.8 3386.65 612.253 3388.65 605.748C3391.23 597.857 3392.69 589.642 3392.98 581.345C3394.33 551.406 3394.33 523.344 3392.98 497.16C3392.99 490.469 3391.51 483.859 3388.65 477.811C3386.19 473.479 3382.15 472.901 3376.52 476.222C3370.63 479.718 3366.26 485.276 3364.24 491.817C3361.66 499.708 3360.21 507.923 3359.91 516.221C3358.61 544.378 3358.61 572.536 3359.91 600.838V600.405ZM3726.4 590.73C3726.4 603.437 3727.26 614.989 3727.26 625.097C3727.26 635.205 3727.26 646.468 3726.4 659.031C3725.14 687.083 3717.54 714.485 3704.16 739.172C3692.35 762.032 3674.33 781.1 3652.18 794.188C3630.8 806.607 3613.48 808.628 3600.19 799.242C3586.91 789.856 3579.54 772.095 3577.95 744.659C3577.38 732.819 3577.09 721.844 3577.09 711.737C3577.09 701.629 3577.09 689.788 3577.95 676.359C3578.98 648.473 3586.29 621.178 3599.33 596.506C3611.37 573.283 3629.81 553.992 3652.46 540.913C3674.99 527.821 3692.7 525.943 3705.6 535.281C3718.17 544.523 3725.1 563.583 3726.4 591.164V590.73ZM3635.71 719.39C3635.74 726.062 3637.17 732.654 3639.9 738.739C3642.36 743.071 3646.4 743.649 3652.18 740.327C3658.06 736.802 3662.4 731.179 3664.31 724.588C3666.9 716.749 3668.36 708.58 3668.64 700.329C3669.94 670.438 3669.94 642.569 3668.64 616C3668.65 609.309 3667.17 602.699 3664.31 596.651C3661.99 592.319 3657.81 591.741 3652.18 595.062C3646.25 598.582 3641.87 604.2 3639.9 610.802C3637.43 618.665 3636.02 626.824 3635.71 635.061C3634.41 663.363 3634.41 691.376 3635.71 719.823V719.39Z" fill="#FAFAFA"/>
</svg>
