<svg width="6301" height="4952" viewBox="0 0 6301 4952" fill="none" xmlns="http://www.w3.org/2000/svg">
    <path
        d="M983.412 4505.17C2199.78 5099.61 4171.99 5099.61 5388.51 4505.17C6605.02 3910.73 6604.88 2947.01 5388.51 2352.57C4172.14 1758.13 2199.78 1757.99 983.267 2352.57C-233.248 2947.15 -233.103 3910.73 983.412 4505.17Z"
        fill="#FAFAFA" />
    <path
        d="M4203.79 4614.36C4449.71 4614.36 4649.07 4525.46 4649.07 4415.8C4649.07 4306.14 4449.71 4217.25 4203.79 4217.25C3957.86 4217.25 3758.5 4306.14 3758.5 4415.8C3758.5 4525.46 3957.86 4614.36 4203.79 4614.36Z"
        fill="#F0F0F0" />
    <path
        d="M721.787 982.241V1665.37C721.787 1687.78 738.629 1697.01 759.536 1685.74L2455.02 769.969C2465.99 763.262 2475.13 754.236 2481.68 743.62C2488.24 733.004 2492.04 721.095 2492.77 708.854V25.1833C2492.77 2.77457 2475.78 -6.46055 2455.02 4.81173L759.536 920.583C748.463 927.319 739.264 936.425 732.699 947.146C726.135 957.868 722.395 969.898 721.787 982.241V982.241Z"
        fill="#F0F0F0" />
    <path
        d="M839.825 971.514L1347.98 697.176C1371.35 684.546 1390.08 694.731 1390.08 719.856V1197.5C1389.28 1211.12 1385.05 1224.38 1377.74 1236.18C1370.42 1247.98 1360.22 1258 1347.98 1265.41L839.825 1539.88C816.595 1552.38 797.721 1542.19 797.721 1517.06V1039.69C798.507 1026.03 802.731 1012.73 810.047 1000.89C817.363 989.04 827.566 978.976 839.825 971.514V971.514Z"
        fill="#FAFAFA" />
    <path
        d="M1251.28 935.522L1100.14 1228.6L1023.2 1187.04C1015.81 1183.26 1007.14 1182.31 999.014 1184.39C990.89 1186.47 983.945 1191.41 979.639 1198.18L797.721 1491.67V1517.33C797.721 1542.46 816.595 1552.65 839.825 1540.15L1347.98 1265.68C1360.2 1258.24 1370.38 1248.22 1377.69 1236.42C1385 1224.63 1389.25 1211.39 1390.08 1197.77V1029.77L1288.45 930.09C1286.18 927.121 1283.07 924.8 1279.48 923.387C1275.88 921.974 1271.93 921.524 1268.08 922.088C1264.22 922.651 1260.61 924.206 1257.64 926.578C1254.68 928.95 1252.48 932.047 1251.28 935.522V935.522Z"
        fill="#384B78" />
    <path
        d="M874.089 1146.3C905.487 1127.14 931.616 1101.33 950.359 1070.97C969.101 1040.6 979.928 1006.53 981.962 971.512C981.962 942.041 971.799 920.719 955.103 909.311L839.825 971.512C827.604 978.947 817.425 988.968 810.111 1000.76C802.796 1012.56 798.552 1025.8 797.721 1039.42V1153.09C817.611 1163.96 844.326 1162.33 874.089 1146.3Z"
        fill="#384B78" />
    <path
        d="M1579.69 616.639L2343.23 204.182C2360.65 194.811 2374.73 201.466 2374.73 219.121C2373.96 229.015 2370.71 238.6 2365.24 247.096C2359.76 255.592 2352.22 262.759 2343.23 268.013L1579.69 680.334C1562.27 689.705 1548.19 683.051 1548.19 665.395C1548.98 655.525 1552.24 645.967 1557.71 637.497C1563.19 629.026 1570.72 621.881 1579.69 616.639Z"
        fill="#FAFAFA" />
    <path
        d="M1579.69 757.747L2343.23 345.29C2360.65 335.919 2374.73 342.574 2374.73 360.229C2373.96 370.123 2370.71 379.708 2365.24 388.203C2359.76 396.699 2352.22 403.866 2343.23 409.121L1579.69 821.442C1562.27 830.813 1548.19 824.158 1548.19 806.638C1548.95 796.745 1552.21 787.16 1557.68 778.664C1563.16 770.168 1570.7 763.001 1579.69 757.747V757.747Z"
        fill="#FAFAFA" />
    <path
        d="M1579.69 898.853L2343.23 486.532C2360.65 477.161 2374.73 483.816 2374.73 501.335C2373.96 511.229 2370.71 520.814 2365.24 529.31C2359.76 537.806 2352.22 544.973 2343.23 550.227L1579.69 962.548C1562.27 972.055 1548.19 965.4 1548.19 947.745C1548.95 937.851 1552.21 928.266 1557.68 919.77C1563.16 911.274 1570.7 904.108 1579.69 898.853Z"
        fill="#FAFAFA" />
    <path
        d="M1579.69 1039.96L2343.23 627.641C2360.65 618.27 2374.73 624.925 2374.73 642.58C2373.94 652.451 2370.68 662.008 2365.21 670.479C2359.73 678.95 2352.2 686.095 2343.23 691.337L1579.69 1104.47C1562.27 1113.84 1548.19 1107.19 1548.19 1089.53C1548.84 1079.52 1552.04 1069.8 1557.52 1061.18C1563 1052.56 1570.6 1045.28 1579.69 1039.96V1039.96Z"
        fill="#FAFAFA" />
    <path
        d="M367.533 3131.58V2129.16C368.231 2116.91 372.014 2104.99 378.574 2094.37C385.134 2083.75 394.286 2074.73 405.282 2068.05L1687.57 1375.41C1708.33 1364.14 1725.32 1373.24 1725.32 1395.78V2398.2C1724.58 2410.44 1720.79 2422.35 1714.23 2432.97C1707.67 2443.58 1698.54 2452.61 1687.57 2459.32L405.282 3151.95C384.375 3163.22 367.533 3154.12 367.533 3131.58Z"
        fill="#F0F0F0" />
    <path
        d="M367.533 3081.47V3131.58C367.533 3154.13 384.375 3163.22 405.282 3151.95L1687.57 2459.32C1698.54 2452.61 1707.67 2443.59 1714.23 2432.97C1720.79 2422.35 1724.58 2410.44 1725.32 2398.2V2347.95L367.533 3081.47Z"
        fill="#384B78" />
    <path
        d="M987.915 2172.35L1118.58 2165.97C1134.55 2165.15 1138.91 2173.57 1128.31 2184.98L978.187 2344.7C967.588 2355.97 959.022 2352.84 959.022 2337.9V2201.01C959.079 2193.7 962.089 2186.68 967.449 2181.37C972.808 2176.05 980.12 2172.83 987.915 2172.35Z"
        fill="#384B78" />
    <path
        d="M954.231 2432.29C938.572 2432.48 923.141 2428.78 909.513 2421.56C877.282 2404.04 859.569 2367.24 859.569 2319.16C859.569 2221.1 933.469 2101.86 1024.36 2052.29C1069.22 2027.98 1111.47 2024.31 1143.99 2041.7C1176.51 2059.08 1194.08 2096.02 1194.08 2143.96C1194.08 2242.15 1120.03 2361.26 1029.29 2410.83C1006.71 2424 980.826 2431.39 954.231 2432.29V2432.29ZM1099.42 2040.2C1074.6 2041.12 1050.48 2048.1 1029.44 2060.44C941.309 2107.97 869.732 2224.09 869.732 2319.16C869.732 2364.25 885.703 2397.79 914.74 2413.41C943.777 2429.03 982.687 2425.36 1024.36 2402.82C1112.48 2355.15 1184.06 2239.85 1184.06 2143.96C1184.06 2098.87 1168.09 2065.46 1139.05 2049.71C1126.91 2043.35 1113.19 2040.08 1099.27 2040.2H1099.42Z"
        fill="#384B78" />
    <path
        d="M438.238 1197.63L358.821 1154.99C320.927 1131.22 268.225 1132.17 210.005 1163.68C93.8561 1226.15 0.646484 1384.65 0.646484 1517.74V1548.03C0.646484 1681.12 192.002 1825.62 192.002 1825.62L270.112 1867.04C270.112 1867.04 223.217 1816.93 228.589 1806.61C280.42 1708.28 419.073 1430.41 419.073 1321.76V1291.48C419.367 1269.56 416.387 1247.71 410.217 1226.56L419.073 1231.32L438.238 1197.63ZM209.86 1502.8C151.785 1534.04 105.181 1508.64 105.181 1446.3C136.25 1441.69 214.506 1316.74 209.86 1276.68C267.934 1245.44 314.394 1270.84 314.539 1333.17C312.572 1367.15 302.068 1400.22 283.88 1429.69C265.692 1459.17 240.333 1484.21 209.86 1502.8Z"
        fill="#384B78" />
    <g opacity="0.2">
        <path
            d="M438.238 1197.63L358.821 1154.99C320.927 1131.22 268.225 1132.17 210.005 1163.68C93.8561 1226.15 0.646484 1384.65 0.646484 1517.74V1548.03C0.646484 1681.12 192.002 1825.62 192.002 1825.62L270.112 1867.04C270.112 1867.04 223.217 1816.93 228.589 1806.61C280.42 1708.28 419.073 1430.41 419.073 1321.76V1291.48C419.367 1269.56 416.387 1247.71 410.217 1226.56L419.073 1231.32L438.238 1197.63ZM209.86 1502.8C151.785 1534.04 105.181 1508.64 105.181 1446.3C136.25 1441.69 214.506 1316.74 209.86 1276.68C267.934 1245.44 314.394 1270.84 314.539 1333.17C312.572 1367.15 302.068 1400.22 283.88 1429.69C265.692 1459.17 240.333 1484.21 209.86 1502.8Z"
            fill="black" />
    </g>
    <path
        d="M438.24 1197.64C437.372 1197.06 436.448 1196.56 435.481 1196.14C398.168 1176.59 348.369 1179.3 293.489 1208.91C210.733 1253.73 139.156 1347.57 104.747 1446.31C91.4405 1483.87 84.3891 1523.13 83.8398 1562.7V1593.39C83.8398 1695.93 207.974 1814.9 265.032 1864.2C266.267 1865.23 267.577 1866.18 268.952 1867.05C268.952 1867.05 268.952 1867.05 268.952 1867.05C272.307 1868.97 276.056 1870.21 279.956 1870.7C283.856 1871.18 287.821 1870.9 291.597 1869.86C295.372 1868.83 298.873 1867.06 301.874 1864.68C304.876 1862.3 307.311 1859.36 309.024 1856.05C358.387 1760.98 501.976 1477.41 501.976 1367.13V1336.84C502.847 1268.39 478.021 1220.05 438.24 1197.64ZM190.697 1511.09C189.491 1504.63 188.908 1498.09 188.955 1491.53C190.872 1457.54 201.338 1424.45 219.502 1394.95C237.666 1365.45 263.015 1340.38 293.489 1321.77C299.576 1318.49 305.937 1315.67 312.508 1313.35C361.291 1296.78 398.168 1322.99 398.168 1378.27C396.213 1412.23 385.713 1445.28 367.523 1474.74C349.333 1504.19 323.967 1529.21 293.489 1547.76C242.238 1575.73 199.553 1558.89 190.697 1511.09Z"
        fill="#384B78" />
    <path
        d="M398.167 1378.4C396.212 1412.36 385.712 1445.42 367.522 1474.87C349.333 1504.32 323.966 1529.34 293.488 1547.89C242.237 1575.05 199.553 1558.89 190.696 1511.09C197.349 1508.9 203.766 1506.12 209.861 1502.8C240.315 1484.21 265.652 1459.16 283.815 1429.68C301.978 1400.21 312.455 1367.15 314.395 1333.17C314.461 1326.57 313.829 1319.97 312.508 1313.48C361.29 1296.91 398.167 1323.12 398.167 1378.4Z"
        fill="#384B78" />
    <g opacity="0.2">
        <path
            d="M398.168 1378.4C396.213 1412.36 385.713 1445.42 367.523 1474.87C349.333 1504.32 323.967 1529.34 293.489 1547.89C242.238 1575.05 199.554 1558.89 190.697 1511.09C197.35 1508.9 203.767 1506.12 209.862 1502.8C240.316 1484.21 265.653 1459.16 283.816 1429.68C301.979 1400.21 312.456 1367.15 314.396 1333.17C314.462 1326.57 313.83 1319.97 312.509 1313.48C361.291 1296.91 398.168 1323.12 398.168 1378.4Z"
            fill="black" />
    </g>
    <path
        d="M1923.64 3064.62C1923.64 3064.62 1976.05 2752.26 1859.61 2483.63C1743.17 2214.99 1586.23 2198.42 1504.92 2236.59C1423.62 2274.75 1475.89 2423.73 1548.48 2523.83C1645.17 2655.16 1804.88 2937.91 1799.65 3191.88L1923.64 3064.62Z"
        fill="#384B78" />
    <path opacity="0.2"
        d="M1923.64 3064.62C1923.64 3064.62 1976.05 2752.26 1859.61 2483.63C1743.17 2214.99 1586.23 2198.42 1504.92 2236.59C1423.62 2274.75 1475.89 2423.73 1548.48 2523.83C1645.17 2655.16 1804.88 2937.91 1799.65 3191.88L1923.64 3064.62Z"
        fill="black" />
    <path
        d="M1871.37 3084.45C1870.07 3084.42 1868.79 3084.14 1867.6 3083.63C1866.42 3083.13 1865.35 3082.4 1864.47 3081.5C1863.59 3080.6 1862.91 3079.55 1862.48 3078.4C1862.04 3077.25 1861.86 3076.03 1861.93 3074.81C1881.1 2647.14 1652.72 2327.85 1554.14 2265.65C1553.06 2264.97 1552.14 2264.1 1551.42 2263.09C1550.7 2262.08 1550.21 2260.95 1549.96 2259.75C1549.71 2258.56 1549.71 2257.34 1549.97 2256.15C1550.22 2254.96 1550.73 2253.82 1551.45 2252.82C1552.18 2251.81 1553.11 2250.94 1554.19 2250.27C1555.27 2249.6 1556.48 2249.14 1557.76 2248.9C1559.03 2248.67 1560.34 2248.67 1561.62 2248.91C1562.89 2249.15 1564.1 2249.63 1565.17 2250.3C1681.32 2322.83 1900.84 2649.32 1881.54 3075.63C1881.5 3076.83 1881.2 3078.02 1880.67 3079.12C1880.14 3080.22 1879.38 3081.21 1878.43 3082.03C1877.48 3082.85 1876.37 3083.49 1875.16 3083.91C1873.95 3084.32 1872.66 3084.51 1871.37 3084.45Z"
        fill="white" />
    <path
        d="M1903.02 3435.52C1883.13 3388.8 1831.74 3336.65 1699.76 3280.97C1567.79 3225.29 1468.48 3151 1450.19 3097.22C1444.68 3082.36 1443.96 3066.32 1448.12 3051.09C1452.27 3035.85 1461.12 3022.09 1473.56 3011.52C1473.56 3011.52 1349.14 2997.94 1333.46 2926.64C1313.86 2836.73 1422.6 2830.89 1422.6 2830.89C1422.6 2830.89 1279.88 2642.93 1241.99 2559.27C1204.1 2475.61 1247.8 2470.59 1339.85 2502.5C1431.89 2534.42 1607.28 2695.08 1634.43 2744.11C1634.43 2744.11 1681.9 2689.79 1733.01 2725.5C1784.12 2761.22 1786.58 2868.11 1756.39 2906.68C1776.75 2903.13 1797.78 2905.18 1816.92 2912.58C1836.07 2919.98 1852.51 2932.41 1864.26 2948.37C1916.24 3012.06 1933.37 3171.37 1933.37 3171.37L1903.02 3435.52Z"
        fill="#384B78" />
    <path
        d="M1912.32 3392.07C1910.11 3392.04 1907.98 3391.33 1906.24 3390.06C1904.51 3388.78 1903.28 3387 1902.73 3385C1832.17 3109.99 1497.23 2671.05 1289.18 2531.43C1288.12 2530.73 1287.22 2529.84 1286.53 2528.81C1285.84 2527.78 1285.37 2526.63 1285.16 2525.43C1284.94 2524.23 1284.98 2523.01 1285.27 2521.82C1285.56 2520.64 1286.1 2519.52 1286.85 2518.53C1287.61 2517.54 1288.56 2516.7 1289.66 2516.06C1290.76 2515.41 1291.99 2514.97 1293.27 2514.77C1294.55 2514.57 1295.86 2514.61 1297.13 2514.88C1298.39 2515.15 1299.59 2515.65 1300.65 2516.36C1511.31 2657.74 1850.47 3102.25 1922.04 3380.66C1922.61 3383.05 1922.15 3385.56 1920.77 3387.64C1919.39 3389.72 1917.18 3391.21 1914.64 3391.79L1912.32 3392.07Z"
        fill="white" />
    <path
        d="M4540.33 622.745C4538.6 622.726 4536.91 622.306 4535.39 621.523L4494.6 599.386C4493.47 598.779 4492.49 597.972 4491.69 597.009C4490.9 596.046 4490.32 594.947 4489.99 593.774C4489.65 592.601 4489.56 591.378 4489.73 590.173C4489.9 588.969 4490.32 587.808 4490.97 586.755C4491.62 585.703 4492.48 584.781 4493.51 584.041C4494.54 583.301 4495.71 582.757 4496.97 582.442C4498.22 582.127 4499.53 582.046 4500.82 582.203C4502.1 582.361 4503.34 582.754 4504.47 583.36L4545.27 605.497C4546.39 606.103 4547.38 606.91 4548.17 607.872C4548.97 608.835 4549.55 609.935 4549.88 611.108C4550.22 612.281 4550.31 613.505 4550.14 614.71C4549.97 615.914 4549.55 617.076 4548.9 618.128C4548.03 619.534 4546.78 620.701 4545.28 621.512C4543.77 622.322 4542.07 622.748 4540.33 622.745V622.745Z"
        fill="white" />
    <path
        d="M1903.02 1427.97V3448.56C1903.02 3471.1 1919.86 3480.2 1940.63 3468.93L4460.19 2108.24C4471.16 2101.54 4480.29 2092.51 4486.85 2081.89C4493.41 2071.28 4497.2 2059.37 4497.94 2047.13V26.5378C4497.94 3.99323 4480.95 -5.10608 4460.19 6.1662L1940.63 1366.85C1929.67 1373.56 1920.55 1382.59 1914.01 1393.21C1907.48 1403.82 1903.72 1415.73 1903.02 1427.97V1427.97Z"
        fill="#455A64" />
    <path
        d="M2197.9 1801.18C2197.9 1871.66 2254.08 1898.28 2323.63 1860.8L4320.96 782.052V527.271L2323.63 1605.88C2254.08 1643.5 2197.9 1730.83 2197.9 1801.18Z"
        fill="#F5F5F5" />
    <path
        d="M4490.82 435.872C4560.22 398.388 4616.55 425.007 4616.55 495.357C4616.55 565.707 4560.22 653.169 4490.82 690.653L4321.68 782.053V527.272L4490.82 435.872Z"
        fill="#384B78" />
    <path
        d="M4429.84 650.588C4422.61 650.683 4415.49 648.947 4409.23 645.563C4401.51 640.733 4395.34 634.045 4391.35 626.204C4387.37 618.364 4385.72 609.661 4386.58 601.017C4387.62 579.76 4394.1 559.047 4405.47 540.615C4416.84 522.184 4432.76 506.57 4451.91 495.084C4459.22 489.506 4468.18 486.142 4477.58 485.44C4486.99 484.738 4496.4 486.732 4504.56 491.155C4512.73 495.578 4519.26 502.221 4523.29 510.201C4527.32 518.181 4528.65 527.119 4527.12 535.828C4526.04 557.077 4519.55 577.777 4508.18 596.203C4496.82 614.63 4480.91 630.249 4461.78 641.76C4452.15 647.269 4441.13 650.313 4429.84 650.588V650.588ZM4483.71 504.591C4475.92 504.951 4468.37 507.197 4461.78 511.11C4445.75 521.075 4432.4 534.378 4422.78 549.975C4413.15 565.573 4407.52 583.043 4406.32 601.017C4404.83 606.425 4405.27 612.144 4407.58 617.296C4409.89 622.448 4413.94 626.749 4419.12 629.539C4424.29 632.33 4430.3 633.455 4436.22 632.743C4442.15 632.031 4447.66 629.521 4451.91 625.598C4467.96 615.649 4481.33 602.35 4490.95 586.749C4500.57 571.148 4506.2 553.67 4507.37 535.692C4508.12 530.307 4507.33 524.833 4505.08 519.825C4502.84 514.817 4499.22 510.452 4494.6 507.171C4491.29 505.398 4487.52 504.506 4483.71 504.591V504.591Z"
        fill="white" />
    <path
        d="M4519.86 993.51L2588.88 2035.72C2577.87 2042.39 2568.71 2051.4 2562.14 2062.03C2555.58 2072.65 2551.81 2084.58 2551.13 2096.84V2652.71C2551.13 2675.25 2567.97 2684.35 2588.88 2673.08L4519.86 1630.46C4530.85 1623.78 4540.01 1614.76 4546.57 1604.14C4553.13 1593.52 4556.91 1581.6 4557.61 1569.35V1013.88C4556.88 991.337 4540.04 982.238 4519.86 993.51Z"
        fill="#384B78" />
    <path opacity="0.2"
        d="M4519.86 993.51L2588.88 2035.72C2577.87 2042.39 2568.71 2051.4 2562.14 2062.03C2555.58 2072.65 2551.81 2084.58 2551.13 2096.84V2652.71C2551.13 2675.25 2567.97 2684.35 2588.88 2673.08L4519.86 1630.46C4530.85 1623.78 4540.01 1614.76 4546.57 1604.14C4553.13 1593.52 4556.91 1581.6 4557.61 1569.35V1013.88C4556.88 991.337 4540.04 982.238 4519.86 993.51Z"
        fill="white" />
    <path
        d="M3290.86 1749.3L3640.76 1560.25C3658.18 1550.88 3672.26 1557.53 3672.26 1575.19C3671.47 1585.06 3668.21 1594.61 3662.74 1603.08C3657.26 1611.56 3649.73 1618.7 3640.76 1623.94L3290.86 1812.99C3273.44 1822.36 3259.35 1815.71 3259.35 1798.05C3260.14 1788.18 3263.41 1778.62 3268.88 1770.15C3274.35 1761.68 3281.88 1754.54 3290.86 1749.3V1749.3Z"
        fill="white" />
    <path
        d="M3259.35 1925.44C3259.35 1943.1 3273.87 1949.75 3290.86 1940.38L4348.54 1369.16C4357.5 1363.88 4365.01 1356.71 4370.46 1348.21C4375.9 1339.72 4379.14 1330.15 4379.9 1320.27C4379.9 1302.75 4365.38 1296.09 4348.54 1305.47L3290.86 1876.69C3281.88 1881.93 3274.35 1889.07 3268.88 1897.54C3263.41 1906.01 3260.14 1915.57 3259.35 1925.44Z"
        fill="white" />
    <path
        d="M3259.35 2052.83C3259.35 2070.49 3273.87 2077.14 3290.86 2067.77L4348.54 1496.55C4357.5 1491.27 4365.01 1484.1 4370.46 1475.6C4375.9 1467.11 4379.14 1457.54 4379.9 1447.66C4379.9 1430.14 4365.38 1423.49 4348.54 1432.86L3290.86 2004.08C3281.88 2009.32 3274.35 2016.46 3268.88 2024.93C3263.41 2033.4 3260.14 2042.96 3259.35 2052.83Z"
        fill="white" />
    <path
        d="M3259.35 2180.22C3259.35 2197.88 3273.87 2204.53 3290.86 2195.16L4348.54 1623.94C4357.5 1618.66 4365.01 1611.49 4370.46 1602.99C4375.9 1594.5 4379.14 1584.93 4379.9 1575.05C4379.9 1557.53 4365.38 1550.87 4348.54 1560.24L3290.86 2131.46C3281.88 2136.71 3274.35 2143.85 3268.88 2152.32C3263.41 2160.79 3260.14 2170.35 3259.35 2180.22V2180.22Z"
        fill="white" />
    <path
        d="M2648.41 2067.5L3103.71 1821.55C3124.62 1810.41 3141.46 1819.51 3141.46 1841.92V2270.13C3140.75 2282.37 3136.96 2294.29 3130.4 2304.91C3123.84 2315.53 3114.7 2324.55 3103.71 2331.24L2648.41 2577.06C2627.65 2588.33 2610.66 2579.23 2610.66 2556.82V2128.61C2611.36 2116.36 2615.14 2104.44 2621.7 2093.82C2628.26 2083.2 2637.41 2074.18 2648.41 2067.5V2067.5Z"
        fill="white" />
    <path
        d="M3017.18 2035.31L2881.72 2297.97L2812.76 2260.76C2806.1 2257.16 2798.18 2256.19 2790.75 2258.04C2783.32 2259.9 2776.98 2264.44 2773.12 2270.67L2610.66 2533.74V2556.69C2610.66 2579.23 2627.65 2588.33 2648.41 2577.06L3103.71 2331.24C3114.71 2324.56 3123.86 2315.54 3130.42 2304.92C3136.98 2294.3 3140.76 2282.38 3141.46 2270.13V2119.79L3049.85 2030.42C3047.77 2027.93 3045.02 2026 3041.87 2024.84C3038.73 2023.68 3035.31 2023.33 3031.97 2023.83C3028.63 2024.33 3025.5 2025.66 3022.9 2027.68C3020.29 2029.7 3018.32 2032.33 3017.18 2035.31V2035.31Z"
        fill="#384B78" />
    <path
        d="M2679.04 2224.23C2707.19 2207.05 2730.62 2183.9 2747.42 2156.67C2764.22 2129.44 2773.92 2098.89 2775.74 2067.5C2776.7 2057.08 2775.02 2046.59 2770.83 2036.89C2766.65 2027.19 2760.07 2018.55 2751.64 2011.68L2648.41 2067.5C2637.41 2074.18 2628.26 2083.2 2621.7 2093.82C2615.14 2104.44 2611.36 2116.37 2610.66 2128.61V2230.47C2628.23 2239.98 2652.33 2238.62 2679.04 2224.23Z"
        fill="#384B78" />
    <path
        d="M4519.86 1821.55L2588.88 2863.76C2577.89 2870.44 2568.73 2879.46 2562.17 2890.08C2555.61 2900.7 2551.83 2912.62 2551.13 2924.87V3481.15C2551.13 3503.56 2567.97 3512.66 2588.88 3501.52L4519.86 2458.63C4530.85 2451.95 4540.01 2442.93 4546.57 2432.31C4553.13 2421.69 4556.91 2409.77 4557.61 2397.52V1841.92C4556.88 1819.51 4540.04 1810.68 4519.86 1821.55Z"
        fill="#384B78" />
    <path opacity="0.2"
        d="M4519.86 1821.55L2588.88 2863.76C2577.89 2870.44 2568.73 2879.46 2562.17 2890.08C2555.61 2900.7 2551.83 2912.62 2551.13 2924.87V3481.15C2551.13 3503.56 2567.97 3512.66 2588.88 3501.52L4519.86 2458.63C4530.85 2451.95 4540.01 2442.93 4546.57 2432.31C4553.13 2421.69 4556.91 2409.77 4557.61 2397.52V1841.92C4556.88 1819.51 4540.04 1810.68 4519.86 1821.55Z"
        fill="white" />
    <path
        d="M3290.86 2577.33L3640.76 2388.42C3658.18 2379.05 3672.26 2385.7 3672.26 2403.22C3671.5 2413.12 3668.24 2422.7 3662.77 2431.2C3657.29 2439.69 3649.75 2446.86 3640.76 2452.12L3290.86 2641.03C3273.44 2650.4 3259.35 2643.74 3259.35 2626.22C3260.12 2616.33 3263.37 2606.75 3268.85 2598.25C3274.32 2589.75 3281.86 2582.59 3290.86 2577.33Z"
        fill="white" />
    <path
        d="M3259.35 2753.61C3259.35 2771.13 3273.87 2777.79 3290.86 2768.42L4348.54 2197.2C4357.48 2191.93 4364.98 2184.78 4370.42 2176.31C4375.87 2167.84 4379.12 2158.3 4379.9 2148.44C4379.9 2130.78 4365.38 2124.13 4348.54 2133.5L3290.86 2704.72C3281.86 2709.97 3274.32 2717.14 3268.85 2725.64C3263.37 2734.13 3260.12 2743.72 3259.35 2753.61Z"
        fill="white" />
    <path
        d="M3259.35 2881C3259.35 2898.52 3273.87 2905.18 3290.86 2895.81L4348.54 2324.59C4357.48 2319.32 4364.98 2312.17 4370.42 2303.7C4375.87 2295.23 4379.12 2285.69 4379.9 2275.83C4379.9 2258.18 4365.38 2251.52 4348.54 2260.89L3290.86 2832.11C3281.86 2837.37 3274.32 2844.53 3268.85 2853.03C3263.37 2861.53 3260.12 2871.11 3259.35 2881Z"
        fill="white" />
    <path
        d="M3259.35 3008.4C3259.35 3025.91 3273.87 3032.57 3290.86 3023.2L4348.54 2451.98C4357.48 2446.71 4364.98 2439.56 4370.42 2431.09C4375.87 2422.62 4379.12 2413.08 4379.9 2403.22C4379.9 2385.57 4365.38 2378.91 4348.54 2388.28L3290.86 2959.5C3281.86 2964.76 3274.32 2971.92 3268.85 2980.42C3263.37 2988.92 3260.12 2998.5 3259.35 3008.4Z"
        fill="white" />
    <path
        d="M2648.41 2895.67L3103.71 2649.72C3124.62 2638.45 3141.46 2647.55 3141.46 2670.09V3098.17C3140.79 3110.42 3137.01 3122.35 3130.45 3132.98C3123.89 3143.6 3114.72 3152.62 3103.71 3159.28L2648.41 3405.24C2627.65 3416.51 2610.66 3407.41 2610.66 3384.86V2956.79C2611.36 2944.54 2615.14 2932.62 2621.7 2922C2628.26 2911.38 2637.41 2902.36 2648.41 2895.67V2895.67Z"
        fill="white" />
    <path
        d="M3017.18 2863.48L2881.72 3126.14L2812.76 3088.79C2809.45 3087.02 2805.8 3085.87 2802.02 3085.41C2798.24 3084.96 2794.4 3085.21 2790.72 3086.14C2787.03 3087.07 2783.59 3088.67 2780.57 3090.85C2777.55 3093.03 2775.02 3095.75 2773.12 3098.84L2610.66 3361.91V3384.86C2610.66 3407.4 2627.65 3416.5 2648.41 3405.23L3103.71 3159.28C3114.7 3152.62 3123.86 3143.63 3130.42 3133.03C3136.98 3122.43 3140.76 3110.53 3141.46 3098.3V2947.82L3049.85 2858.59C3047.8 2856.06 3045.05 2854.09 3041.9 2852.9C3038.74 2851.71 3035.3 2851.35 3031.94 2851.85C3028.59 2852.36 3025.44 2853.7 3022.84 2855.75C3020.24 2857.8 3018.28 2860.47 3017.18 2863.48V2863.48Z"
        fill="#384B78" />
    <path
        d="M2679.04 3052.26C2707.19 3035.11 2730.61 3011.99 2747.41 2984.78C2764.22 2957.58 2773.92 2927.04 2775.74 2895.67C2776.7 2885.25 2775.02 2874.76 2770.83 2865.06C2766.65 2855.36 2760.07 2846.72 2751.64 2839.85L2648.41 2895.67C2637.41 2902.35 2628.26 2911.37 2621.7 2921.99C2615.14 2932.61 2611.36 2944.54 2610.66 2956.78V3058.64C2628.23 3068.01 2652.33 3066.66 2679.04 3052.26Z"
        fill="#384B78" />
    <path
        d="M4497.94 113.049V26.5378C4497.94 3.99323 4480.95 -5.10608 4460.19 6.1662L1940.77 1366.85C1929.78 1373.54 1920.62 1382.56 1914.06 1393.18C1907.5 1403.8 1903.72 1415.72 1903.02 1427.97V1514.61L4497.94 113.049Z"
        fill="#384B78" />
    <path
        d="M4188.84 185.844C4180.71 190.833 4173.96 197.538 4169.12 205.417C4164.28 213.296 4161.48 222.13 4160.96 231.205C4160.96 247.91 4173.45 254.7 4188.84 246.28C4197.01 241.36 4203.81 234.693 4208.68 226.83C4213.55 218.966 4216.35 210.132 4216.86 201.055C4216.86 184.351 4204.37 177.56 4188.84 185.844Z"
        fill="#F5F5F5" />
    <path
        d="M4299.9 126.629C4291.75 131.602 4284.97 138.3 4280.1 146.181C4275.24 154.061 4272.42 162.902 4271.88 171.989C4271.88 188.694 4284.51 195.349 4299.9 187.064C4308.08 182.115 4314.88 175.423 4319.75 167.538C4324.62 159.652 4327.42 150.799 4327.92 141.704C4327.92 124.32 4315.44 117.665 4299.9 126.629Z"
        fill="#F5F5F5" />
    <path
        d="M4410.97 66.0586C4402.8 70.9785 4396 77.6453 4391.13 85.5088C4386.25 93.3723 4383.45 102.207 4382.95 111.284C4382.95 127.988 4395.44 134.779 4410.97 126.494C4419.09 121.506 4425.85 114.801 4430.69 106.922C4435.53 99.0426 4438.32 90.2089 4438.85 81.1336C4438.85 64.4289 4426.36 57.6384 4410.97 66.0586Z"
        fill="#F5F5F5" />
    <path
        d="M4538.15 4326.17C4542.55 4336.61 4545.57 4347.51 4547.16 4358.63C4551.25 4370.13 4552.19 4382.41 4549.91 4394.34C4540.13 4409.58 4524.59 4420.83 4506.36 4425.85C4493.39 4428.65 4479.94 4428.88 4466.86 4426.54C4453.79 4424.2 4441.38 4419.34 4430.43 4412.27C4403.86 4397.47 4383.97 4379.41 4346.22 4369.49C4319.29 4364.07 4293.94 4353.27 4271.88 4337.85C4250.98 4322.23 4223.1 4278.77 4263.03 4268.72C4302.95 4258.67 4389.92 4294.12 4469.05 4297.38L4538.15 4326.17Z"
        fill="#263238" />
    <path
        d="M4534.38 4277.28C4534.38 4277.28 4539.03 4329.16 4539.03 4335.54C4539.03 4353.06 4469.92 4376.28 4457.14 4335.54L4446.11 4280.4L4534.38 4277.28Z"
        fill="#F28F8F" />
    <path
        d="M4449.59 3139.05C4473.35 3171.73 4495.12 3205.65 4514.78 3240.64C4514.78 3240.64 4521.6 3316.15 4521.6 3366.4C4521.6 3458.75 4506.36 3530.05 4492.57 3712.04C4515.02 3747.83 4527.88 3788.19 4530.02 3829.65C4535.83 3912.08 4535.98 3911.13 4536.56 4291.4C4523.33 4298.08 4508.81 4302.21 4493.85 4303.57C4478.89 4304.92 4463.79 4303.46 4449.45 4299.28L4318.78 3766.77L4304.26 3557.76L4263.32 3297.95L4449.59 3139.05Z"
        fill="#37474F" />
    <path
        d="M4140.34 4421.37C4144.99 4425.85 4143.39 4434.95 4145.57 4449.89C4147.98 4461.38 4148.62 4473.13 4147.46 4484.79C4139.84 4500.94 4126.07 4513.87 4108.84 4521.06C4096.31 4525.28 4082.98 4527.04 4069.69 4526.22C4056.4 4525.41 4043.43 4522.03 4031.6 4516.3C4003.43 4504.62 3981.22 4489.14 3942.45 4483.57C3915.02 4481.36 3888.42 4473.63 3864.49 4460.89C3841.69 4447.31 3808.16 4407.93 3846.49 4392.99C3884.81 4378.05 3980.93 4404.8 4059.76 4398.83L4140.34 4421.37Z"
        fill="#263238" />
    <path
        d="M4158.49 4356.18C4158.49 4356.18 4143.97 4415.39 4140.05 4428.57C4131.34 4460.21 4056.28 4461.84 4056.28 4425.31L4061.36 4341.11L4158.49 4356.18Z"
        fill="#F28F8F" />
    <path
        d="M4280.16 3155.21C4317.76 3224.34 4354.06 3285.32 4355.22 3358.92C4357.98 3514.7 4288.87 3686.23 4263.46 3798.82C4271.03 3839.56 4273.18 3881.03 4269.85 3922.27C4264.77 3969.39 4149.93 4397.6 4149.93 4397.6C4149.93 4397.6 4086.04 4410.1 4058.89 4383.07L4091.12 3558.57L4099.84 3319.13L4280.16 3155.21Z"
        fill="#37474F" />
    <path d="M4228.47 2732.97L4252.14 2855.61L4370.61 2847.46L4345.78 2708.53L4228.47 2732.97Z" fill="#FFA8A7" />
    <path
        d="M4495.61 2838.5C4483.85 2805.22 4438.7 2768.96 4393.98 2776.84C4326.82 2787.52 4260.62 2802.96 4195.95 2823.02C4154.57 2836.6 4116.82 2870.41 4113.34 2997.8L4100.42 3318.32C4118.31 3333.2 4139.77 3343.82 4162.99 3349.28C4225.86 3365.44 4267.38 3375.09 4362.91 3355.53C4487.34 3330.13 4516.96 3259.65 4516.96 3259.65C4516.96 3259.65 4512.16 3090.02 4508.39 2997.8C4505.34 2919.44 4503.6 2861.45 4495.61 2838.5Z"
        fill="#455A64" />
    <path
        d="M4177.95 2576.38L3574.7 2423.33C3520.11 2414.5 3497.31 2539.17 3551.9 2547.86L4171.41 2606.4L4177.95 2576.38Z"
        fill="#263238" />
    <path
        d="M4004.45 2834.97L3881.19 2838.5C3881.19 2838.5 3899.77 2666.97 3911.24 2644.42C3922.71 2621.88 3950.15 2617.26 3977.44 2610.06C4004.74 2602.87 4004.59 2590.64 4004.59 2590.64L3980.06 2588.33C3958.57 2586.3 3950 2561.17 3959.3 2544.2C3963.8 2536.32 3971.06 2523.82 3984.12 2527.22L4016.64 2535.5C4017.15 2522.08 4013.57 2508.8 4006.34 2497.21C3995.45 2485.93 3988.19 2489.46 3966.41 2482.4C3950.29 2477.11 3917.34 2467.73 3890.77 2477.92C3864.2 2488.11 3844.02 2534.83 3837.19 2567.83C3830.29 2605.99 3819.1 2643.36 3803.8 2679.33C3780.14 2740.44 3745.73 2865.93 3742.1 2916.18C3740.5 2939.4 3742.82 2953.26 3770.41 2959.37C3797.99 2965.48 4000.96 2965.89 4000.96 2965.89L4004.45 2834.97Z"
        fill="#FFA8A7" />
    <path
        d="M4140.78 2587.79C4140.78 2587.79 4111.74 2627.45 4115.81 2631.8C4122.36 2635.89 4129.64 2638.87 4137.29 2640.62L4140.78 2587.79Z"
        fill="#FFA8A7" />
    <path
        d="M4228.33 2462.57C4200.74 2476.15 4153.12 2499.65 4139.91 2594.17C4126.41 2691.14 4144.26 2722.38 4158.2 2735.28C4167.78 2743.97 4219.18 2744.52 4245.31 2737.18C4277.54 2728.22 4350.28 2702.28 4383.53 2652.44C4422.58 2593.77 4431.3 2515.27 4387.3 2484.03C4364.92 2468.15 4338.59 2457.85 4310.78 2454.09C4282.97 2450.34 4254.6 2453.26 4228.33 2462.57V2462.57Z"
        fill="#FFA8A7" />
    <path
        d="M4309.49 3632.86L4372.35 3466.62C4421.08 3450.47 4464.74 3423.21 4499.39 3387.31C4499.39 3387.31 4484.87 3434.71 4385.56 3483.33L4316.6 3640.6V3728.06L4309.49 3632.86Z"
        fill="#263238" />
    <path
        d="M4134.24 2494.49C4143.25 2517.71 4158.49 2574.75 4222.08 2598.52C4222.08 2598.52 4231.23 2562.26 4263.75 2566.06C4296.27 2569.87 4301.93 2608.84 4281.9 2633.02C4261.86 2657.19 4242.41 2648.5 4242.41 2648.5C4242.41 2648.5 4238.05 2700.52 4275.22 2724.15C4289.06 2731.78 4304.6 2736.3 4320.62 2737.36C4336.64 2738.42 4352.71 2735.99 4367.56 2730.26C4388.9 2721.16 4419.25 2673.22 4436.96 2633.83C4474.42 2550.72 4479.79 2484.44 4422.44 2462.98C4415.33 2425.23 4397.18 2410.97 4360.59 2403.9C4281.9 2388.83 4222.37 2437.18 4156.31 2428.62C4122.48 2424.14 4123.79 2467.87 4134.24 2494.49Z"
        fill="#263238" />
    <path
        d="M4424.33 2476.16L4461.5 2454.56C4458.26 2450.33 4453.42 2447.4 4447.96 2446.39C4442.5 2445.37 4436.83 2446.33 4432.1 2449.07C4427.37 2451.82 4423.94 2456.15 4422.49 2461.18C4421.05 2466.21 4421.71 2471.56 4424.33 2476.16V2476.16Z"
        fill="#263238" />
    <path
        d="M3976.86 2832.66C3976.86 2832.66 4150.36 2823.29 4194.64 2823.02C4238.93 2822.74 4285.97 2893.5 4258.38 2941.71C4240.09 2973.36 4183.03 2984.22 4111.16 2987.48C4039.29 2990.74 3966.85 2990.74 3966.85 2990.74C3966.85 2990.74 3902.24 2921.89 3976.86 2832.66Z"
        fill="#455A64" />
    <path
        d="M4113.34 2987.48C4113.34 2987.48 4223.24 2986.13 4259.25 2941.72C4259.25 2941.72 4250.83 2968.88 4208.14 2985.58C4177.55 2996.58 4145.33 3003.09 4112.61 3004.87L4113.34 2987.48Z"
        fill="#37474F" />
    <path
        d="M3574.7 2423.33C3520.11 2414.5 3497.31 2539.17 3551.9 2547.86L3639.02 2556.01C3603.59 2552.62 3628.13 2436.77 3655.13 2443.56L3574.7 2423.33Z"
        fill="#455A64" />
    <path
        d="M5771.66 2390.05C5771.67 2415.33 5763.53 2440.03 5748.31 2460.92C5733.09 2481.82 5711.49 2497.93 5686.34 2507.17C5661.18 2516.41 5633.63 2518.34 5607.28 2512.71C5580.93 2507.08 5557.01 2494.15 5538.63 2475.61L5529.78 2465.56C5509.11 2439.78 5499.81 2407.57 5503.8 2375.56C5507.78 2343.56 5524.75 2314.21 5551.2 2293.56C5577.64 2272.92 5611.55 2262.56 5645.93 2264.61C5680.3 2266.67 5712.52 2281 5735.94 2304.63L5745.09 2314.95C5762.33 2336.67 5771.65 2363 5771.66 2390.05V2390.05Z"
        fill="#455A64" />
    <path
        d="M5771.66 2390.05C5771.67 2415.33 5763.53 2440.03 5748.31 2460.92C5733.09 2481.81 5711.49 2497.93 5686.34 2507.17C5661.18 2516.41 5633.63 2518.34 5607.28 2512.71C5580.93 2507.08 5557.01 2494.15 5538.63 2475.61L5529.78 2465.56L4969.94 1833.09L5205.87 1705.7L5735.94 2304.36L5745.09 2314.68C5762.39 2336.47 5771.71 2362.91 5771.66 2390.05V2390.05Z"
        fill="#455A64" />
    <path
        d="M5308.51 2215.54C5332.02 2238.6 5364.02 2252.46 5398.04 2254.3C5432.05 2256.15 5465.54 2245.84 5491.75 2225.47C5517.95 2205.1 5534.91 2176.18 5539.19 2144.56C5543.48 2112.95 5534.76 2080.99 5514.82 2055.14V2055.14L5445.57 1977.05C5466.27 2002.84 5475.58 2035.09 5471.59 2067.12C5467.6 2099.16 5450.6 2128.53 5424.11 2149.17C5397.63 2169.82 5363.67 2180.16 5329.27 2178.05C5294.87 2175.94 5262.64 2161.55 5239.26 2137.85L5308.51 2215.54Z"
        fill="#384B78" />
    <path
        d="M5196.86 711.434C5239.13 715.834 5279.99 728.266 5316.93 747.967L5146.63 655.344C5032.37 581.871 4867.87 586.217 4685.08 684.815C4339.97 871.283 4060.05 1324.75 4060.05 1697.69C4060.05 1880.9 4126.7 2011.82 4236.6 2074.02L4238.92 2075.38L4420.7 2173.3C4388.46 2153.68 4360.36 2128.68 4337.8 2099.55C4382.58 2104.14 4427.87 2101.71 4471.8 2092.36C4487.77 2089.1 4503.89 2085.16 4520.3 2080.27C4518.15 2079.66 4516.06 2078.89 4514.05 2077.96C4505.32 2074.13 4496.96 2069.59 4489.08 2064.38C4474.79 2055.06 4462.07 2043.8 4451.33 2030.97C4436.66 2013.4 4424.73 1993.96 4415.91 1973.25C4404.08 1974.85 4392.14 1975.67 4380.19 1975.69C4351.93 1976.22 4323.89 1970.99 4298.02 1960.35C4291.97 1957.76 4286.1 1954.81 4280.45 1951.52C4275.37 1948.53 4270.28 1945 4265.93 1941.47C4255.43 1895.5 4250.32 1848.59 4250.68 1801.59C4250.68 1428.79 4530.6 975.178 4876 788.71C4920.1 764.646 4966.83 745.069 5015.38 730.312C5028.46 735.312 5040.77 741.936 5051.97 750.004C5063.82 758.512 5074.5 768.366 5083.76 779.339C5098.49 796.953 5110.46 816.433 5119.33 837.195C5131.21 835.638 5143.2 834.867 5155.19 834.886C5188.02 834.061 5220.49 841.421 5249.28 856.208C5256.56 859.921 5263.5 864.191 5270.04 868.974C5267.42 858.11 5264.67 847.381 5261.33 837.195C5248.21 791.95 5226.36 749.329 5196.86 711.434V711.434Z"
        fill="#263238" />
    <path
        d="M5316.93 747.968L5307.06 742.943C5272.74 726.128 5235.37 715.443 5196.86 711.435C5155.54 707.124 5113.75 708.911 5073.02 716.731C5053.4 720.21 5034.01 724.744 5014.95 730.312C4966.39 745.069 4919.66 764.647 4875.57 788.711C4530.17 975.179 4250.25 1428.79 4250.25 1801.59C4249.88 1848.59 4254.99 1895.5 4265.49 1941.47C4267.38 1949.76 4269.56 1957.63 4271.74 1965.51C4284.67 2013.58 4307.13 2058.95 4337.94 2099.28C4351.7 2117.03 4367.53 2133.29 4385.13 2147.77C4396.35 2157 4408.29 2165.44 4420.84 2173.03C4534.81 2241.88 4696.7 2235.91 4875.28 2139.21C5220.67 1952.74 5500.59 1499.27 5500.59 1126.34C5500.45 939.868 5430.32 808.811 5316.93 747.968ZM5248.7 856.616C5255.98 860.329 5262.92 864.599 5269.46 869.383C5280.41 877.7 5290.38 887.078 5299.22 897.359C5342.78 948.424 5365.86 1027.87 5365.86 1126.74C5365.86 1452.69 5110.33 1867.18 4807.91 2030.56C4731.69 2071.31 4658.37 2093.58 4596.08 2093.58C4570.1 2093.86 4544.33 2089.25 4520.3 2080C4518.15 2079.39 4516.06 2078.62 4514.05 2077.69C4505.32 2073.86 4496.96 2069.32 4489.08 2064.11C4479.28 2057.68 4470.23 2050.3 4462.08 2042.11V2042.11C4458.45 2038.58 4454.96 2034.64 4451.48 2030.7C4436.8 2013.13 4424.87 1993.69 4416.05 1972.98C4393.94 1918.17 4383.38 1859.88 4384.98 1801.31C4384.98 1796.97 4384.98 1792.76 4384.98 1787.73C4391.37 1463.15 4644.14 1058.02 4942.64 896.952C4949.47 893.285 4956.44 889.618 4963.4 886.223C5011.54 861.07 5064.11 844.189 5118.61 836.38C5130.49 834.824 5142.47 834.052 5154.47 834.072C5180.3 833.863 5205.92 838.48 5229.82 847.653C5236.37 850.086 5242.68 853.04 5248.7 856.481V856.616Z"
        fill="#455A64" />
    <path opacity="0.6"
        d="M5307.5 1088.99C5307.5 1414.94 5051.97 1829.43 4749.54 1992.81C4673.32 2033.55 4600.15 2055.83 4537.72 2055.83C4511.78 2056.11 4486.05 2051.49 4462.08 2042.25V2042.25C4458.45 2038.71 4454.96 2034.78 4451.48 2030.84C4436.8 2013.27 4424.87 1993.83 4416.05 1973.12C4393.94 1918.31 4383.38 1860.01 4384.98 1801.45C4384.98 1797.11 4384.98 1792.9 4384.98 1787.87C4391.37 1463.28 4644.14 1058.16 4942.64 897.09C4949.47 893.423 4956.44 889.756 4963.4 886.361C5011.54 861.208 5064.11 844.328 5118.61 836.519C5130.49 834.962 5142.47 834.191 5154.47 834.21C5180.3 834.001 5205.92 838.619 5229.82 847.791C5233.74 851.458 5237.37 855.396 5240.86 859.335C5284.41 910.671 5307.5 990.12 5307.5 1088.99Z"
        fill="white" />
</svg>