<svg width="6920" height="4725" viewBox="0 0 6920 4725" fill="none" xmlns="http://www.w3.org/2000/svg">
<path d="M1013.47 4190.8C2364.83 4902.99 4554.98 4903.14 5906.34 4190.8C7257.71 3478.46 7257.71 2323.58 5906.34 1611.25C4554.98 898.908 2364.83 898.908 1013.47 1611.25C-337.9 2323.58 -337.744 3478.16 1013.47 4190.8Z" fill="#F5F5F5"/>
<path d="M1733.73 3932.28L2675.18 4458.04C2828.34 4543.52 3076.71 4543.52 3229.86 4458.04L5537.44 3169.62C5690.59 3084.14 5690.59 2945.49 5537.44 2859.87L4595.98 2334.1C4442.67 2248.63 4194.3 2248.63 4041.15 2334.1L1733.73 3622.53C1580.42 3708 1580.42 3846.65 1733.73 3932.28Z" fill="#EBEBEB"/>
<path d="M5424.51 3014.59C5414.88 2965.17 5397.48 2884.5 5337.06 2820.66C5271.65 2753.15 5194.53 2697.23 5109.19 2655.42C5024.38 2613.66 4978.09 2501.14 5138.7 2505.2C5286.89 2509.4 5427.77 2670.44 5444.39 2807.44L5424.51 3014.59Z" fill="#37474F"/>
<path d="M5437.71 2884.5C5435.72 2884.51 5433.79 2883.78 5432.32 2882.47C5430.85 2881.16 5429.95 2879.37 5429.79 2877.44C5411.93 2657.97 5167.13 2554.47 5119.13 2550.11C5117.98 2550.21 5116.82 2550.06 5115.73 2549.68C5114.64 2549.3 5113.65 2548.69 5112.83 2547.89C5112.02 2547.1 5111.39 2546.14 5110.99 2545.09C5110.6 2544.03 5110.45 2542.91 5110.55 2541.79C5110.66 2540.68 5111.01 2539.6 5111.59 2538.63C5112.18 2537.66 5112.97 2536.83 5113.92 2536.19C5114.87 2535.55 5115.96 2535.12 5117.1 2534.93C5118.24 2534.74 5119.41 2534.8 5120.53 2535.09C5173.65 2539.75 5427.46 2643.85 5446.72 2876.54C5446.81 2877.55 5446.69 2878.56 5446.37 2879.52C5446.04 2880.48 5445.53 2881.37 5444.85 2882.14C5444.17 2882.91 5443.34 2883.54 5442.41 2883.99C5441.48 2884.45 5440.46 2884.72 5439.42 2884.8L5437.71 2884.5Z" fill="white"/>
<path d="M5554.52 3014.59C5563.69 2980.04 5600.19 2921.91 5647.72 2905.68C5695.25 2889.46 5799.16 2912.89 5846.07 2840.34C5892.98 2767.78 5851.36 2667.74 5859.12 2626.73C5866.89 2585.72 5896.71 2551.62 5955.89 2512.26C6015.07 2472.9 6043.5 2397.04 6009.95 2360.84C5976.4 2324.64 5915.97 2320.13 5836.6 2373.01C5757.23 2425.88 5754.59 2412.21 5684.69 2406.05C5614.79 2399.9 5552.5 2470.5 5541.47 2568.74L5554.52 3014.59Z" fill="#455A64"/>
<path d="M5549.24 2840.79H5547.38C5546.36 2840.58 5545.39 2840.17 5544.54 2839.59C5543.69 2839.01 5542.97 2838.27 5542.42 2837.42C5541.87 2836.56 5541.5 2835.61 5541.34 2834.61C5541.17 2833.62 5541.22 2832.6 5541.47 2831.62C5592.27 2614.26 5848.56 2413.26 5942.07 2379.17C5944.13 2378.45 5946.4 2378.55 5948.38 2379.45C5950.36 2380.35 5951.89 2381.98 5952.63 2383.97C5953.37 2385.96 5953.27 2388.16 5952.33 2390.08C5951.4 2391.99 5949.72 2393.47 5947.66 2394.19C5856.48 2427.54 5605.94 2623.42 5557.01 2835.68C5556.44 2837.22 5555.39 2838.55 5553.99 2839.47C5552.59 2840.39 5550.93 2840.85 5549.24 2840.79V2840.79Z" fill="white"/>
<path d="M5669 2617.26C5667.4 2617.26 5665.85 2616.8 5664.52 2615.95C5663.19 2615.09 5662.16 2613.88 5661.54 2612.45C5636.38 2552.37 5641.19 2472.75 5641.35 2469.29C5641.94 2467.68 5643.06 2466.3 5644.54 2465.36C5646.01 2464.43 5647.77 2463.98 5649.53 2464.1C5651.29 2464.22 5652.97 2464.9 5654.3 2466.03C5655.62 2467.15 5656.53 2468.67 5656.88 2470.35C5656.88 2470.35 5652.07 2550.11 5675.99 2606.59C5676.39 2607.54 5676.59 2608.55 5676.58 2609.58C5676.57 2610.6 5676.35 2611.61 5675.93 2612.54C5675.51 2613.48 5674.9 2614.33 5674.14 2615.04C5673.37 2615.74 5672.47 2616.29 5671.48 2616.66C5670.7 2617.01 5669.86 2617.22 5669 2617.26Z" fill="white"/>
<path d="M5789.85 2768.38C5754.74 2768.38 5664.65 2763.73 5594.13 2718.96C5592.36 2717.84 5591.12 2716.09 5590.68 2714.09C5590.25 2712.09 5590.65 2710.01 5591.8 2708.29C5592.96 2706.58 5594.77 2705.38 5596.83 2704.96C5598.9 2704.54 5601.06 2704.93 5602.83 2706.04C5685.93 2758.77 5802.43 2752.76 5803.67 2752.61C5804.72 2752.55 5805.78 2752.69 5806.77 2753.03C5807.77 2753.37 5808.68 2753.9 5809.47 2754.58C5810.25 2755.27 5810.88 2756.1 5811.32 2757.02C5811.77 2757.95 5812.02 2758.95 5812.06 2759.97C5812.12 2760.98 5811.98 2761.99 5811.64 2762.94C5811.3 2763.89 5810.77 2764.77 5810.07 2765.52C5809.38 2766.28 5808.54 2766.89 5807.6 2767.33C5806.66 2767.77 5805.64 2768.02 5804.6 2768.08C5802.74 2768.23 5797.46 2768.38 5789.85 2768.38Z" fill="white"/>
<path d="M2887.52 4431.16C2869.5 4368.51 2808.61 4314.44 2707.8 4258.25C2606.99 4202.07 2434.42 4129.67 2474.81 4031.57C2515.19 3933.48 2690.87 4012.5 2756.57 4067.93C2842.63 4140.63 2909.26 4248.19 2911.13 4322.25L2887.52 4431.16Z" fill="#37474F"/>
<path d="M2903.83 4366.26C2901.98 4366.26 2900.18 4365.66 2898.74 4364.54C2897.3 4363.41 2896.29 4361.85 2895.9 4360.1C2858.62 4188.7 2648.62 4056.21 2546.57 4033.22C2544.49 4032.76 2542.69 4031.52 2541.56 4029.77C2540.42 4028.03 2540.04 4025.92 2540.51 4023.91C2541.03 4021.92 2542.32 4020.2 2544.11 4019.11C2545.9 4018.02 2548.06 4017.64 2550.14 4018.05C2655.76 4041.94 2872.91 4179.24 2911.59 4356.95C2911.82 4357.94 2911.84 4358.97 2911.65 4359.98C2911.45 4360.98 2911.06 4361.94 2910.48 4362.79C2909.9 4363.65 2909.15 4364.38 2908.28 4364.95C2907.4 4365.52 2906.41 4365.91 2905.38 4366.11L2903.83 4366.26Z" fill="white"/>
<path d="M3017.53 4431.15C3025.6 4362.96 3084.16 4322.4 3155.46 4306.17C3226.75 4289.95 3290.13 4278.98 3295.25 4203.27C3300.38 4127.56 3228.77 4065.22 3286.25 4000.18C3343.72 3935.13 3431.32 3867.08 3425.27 3752.92C3419.21 3638.75 3309.55 3626.88 3266.83 3698.84C3224.11 3770.79 3215.26 3820.67 3155.15 3813.76C3095.04 3806.85 2998.73 3844.85 2986.62 4018.65L3017.53 4431.15Z" fill="#455A64"/>
<path d="M3006.81 4293.55H3005.72C3003.63 4293.25 3001.74 4292.17 3000.46 4290.55C2999.19 4288.92 2998.62 4286.87 2998.89 4284.84C3022.65 4114.64 3145.98 3969.38 3236.07 3863.33C3274.75 3818.26 3308.15 3778.45 3322.59 3749.61C3323.03 3748.69 3323.65 3747.86 3324.41 3747.17C3325.18 3746.49 3326.08 3745.95 3327.06 3745.6C3328.05 3745.25 3329.09 3745.1 3330.14 3745.14C3331.18 3745.18 3332.21 3745.43 3333.16 3745.85C3335.06 3746.76 3336.53 3748.35 3337.25 3750.28C3337.98 3752.21 3337.9 3754.34 3337.04 3756.22C3321.51 3786.26 3287.8 3826.82 3248.35 3873.24C3159.5 3978.39 3037.87 4120.95 3015.35 4286.94C3015.08 4288.9 3014.04 4290.67 3012.45 4291.9C3010.86 4293.13 3008.84 4293.72 3006.81 4293.55V4293.55Z" fill="white"/>
<path d="M3102.65 4050.2C3101.01 4050.22 3099.4 4049.73 3098.06 4048.81C3096.72 4047.9 3095.72 4046.59 3095.19 4045.09C3081 3997.3 3074.25 3947.74 3075.15 3898.02C3075.23 3895.97 3076.14 3894.02 3077.67 3892.59C3079.21 3891.16 3081.26 3890.36 3083.39 3890.36C3084.44 3890.38 3085.48 3890.6 3086.44 3891.02C3087.41 3891.43 3088.28 3892.02 3089 3892.77C3089.72 3893.51 3090.29 3894.38 3090.66 3895.34C3091.03 3896.29 3091.19 3897.31 3091.15 3898.32C3090.34 3946.19 3096.78 3993.92 3110.26 4039.98C3110.62 4040.94 3110.78 4041.95 3110.73 4042.97C3110.67 4043.99 3110.4 4044.98 3109.94 4045.89C3109.47 4046.81 3108.82 4047.62 3108.02 4048.28C3107.22 4048.94 3106.29 4049.44 3105.29 4049.75C3104.44 4050.05 3103.55 4050.2 3102.65 4050.2V4050.2Z" fill="white"/>
<path d="M3212.78 4199.22C3154.11 4196.02 3096.39 4183.54 3041.91 4162.26C3040.93 4161.91 3040.03 4161.38 3039.27 4160.69C3038.51 4159.99 3037.9 4159.16 3037.48 4158.23C3037.06 4157.31 3036.83 4156.31 3036.82 4155.3C3036.81 4154.29 3037.01 4153.28 3037.41 4152.35C3037.77 4151.4 3038.32 4150.53 3039.04 4149.79C3039.75 4149.04 3040.61 4148.45 3041.56 4148.03C3042.52 4147.61 3043.55 4147.38 3044.59 4147.34C3045.64 4147.31 3046.68 4147.48 3047.66 4147.84C3100.39 4168.41 3156.19 4180.68 3212.93 4184.19C3213.98 4184.21 3215.02 4184.44 3215.99 4184.85C3216.95 4185.26 3217.82 4185.86 3218.54 4186.6C3219.27 4187.34 3219.83 4188.21 3220.2 4189.17C3220.57 4190.12 3220.74 4191.14 3220.7 4192.16C3220.58 4194.1 3219.68 4195.91 3218.21 4197.23C3216.73 4198.55 3214.78 4199.26 3212.78 4199.22V4199.22Z" fill="white"/>
<path d="M1753.3 3305.26C1757.03 3303.76 1768.83 3062.66 1661.35 2920.55C1553.86 2778.45 1424.16 2762.07 1338.73 2796.62C1253.3 2831.17 1270.69 2916.05 1375.85 2966.97C1481.01 3017.89 1611.95 3106.67 1643.17 3268.91L1753.3 3305.26Z" fill="#37474F"/>
<path d="M1713.85 3234.51C1711.95 3234.5 1710.12 3233.85 1708.67 3232.67C1707.23 3231.49 1706.25 3229.85 1705.92 3228.05C1665.69 2983.19 1515.96 2863.17 1389.36 2832.52C1388.34 2832.29 1387.37 2831.87 1386.52 2831.28C1385.67 2830.68 1384.94 2829.93 1384.39 2829.06C1383.84 2828.2 1383.48 2827.23 1383.32 2826.23C1383.16 2825.22 1383.21 2824.2 1383.46 2823.21C1383.67 2822.1 1384.12 2821.05 1384.78 2820.13C1385.45 2819.2 1386.31 2818.43 1387.32 2817.86C1388.32 2817.29 1389.44 2816.93 1390.59 2816.82C1391.75 2816.71 1392.92 2816.84 1394.02 2817.2C1525.59 2849.05 1681.07 2972.98 1722.54 3225.2C1722.72 3226.2 1722.69 3227.23 1722.45 3228.23C1722.2 3229.22 1721.76 3230.16 1721.14 3230.99C1720.51 3231.81 1719.73 3232.51 1718.82 3233.04C1717.92 3233.57 1716.91 3233.91 1715.87 3234.06L1713.85 3234.51Z" fill="white"/>
<path d="M1734.04 3752.92C1718.51 3689.37 1651.56 3647.76 1573.43 3640.55C1492.19 3633.49 1397.75 3625.53 1372.59 3559.43C1347.42 3493.34 1372.59 3403.36 1361.25 3359.34C1347.42 3306.01 1326.3 3274.32 1219.59 3241.87C1124.06 3212.88 1071.25 3124.55 1167.55 3087.3C1263.86 3050.04 1360.32 3073.63 1425.87 3102.32C1491.41 3131.01 1494.21 3160.6 1586.48 3152.94C1678.74 3145.28 1747.55 3201.31 1753.3 3255.39L1734.04 3752.92Z" fill="#455A64"/>
<path d="M1734.04 3537.35C1732.39 3537.34 1730.78 3536.84 1729.42 3535.93C1728.06 3535.02 1727.02 3533.74 1726.43 3532.24C1650.63 3327.95 1340.59 3143.03 1237.45 3131.31C1235.36 3131.05 1233.46 3130 1232.15 3128.4C1230.85 3126.81 1230.24 3124.77 1230.46 3122.75C1230.7 3120.7 1231.76 3118.82 1233.42 3117.53C1235.08 3116.24 1237.2 3115.63 1239.32 3115.84C1345.25 3128.01 1663.83 3317.58 1741.5 3526.99C1741.86 3527.94 1742.03 3528.96 1741.99 3529.98C1741.95 3531 1741.69 3532 1741.24 3532.92C1740.8 3533.85 1740.16 3534.67 1739.38 3535.36C1738.59 3536.04 1737.68 3536.57 1736.68 3536.9L1734.04 3537.35Z" fill="white"/>
<path d="M1661.35 3414.62H1659.64C1657.56 3414.16 1655.76 3412.92 1654.62 3411.17C1653.49 3409.43 1653.11 3407.32 1653.58 3405.31C1679.05 3298.81 1653.58 3230.31 1653.58 3229.56C1652.86 3227.56 1652.98 3225.38 1653.93 3223.47C1654.88 3221.57 1656.57 3220.11 1658.63 3219.42C1660.69 3218.72 1662.95 3218.84 1664.91 3219.76C1666.88 3220.67 1668.39 3222.31 1669.11 3224.3C1670.2 3227.15 1695.98 3297.6 1669.11 3408.77C1668.67 3410.43 1667.66 3411.91 1666.26 3412.97C1664.85 3414.03 1663.13 3414.61 1661.35 3414.62V3414.62Z" fill="white"/>
<path d="M1713.85 3493.19C1712.55 3493.2 1711.26 3492.89 1710.12 3492.29C1647.99 3459.69 1512.85 3482.97 1511.45 3483.12C1510.4 3483.39 1509.31 3483.44 1508.24 3483.27C1507.17 3483.11 1506.15 3482.73 1505.23 3482.17C1504.32 3481.61 1503.53 3480.88 1502.92 3480.01C1502.31 3479.14 1501.9 3478.16 1501.69 3477.14C1501.49 3476.11 1501.51 3475.05 1501.75 3474.03C1501.98 3473 1502.44 3472.04 1503.07 3471.19C1503.71 3470.35 1504.52 3469.64 1505.46 3469.1C1506.39 3468.57 1507.43 3468.23 1508.5 3468.1C1514.25 3467.05 1650.47 3443.62 1717.73 3478.77C1719.55 3479.47 1721.04 3480.78 1721.93 3482.46C1722.83 3484.15 1723.06 3486.09 1722.58 3487.92C1722.11 3489.76 1720.96 3491.36 1719.35 3492.44C1717.75 3493.52 1715.79 3494 1713.85 3493.79V3493.19Z" fill="white"/>
<path d="M3112.12 740.278C3052.63 686.199 2944.99 665.169 2809.85 745.235C2674.71 825.302 2567.85 1081.42 2534.3 1262.59C2500.75 1443.75 2479.62 1680.35 2546.72 1780.69C2613.83 1881.04 2857.38 1987.39 2857.38 1987.39L2886.89 1888.7L3112.12 740.278Z" fill="#384B78"/>
<path opacity="0.4" d="M3112.12 740.278C3052.63 686.199 2944.99 665.169 2809.85 745.235C2674.71 825.302 2567.85 1081.42 2534.3 1262.59C2500.75 1443.75 2479.62 1680.35 2546.72 1780.69C2613.83 1881.04 2857.38 1987.39 2857.38 1987.39L2886.89 1888.7L3112.12 740.278Z" fill="white"/>
<path d="M2613.51 1750.65C2718.98 1872.78 2887.52 1889.3 2887.52 1889.3L3537.57 1525.32L3277.24 1380.06L2613.51 1750.65Z" fill="#384B78"/>
<path opacity="0.2" d="M2613.51 1750.65C2718.98 1872.78 2887.52 1889.3 2887.52 1889.3L3537.57 1525.32L3277.24 1380.06L2613.51 1750.65Z" fill="black"/>
<path d="M2613.51 1750.65C2570.8 1701.68 2562.1 1575.65 2585.24 1380.81C2610.41 1166.9 2692.27 835.969 2887.36 726.91C3116.16 599.224 3348.53 916.486 3277.7 1380.81L2613.51 1750.65Z" fill="#384B78"/>
<path d="M4136.36 2785.96C4256.43 2917.55 4344.35 2943.69 4376.5 2971.78C4408.66 2999.87 4395.92 3060.56 4324.16 3079.94C4252.4 3099.31 4171.78 3087.9 4121.3 3045.99C4070.81 3004.08 4033.38 2946.84 3982.74 2917.1C3932.11 2887.36 3906.94 2880.3 3896.69 2841.99C3886.44 2803.68 3913.78 2684.26 3913.78 2684.26L4136.36 2785.96Z" fill="#263238"/>
<path d="M4067.55 2576.85C4061.18 2628.23 4053.42 2673.44 4093.8 2731.88C4106.85 2750.67 4121.06 2768.68 4136.36 2785.81C4206.57 2864.07 4263.58 2925.06 4273.68 2936.03C4283.77 2946.99 4232.36 2986.8 4168.67 2966.07C4104.99 2945.34 4045.19 2860.92 4000.76 2810.89C3981.04 2788.51 3961.77 2768.23 3946.55 2752.61C3926.08 2731.78 3914.2 2704.42 3913.16 2675.7L3910.2 2594.58L4067.55 2576.85Z" fill="#FFA8A7"/>
<path d="M3771.81 3001.22C3891.88 3132.96 3979.64 3158.95 4011.95 3187.04C4044.25 3215.13 4031.36 3275.97 3959.6 3295.35C3887.84 3314.73 3807.22 3303.31 3756.58 3261.25C3705.95 3219.19 3668.82 3162.25 3618.19 3132.51C3567.55 3102.77 3542.23 3095.71 3532.13 3057.4C3522.04 3019.1 3549.22 2899.67 3549.22 2899.67L3771.81 3001.22Z" fill="#263238"/>
<path d="M3702.84 2792.27C3696.63 2843.79 3688.7 2888.86 3729.25 2947.29C3742.25 2966.11 3756.47 2984.12 3771.81 3001.22C3842.01 3079.63 3898.87 3140.62 3908.96 3151.44C3919.06 3162.25 3867.8 3202.21 3803.96 3181.48C3740.12 3160.75 3680.47 3076.33 3636.2 3026.46C3616.48 3003.92 3597.22 2983.79 3581.99 2968.17C3561.54 2947.33 3549.67 2919.98 3548.6 2891.26L3545.49 2809.99L3702.84 2792.27Z" fill="#FFA8A7"/>
<path d="M3217.28 0.000170187H3309.55C3345.58 -0.0393037 3381.27 6.78839 3414.58 20.0932C3447.89 33.398 3478.16 52.9193 3503.66 77.5414C3529.16 102.164 3549.4 131.404 3563.21 163.592C3577.03 195.781 3584.15 230.286 3584.17 265.136V931.507H2942.97V265.136C2943.01 194.804 2971.93 127.366 3023.37 77.6477C3074.81 27.9293 3144.55 0.000158912 3217.28 0.000170187Z" fill="#263238"/>
<path d="M3622.69 774.228C3515.36 665.169 3460.53 654.053 3395.29 654.053L3519.55 1007.07C3519.55 1007.07 3723.96 1137.76 3843.57 1209.86L3919.52 1047.93C3919.52 1047.93 3730.02 882.836 3622.69 774.228Z" fill="#FFA8A7"/>
<path d="M2897.3 1570.39C2857.38 1653.61 2805.97 1742.09 2858 1827.71C2910.04 1913.34 3332.69 1827.71 3332.69 1827.71V1570.39H2897.3Z" fill="#263238"/>
<path d="M3354.59 654.052C3401.19 650.297 3454 651.649 3509.92 742.681C3565.84 833.714 3597.22 884.788 3579.51 1017.28C3561.8 1149.77 3495.63 1251.92 3490.81 1301.5C3486 1351.07 3498.27 1589.31 3498.27 1589.31C3498.27 1589.31 3416.57 1702.13 3213.4 1707.39C3153.5 1708.65 3094.06 1697.02 3039.39 1673.32C2984.72 1649.63 2936.18 1614.47 2897.3 1570.39L3052.63 1300.89L3012.87 753.197L3164.62 665.319L3354.59 654.052Z" fill="#384B78"/>
<path d="M3354.59 654.052C3401.19 650.297 3454 651.649 3509.92 742.681C3565.84 833.714 3597.22 884.788 3579.51 1017.28C3561.8 1149.77 3495.63 1251.92 3490.81 1301.5C3486 1351.07 3498.27 1589.31 3498.27 1589.31C3498.27 1589.31 3416.57 1702.13 3213.4 1707.39C3153.5 1708.65 3094.06 1697.02 3039.39 1673.32C2984.72 1649.63 2936.18 1614.47 2897.3 1570.39L3052.63 1300.89L3012.87 753.197L3164.62 665.319L3354.59 654.052Z" fill="#E0E0E0"/>
<path d="M3164.78 847.833C3150.06 847.833 3135.48 845.027 3121.89 839.575C3108.29 834.122 3095.93 826.131 3085.53 816.058C3075.13 805.984 3066.89 794.027 3061.27 780.869C3055.65 767.711 3052.77 753.611 3052.79 739.375V423.916H3164.78V847.833Z" fill="#263238"/>
<path d="M3478.54 125.283C3512.25 144.661 3554.19 226.981 3549.99 399.432C3546.58 545.746 3497.49 581.798 3472.33 592.313C3447.17 602.829 3400.26 596.369 3353.97 588.858V676.736C3353.97 676.736 3417.81 748.391 3413.77 788.499C3409.73 828.607 3321.66 838.372 3262.01 799.014C3223.33 772.065 3190.1 738.457 3164 699.87V487.611C3164 487.611 3132.94 527.869 3081.99 495.122C3031.04 462.374 3029.02 381.406 3058.69 352.414C3088.36 323.422 3151.89 332.435 3164 372.693C3164 372.693 3237.63 375.247 3334.86 323.272C3373.25 303.55 3406.27 275.336 3431.24 240.929C3456.21 206.523 3472.42 166.898 3478.54 125.283V125.283Z" fill="#FFA8A7"/>
<path d="M3381.15 362.779C3381.38 367.639 3379.6 372.388 3376.21 375.98C3372.81 379.572 3368.08 381.713 3363.06 381.932C3358.03 382.151 3353.12 380.43 3349.41 377.148C3345.69 373.866 3343.48 369.292 3343.25 364.431C3343.14 362.025 3343.52 359.62 3344.37 357.355C3345.22 355.09 3346.52 353.009 3348.2 351.23C3349.88 349.452 3351.9 348.011 3354.16 346.99C3356.42 345.968 3358.86 345.387 3361.35 345.278C3363.84 345.17 3366.32 345.537 3368.66 346.357C3371.01 347.178 3373.16 348.437 3375 350.062C3376.84 351.687 3378.33 353.647 3379.38 355.828C3380.44 358.01 3381.04 360.372 3381.15 362.779V362.779Z" fill="#263238"/>
<path d="M3346.82 306.445L3307.37 330.029C3304.16 324.803 3303.18 318.576 3304.63 312.663C3306.08 306.749 3309.85 301.611 3315.14 298.333C3317.76 296.808 3320.67 295.808 3323.69 295.391C3326.72 294.974 3329.8 295.149 3332.76 295.905C3335.71 296.662 3338.48 297.984 3340.9 299.795C3343.31 301.605 3345.33 303.867 3346.82 306.445V306.445Z" fill="#263238"/>
<path d="M3386.28 486.707L3430.39 500.377C3429.56 503.207 3428.14 505.847 3426.24 508.141C3424.33 510.436 3421.97 512.339 3419.29 513.738C3416.62 515.138 3413.68 516.006 3410.65 516.291C3407.62 516.576 3404.56 516.273 3401.66 515.399C3395.8 513.409 3390.94 509.332 3388.09 504C3385.23 498.669 3384.58 492.484 3386.28 486.707V486.707Z" fill="#F28F8F"/>
<path d="M3537.57 306.296L3499.05 280.458C3500.65 277.936 3502.77 275.76 3505.28 274.063C3507.79 272.366 3510.63 271.186 3513.63 270.594C3516.63 270.003 3519.73 270.013 3522.72 270.625C3525.72 271.236 3528.55 272.436 3531.05 274.149C3536.17 277.693 3539.69 282.995 3540.9 288.97C3542.12 294.945 3540.92 301.143 3537.57 306.296Z" fill="#263238"/>
<path d="M3528.25 349.409C3528.31 353.036 3527.26 356.6 3525.23 359.654C3523.21 362.709 3520.3 365.12 3516.87 366.587C3513.44 368.053 3509.64 368.511 3505.94 367.902C3502.24 367.294 3498.81 365.646 3496.08 363.164C3493.34 360.682 3491.42 357.476 3490.55 353.946C3489.69 350.416 3489.92 346.718 3491.21 343.313C3492.51 339.908 3494.81 336.946 3497.83 334.798C3500.86 332.65 3504.47 331.41 3508.21 331.233C3510.76 331.152 3513.3 331.559 3515.69 332.429C3518.08 333.3 3520.27 334.616 3522.13 336.305C3523.99 337.993 3525.49 340.019 3526.54 342.267C3527.59 344.516 3528.17 346.943 3528.25 349.409V349.409Z" fill="#263238"/>
<path d="M3438.47 338.893L3441.58 449.604L3501.84 431.578L3438.47 338.893Z" fill="#F28F8F"/>
<path d="M3354.59 588.857C3316.22 584.651 3239.18 562.118 3222.09 537.031C3225.39 553.056 3234.61 567.369 3248.03 577.29C3273.2 600.574 3354.59 617.398 3354.59 617.398V588.857Z" fill="#F28F8F"/>
<path d="M2952.44 3087.3L1716.49 2397.19L4318.56 944.277L5554.52 1634.38L2952.44 3087.3Z" fill="#384B78"/>
<path opacity="0.4" d="M2952.44 3087.3L1716.49 2397.19L4318.56 944.277L5554.52 1634.38L2952.44 3087.3Z" fill="white"/>
<path d="M1716.49 2397.19V3777.4L1781.57 3813.75V2869.33L2887.52 3486.73V4431.15L2952.44 4467.51V3087.3L1716.49 2397.19Z" fill="#384B78"/>
<path opacity="0.3" d="M1716.49 2397.19V3777.4L1781.57 3813.75V2869.33L2887.52 3486.73V4431.15L2952.44 4467.51V3087.3L1716.49 2397.19Z" fill="black"/>
<path d="M1781.57 3813.76L1846.65 3777.4V2905.68L1781.57 2869.33V3813.76Z" fill="#384B78"/>
<path opacity="0.5" d="M1781.57 3813.76L1846.65 3777.4V2905.68L1781.57 2869.33V3813.76Z" fill="black"/>
<path d="M2952.44 4467.5L3017.53 4431.15V3486.73L5489.44 2106.52V3050.94L5554.52 3014.59V1634.38L2952.44 3087.3V4467.5Z" fill="#384B78"/>
<path opacity="0.1" d="M2952.44 4467.5L3017.53 4431.15V3486.73L5489.44 2106.52V3050.94L5554.52 3014.59V1634.38L2952.44 3087.3V4467.5Z" fill="black"/>
<path d="M3017.53 3414.17V3123.65L3798.21 2687.71V2978.24L3017.53 3414.17Z" fill="#384B78"/>
<path opacity="0.3" d="M3017.53 3414.17V3123.65L3798.21 2687.71V2978.24L3017.53 3414.17Z" fill="black"/>
<path d="M3863.14 2942.04V2651.36L4643.83 2215.58V2506.1L3863.14 2942.04Z" fill="#384B78"/>
<path opacity="0.3" d="M3863.14 2942.04V2651.36L4643.83 2215.58V2506.1L3863.14 2942.04Z" fill="black"/>
<path d="M4708.91 2469.75V2179.22L5489.44 1743.29V2033.96L4708.91 2469.75Z" fill="#384B78"/>
<path opacity="0.3" d="M4708.91 2469.75V2179.22L5489.44 1743.29V2033.96L4708.91 2469.75Z" fill="black"/>
<path d="M3537.57 2832.97V2856.26C3537.57 2869.03 3506.5 2896.82 3468.14 2918.15L3346.67 2986.05C3308.3 3007.38 3277.24 3014.44 3277.24 3001.07V2977.94L3537.57 2832.97Z" fill="#263238"/>
<path d="M4383.65 2360.84V2384.12C4383.65 2396.89 4352.58 2424.68 4314.22 2446.01L4192.75 2513.91C4154.54 2535.24 4123.47 2542.15 4123.47 2528.93V2505.65L4383.65 2360.84Z" fill="#263238"/>
<path d="M5229.26 1888.7V1911.83C5229.26 1924.75 5198.2 1952.39 5159.98 1973.87L5038.36 2041.62C5000.15 2063.1 4969.08 2070.01 4969.08 2056.64V2033.36L5229.26 1888.7Z" fill="#263238"/>
<path d="M5489.44 3050.94L5424.51 3014.59V2142.87L5489.44 2106.52V3050.94Z" fill="#384B78"/>
<path opacity="0.3" d="M5489.44 3050.94L5424.51 3014.59V2142.87L5489.44 2106.52V3050.94Z" fill="black"/>
<path d="M3668.05 1727.81V1722.56C3668.33 1717.9 3669.72 1713.38 3672.12 1709.34C3674.52 1705.3 3677.86 1701.85 3681.87 1699.27L4500.61 1242.61C4504.93 1240.52 4509.69 1239.43 4514.51 1239.43C4519.34 1239.43 4524.1 1240.52 4528.42 1242.61L4695.86 1336.04C4699.87 1338.62 4703.21 1342.07 4705.61 1346.11C4708.01 1350.15 4709.41 1354.68 4709.68 1359.33V1364.74C4709.36 1369.37 4707.94 1373.88 4705.51 1377.89C4703.08 1381.91 4699.73 1385.32 4695.71 1387.87L3877.9 1844.53C3873.58 1846.62 3868.82 1847.71 3863.99 1847.71C3859.17 1847.71 3854.41 1846.62 3850.09 1844.53L3681.87 1750.65C3677.92 1748.11 3674.62 1744.74 3672.22 1740.78C3669.82 1736.82 3668.4 1732.39 3668.05 1727.81V1727.81Z" fill="#384B78"/>
<path opacity="0.7" d="M3668.05 1727.81V1722.56C3668.33 1717.9 3669.72 1713.38 3672.12 1709.34C3674.52 1705.3 3677.86 1701.85 3681.87 1699.27L4500.61 1242.61C4504.93 1240.52 4509.69 1239.43 4514.51 1239.43C4519.34 1239.43 4524.1 1240.52 4528.42 1242.61L4695.86 1336.04C4699.87 1338.62 4703.21 1342.07 4705.61 1346.11C4708.01 1350.15 4709.41 1354.68 4709.68 1359.33V1364.74C4709.36 1369.37 4707.94 1373.88 4705.51 1377.89C4703.08 1381.91 4699.73 1385.32 4695.71 1387.87L3877.9 1844.53C3873.58 1846.62 3868.82 1847.71 3863.99 1847.71C3859.17 1847.71 3854.41 1846.62 3850.09 1844.53L3681.87 1750.65C3677.92 1748.11 3674.62 1744.74 3672.22 1740.78C3669.82 1736.82 3668.4 1732.39 3668.05 1727.81V1727.81Z" fill="white"/>
<path d="M3681.87 1714.75L3849.31 1808.33C3853.63 1810.42 3858.39 1811.51 3863.22 1811.51C3868.04 1811.51 3872.8 1810.42 3877.12 1808.33L4694.93 1351.67C4696.42 1351.01 4697.68 1349.95 4698.56 1348.62C4699.44 1347.29 4699.91 1345.74 4699.91 1344.16C4699.91 1342.57 4699.44 1341.03 4698.56 1339.69C4697.68 1338.36 4696.42 1337.3 4694.93 1336.65L4527.48 1243.21C4523.17 1241.12 4518.41 1240.03 4513.58 1240.03C4508.75 1240.03 4504 1241.12 4499.68 1243.21L3681.71 1699.87C3674.26 1703.63 3674.26 1710.54 3681.87 1714.75Z" fill="#384B78"/>
<path opacity="0.9" d="M3681.87 1714.75L3849.31 1808.33C3853.63 1810.42 3858.39 1811.51 3863.22 1811.51C3868.04 1811.51 3872.8 1810.42 3877.12 1808.33L4694.93 1351.67C4696.42 1351.01 4697.68 1349.95 4698.56 1348.62C4699.44 1347.29 4699.91 1345.74 4699.91 1344.16C4699.91 1342.57 4699.44 1341.03 4698.56 1339.69C4697.68 1338.36 4696.42 1337.3 4694.93 1336.65L4527.48 1243.21C4523.17 1241.12 4518.41 1240.03 4513.58 1240.03C4508.75 1240.03 4504 1241.12 4499.68 1243.21L3681.71 1699.87C3674.26 1703.63 3674.26 1710.54 3681.87 1714.75Z" fill="white"/>
<path d="M2641.16 2162.7L3133.71 2437.9C3138.03 2439.99 3142.79 2441.08 3147.61 2441.08C3152.44 2441.08 3157.2 2439.99 3161.52 2437.9L3524.05 2235.41C3525.6 2234.8 3526.92 2233.76 3527.85 2232.42C3528.78 2231.08 3529.27 2229.51 3529.27 2227.89C3529.27 2226.28 3528.78 2224.71 3527.85 2223.37C3526.92 2222.03 3525.6 2220.99 3524.05 2220.38L3031.35 1945.33C3027.08 1943.19 3022.34 1942.07 3017.53 1942.07C3012.71 1942.07 3007.97 1943.19 3003.7 1945.33L2641.16 2147.23C2633.4 2151.58 2633.4 2158.49 2641.16 2162.7Z" fill="#384B78"/>
<path opacity="0.8" d="M2641.16 2162.7L3133.71 2437.9C3138.03 2439.99 3142.79 2441.08 3147.61 2441.08C3152.44 2441.08 3157.2 2439.99 3161.52 2437.9L3524.05 2235.41C3525.6 2234.8 3526.92 2233.76 3527.85 2232.42C3528.78 2231.08 3529.27 2229.51 3529.27 2227.89C3529.27 2226.28 3528.78 2224.71 3527.85 2223.37C3526.92 2222.03 3525.6 2220.99 3524.05 2220.38L3031.35 1945.33C3027.08 1943.19 3022.34 1942.07 3017.53 1942.07C3012.71 1942.07 3007.97 1943.19 3003.7 1945.33L2641.16 2147.23C2633.4 2151.58 2633.4 2158.49 2641.16 2162.7Z" fill="white"/>
<path d="M3003.7 1944.88L2659.34 2137.01L3133.71 2402C3138.03 2404.09 3142.79 2405.17 3147.61 2405.17C3152.44 2405.17 3157.2 2404.09 3161.52 2402L3506.5 2209.72L3031.97 1944.88C3027.62 1942.63 3022.77 1941.46 3017.84 1941.46C3012.91 1941.46 3008.05 1942.63 3003.7 1944.88V1944.88Z" fill="#384B78"/>
<path opacity="0.7" d="M3003.7 1944.88L2659.34 2137.01L3133.71 2402C3138.03 2404.09 3142.79 2405.17 3147.61 2405.17C3152.44 2405.17 3157.2 2404.09 3161.52 2402L3506.5 2209.72L3031.97 1944.88C3027.62 1942.63 3022.77 1941.46 3017.84 1941.46C3012.91 1941.46 3008.05 1942.63 3003.7 1944.88V1944.88Z" fill="white"/>
<path d="M2641.16 2114.33L3133.71 2389.38C3138.03 2391.47 3142.79 2392.56 3147.61 2392.56C3152.44 2392.56 3157.2 2391.47 3161.52 2389.38L3524.06 2187.03C3525.54 2186.38 3526.8 2185.32 3527.69 2183.99C3528.57 2182.65 3529.04 2181.11 3529.04 2179.52C3529.04 2177.94 3528.57 2176.39 3527.69 2175.06C3526.8 2173.73 3525.54 2172.67 3524.06 2172.01L3031.35 1896.36C3027.05 1894.3 3022.32 1893.22 3017.53 1893.22C3012.73 1893.22 3008 1894.3 3003.7 1896.36L2641.16 2098.86C2639.46 2099.37 2637.98 2100.4 2636.92 2101.8C2635.87 2103.19 2635.3 2104.87 2635.3 2106.59C2635.3 2108.32 2635.87 2110 2636.92 2111.39C2637.98 2112.78 2639.46 2113.81 2641.16 2114.33Z" fill="#384B78"/>
<path opacity="0.9" d="M2641.16 2114.33L3133.71 2389.38C3138.03 2391.47 3142.79 2392.56 3147.61 2392.56C3152.44 2392.56 3157.2 2391.47 3161.52 2389.38L3524.06 2187.03C3525.54 2186.38 3526.8 2185.32 3527.69 2183.99C3528.57 2182.65 3529.04 2181.11 3529.04 2179.52C3529.04 2177.94 3528.57 2176.39 3527.69 2175.06C3526.8 2173.73 3525.54 2172.67 3524.06 2172.01L3031.35 1896.36C3027.05 1894.3 3022.32 1893.22 3017.53 1893.22C3012.73 1893.22 3008 1894.3 3003.7 1896.36L2641.16 2098.86C2639.46 2099.37 2637.98 2100.4 2636.92 2101.8C2635.87 2103.19 2635.3 2104.87 2635.3 2106.59C2635.3 2108.32 2635.87 2110 2636.92 2111.39C2637.98 2112.78 2639.46 2113.81 2641.16 2114.33Z" fill="white"/>
<path d="M2914.23 1827.71C2897.92 1870.68 2922.93 1905.38 2970.31 1905.08C2995.2 1903.82 3019.22 1895.81 3039.63 1881.97C3060.04 1868.13 3076.01 1849.02 3085.71 1826.81C3102.18 1783.85 3077.02 1749.15 3029.64 1749.45C3004.75 1750.71 2980.72 1758.71 2960.31 1772.55C2939.9 1786.39 2923.93 1805.51 2914.23 1827.71V1827.71Z" fill="#384B78"/>
<path opacity="0.1" d="M2914.23 1827.71C2897.92 1870.68 2922.93 1905.38 2970.31 1905.08C2995.2 1903.82 3019.22 1895.81 3039.63 1881.97C3060.04 1868.13 3076.01 1849.02 3085.71 1826.81C3102.18 1783.85 3077.02 1749.15 3029.64 1749.45C3004.75 1750.71 2980.72 1758.71 2960.31 1772.55C2939.9 1786.39 2923.93 1805.51 2914.23 1827.71V1827.71Z" fill="black"/>
<path d="M2953.53 2031.56C2916.41 2128.75 2973.26 2207.31 3080.59 2206.71C3187.92 2206.11 3304.57 2126.2 3341.85 2029.46C3379.13 1932.72 3321.97 1853.85 3214.79 1854.3C3107.62 1854.75 2990.5 1934.22 2953.53 2031.56Z" fill="#455A64"/>
<path d="M3040.51 1750.65L2976.21 1794.06L2911.9 1837.48C2890.62 1919.05 2884.25 2046.43 2963.32 2156.09L3333.31 1906.13C3253.47 1795.72 3126.41 1758.76 3040.51 1750.65Z" fill="#455A64"/>
<path d="M3077.64 1756.51C3077.64 1756.51 3089.13 1854.9 3012.87 1899.52C3012.87 1899.52 3084.63 1880.44 3106.06 1831.62C3127.5 1782.8 3077.64 1756.51 3077.64 1756.51Z" fill="#263238"/>
<path d="M3087.11 1767.63C3058.47 1729.12 3019.92 1698.51 2975.28 1678.85L2923.71 1714.3L2917.96 1718.2L2866.24 1753.65C2870.72 1800.71 2887.74 1845.84 2915.63 1884.65V1884.65C2922.06 1892.55 2930.38 1898.82 2939.89 1902.9C2949.39 1906.98 2959.78 1908.76 2970.15 1908.08C2996.37 1906.69 3021.65 1898.19 3043.11 1883.56C3064.56 1868.92 3081.32 1848.73 3091.46 1825.31C3095.65 1816.01 3097.41 1805.86 3096.59 1795.76C3095.78 1785.65 3092.42 1775.89 3086.8 1767.32L3087.11 1767.63Z" fill="#37474F"/>
<path d="M2867.94 1726.91C2864.84 1732.96 2863.48 1739.71 2864.02 1746.44C2864.55 1753.17 2866.96 1759.63 2870.99 1765.15C2875.02 1770.66 2880.52 1775.02 2886.9 1777.75C2893.28 1780.49 2900.31 1781.51 2907.24 1780.69C2924.57 1779.81 2941.29 1774.2 2955.47 1764.53C2969.65 1754.85 2980.72 1741.5 2987.39 1726.01C2990.49 1719.98 2991.84 1713.25 2991.31 1706.53C2990.78 1699.82 2988.38 1693.36 2984.37 1687.85C2980.36 1682.35 2974.89 1677.99 2968.53 1675.24C2962.18 1672.49 2955.17 1671.45 2948.25 1672.23C2930.93 1673.22 2914.23 1678.85 2900.04 1688.51C2885.86 1698.17 2874.74 1711.47 2867.94 1726.91Z" fill="#455A64"/>
<path d="M2973.88 1849.04C2967.42 1840.05 2958.87 1832.64 2948.92 1827.43C2938.96 1822.21 2927.88 1819.32 2916.56 1819C2912.26 1818.63 2907.94 1819.49 2904.13 1821.47C2900.32 1823.44 2897.2 1826.45 2895.13 1830.11V1830.11L2742.59 2186.28C2741.47 2189.73 2741.19 2193.39 2741.79 2196.96C2742.38 2200.54 2743.83 2203.92 2746.01 2206.86C2752.48 2215.89 2761.05 2223.31 2771.03 2228.53C2781.02 2233.75 2792.14 2236.62 2803.48 2236.91C2807.79 2237.29 2812.12 2236.44 2815.93 2234.46C2819.74 2232.49 2822.87 2229.47 2824.92 2225.79V2225.79L2977.14 1870.82C2978.58 1867.23 2979.04 1863.33 2978.47 1859.52C2977.9 1855.7 2976.32 1852.09 2973.88 1849.04V1849.04Z" fill="#455A64"/>
<path d="M3155.46 2721.37C3155.46 2716.31 3154.89 2711.28 3153.75 2706.34C3140.67 2648.72 3105.55 2598.01 3055.43 2564.39H2849.62C2799.44 2597.99 2764.27 2648.7 2751.14 2706.34C2750.04 2711.28 2749.52 2716.32 2749.58 2721.37C2749.53 2722.27 2749.53 2723.17 2749.58 2724.07C2751.45 2751.56 2771.02 2778.75 2808.61 2799.18C2887.98 2844.24 3016.44 2844.24 3095.81 2799.18C3133.4 2778.15 3152.97 2750.96 3154.84 2724.07C3155.1 2723.18 3155.31 2722.28 3155.46 2721.37V2721.37Z" fill="#455A64"/>
<path d="M2952.44 2692.22C3028.62 2692.22 3090.38 2657.72 3090.38 2615.16C3090.38 2572.6 3028.62 2538.1 2952.44 2538.1C2876.27 2538.1 2814.51 2572.6 2814.51 2615.16C2814.51 2657.72 2876.27 2692.22 2952.44 2692.22Z" fill="#37474F"/>
<path d="M2919.82 2596.83C2915.86 2598.1 2912.41 2600.55 2909.96 2603.83C2907.51 2607.1 2906.2 2611.04 2906.2 2615.08C2906.2 2619.12 2907.51 2623.06 2909.96 2626.34C2912.41 2629.61 2915.86 2632.06 2919.82 2633.33C2929.96 2638.3 2941.16 2640.88 2952.52 2640.88C2963.88 2640.88 2975.08 2638.3 2985.22 2633.33C2989.18 2632.06 2992.64 2629.61 2995.08 2626.34C2997.53 2623.06 2998.84 2619.12 2998.84 2615.08C2998.84 2611.04 2997.53 2607.1 2995.08 2603.83C2992.64 2600.55 2989.18 2598.1 2985.22 2596.83C2975.08 2591.87 2963.88 2589.28 2952.52 2589.28C2941.16 2589.28 2929.96 2591.87 2919.82 2596.83Z" fill="#455A64"/>
<path d="M2730.94 2248.62C2726.98 2249.9 2723.53 2252.34 2721.08 2255.62C2718.63 2258.9 2717.32 2262.84 2717.32 2266.88C2717.32 2270.92 2718.63 2274.86 2721.08 2278.13C2723.53 2281.41 2726.98 2283.86 2730.94 2285.13C2741.08 2290.09 2752.28 2292.68 2763.64 2292.68C2775 2292.68 2786.2 2290.09 2796.34 2285.13C2800.3 2283.86 2803.75 2281.41 2806.2 2278.13C2808.65 2274.86 2809.96 2270.92 2809.96 2266.88C2809.96 2262.84 2808.65 2258.9 2806.2 2255.62C2803.75 2252.34 2800.3 2249.9 2796.34 2248.62C2786.2 2243.66 2775 2241.08 2763.64 2241.08C2752.28 2241.08 2741.08 2243.66 2730.94 2248.62V2248.62Z" fill="#384B78"/>
<path opacity="0.3" d="M2730.94 2248.62C2726.98 2249.9 2723.53 2252.34 2721.08 2255.62C2718.63 2258.9 2717.32 2262.84 2717.32 2266.88C2717.32 2270.92 2718.63 2274.86 2721.08 2278.13C2723.53 2281.41 2726.98 2283.86 2730.94 2285.13C2741.08 2290.09 2752.28 2292.68 2763.64 2292.68C2775 2292.68 2786.2 2290.09 2796.34 2285.13C2800.3 2283.86 2803.75 2281.41 2806.2 2278.13C2808.65 2274.86 2809.96 2270.92 2809.96 2266.88C2809.96 2262.84 2808.65 2258.9 2806.2 2255.62C2803.75 2252.34 2800.3 2249.9 2796.34 2248.62C2786.2 2243.66 2775 2241.08 2763.64 2241.08C2752.28 2241.08 2741.08 2243.66 2730.94 2248.62V2248.62Z" fill="black"/>
<path d="M2808.14 2259.59L2996.87 2607.8L2908.17 2622.52L2719.14 2273.86L2808.14 2259.59Z" fill="#455A64"/>
<path d="M2741.51 2158.19C2735.66 2156.81 2729.53 2157.09 2723.85 2159.01C2718.17 2160.93 2713.19 2164.4 2709.51 2169.01C2698.85 2180.61 2691.18 2194.48 2687.1 2209.49C2683.03 2224.49 2682.67 2240.22 2686.05 2255.39C2686.99 2260.37 2689.13 2265.07 2692.28 2269.11C2695.44 2273.16 2699.53 2276.43 2704.23 2278.67V2278.67L2774.75 2304.21L2809.85 2182.53L2741.51 2158.19Z" fill="#37474F"/>
<path d="M2779.1 2194.24C2768.4 2205.85 2760.69 2219.74 2756.59 2234.78C2752.48 2249.81 2752.11 2265.57 2755.49 2280.77C2763.25 2308.26 2786.55 2314.12 2807.05 2293.84C2817.75 2282.26 2825.46 2268.4 2829.56 2253.39C2833.67 2238.38 2834.04 2222.64 2830.66 2207.46C2823.05 2179.97 2799.75 2174.12 2779.1 2194.24Z" fill="#263238"/>
<path d="M2424.48 2496.04C2490.03 2431.44 2528.39 2269.96 2464.55 2218.73H2139.6C2075.76 2269.96 2114.13 2431.29 2179.68 2496.04L2181.39 2497.84L2183.72 2499.94C2185.58 2501.76 2187.55 2503.46 2189.62 2505.05L2191.17 2506.25L2196.14 2509.86C2198.83 2511.77 2201.63 2513.52 2204.53 2515.11C2234.8 2529.92 2268.24 2537.64 2302.16 2537.64C2336.07 2537.64 2369.52 2529.92 2399.78 2515.11V2515.11C2402.58 2513.61 2405.37 2511.81 2408.32 2509.86L2412.83 2506.4L2414.85 2505.05L2420.44 2500.09L2423.08 2497.54L2424.48 2496.04Z" fill="#384B78"/>
<path opacity="0.7" d="M2424.48 2496.04C2490.03 2431.44 2528.39 2269.96 2464.55 2218.73H2139.6C2075.76 2269.96 2114.13 2431.29 2179.68 2496.04L2181.39 2497.84L2183.72 2499.94C2185.58 2501.76 2187.55 2503.46 2189.62 2505.05L2191.17 2506.25L2196.14 2509.86C2198.83 2511.77 2201.63 2513.52 2204.53 2515.11C2234.8 2529.92 2268.24 2537.64 2302.16 2537.64C2336.07 2537.64 2369.52 2529.92 2399.78 2515.11V2515.11C2402.58 2513.61 2405.37 2511.81 2408.32 2509.86L2412.83 2506.4L2414.85 2505.05L2420.44 2500.09L2423.08 2497.54L2424.48 2496.04Z" fill="white"/>
<path d="M2301.92 2379.16C2406.84 2379.16 2491.89 2331.68 2491.89 2273.11C2491.89 2214.54 2406.84 2167.05 2301.92 2167.05C2197.01 2167.05 2111.96 2214.54 2111.96 2273.11C2111.96 2331.68 2197.01 2379.16 2301.92 2379.16Z" fill="#384B78"/>
<path opacity="0.9" d="M2301.92 2379.16C2406.84 2379.16 2491.89 2331.68 2491.89 2273.11C2491.89 2214.54 2406.84 2167.05 2301.92 2167.05C2197.01 2167.05 2111.96 2214.54 2111.96 2273.11C2111.96 2331.68 2197.01 2379.16 2301.92 2379.16Z" fill="white"/>
<path d="M2220.22 2227.45C2175.18 2252.68 2175.18 2293.54 2220.22 2318.78C2245.58 2331.15 2273.59 2337.6 2302 2337.6C2330.41 2337.6 2358.42 2331.15 2383.78 2318.78C2428.83 2293.54 2428.83 2252.68 2383.78 2227.45C2358.44 2215 2330.42 2208.52 2302 2208.52C2273.58 2208.52 2245.56 2215 2220.22 2227.45V2227.45Z" fill="#384B78"/>
<path opacity="0.7" d="M2220.22 2227.45C2175.18 2252.68 2175.18 2293.54 2220.22 2318.78C2245.58 2331.15 2273.59 2337.6 2302 2337.6C2330.41 2337.6 2358.42 2331.15 2383.78 2318.78C2428.83 2293.54 2428.83 2252.68 2383.78 2227.45C2358.44 2215 2330.42 2208.52 2302 2208.52C2273.58 2208.52 2245.56 2215 2220.22 2227.45V2227.45Z" fill="white"/>
<path d="M2383.78 2270.71C2358.42 2258.33 2330.41 2251.89 2302 2251.89C2273.59 2251.89 2245.58 2258.33 2220.22 2270.71C2209.35 2276.51 2200.09 2284.76 2193.19 2294.74C2200.09 2304.73 2209.35 2312.97 2220.22 2318.78C2245.58 2331.15 2273.59 2337.6 2302 2337.6C2330.41 2337.6 2358.42 2331.15 2383.78 2318.78C2394.65 2312.97 2403.92 2304.73 2410.81 2294.74C2403.92 2284.76 2394.65 2276.51 2383.78 2270.71V2270.71Z" fill="#384B78"/>
<path opacity="0.3" d="M2383.78 2270.71C2358.42 2258.33 2330.41 2251.89 2302 2251.89C2273.59 2251.89 2245.58 2258.33 2220.22 2270.71C2209.35 2276.51 2200.09 2284.76 2193.19 2294.74C2200.09 2304.73 2209.35 2312.97 2220.22 2318.78C2245.58 2331.15 2273.59 2337.6 2302 2337.6C2330.41 2337.6 2358.42 2331.15 2383.78 2318.78C2394.65 2312.97 2403.92 2304.73 2410.81 2294.74C2403.92 2284.76 2394.65 2276.51 2383.78 2270.71V2270.71Z" fill="black"/>
<path d="M2331.44 2304.66C2378.51 2276.22 2414.05 2232.99 2432.09 2182.23C2462.07 2097.51 2444.36 1995.06 2417.49 1952.69C2381.14 1895.31 2293.23 1901.77 2319.17 1997.76C2345.11 2093.75 2361.26 2197.55 2320.1 2266.95L2331.44 2304.66Z" fill="#37474F"/>
<path d="M2334.54 2287.23C2333.58 2287.23 2332.65 2286.91 2331.9 2286.33C2331.52 2285.97 2331.22 2285.53 2331.01 2285.06C2330.81 2284.58 2330.7 2284.07 2330.7 2283.55C2330.7 2283.03 2330.81 2282.52 2331.01 2282.04C2331.22 2281.57 2331.52 2281.13 2331.9 2280.77C2358.17 2252.69 2378.26 2219.74 2390.97 2183.93C2403.68 2148.11 2408.74 2110.18 2405.84 2072.42C2401.33 2002.87 2374.77 1952.24 2364.68 1944.58C2363.95 1943.83 2363.54 1942.83 2363.54 1941.8C2363.54 1940.77 2363.95 1939.78 2364.68 1939.02C2365.43 1938.32 2366.43 1937.94 2367.47 1937.94C2368.52 1937.94 2369.52 1938.32 2370.27 1939.02C2383.63 1950.14 2409.72 2004.22 2414.07 2072.12C2417.07 2110.94 2411.89 2149.94 2398.83 2186.76C2385.78 2223.59 2365.12 2257.46 2338.12 2286.33C2337.65 2286.77 2337.08 2287.08 2336.45 2287.24C2335.83 2287.4 2335.17 2287.39 2334.54 2287.23Z" fill="white"/>
<path d="M2255.64 2304.66C2253.12 2296.28 2247.62 2289.04 2240.1 2284.23C2230.82 2279.22 2221.04 2275.14 2210.9 2272.06C2193.35 2265.9 2170.98 2257.04 2168.65 2236.61C2168.1 2229.29 2169.05 2221.94 2171.45 2214.98C2175.77 2205.53 2176.81 2194.99 2174.4 2184.93C2170.51 2175.92 2160.57 2171.11 2152.03 2165.7C2142.61 2160.32 2134.59 2152.92 2128.58 2144.07C2123.51 2136.21 2121.07 2127.03 2121.59 2117.78C2123.29 2098.86 2142.09 2086.39 2142.71 2067.61C2143.49 2040.12 2077.01 2002.87 2112.42 1977.48C2157.78 1944.28 2228.76 1982.74 2249.11 2010.98C2269.46 2039.22 2269.46 2051.84 2306.58 2075.72C2337.65 2095.55 2373.69 2099.61 2373.69 2138.66C2373.69 2177.72 2321.96 2179.52 2362.66 2223.84C2387.2 2250.43 2347.12 2273.41 2331.59 2304.96C2306.27 2304.66 2280.64 2303.45 2255.64 2304.66Z" fill="#455A64"/>
<path d="M2296.64 2308.11C2296.11 2308.09 2295.59 2307.97 2295.11 2307.76C2294.63 2307.54 2294.19 2307.24 2293.83 2306.86C2293.47 2306.48 2293.19 2306.04 2293.01 2305.56C2292.82 2305.08 2292.74 2304.57 2292.76 2304.05C2301.77 2077.07 2182.32 1997.46 2158.4 1991.15C2157.42 1990.83 2156.61 1990.16 2156.13 1989.27C2155.64 1988.39 2155.53 1987.36 2155.81 1986.4C2156.09 1985.44 2156.74 1984.61 2157.62 1984.1C2158.51 1983.59 2159.57 1983.42 2160.57 1983.64C2200.96 1994.3 2309.22 2090.14 2300.37 2304.36C2300.34 2305.31 2299.94 2306.23 2299.25 2306.92C2298.56 2307.61 2297.63 2308.04 2296.64 2308.11V2308.11Z" fill="white"/>
<path d="M2277.69 2146.78C2276.73 2146.78 2275.8 2146.46 2275.05 2145.88C2240.41 2115.83 2172.69 2117.03 2171.91 2117.03C2170.87 2117.03 2169.86 2116.64 2169.11 2115.94C2168.36 2115.24 2167.91 2114.29 2167.87 2113.28C2167.87 2112.25 2168.27 2111.26 2168.99 2110.51C2169.71 2109.76 2170.7 2109.3 2171.76 2109.22C2174.71 2109.22 2243.36 2108.47 2280.49 2139.27C2281.07 2139.79 2281.48 2140.48 2281.67 2141.23C2281.85 2141.99 2281.79 2142.78 2281.51 2143.5C2281.23 2144.23 2280.73 2144.85 2280.08 2145.3C2279.42 2145.75 2278.65 2146 2277.85 2146.03L2277.69 2146.78Z" fill="white"/>
<path d="M5037.43 1523.22L5095.83 837.619C5096.44 826.523 5094.07 815.463 5088.95 805.513C5083.84 795.564 5076.15 787.063 5066.63 780.836C5056.11 775.914 5044.54 773.458 5032.85 773.667C5021.17 773.875 5009.7 776.743 4999.37 782.038L4222.73 1215.57C4212.46 1222 4203.75 1230.49 4197.18 1240.47C4190.61 1250.45 4186.35 1261.69 4184.67 1273.4L4126.27 1959C4125.66 1970.1 4128.03 1981.16 4133.15 1991.11C4138.26 2001.06 4145.95 2009.56 4155.47 2015.78C4165.99 2020.71 4177.56 2023.16 4189.25 2022.95C4200.93 2022.75 4212.4 2019.88 4222.73 2014.58L4999.37 1581.05C5009.63 1574.61 5018.33 1566.11 5024.9 1556.13C5031.46 1546.15 5035.74 1534.93 5037.43 1523.22V1523.22Z" fill="#384B78"/>
<path opacity="0.8" d="M5037.43 1523.22L5095.83 837.619C5096.44 826.523 5094.07 815.463 5088.95 805.513C5083.84 795.564 5076.15 787.063 5066.63 780.836C5056.11 775.914 5044.54 773.458 5032.85 773.667C5021.17 773.875 5009.7 776.743 4999.37 782.038L4222.73 1215.57C4212.46 1222 4203.75 1230.49 4197.18 1240.47C4190.61 1250.45 4186.35 1261.69 4184.67 1273.4L4126.27 1959C4125.66 1970.1 4128.03 1981.16 4133.15 1991.11C4138.26 2001.06 4145.95 2009.56 4155.47 2015.78C4165.99 2020.71 4177.56 2023.16 4189.25 2022.95C4200.93 2022.75 4212.4 2019.88 4222.73 2014.58L4999.37 1581.05C5009.63 1574.61 5018.33 1566.11 5024.9 1556.13C5031.46 1546.15 5035.74 1534.93 5037.43 1523.22V1523.22Z" fill="white"/>
<path d="M5037.43 1523.22L5095.83 837.619C5096.44 826.523 5094.07 815.463 5088.96 805.513C5083.84 795.564 5076.15 787.063 5066.63 780.836C5056.11 775.914 5044.54 773.458 5032.86 773.667C5021.17 773.875 5009.7 776.743 4999.37 782.038L4222.73 1215.57C4212.41 1221.76 4203.74 1230.19 4197.41 1240.21L4318.1 1307.5V1960.96L4998.91 1580.75C5009.23 1574.4 5018.01 1565.97 5024.66 1556.05C5031.3 1546.12 5035.66 1534.92 5037.43 1523.22Z" fill="#384B78"/>
<path opacity="0.9" d="M5037.43 1523.22L5095.83 837.619C5096.44 826.523 5094.07 815.463 5088.96 805.513C5083.84 795.564 5076.15 787.063 5066.63 780.836C5056.11 775.914 5044.54 773.458 5032.86 773.667C5021.17 773.875 5009.7 776.743 4999.37 782.038L4222.73 1215.57C4212.41 1221.76 4203.74 1230.19 4197.41 1240.21L4318.1 1307.5V1960.96L4998.91 1580.75C5009.23 1574.4 5018.01 1565.97 5024.66 1556.05C5031.3 1546.12 5035.66 1534.92 5037.43 1523.22Z" fill="white"/>
<path d="M4191.82 1995.36L4250.22 1309.76C4251.91 1298.04 4256.17 1286.81 4262.7 1276.81C4269.24 1266.81 4277.9 1258.28 4288.12 1251.77L5064.77 818.392C5084.03 807.727 5098.01 816.289 5095.83 837.62L5037.43 1523.22C5035.75 1534.92 5031.5 1546.13 5024.97 1556.11C5018.43 1566.09 5009.75 1574.59 4999.53 1581.05L4222.88 2014.58C4203.93 2025.25 4189.95 2016.69 4191.82 1995.36Z" fill="#384B78"/>
<path opacity="0.7" d="M4191.82 1995.36L4250.22 1309.76C4251.91 1298.04 4256.17 1286.81 4262.7 1276.81C4269.24 1266.81 4277.9 1258.28 4288.12 1251.77L5064.77 818.392C5084.03 807.727 5098.01 816.289 5095.83 837.62L5037.43 1523.22C5035.75 1534.92 5031.5 1546.13 5024.97 1556.11C5018.43 1566.09 5009.75 1574.59 4999.53 1581.05L4222.88 2014.58C4203.93 2025.25 4189.95 2016.69 4191.82 1995.36Z" fill="white"/>
<path d="M4592.41 1445.26C4594.52 1426.83 4600.69 1409.05 4610.49 1393.11C4620.3 1377.18 4633.52 1363.46 4649.26 1352.87C4677.69 1336.95 4698.19 1352.87 4695.86 1387.72C4693.73 1406.15 4687.56 1423.92 4677.75 1439.85C4667.95 1455.78 4654.74 1469.51 4639.01 1480.11C4609.34 1495.28 4589.46 1480.26 4592.41 1445.26Z" fill="#384B78"/>
<path opacity="0.4" d="M4592.41 1445.26C4594.52 1426.83 4600.69 1409.05 4610.49 1393.11C4620.3 1377.18 4633.52 1363.46 4649.26 1352.87C4677.69 1336.95 4698.19 1352.87 4695.86 1387.72C4693.73 1406.15 4687.56 1423.92 4677.75 1439.85C4667.95 1455.78 4654.74 1469.51 4639.01 1480.11C4609.34 1495.28 4589.46 1480.26 4592.41 1445.26Z" fill="white"/>
<path d="M4578.74 1670.73L4838.92 1525.47L4806.46 1507.3L4546.28 1652.56L4578.74 1670.73Z" fill="#384B78"/>
<path opacity="0.9" d="M4578.74 1670.73L4838.92 1525.47L4806.46 1507.3L4546.28 1652.56L4578.74 1670.73Z" fill="white"/>
<path d="M4890.02 1860.01L4657.03 1989.8C4652.27 1992.27 4646.89 1993.42 4641.5 1993.1C4637.12 1992.92 4632.83 1991.84 4628.91 1989.95V1989.95L4526.55 1932.86C4522.66 1930.27 4519.44 1926.85 4517.13 1922.86C4514.81 1918.88 4513.47 1914.44 4513.19 1909.88V1904.62C4513.19 1896.06 4519.41 1892.45 4527.02 1896.81L4589.15 1931.21L4602.97 1939.02L4599.87 1924L4546.12 1653.61L4578.59 1671.78L4838.92 1525.32L4901.05 1836.87C4901.78 1841.35 4901.12 1845.94 4899.15 1850.05C4897.19 1854.17 4894.01 1857.63 4890.02 1860.01V1860.01Z" fill="#384B78"/>
<path opacity="0.7" d="M4890.02 1860.01L4657.03 1989.8C4652.27 1992.27 4646.89 1993.42 4641.5 1993.1C4637.12 1992.92 4632.83 1991.84 4628.91 1989.95V1989.95L4526.55 1932.86C4522.66 1930.27 4519.44 1926.85 4517.13 1922.86C4514.81 1918.88 4513.47 1914.44 4513.19 1909.88V1904.62C4513.19 1896.06 4519.41 1892.45 4527.02 1896.81L4589.15 1931.21L4602.97 1939.02L4599.87 1924L4546.12 1653.61L4578.59 1671.78L4838.92 1525.32L4901.05 1836.87C4901.78 1841.35 4901.12 1845.94 4899.15 1850.05C4897.19 1854.17 4894.01 1857.63 4890.02 1860.01V1860.01Z" fill="white"/>
<path d="M4518.01 1895.31L4597.23 1851L4613.38 1954.2L4518.01 1895.31Z" fill="#384B78"/>
<path opacity="0.7" d="M4518.01 1895.31L4597.23 1851L4613.38 1954.2L4518.01 1895.31Z" fill="white"/>
<path d="M4578.28 1670.73L4545.81 1652.55L4599.56 1922.95C4601.42 1931.21 4596.45 1934.67 4588.84 1930.31L4526.71 1895.91C4519.1 1891.55 4512.88 1895.91 4512.88 1903.72V1908.98C4513.16 1913.54 4514.5 1917.98 4516.82 1921.96C4519.13 1925.95 4522.35 1929.37 4526.24 1931.96L4628.6 1989.04C4632.52 1990.94 4636.81 1992.02 4641.18 1992.2L4578.28 1670.73Z" fill="#384B78"/>
<path opacity="0.8" d="M4578.28 1670.73L4545.81 1652.55L4599.56 1922.95C4601.42 1931.21 4596.45 1934.67 4588.84 1930.31L4526.71 1895.91C4519.1 1891.55 4512.88 1895.91 4512.88 1903.72V1908.98C4513.16 1913.54 4514.5 1917.98 4516.82 1921.96C4519.13 1925.95 4522.35 1929.37 4526.24 1931.96L4628.6 1989.04C4632.52 1990.94 4636.81 1992.02 4641.18 1992.2L4578.28 1670.73Z" fill="white"/>
<path d="M3739.5 2033.96C3787.18 2030.51 3802.56 2013.53 3810.33 1993.1C3818.09 1972.67 3820.89 1950.29 3802.41 1902.97C3783.92 1855.65 3678.14 1793.61 3568.32 1816.3C3458.51 1838.98 3443.28 1920.1 3449.19 1941.88C3455.09 1963.66 3521.1 2018.94 3606.69 2028.4C3650.71 2033.96 3695.15 2035.82 3739.5 2033.96Z" fill="#384B78"/>
<path opacity="0.7" d="M3739.5 2033.96C3787.18 2030.51 3802.56 2013.53 3810.33 1993.1C3818.09 1972.67 3820.89 1950.29 3802.41 1902.97C3783.92 1855.65 3678.14 1793.61 3568.32 1816.3C3458.51 1838.98 3443.28 1920.1 3449.19 1941.88C3455.09 1963.66 3521.1 2018.94 3606.69 2028.4C3650.71 2033.96 3695.15 2035.82 3739.5 2033.96Z" fill="white"/>
<path d="M3683.73 1885.85C3690.04 1881.03 3697.84 1878.42 3705.87 1878.42C3713.9 1878.42 3721.7 1881.03 3728 1885.85C3742.53 1893.8 3754.15 1905.93 3761.24 1920.55C3766.06 1932.71 3763.73 1943.53 3758.29 1943.53C3752.86 1943.53 3748.82 1932.41 3728 1915.59C3707.19 1898.77 3679.07 1892.16 3683.73 1885.85Z" fill="#384B78"/>
<path opacity="0.9" d="M3683.73 1885.85C3690.04 1881.03 3697.84 1878.42 3705.87 1878.42C3713.9 1878.42 3721.7 1881.03 3728 1885.85C3742.53 1893.8 3754.15 1905.93 3761.24 1920.55C3766.06 1932.71 3763.73 1943.53 3758.29 1943.53C3752.86 1943.53 3748.82 1932.41 3728 1915.59C3707.19 1898.77 3679.07 1892.16 3683.73 1885.85Z" fill="white"/>
<path d="M3012.87 753.496C2961.61 786.845 2900.87 826.352 2909.26 956.442C2917.65 1086.53 3017.99 1445.4 3024.83 1489.12C3031.66 1532.83 3304.42 1744.49 3354.59 1786.25C3412.22 1834.77 3433.96 1844.99 3460.06 1872.78C3486.16 1900.57 3510.7 1971.47 3537.72 2002.26C3580.13 2049.88 3671.46 2050.94 3713.56 2045.38C3755.65 2039.82 3729.09 1990.4 3713.56 1955.25C3698.02 1920.1 3656.4 1872.18 3668.2 1863.91C3676.28 1858.36 3720.24 1865.87 3754.25 1893.96C3780.5 1915.59 3783.61 1936.77 3798.37 1946.68C3823.06 1963.51 3831.3 1933.77 3805.82 1886.6C3780.35 1839.43 3741.52 1805.63 3703.15 1793.91C3720.08 1795.2 3737.02 1791.54 3751.77 1783.4C3772.89 1770.78 3780.35 1742.24 3754.25 1749.75C3738.72 1754.1 3723.19 1749.75 3692.12 1749.75C3594.58 1749.75 3565.22 1784 3452.29 1678.54C3339.37 1573.09 3188.23 1429.63 3188.23 1429.63C3188.23 1429.63 3137.44 1130.7 3114.61 998.353C3095.19 884.337 3087.11 809.678 3012.87 753.496Z" fill="#FFA8A7"/>
<path d="M3919.52 1047.47L4112.29 652.699L4221.02 696.112C4221.02 696.112 4061.19 1163.89 4038.2 1214.67C4024.68 1244.71 3981.35 1281.21 3918.59 1251.62C3904.92 1245.16 3877.74 1229.69 3844.03 1209.41" fill="#FFA8A7"/>
<path d="M4180.17 813.734C4193.53 775.128 4235.93 733.967 4242.3 717.594C4247.95 704.662 4249.84 690.477 4247.74 676.584L4198.19 681.391L4180.17 813.734Z" fill="#FFA8A7"/>
<path d="M4077.96 721.652C4086.04 703.776 4087.44 641.134 4077.96 605.082C4068.49 569.029 4091.32 523.964 4085.57 498.577C4079.82 473.19 4096.6 465.529 4111.82 474.692C4121.15 480.413 4128.86 488.277 4134.28 497.581C4139.7 506.886 4142.66 517.342 4142.89 528.02C4143.66 554.308 4145.37 621.155 4134.35 653.753C4123.32 686.35 4077.96 721.652 4077.96 721.652Z" fill="#FFA8A7"/>
<path d="M4103.59 660.213C4106.54 668.325 4117.72 679.591 4153.92 673.582L4220.55 696.115L4247.74 694.613C4233.2 704.554 4215.42 709.032 4197.73 707.207C4180.03 705.382 4163.62 697.379 4151.59 684.698C4151.59 684.698 4102.66 690.557 4103.59 660.213Z" fill="#F28F8F"/>
<path d="M4289.99 633.773C4248.2 665.319 4254.1 706.329 4303.34 725.557C4330.64 734.626 4359.76 737.34 4388.34 733.476C4416.92 729.613 4444.16 719.283 4467.84 703.325C4509.62 671.779 4503.56 630.619 4454.48 611.391C4427.17 602.379 4398.05 599.71 4369.47 603.598C4340.89 607.486 4313.67 617.823 4289.99 633.773V633.773Z" fill="#384B78"/>
<path opacity="0.7" d="M4289.99 633.773C4248.2 665.319 4254.1 706.329 4303.34 725.557C4330.64 734.626 4359.76 737.34 4388.34 733.476C4416.92 729.613 4444.16 719.283 4467.84 703.325C4509.62 671.779 4503.56 630.619 4454.48 611.391C4427.17 602.379 4398.05 599.71 4369.47 603.598C4340.89 607.486 4313.67 617.823 4289.99 633.773V633.773Z" fill="white"/>
<path d="M4496.88 403.488L4343.57 424.218L4189.95 444.949C4193.37 541.089 4227.08 648.796 4271.03 703.625L4492.22 673.582C4519.1 608.988 4520.8 496.774 4496.88 403.488Z" fill="#384B78"/>
<path opacity="0.7" d="M4496.88 403.488L4343.57 424.218L4189.95 444.949C4193.37 541.089 4227.08 648.796 4271.03 703.625L4492.22 673.582C4519.1 608.988 4520.8 496.774 4496.88 403.488Z" fill="white"/>
<path d="M4229.41 400.031C4173.18 433.23 4179.08 474.089 4242.61 491.064C4316.47 506.704 4393.69 496.036 4460.07 461.02C4516.3 427.672 4510.4 386.963 4446.87 369.838C4372.99 354.257 4295.77 364.978 4229.41 400.031V400.031Z" fill="#384B78"/>
<path opacity="0.9" d="M4229.41 400.031C4173.18 433.23 4179.08 474.089 4242.61 491.064C4316.47 506.704 4393.69 496.036 4460.07 461.02C4516.3 427.672 4510.4 386.963 4446.87 369.838C4372.99 354.257 4295.77 364.978 4229.41 400.031V400.031Z" fill="white"/>
<path d="M4252.08 413.702C4205.49 436.686 4209.99 463.274 4260.63 473.79C4320.12 482.5 4380.96 474.252 4435.68 450.055C4481.51 427.071 4477.78 400.483 4426.99 389.967C4367.54 381.269 4306.76 389.517 4252.08 413.702Z" fill="#384B78"/>
<path opacity="0.4" d="M4252.08 413.702C4205.49 436.686 4209.99 463.274 4260.63 473.79C4320.12 482.5 4380.96 474.252 4435.68 450.055C4481.51 427.071 4477.78 400.483 4426.99 389.967C4367.54 381.269 4306.76 389.517 4252.08 413.702Z" fill="white"/>
<path d="M4257.83 448.856C4249.6 452.764 4242.01 457.826 4235.31 463.877C4243.47 467.921 4252.22 470.757 4261.25 472.29C4320.75 481 4381.58 472.753 4436.3 448.555C4444.57 444.709 4452.17 439.641 4458.83 433.533C4450.67 429.49 4441.92 426.654 4432.89 425.121C4373.39 416.41 4312.56 424.658 4257.83 448.856V448.856Z" fill="#384B78"/>
<path opacity="0.3" d="M4257.83 448.856C4249.6 452.764 4242.01 457.826 4235.31 463.877C4243.47 467.921 4252.22 470.757 4261.25 472.29C4320.75 481 4381.58 472.753 4436.3 448.555C4444.57 444.709 4452.17 439.641 4458.83 433.533C4450.67 429.49 4441.92 426.654 4432.89 425.121C4373.39 416.41 4312.56 424.658 4257.83 448.856V448.856Z" fill="black"/>
<path d="M4225.21 699.117C4212.32 700.966 4199.18 700.354 4186.53 697.315C4169.14 692.808 4152.67 676.585 4136.36 647.592C4122.69 623.257 4099.24 569.178 4109.18 539.285C4121.92 501.279 4167.43 495.871 4197.72 492.266L4208.13 490.914L4214.8 537.031L4203.62 538.383C4186.53 540.336 4158.11 543.791 4154.85 553.405C4150.5 572.032 4183.12 644.588 4199.74 652.549C4214.73 654.561 4229.99 652.153 4243.54 645.639L4265.29 687.1C4252.66 693.11 4239.14 697.166 4225.21 699.117V699.117Z" fill="#384B78"/>
<path opacity="0.7" d="M4225.21 699.117C4212.32 700.966 4199.18 700.354 4186.53 697.315C4169.14 692.808 4152.67 676.585 4136.36 647.592C4122.69 623.257 4099.24 569.178 4109.18 539.285C4121.92 501.279 4167.43 495.871 4197.72 492.266L4208.13 490.914L4214.8 537.031L4203.62 538.383C4186.53 540.336 4158.11 543.791 4154.85 553.405C4150.5 572.032 4183.12 644.588 4199.74 652.549C4214.73 654.561 4229.99 652.153 4243.54 645.639L4265.29 687.1C4252.66 693.11 4239.14 697.166 4225.21 699.117V699.117Z" fill="white"/>
<path d="M4168.21 553.557C4138.54 553.557 4051.4 587.055 4049.54 617.4C4047.67 647.744 4106.85 645.49 4106.85 645.49C4104.06 649.999 4102.99 655.314 4103.85 660.505C4104.7 665.696 4107.41 670.432 4111.51 673.882C4126.27 686.2 4238.11 648.645 4238.11 648.645C4234.2 636.25 4228.27 624.536 4220.55 613.945C4214.98 607.096 4206.82 602.665 4197.87 601.627C4197.87 601.627 4212.32 553.557 4168.21 553.557Z" fill="#FFA8A7"/>
<path d="M1948.7 2032.91L1818.54 1960.36L1948.7 1924V2032.91Z" fill="#E0E0E0"/>
<g style="mix-blend-mode:multiply" opacity="0.5">
<g style="mix-blend-mode:multiply">
<path d="M1948.7 1924V2032.91L1818.54 1960.35" fill="#E0E0E0"/>
</g>
</g>
<path d="M1168.02 2359.94V2475.6L452.572 2076.17V1960.35L1168.02 2359.94Z" fill="#E0E0E0"/>
<g style="mix-blend-mode:multiply" opacity="0.5">
<g style="mix-blend-mode:multiply">
<path d="M1168.02 2359.94V2475.61L452.572 2076.17V1960.36L1168.02 2359.94Z" fill="#E0E0E0"/>
</g>
</g>
<path d="M387.489 1052.28L1103.09 1451.86V2396.14L387.489 1996.7V1052.28Z" fill="#E0E0E0"/>
<path d="M1103.09 1451.86L2078.72 907.02V1851.29L1103.09 2396.14V1451.86Z" fill="#EBEBEB"/>
<path d="M2078.72 907.019L1363.27 507.438L387.489 1052.28L1103.09 1451.86L2078.72 907.019Z" fill="#F5F5F5"/>
<path d="M1168.02 1488.22L2013.79 1015.93V1233.9L1168.02 1706.03V1488.22Z" fill="#E0E0E0"/>
<g style="mix-blend-mode:multiply" opacity="0.5">
<g style="mix-blend-mode:multiply">
<path d="M1493.28 1324.63C1493.28 1334.69 1524.34 1325.53 1562.71 1304.2L1684.18 1236.3C1722.54 1214.97 1753.46 1189.43 1753.46 1179.37V1161.19L1493.12 1306.6L1493.28 1324.63Z" fill="#E0E0E0"/>
</g>
</g>
<path d="M1168.02 1778.74L2013.79 1306.6V1524.42L1168.02 1996.71V1778.74Z" fill="#E0E0E0"/>
<g style="mix-blend-mode:multiply" opacity="0.5">
<g style="mix-blend-mode:multiply">
<path d="M1493.28 1615.45C1493.28 1625.51 1524.34 1615.45 1562.71 1594.87L1684.18 1526.97C1722.54 1505.64 1753.46 1480.1 1753.46 1470.19V1452.01L1493.12 1597.27L1493.28 1615.45Z" fill="#E0E0E0"/>
</g>
</g>
<path d="M1168.02 2069.26L2013.79 1597.12V1815.09L1168.02 2287.23V2069.26Z" fill="#E0E0E0"/>
<g style="mix-blend-mode:multiply" opacity="0.5">
<g style="mix-blend-mode:multiply">
<path d="M1493.28 1905.82C1493.28 1915.89 1524.34 1906.72 1562.71 1885.24L1684.18 1817.49C1722.54 1796.01 1753.46 1770.63 1753.46 1760.56V1742.38L1493.12 1887.65L1493.28 1905.82Z" fill="#E0E0E0"/>
</g>
</g>
<path d="M1168.02 2475.6L1233.1 2439.4V2323.58L1168.02 2359.93V2475.6Z" fill="#E0E0E0"/>
<path d="M1948.7 2032.91L2013.79 1996.71V1887.65L1948.7 1924V2032.91Z" fill="#E0E0E0"/>
<path d="M805.791 1091.64C871.34 1026.89 909.862 866.31 845.866 814.184H520.762C456.921 865.558 495.288 1026.89 560.837 1091.49L562.545 1093.29L564.875 1095.39C566.733 1097.21 568.704 1098.92 570.778 1100.5L572.331 1101.7L577.302 1105.31C579.989 1107.22 582.79 1108.97 585.689 1110.57C615.953 1125.38 649.396 1133.09 683.314 1133.09C717.232 1133.09 750.674 1125.38 780.938 1110.57V1110.57C783.889 1108.97 786.742 1107.22 789.482 1105.31L793.986 1102L796.005 1100.5L801.753 1095.54L804.238 1093.14L805.791 1091.64Z" fill="#EBEBEB"/>
<path d="M549.032 793.605C474.784 835.065 474.784 902.213 549.032 943.823C623.279 985.434 743.504 985.284 817.596 943.823C891.689 902.363 891.844 835.365 817.596 793.605C743.349 751.844 623.124 752.144 549.032 793.605Z" fill="#F5F5F5"/>
<path d="M601.843 822.897C556.798 848.134 556.798 888.993 601.843 914.23C627.184 926.673 655.204 933.158 683.624 933.158C712.044 933.158 740.064 926.673 765.405 914.23C810.451 888.993 810.451 848.134 765.405 822.897C740.042 810.524 712.031 804.078 683.624 804.078C655.217 804.078 627.206 810.524 601.843 822.897V822.897Z" fill="#E0E0E0"/>
<path d="M765.096 866.309C739.754 853.866 711.735 847.381 683.315 847.381C654.894 847.381 626.875 853.866 601.534 866.309C590.631 872 581.348 880.203 574.506 890.193C581.338 900.23 590.62 908.485 601.534 914.228C626.875 926.671 654.894 933.156 683.315 933.156C711.735 933.156 739.754 926.671 765.096 914.228C776.009 908.485 785.292 900.23 792.123 890.193C785.282 880.203 775.999 872 765.096 866.309V866.309Z" fill="#E0E0E0"/>
<g style="mix-blend-mode:multiply" opacity="0.5">
<g style="mix-blend-mode:multiply">
<path d="M765.096 866.309C739.754 853.866 711.735 847.381 683.315 847.381C654.894 847.381 626.875 853.866 601.534 866.309C590.631 872 581.348 880.203 574.506 890.193C581.338 900.23 590.62 908.485 601.534 914.228C626.875 926.671 654.894 933.156 683.315 933.156C711.735 933.156 739.754 926.671 765.096 914.228C776.009 908.485 785.292 900.23 792.123 890.193C785.282 880.203 775.999 872 765.096 866.309V866.309Z" fill="#E0E0E0"/>
</g>
</g>
<path d="M611.63 890.194C588.495 867.515 568.592 841.953 552.449 814.183C525.111 767.615 520.141 704.974 534.276 697.313C548.411 689.652 605.727 751.992 605.727 751.992C600.504 725.722 598.471 698.952 599.669 672.226C602.155 630.616 612.562 592.911 624.988 585.249C637.414 577.588 664.752 630.315 676.557 668.17C688.362 706.025 695.042 737.421 695.042 737.421C699.798 707.757 706.859 678.481 716.166 649.844C730.457 610.486 743.504 601.473 753.601 604.778C763.697 608.083 770.376 627.16 773.328 679.887C774.358 704.949 773.527 730.05 770.842 754.997C770.842 754.997 791.191 733.365 813.558 712.485C838.255 689.501 848.818 686.347 855.963 690.703C863.108 695.059 864.972 730.811 826.761 797.659C807.712 831.71 783.35 862.719 754.533 889.593C754.533 889.593 702.031 923.242 611.63 890.194Z" fill="#EBEBEB"/>
<path d="M1461.44 1169.45L1849.76 951.633C1857.37 947.427 1857.37 940.517 1849.76 936.611L1316.36 642.783C1312.04 640.695 1307.28 639.607 1302.46 639.607C1297.63 639.607 1292.87 640.695 1288.56 642.783L903.649 858.047C896.038 862.403 896.038 869.313 903.649 873.069L1433.63 1169C1437.91 1171.16 1442.65 1172.32 1447.48 1172.4C1452.31 1172.48 1457.08 1171.47 1461.44 1169.45Z" fill="#E0E0E0"/>
<g style="mix-blend-mode:multiply" opacity="0.5">
<g style="mix-blend-mode:multiply">
<path d="M1461.44 1169.45L1849.76 951.633C1857.37 947.427 1857.37 940.517 1849.76 936.611L1316.36 642.783C1312.04 640.695 1307.28 639.607 1302.46 639.607C1297.63 639.607 1292.87 640.695 1288.55 642.783L903.648 858.047C896.037 862.403 896.037 869.313 903.648 873.069L1433.63 1169C1437.91 1171.16 1442.65 1172.32 1447.48 1172.4C1452.31 1172.48 1457.08 1171.47 1461.44 1169.45Z" fill="#E0E0E0"/>
</g>
</g>
<path d="M903.338 857.595L1341.06 588.403C1345.3 586.257 1350.02 585.137 1354.8 585.137C1359.59 585.137 1364.31 586.257 1368.55 588.403L1526.21 676.431C1529.9 678.594 1532.61 682.015 1533.82 686.02C1535.03 690.024 1534.64 694.321 1532.73 698.062L1526.36 710.08C1524.46 713.821 1524.07 718.118 1525.28 722.122C1526.48 726.127 1529.2 729.548 1532.89 731.711L1850.54 909.42C1852.22 910.059 1853.67 911.175 1854.69 912.622C1855.71 914.069 1856.26 915.78 1856.26 917.532C1856.26 919.283 1855.71 920.994 1854.69 922.442C1853.67 923.889 1852.22 925.004 1850.54 925.644L1460.66 1168.4C1456.47 1170.62 1451.77 1171.78 1446.99 1171.78C1442.21 1171.78 1437.51 1170.62 1433.32 1168.4L903.338 872.466C901.982 871.717 900.855 870.635 900.071 869.33C899.287 868.024 898.874 866.54 898.874 865.03C898.874 863.52 899.287 862.037 900.071 860.731C900.855 859.426 901.982 858.343 903.338 857.595V857.595Z" fill="#EBEBEB"/>
<path d="M6405.88 1496.48C6518.65 1385.17 6584.98 932.112 6474.85 843.783H5915.66C5805.53 931.962 5871.86 1384.57 5984.63 1496.33L5987.58 1499.34L5991.46 1503.09C5994.73 1506.1 5998.14 1508.95 6001.72 1511.81L6004.36 1513.91C6007.15 1516.01 6009.95 1518.12 6012.9 1520.07C6017.56 1523.37 6022.44 1526.38 6027.5 1529.08C6120.7 1580.91 6270.75 1580.91 6363.63 1529.08C6368.69 1526.38 6373.57 1523.37 6378.23 1520.07L6386.16 1514.21L6389.57 1511.66C6392.99 1508.95 6396.25 1506.1 6399.36 1503.24L6403.86 1499.04L6405.88 1496.48Z" fill="#37474F"/>
<path d="M5963.66 808.18C5835.82 879.533 5835.82 995.202 5963.66 1066.56C6091.5 1137.91 6298.55 1137.76 6426.23 1066.56C6553.91 995.352 6553.91 879.533 6426.23 808.18C6298.55 736.826 6091.34 736.826 5963.66 808.18Z" fill="#455A64"/>
<path d="M6025.02 842.429C5931.82 894.856 5931.82 979.729 6025.02 1032.16C6118.21 1084.58 6271.06 1084.58 6364.72 1032.16C6458.38 979.729 6457.92 894.856 6364.72 842.429C6271.52 790.003 6118.83 790.153 6025.02 842.429Z" fill="#37474F"/>
<path d="M6364.57 932.562C6271.37 880.136 6118.68 880.136 6024.86 932.562C6002.19 944.436 5982.88 961.51 5968.63 982.285C5982.87 1003.11 6002.18 1020.23 6024.86 1032.16C6118.06 1084.58 6270.75 1084.58 6364.57 1032.16C6387.3 1020.31 6406.63 1003.17 6420.8 982.285C6406.61 961.453 6387.29 944.364 6364.57 932.562V932.562Z" fill="#E0E0E0"/>
<g style="mix-blend-mode:multiply">
<g style="mix-blend-mode:multiply">
<path d="M6364.57 932.562C6271.37 880.136 6118.68 880.136 6024.86 932.562C6002.19 944.436 5982.88 961.51 5968.63 982.285C5982.88 1003.11 6002.18 1020.23 6024.86 1032.16C6118.06 1084.58 6270.75 1084.58 6364.57 1032.16C6387.31 1020.31 6406.63 1003.17 6420.8 982.285C6406.61 961.453 6387.29 944.364 6364.57 932.562V932.562Z" fill="#263238"/>
</g>
</g>
<path d="M6299.64 982.582C6326.82 902.966 6364.72 757.254 6505.6 648.045C6650.06 535.681 6792.5 446.752 6743.41 372.994C6698.68 305.997 6564.16 296.082 6410.39 410.849C6261.12 522.011 6193.7 777.083 6206.91 946.229L6299.64 982.582Z" fill="#384B78"/>
<g opacity="0.1">
<path d="M6299.64 982.582C6326.82 902.966 6364.72 757.254 6505.6 648.045C6650.06 535.681 6792.5 446.752 6743.41 372.994C6698.68 305.997 6564.16 296.082 6410.39 410.849C6261.12 522.011 6193.7 777.083 6206.91 946.229L6299.64 982.582Z" fill="black"/>
</g>
<path d="M6230.98 963.507H6229.9C6228.86 963.397 6227.85 963.085 6226.94 962.591C6226.03 962.097 6225.23 961.43 6224.6 960.631C6223.96 959.831 6223.49 958.916 6223.23 957.939C6222.97 956.962 6222.91 955.943 6223.06 954.944C6276.49 555.212 6533.72 378.254 6659.38 372.396C6660.43 372.292 6661.49 372.4 6662.5 372.713C6663.5 373.027 6664.43 373.539 6665.22 374.217C6666 374.895 6666.64 375.724 6667.08 376.652C6667.52 377.58 6667.75 378.586 6667.77 379.606C6667.86 381.669 6667.11 383.684 6665.69 385.225C6664.27 386.767 6662.29 387.714 6660.16 387.868C6566.96 392.075 6295.44 535.083 6238.9 956.897C6238.64 958.742 6237.69 960.43 6236.23 961.647C6234.77 962.863 6232.91 963.525 6230.98 963.507V963.507Z" fill="white"/>
<path d="M6094.14 1001.21C6090.48 978.791 6081.32 957.545 6067.43 939.25C6053.54 920.956 6035.32 906.145 6014.3 896.058C5968.48 872.023 5912.71 896.058 5858.97 823.502C5805.22 750.946 5852.29 692.061 5843.44 656.909C5834.58 621.758 5825.26 598.775 5764.06 573.538C5702.86 548.301 5686.4 511.197 5707.52 427.976C5728.65 344.755 5727.56 319.518 5675.21 283.015C5622.87 246.512 5620.38 200.244 5675.21 169.75C5730.04 139.255 5827.59 139.706 5904.79 205.953C5981.99 272.199 5991.77 300.741 6076.74 308.702C6161.71 316.664 6210.32 319.969 6229.58 368.79C6248.85 417.611 6238.9 455.466 6229.58 501.133C6225.2 521.978 6228.14 543.641 6237.93 562.689C6247.73 581.737 6263.81 597.079 6283.64 606.286C6320.76 623.26 6382.58 636.329 6405.57 701.825C6428.56 767.32 6377.61 900.865 6312.38 982.884C6311.6 982.584 6296.07 1030.5 6094.14 1001.21Z" fill="#384B78"/>
<path d="M6236.26 1008.87C6235.21 1008.87 6234.17 1008.67 6233.2 1008.27C6232.22 1007.88 6231.34 1007.3 6230.61 1006.58C6229.87 1005.85 6229.29 1004.99 6228.9 1004.04C6228.51 1003.09 6228.32 1002.08 6228.34 1001.06C6225.82 872.905 6196.28 746.596 6141.51 629.87C6054.06 447.354 5774.62 231.79 5757.54 221.876C5756.57 221.577 5755.68 221.087 5754.92 220.438C5754.17 219.789 5753.55 218.993 5753.13 218.103C5752.71 217.213 5752.48 216.247 5752.46 215.267C5752.45 214.288 5752.64 213.315 5753.03 212.412C5753.87 210.457 5755.44 208.885 5757.43 208.019C5759.43 207.152 5761.69 207.058 5763.75 207.755C5773.38 210.759 6064 431.13 6155.96 623.26C6211.66 742.183 6241.73 870.831 6244.34 1001.36C6244.34 1002.37 6244.13 1003.37 6243.72 1004.31C6243.31 1005.24 6242.71 1006.08 6241.96 1006.78C6241.2 1007.48 6240.31 1008.03 6239.33 1008.39C6238.35 1008.75 6237.31 1008.91 6236.26 1008.87V1008.87Z" fill="white"/>
<path d="M6051.42 491.068C6050.12 491.074 6048.84 490.764 6047.69 490.167C5989.13 459.071 5849.18 481.153 5847.78 481.454C5845.69 481.718 5843.57 481.196 5841.87 479.994C5840.16 478.791 5839 477.002 5838.62 474.995C5838.44 473.998 5838.47 472.977 5838.7 471.991C5838.93 471.005 5839.37 470.073 5839.97 469.249C5840.58 468.425 5841.35 467.725 5842.24 467.19C5843.12 466.655 5844.11 466.295 5845.14 466.132C5851.05 465.23 5992.09 442.998 6055.3 476.647C6056.23 477.133 6057.05 477.793 6057.7 478.587C6058.36 479.382 6058.85 480.295 6059.14 481.274C6059.43 482.253 6059.51 483.278 6059.39 484.289C6059.26 485.3 6058.93 486.277 6058.41 487.162C6057.73 488.37 6056.72 489.373 6055.48 490.062C6054.25 490.751 6052.84 491.099 6051.42 491.068Z" fill="white"/>
<path d="M6221.82 864.363C6219.87 864.573 6217.92 864.095 6216.31 863.015C6214.7 861.936 6213.56 860.33 6213.08 858.494C6212.61 856.659 6212.84 854.719 6213.73 853.036C6214.62 851.352 6216.12 850.039 6217.93 849.341C6283.79 814.79 6334.12 717.148 6334.59 716.247C6334.96 715.207 6335.56 714.256 6336.34 713.455C6337.12 712.655 6338.07 712.024 6339.13 711.603C6340.18 711.182 6341.31 710.981 6342.45 711.013C6343.59 711.045 6344.71 711.31 6345.73 711.789C6346.76 712.269 6347.66 712.953 6348.4 713.796C6349.13 714.64 6349.67 715.623 6349.98 716.683C6350.29 717.742 6350.37 718.853 6350.21 719.943C6350.04 721.033 6349.64 722.077 6349.03 723.007C6346.86 727.213 6295.75 826.057 6225.55 863.011C6224.45 863.767 6223.16 864.233 6221.82 864.363Z" fill="white"/>
</svg>
