<svg width="7387" height="6359" viewBox="0 0 7387 6359" fill="none" xmlns="http://www.w3.org/2000/svg">
    <path
        d="M1660.61 5849.97C2932.28 6528.68 4994.11 6528.68 6265.79 5849.97C7537.46 5171.26 7537.64 4070.52 6265.79 3391.81C4993.93 2713.11 2932.28 2712.93 1660.61 3391.81C388.93 4070.7 388.93 5171.08 1660.61 5849.97Z"
        fill="#EBEBEB" />
    <path
        d="M6639.83 4165.96L6454.34 4058.12C6454.34 4058.12 6408.86 3660.71 6439.06 3352.99C6481.66 2920.35 6760.98 2400.35 7094.04 2522.22C7427.1 2644.08 6941.08 3085.71 6833.24 3452.38C6725.39 3819.06 6639.83 4165.96 6639.83 4165.96Z"
        fill="#384B78" />
    <path opacity="0.1"
        d="M6639.83 4165.96L6454.34 4058.12C6454.34 4058.12 6408.86 3660.71 6439.06 3352.99C6481.66 2920.35 6760.98 2400.35 7094.04 2522.22C7427.1 2644.08 6941.08 3085.71 6833.24 3452.38C6725.39 3819.06 6639.83 4165.96 6639.83 4165.96Z"
        fill="black" />
    <path
        d="M6543.31 4117.25C6541.58 4117.27 6539.89 4116.66 6538.57 4115.54C6537.25 4114.42 6536.38 4112.86 6536.12 4111.14C6473.03 3625.84 6645.76 2892.31 6994.46 2614.07C6995.18 2613.49 6996.01 2613.05 6996.9 2612.79C6997.78 2612.53 6998.71 2612.45 6999.63 2612.55C7000.55 2612.65 7001.44 2612.93 7002.25 2613.38C7003.06 2613.82 7003.77 2614.42 7004.35 2615.14C7005.53 2616.63 7006.08 2618.51 7005.88 2620.4C7005.68 2622.28 7004.74 2624.01 7003.27 2625.21C6658.35 2900.58 6487.77 3628.35 6550.32 4109.16C6550.58 4111.05 6550.08 4112.95 6548.93 4114.47C6547.79 4115.98 6546.09 4116.98 6544.21 4117.25H6543.31Z"
        fill="white" />
    <path
        d="M6738.87 4242.71L6606.94 4166.32C6606.94 4166.32 6584.47 3893.65 6718.2 3562.39C6834.49 3274.8 7123.34 3034.66 7268.57 3084.99C7413.8 3135.32 7410.21 3238.31 7339.39 3346.34C7268.57 3454.36 6837.73 3711.93 6738.87 4242.71Z"
        fill="#384B78" />
    <path
        d="M6657.09 4249.72C6656.15 4249.68 6655.23 4249.44 6654.39 4249.04C6653.54 4248.63 6652.79 4248.06 6652.17 4247.35C6651.55 4246.65 6651.07 4245.83 6650.78 4244.94C6650.48 4244.05 6650.36 4243.11 6650.44 4242.17C6693.93 3563.47 7037.24 3229.68 7243.59 3178.82C7245.44 3178.38 7247.4 3178.67 7249.04 3179.64C7250.69 3180.62 7251.89 3182.19 7252.39 3184.03C7252.83 3185.86 7252.53 3187.8 7251.55 3189.41C7250.58 3191.02 7249.01 3192.19 7247.18 3192.66C7029.87 3246.58 6705.62 3607.86 6665 4243.07C6664.93 4244.03 6664.67 4244.97 6664.23 4245.83C6663.79 4246.69 6663.19 4247.45 6662.45 4248.07C6661.71 4248.69 6660.86 4249.16 6659.94 4249.44C6659.01 4249.73 6658.05 4249.82 6657.09 4249.72Z"
        fill="white" />
    <path
        d="M1297.17 4218.8C1297.17 4218.8 1321.79 3820.31 1090.29 3547.11C858.777 3273.9 557.349 3274.98 457.592 3325.84C357.835 3376.71 290.791 3522.12 462.445 3626.19C634.099 3730.26 999.156 3938.58 1059.91 4124.44L1297.17 4218.8Z"
        fill="#384B78" />
    <path opacity="0.1"
        d="M1297.17 4218.8C1297.17 4218.8 1321.79 3820.31 1090.29 3547.11C858.777 3273.9 557.349 3274.98 457.592 3325.84C357.835 3376.71 290.791 3522.12 462.445 3626.19C634.099 3730.26 999.156 3938.58 1059.91 4124.44L1297.17 4218.8Z"
        fill="black" />
    <path
        d="M1188.24 4119.05C1186.02 4119.02 1183.88 4118.18 1182.23 4116.7C1180.58 4115.21 1179.52 4113.17 1179.26 4110.96C1131.63 3670.05 690.898 3425.78 515.289 3398.1C514.109 3397.93 512.975 3397.52 511.953 3396.9C510.93 3396.29 510.039 3395.48 509.329 3394.52C508.62 3393.56 508.107 3392.47 507.819 3391.31C507.531 3390.15 507.473 3388.95 507.65 3387.77C507.827 3386.59 508.235 3385.45 508.85 3384.43C509.466 3383.41 510.276 3382.52 511.236 3381.81C512.196 3381.1 513.286 3380.58 514.444 3380.3C515.602 3380.01 516.805 3379.95 517.986 3380.13C697.728 3408.35 1148.34 3658.19 1197.23 4108.98C1197.36 4110.16 1197.24 4111.36 1196.9 4112.5C1196.56 4113.63 1196 4114.69 1195.25 4115.61C1194.5 4116.53 1193.57 4117.29 1192.52 4117.85C1191.47 4118.41 1190.33 4118.76 1189.14 4118.87L1188.24 4119.05Z"
        fill="white" />
    <path
        d="M1102.51 4017.85C1044.45 3885.56 978.845 3826.25 790.116 3857.88C601.386 3889.52 628.347 3884.66 397.378 3825.53C299.958 3800.72 190.495 3796.77 97.0289 3838.83C18.122 3874.78 -40.8334 3946.67 35.5571 4023.24C121.474 4108.8 249.63 4138.1 344.534 4213.41C366.064 4228.63 383.18 4249.29 394.143 4273.27C419.127 4336.89 369.159 4408.61 383.718 4475.3C398.277 4541.98 468.377 4577.57 534.162 4581.88C599.948 4586.2 664.835 4566.43 730.441 4558.88C796.047 4551.33 869.741 4558.88 915.037 4607.59C963.567 4659.17 964.825 4741.67 1009.94 4796.5C1077.52 4878.64 1243.61 4901.47 1333.48 4850.42L1568.76 4714.71C1724.24 4505.13 1478.89 4339.05 1350.37 4176.38C1288 4097.12 1137.38 4097.48 1102.51 4017.85Z"
        fill="#384B78" />
    <path
        d="M1422.99 4588.18C1421.46 4588.21 1419.95 4587.83 1418.62 4587.07C1417.29 4586.31 1416.19 4585.2 1415.44 4583.86C1147.08 4149.07 416.431 3929.06 157.962 3911.09C155.609 3910.9 153.423 3909.8 151.876 3908.02C150.329 3906.24 149.545 3903.92 149.694 3901.56C149.878 3899.19 150.974 3896.99 152.751 3895.41C154.528 3893.84 156.847 3893.01 159.22 3893.11C421.105 3911.09 1158.77 4134.33 1430.72 4574.88C1431.92 4576.93 1432.28 4579.38 1431.71 4581.7C1431.14 4584.01 1429.68 4586.01 1427.66 4587.28C1426.19 4587.93 1424.59 4588.24 1422.99 4588.18V4588.18Z"
        fill="white" />
    <path
        d="M572.987 4383.27C571.587 4383.3 570.201 4382.99 568.948 4382.36C567.695 4381.74 566.614 4380.81 565.797 4379.68C564.367 4377.77 563.753 4375.37 564.09 4373.01C564.427 4370.65 565.688 4368.52 567.595 4367.09C576.942 4360.08 799.822 4196.52 1016.95 4193.28C1018.12 4193.26 1019.29 4193.47 1020.38 4193.9C1021.47 4194.33 1022.46 4194.98 1023.3 4195.8C1024.13 4196.62 1024.8 4197.6 1025.25 4198.68C1025.7 4199.76 1025.94 4200.92 1025.94 4202.09C1025.96 4203.27 1025.75 4204.44 1025.32 4205.54C1024.89 4206.64 1024.25 4207.65 1023.43 4208.5C1022.62 4209.35 1021.64 4210.03 1020.56 4210.5C1019.48 4210.98 1018.31 4211.23 1017.13 4211.26C806.293 4214.31 581.076 4379.86 578.739 4381.47C577.116 4382.77 575.062 4383.42 572.987 4383.27V4383.27Z"
        fill="white" />
    <path
        d="M1406.27 4740.96C1408.19 4767.1 1416.24 4792.42 1429.76 4814.87C1443.28 4837.32 1461.9 4856.27 1484.1 4870.2L3664.92 6129.29C3689.03 6141.53 3715.7 6147.9 3742.74 6147.9C3769.79 6147.9 3796.45 6141.53 3820.57 6129.29L6804.3 4406.46C6827.81 4394.05 6847.5 4375.45 6861.23 4352.68C6874.96 4329.91 6882.22 4303.82 6882.22 4277.23C6882.22 4250.63 6874.96 4224.54 6861.23 4201.77C6847.5 4179 6827.81 4160.4 6804.3 4147.99L4623.66 2889.79C4599.54 2877.56 4572.88 2871.18 4545.83 2871.18C4518.79 2871.18 4492.12 2877.56 4468 2889.79L1484.1 4612.09C1461.94 4625.97 1443.36 4644.87 1429.84 4667.25C1416.32 4689.64 1408.25 4714.89 1406.27 4740.96V4740.96Z"
        fill="#37474F" />
    <path
        d="M2306.06 4137.2L1484.1 4612.08C1460.58 4624.5 1440.9 4643.09 1427.17 4665.86C1413.44 4688.64 1406.18 4714.73 1406.18 4741.32C1406.18 4767.91 1413.44 4794 1427.17 4816.77C1440.9 4839.55 1460.58 4858.14 1484.1 4870.55L3664.92 6129.65C3688.9 6142.18 3715.69 6148.36 3742.74 6147.62V4137.2H2306.06Z"
        fill="#263238" />
    <path
        d="M1333.12 4614.6C1311.46 4599.84 1293.57 4580.19 1280.89 4557.24C1268.21 4534.29 1261.11 4508.69 1260.14 4482.49V1880C1261.59 1852.99 1269.39 1826.71 1282.92 1803.28C1296.44 1779.86 1315.3 1759.95 1337.97 1745.2L4321.69 22.3647C4344.22 8.23777 4370.16 0.514536 4396.74 0.0248295C4423.33 -0.464877 4449.54 6.29738 4472.57 19.5851C4495.59 32.8729 4514.56 52.184 4527.44 75.4432C4540.32 98.7025 4546.62 125.031 4545.65 151.599V2754.27C4544.18 2781.27 4536.36 2807.55 4522.84 2830.97C4509.32 2854.39 4490.47 2874.3 4467.83 2889.08L1484.1 4612.09C1460.9 4624.32 1435.14 4630.93 1408.91 4631.36C1382.68 4631.8 1356.72 4626.06 1333.12 4614.6V4614.6Z"
        fill="#455A64" />
    <path
        d="M1625.38 2000.97L1282.97 1803.25C1269.33 1826.58 1261.85 1852.99 1261.22 1880V4482.49C1262.19 4508.69 1269.29 4534.3 1281.97 4557.24C1294.64 4580.19 1312.53 4599.84 1334.2 4614.6C1357.8 4625.98 1383.75 4631.64 1409.94 4631.14C1436.14 4630.64 1461.85 4623.99 1485 4611.73L1825.43 4415.27L1625.38 2000.97Z"
        fill="#263238" />
    <path
        d="M1406.27 1964.48V4566.79C1406.27 4616.4 1441.14 4636.53 1484.1 4611.73L4467.82 2889.07C4490.47 2874.29 4509.32 2854.39 4522.84 2830.97C4536.36 2807.55 4544.18 2781.27 4545.65 2754.27V151.778C4545.65 102.169 4510.78 82.0379 4467.82 106.842L1484.1 1829.67C1461.43 1844.43 1442.57 1864.33 1429.05 1887.76C1415.52 1911.18 1407.72 1937.47 1406.27 1964.48V1964.48Z"
        fill="#37474F" />
    <path
        d="M1484.1 4701.96L3664.92 5960.15C3689.04 5972.39 3715.7 5978.77 3742.75 5978.77C3769.79 5978.77 3796.45 5972.39 3820.57 5960.15L6804.3 4237.32C6847.44 4212.52 6847.44 4172.26 6804.3 4147.45L4623.66 2889.25C4599.54 2877.02 4572.88 2870.64 4545.83 2870.64C4518.79 2870.64 4492.12 2877.02 4468.01 2889.25L1484.1 4612.09C1440.96 4636.53 1440.96 4676.79 1484.1 4701.96Z"
        fill="#455A64" />
    <path
        d="M1525.98 1974.01L4426.13 299.709C4451.83 284.79 4472.86 296.833 4472.86 326.67V2579.38C4471.95 2595.58 4467.25 2611.34 4459.13 2625.39C4451.02 2639.44 4439.71 2651.39 4426.13 2660.27L1525.98 4334.57C1500.1 4349.48 1479.25 4337.44 1479.25 4307.6V2054.89C1480.11 2038.68 1484.8 2022.9 1492.92 2008.85C1501.04 1994.79 1512.37 1982.85 1525.98 1974.01V1974.01Z"
        fill="white" />
    <path
        d="M1737.18 4634.2L4506.83 3034.49C4518.89 3028.38 4532.22 3025.19 4545.74 3025.19C4559.26 3025.19 4572.6 3028.38 4584.66 3034.49L4726.47 3116.27C4731.17 3117.86 4735.25 3120.89 4738.14 3124.92C4741.02 3128.95 4742.58 3133.78 4742.58 3138.74C4742.58 3143.7 4741.02 3148.53 4738.14 3152.56C4735.25 3156.59 4731.17 3159.61 4726.47 3161.21L1956.28 4760.73C1944.22 4766.84 1930.89 4770.03 1917.37 4770.03C1903.85 4770.03 1890.52 4766.84 1878.46 4760.73L1737.18 4679.13C1732.48 4677.54 1728.41 4674.51 1725.52 4670.48C1722.63 4666.45 1721.08 4661.62 1721.08 4656.66C1721.08 4651.71 1722.63 4646.87 1725.52 4642.84C1728.41 4638.81 1732.48 4635.79 1737.18 4634.2V4634.2Z"
        fill="#263238" />
    <path
        d="M2102.41 4845.75L4871.89 3246.04C4883.98 3239.93 4897.34 3236.75 4910.89 3236.75C4924.44 3236.75 4937.8 3239.93 4949.89 3246.04L5821.11 3749.32C5825.8 3750.92 5829.88 3753.94 5832.77 3757.97C5835.65 3762 5837.21 3766.83 5837.21 3771.79C5837.21 3776.75 5835.65 3781.58 5832.77 3785.61C5829.88 3789.64 5825.8 3792.67 5821.11 3794.26L3054.69 5390.73C3042.6 5396.84 3029.24 5400.03 3015.69 5400.03C3002.14 5400.03 2988.77 5396.84 2976.68 5390.73L2102.41 4889.79C2097.95 4888.09 2094.1 4885.08 2091.38 4881.15C2088.67 4877.22 2087.21 4872.55 2087.21 4867.77C2087.21 4862.99 2088.67 4858.32 2091.38 4854.39C2094.1 4850.46 2097.95 4847.44 2102.41 4845.75V4845.75Z"
        fill="#263238" />
    <path
        d="M4585.02 3965.01L4671.83 3914.87C4675.43 3912.71 4675.25 3909.29 4671.83 3906.96L4571.54 3849.08C4569.4 3847.98 4567.02 3847.4 4564.62 3847.4C4562.21 3847.4 4559.84 3847.98 4557.7 3849.08L4471.06 3899.23C4467.29 3901.38 4467.47 3904.8 4471.06 3907.14L4571.36 3965.01C4573.47 3966.09 4575.81 3966.65 4578.19 3966.65C4580.56 3966.65 4582.9 3966.09 4585.02 3965.01ZM4413.9 3767.3L4327.27 3817.44C4323.49 3819.42 4323.67 3823.02 4327.27 3825.35L4427.56 3883.23C4429.7 3884.33 4432.08 3884.91 4434.48 3884.91C4436.89 3884.91 4439.26 3884.33 4441.4 3883.23L4528.22 3833.08C4531.81 3830.93 4531.63 3827.33 4528.22 3825.17L4427.74 3767.3C4425.6 3766.19 4423.23 3765.62 4420.82 3765.62C4418.42 3765.62 4416.04 3766.19 4413.9 3767.3ZM4133.86 3929.06L3987.01 4013.72C3983.42 4015.88 3983.6 4019.48 3987.01 4021.81L4087.31 4079.69C4089.45 4080.79 4091.82 4081.37 4094.23 4081.37C4096.64 4081.37 4099.01 4080.79 4101.15 4079.69L4247.82 3995.03C4251.6 3992.87 4251.24 3989.28 4247.82 3987.12L4147.52 3929.06C4145.42 3927.96 4143.07 3927.39 4140.69 3927.39C4138.32 3927.39 4135.97 3927.96 4133.86 3929.06ZM4287.18 3840.45L4200.55 3890.6C4196.77 3892.76 4196.95 3896.35 4200.55 3898.51L4300.84 3956.39C4302.98 3957.49 4305.36 3958.07 4307.77 3958.07C4310.17 3958.07 4312.55 3957.49 4314.69 3956.39L4401.5 3906.24C4405.1 3904.08 4404.92 3900.67 4401.5 3898.33L4301.02 3839.19C4298.89 3838.09 4296.51 3837.51 4294.1 3837.51C4291.7 3837.51 4289.32 3838.09 4287.18 3839.19V3840.45ZM3946.93 4036.91L3860.3 4086.88C3856.52 4089.04 3856.88 4092.63 3860.3 4094.97L3960.59 4152.84C3962.71 4153.9 3965.05 4154.46 3967.42 4154.46C3969.79 4154.46 3972.13 4153.9 3974.25 4152.84L4061.07 4102.7C4064.66 4100.54 4064.48 4096.94 4061.07 4094.79L3960.77 4036.91C3958.63 4035.81 3956.26 4035.23 3953.85 4035.23C3951.44 4035.23 3949.07 4035.81 3946.93 4036.91V4036.91ZM3821.11 4110.07L3734.48 4160.21C3730.7 4162.19 3731.06 4165.79 3734.48 4168.12L3834.77 4226C3836.91 4227.1 3839.29 4227.68 3841.69 4227.68C3844.1 4227.68 3846.47 4227.1 3848.61 4226L3935.43 4175.85C3939.02 4173.69 3938.84 4170.1 3935.43 4167.94L3834.05 4108.81C3831.91 4107.7 3829.54 4107.13 3827.13 4107.13C3824.73 4107.13 3822.35 4107.7 3820.21 4108.81L3821.11 4110.07ZM4215.65 4345.53L4302.28 4295.38C4306.06 4293.22 4305.7 4289.81 4302.28 4287.47L4201.99 4229.59C4199.88 4228.49 4197.54 4227.92 4195.16 4227.92C4192.78 4227.92 4190.43 4228.49 4188.33 4229.59L4101.51 4279.74C4097.92 4281.9 4098.1 4285.31 4101.51 4287.65L4201.81 4345.53C4203.9 4346.35 4206.14 4346.69 4208.38 4346.54C4210.62 4346.38 4212.79 4345.73 4214.75 4344.63L4215.65 4345.53ZM4088.75 4418.68L4175.57 4368.54C4179.16 4366.56 4178.98 4362.96 4175.57 4360.63L4075.27 4302.75C4073.13 4301.65 4070.76 4301.07 4068.35 4301.07C4065.94 4301.07 4063.57 4301.65 4061.43 4302.75L3974.79 4352.9C3971.02 4355.05 3971.38 4358.65 3974.79 4360.81L4075.09 4418.68C4077.15 4419.5 4079.36 4419.85 4081.57 4419.69C4083.78 4419.53 4085.93 4418.88 4087.85 4417.78L4088.75 4418.68ZM3962.03 4491.84L4048.85 4441.87C4052.44 4439.71 4052.26 4436.12 4048.85 4433.78L3948.55 4375.9C3946.4 4374.84 3944.03 4374.29 3941.63 4374.29C3939.23 4374.29 3936.86 4374.84 3934.71 4375.9L3848.07 4426.05C3844.3 4428.21 3844.66 4431.8 3848.07 4433.96L3948.19 4491.84C3950.28 4492.66 3952.52 4493.01 3954.76 4492.85C3957 4492.69 3959.18 4492.04 3961.13 4490.94L3962.03 4491.84ZM3836.21 4564.99L3923.03 4515.03C3926.62 4512.87 3926.44 4509.27 3923.03 4506.94L3822.73 4449.06C3820.59 4447.96 3818.22 4447.38 3815.81 4447.38C3813.4 4447.38 3811.03 4447.96 3808.89 4449.06L3722.25 4499.03C3718.48 4501.18 3718.66 4504.78 3722.25 4507.12L3822.55 4564.99C3826.47 4566.27 3830.73 4565.95 3834.41 4564.09L3836.21 4564.99ZM4460.1 4039.43L4546.91 3989.28C4550.51 3987.3 4550.33 3983.71 4546.91 3981.37L4446.62 3923.49C4444.46 3922.43 4442.1 3921.88 4439.7 3921.88C4437.3 3921.88 4434.93 3922.43 4432.78 3923.49L4346.14 3973.64C4342.37 3975.8 4342.55 3979.39 4346.14 3981.55L4446.44 4039.43C4448.37 4040.09 4450.42 4040.35 4452.46 4040.19C4454.5 4040.04 4456.49 4039.47 4458.3 4038.53L4460.1 4039.43ZM4343.26 4273.09L4536.67 4161.29C4540.26 4159.32 4540.08 4155.72 4536.67 4153.38L4293.12 4012.82C4290.98 4011.72 4288.6 4011.15 4286.2 4011.15C4283.79 4011.15 4281.42 4011.72 4279.28 4012.82L4179.34 4070.7C4175.56 4072.68 4175.92 4076.27 4179.34 4078.61L4308.39 4153.02C4312.35 4155.36 4312.53 4158.96 4308.39 4161.11L4226.97 4205.33C4223.38 4207.31 4223.56 4210.9 4226.97 4213.24L4327.63 4270.58C4329.69 4271.82 4332.03 4272.55 4334.44 4272.71C4336.85 4272.86 4339.26 4272.44 4341.47 4271.47L4343.26 4273.09ZM3695.29 4183.22L3608.66 4233.37C3604.88 4235.53 3605.06 4238.94 3608.66 4241.28L3708.95 4299.15C3711.09 4300.26 3713.47 4300.83 3715.87 4300.83C3718.28 4300.83 3720.65 4300.26 3722.79 4299.15L3809.61 4249.01C3813.2 4246.85 3813.02 4243.43 3809.61 4241.1L3709.31 4183.22C3707.02 4181.62 3704.32 4180.69 3701.53 4180.53C3698.74 4180.37 3695.96 4180.99 3693.5 4182.32L3695.29 4183.22ZM3569.47 4256.38L3479.96 4306.52C3476.37 4308.68 3476.55 4312.28 3479.96 4314.43L3580.26 4372.31C3582.4 4373.41 3584.77 4373.99 3587.18 4373.99C3589.59 4373.99 3591.96 4373.41 3594.1 4372.31L3680.91 4322.16C3684.51 4320.18 3684.33 4316.59 3680.91 4314.25L3579.9 4255.84C3577.88 4254.79 3575.65 4254.22 3573.38 4254.16C3571.11 4254.09 3568.85 4254.55 3566.78 4255.48L3569.47 4256.38ZM2932.83 5076C2934.97 5077.1 2937.34 5077.68 2939.75 5077.68C2942.15 5077.68 2944.53 5077.1 2946.67 5076L3033.48 5025.85C3037.08 5023.88 3036.9 5020.28 3033.48 5017.94L2932.83 4960.43C2930.69 4959.32 2928.31 4958.75 2925.91 4958.75C2923.5 4958.75 2921.13 4959.32 2918.99 4960.43L2832.35 5010.57C2828.58 5012.73 2828.76 5016.33 2832.35 5018.48L2932.83 5076ZM2552.31 4840.9L2465.5 4891.05C2461.9 4893.2 2462.08 4896.62 2465.5 4898.95L2565.79 4956.83C2567.93 4957.94 2570.3 4958.51 2572.71 4958.51C2575.12 4958.51 2577.49 4957.94 2579.63 4956.83L2666.45 4906.68C2670.04 4904.53 2669.86 4901.11 2666.45 4898.78L2566.15 4840.9C2564.08 4839.88 2561.81 4839.35 2559.5 4839.35C2557.2 4839.35 2554.92 4839.88 2552.85 4840.9H2552.31ZM2756.32 5012.55C2758.46 5013.66 2760.83 5014.23 2763.24 5014.23C2765.65 5014.23 2768.02 5013.66 2770.16 5012.55L2856.8 4962.4C2860.57 4960.43 2860.21 4956.83 2856.8 4954.49L2756.68 4896.62C2754.54 4895.51 2752.17 4894.94 2749.76 4894.94C2747.35 4894.94 2744.98 4895.51 2742.84 4896.62L2656.02 4946.77C2652.43 4948.92 2652.61 4952.52 2656.02 4954.67L2756.32 5012.55ZM3156.61 5120.4L3243.42 5070.25C3247.02 5068.09 3246.84 5064.68 3243.42 5062.34L3143.12 5004.46C3140.98 5003.36 3138.61 5002.78 3136.2 5002.78C3133.8 5002.78 3131.42 5003.36 3129.28 5004.46L3042.65 5054.61C3038.87 5056.59 3039.23 5060.18 3042.65 5062.52L3142.76 5120.4C3144.96 5121.62 3147.42 5122.28 3149.93 5122.31C3152.44 5122.34 3154.92 5121.75 3157.14 5120.58L3156.61 5120.4ZM3016.05 5192.29C3018.19 5193.4 3020.56 5193.97 3022.97 5193.97C3025.37 5193.97 3027.75 5193.4 3029.89 5192.29L3116.7 5142.15C3120.3 5140.17 3120.12 5136.57 3116.7 5134.24L3016.41 5076.36C3014.27 5075.26 3011.89 5074.68 3009.49 5074.68C3007.08 5074.68 3004.71 5075.26 3002.57 5076.36L2915.93 5126.51C2912.16 5128.67 2912.34 5132.26 2915.93 5134.42L3016.05 5192.29ZM2679.03 4766.66L2592.39 4816.81C2588.62 4818.79 2588.8 4822.38 2592.39 4824.72L2692.69 4882.6C2694.83 4883.7 2697.2 4884.28 2699.61 4884.28C2702.02 4884.28 2704.39 4883.7 2706.53 4882.6L2793.35 4832.45C2796.94 4830.29 2796.76 4826.7 2793.35 4824.54L2693.05 4766.66C2690.87 4765.78 2688.52 4765.42 2686.18 4765.61C2683.84 4765.8 2681.58 4766.53 2679.57 4767.74L2679.03 4766.66ZM3312.8 4400.89L3225.99 4450.86C3222.39 4453.01 3222.57 4456.61 3225.99 4458.77L3326.28 4516.82C3328.43 4517.88 3330.8 4518.44 3333.2 4518.44C3335.6 4518.44 3337.97 4517.88 3340.12 4516.82L3426.76 4466.85C3430.53 4464.7 3430.35 4461.1 3426.76 4458.77L3326.46 4400.89C3324.34 4400.07 3322.05 4399.74 3319.78 4399.92C3317.51 4400.11 3315.3 4400.81 3313.34 4401.97L3312.8 4400.89ZM2807.01 4694.59L2720.37 4744.56C2716.6 4746.71 2716.78 4750.31 2720.37 4752.64L2820.67 4810.52C2822.82 4811.58 2825.19 4812.14 2827.59 4812.14C2829.99 4812.14 2832.35 4811.58 2834.51 4810.52L2921.32 4760.37C2924.92 4758.22 2924.74 4754.62 2921.32 4752.46L2821.03 4694.41C2818.84 4693.34 2816.43 4692.81 2813.99 4692.84C2811.56 4692.87 2809.17 4693.47 2807.01 4694.59V4694.59ZM3440.78 4328.63L3353.24 4378.42C3349.65 4380.58 3349.83 4384.17 3353.24 4386.33L3453.54 4444.21C3455.68 4445.31 3458.05 4445.89 3460.46 4445.89C3462.87 4445.89 3465.24 4445.31 3467.38 4444.21L3554.02 4394.24C3557.79 4392.08 3557.61 4388.49 3554.02 4386.15L3454.08 4328.99C3451.93 4327.84 3449.55 4327.21 3447.11 4327.15C3444.68 4327.09 3442.26 4327.6 3440.06 4328.63H3440.78ZM3187.34 4475.12L3100.53 4525.09C3096.93 4527.25 3097.11 4530.84 3100.53 4533.18L3200.82 4591.06C3202.97 4592.12 3205.34 4592.67 3207.74 4592.67C3210.14 4592.67 3212.51 4592.12 3214.66 4591.06L3301.3 4541.09C3305.07 4538.93 3304.71 4535.34 3301.3 4533L3201.18 4475.12C3198.94 4473.94 3196.44 4473.32 3193.9 4473.32C3191.37 4473.32 3188.87 4473.94 3186.62 4475.12H3187.34ZM3060.44 4548.28L2973.81 4598.25C2970.03 4600.4 2970.39 4604 2973.81 4606.33L3074.1 4664.21C3076.26 4665.27 3078.62 4665.83 3081.02 4665.83C3083.42 4665.83 3085.79 4665.27 3087.94 4664.21L3174.58 4614.24C3178.17 4612.09 3177.99 4608.49 3174.58 4606.15L3074.28 4548.28C3072.04 4547.1 3069.54 4546.48 3067 4546.48C3064.47 4546.48 3061.97 4547.1 3059.72 4548.28H3060.44ZM2932.83 4621.43L2846.19 4671.4C2842.42 4673.56 2842.77 4677.15 2846.19 4679.49L2946.31 4737.37C2948.45 4738.47 2950.82 4739.05 2953.23 4739.05C2955.63 4739.05 2958.01 4738.47 2960.15 4737.37L3046.96 4687.4C3050.56 4685.24 3050.38 4681.65 3046.96 4679.31L2946.67 4621.43C2944.51 4620.37 2942.15 4619.82 2939.75 4619.82C2937.35 4619.82 2934.98 4620.37 2932.83 4621.43ZM3580.8 4711.3L3667.43 4661.34C3671.21 4659.18 3671.03 4655.58 3667.43 4653.25L3566.96 4594.11C3564.8 4593.05 3562.44 4592.5 3560.04 4592.5C3557.64 4592.5 3555.27 4593.05 3553.12 4594.11L3466.3 4644.08C3462.71 4646.24 3462.89 4649.83 3466.3 4652.17L3566.6 4710.05C3568.78 4711.3 3571.23 4711.99 3573.74 4712.05C3576.25 4712.11 3578.74 4711.55 3580.98 4710.4L3580.8 4711.3ZM4694.3 3605.53L4607.49 3655.68C4603.89 3657.83 4604.07 3661.25 4607.49 3663.59L4707.78 3721.46C4709.92 3722.57 4712.29 3723.14 4714.7 3723.14C4717.11 3723.14 4719.48 3722.57 4721.62 3721.46L4808.26 3671.31C4812.03 3669.16 4811.85 3665.74 4808.26 3663.41L4707.96 3605.53C4705.85 3604.45 4703.51 3603.9 4701.13 3603.9C4698.76 3603.9 4696.42 3604.45 4694.3 3605.53ZM4540.8 3694.14L4454.17 3744.29C4450.39 3746.27 4450.75 3749.86 4454.17 3752.2L4554.28 3810.08C4556.43 3811.14 4558.8 3811.69 4561.2 3811.69C4563.6 3811.69 4565.97 3811.14 4568.12 3810.08L4654.94 3759.93C4658.53 3757.77 4658.35 3754.18 4654.94 3752.02L4554.64 3694.14C4552.55 3692.87 4550.18 3692.12 4547.74 3691.96C4545.3 3691.81 4542.86 3692.25 4540.62 3693.24L4540.8 3694.14ZM4821.02 3532.37L4734.38 3582.52C4730.61 3584.5 4730.79 3588.09 4734.38 3590.43L4834.68 3648.31C4836.82 3649.41 4839.19 3649.99 4841.6 3649.99C4844.01 3649.99 4846.38 3649.41 4848.52 3648.31L4935.34 3598.16C4938.93 3596 4938.75 3592.41 4935.34 3590.25L4835.04 3532.37C4832.84 3530.94 4830.32 3530.11 4827.7 3529.95C4825.08 3529.79 4822.47 3530.32 4820.12 3531.47L4821.02 3532.37ZM4164.96 4208.92L4251.78 4158.78C4255.37 4156.62 4255.19 4153.02 4251.78 4150.87L4151.48 4092.99C4149.34 4091.89 4146.97 4091.31 4144.56 4091.31C4142.15 4091.31 4139.78 4091.89 4137.64 4092.99L4051 4143.14C4047.23 4145.12 4047.41 4148.71 4051 4151.05L4151.3 4208.92C4153.46 4209.83 4155.81 4210.22 4158.15 4210.07C4160.49 4209.91 4162.76 4209.21 4164.78 4208.02L4164.96 4208.92ZM4961.58 3459.58C4959.44 3458.47 4957.07 3457.9 4954.66 3457.9C4952.25 3457.9 4949.88 3458.47 4947.74 3459.58L4861.1 3509.73C4857.33 3511.7 4857.51 3515.3 4861.1 3517.63L4961.4 3575.51C4963.55 3576.57 4965.92 3577.13 4968.32 3577.13C4970.72 3577.13 4973.09 3576.57 4975.24 3575.51L5062.05 3525.36C5065.65 3523.21 5065.47 3519.61 5062.05 3517.45L4961.58 3459.58ZM3707.7 4637.25L3794.51 4587.28C3798.11 4585.12 3797.93 4581.53 3794.51 4579.19L3693.68 4522.21C3691.54 4521.11 3689.16 4520.54 3686.76 4520.54C3684.35 4520.54 3681.98 4521.11 3679.84 4522.21L3593.2 4572.18C3589.42 4574.34 3589.6 4577.94 3593.2 4580.27L3693.5 4638.15C3695.77 4639.13 3698.24 4639.56 3700.7 4639.41C3703.17 4639.25 3705.57 4638.51 3707.7 4637.25V4637.25ZM5261.93 3739.98L5348.74 3689.83C5352.34 3687.85 5352.16 3684.26 5348.74 3681.92L5247.91 3623.5C5245.77 3622.4 5243.4 3621.82 5240.99 3621.82C5238.58 3621.82 5236.21 3622.4 5234.07 3623.5L5147.43 3673.65C5143.66 3675.81 5143.84 3679.4 5147.43 3681.56L5247.73 3739.44C5249.87 3740.69 5252.28 3741.39 5254.76 3741.48C5257.24 3741.58 5259.7 3741.06 5261.93 3739.98V3739.98ZM4992.31 3730.45L5079.13 3680.3C5082.72 3678.14 5082.54 3674.73 5079.13 3672.39L4978.83 3614.52C4976.69 3613.41 4974.32 3612.84 4971.91 3612.84C4969.51 3612.84 4967.13 3613.41 4964.99 3614.52L4878.36 3664.66C4874.58 3666.82 4874.76 3670.24 4878.36 3672.57L4978.65 3730.45C4980.65 3731.61 4982.89 3732.29 4985.2 3732.45C4987.51 3732.6 4989.82 3732.23 4991.95 3731.35L4992.31 3730.45ZM5105.01 3541.36C5102.87 3540.26 5100.5 3539.68 5098.09 3539.68C5095.68 3539.68 5093.31 3540.26 5091.17 3541.36L5004.54 3591.51C5000.76 3593.49 5000.94 3597.08 5004.54 3599.42L5104.83 3657.29C5106.97 3658.4 5109.35 3658.97 5111.75 3658.97C5114.16 3658.97 5116.53 3658.4 5118.67 3657.29L5205.49 3607.15C5209.08 3604.99 5208.9 3601.39 5205.49 3599.24L5105.01 3541.36ZM5131.79 3525.9L5375.17 3666.46C5377.31 3667.56 5379.68 3668.14 5382.09 3668.14C5384.49 3668.14 5386.87 3667.56 5389.01 3666.46L5475.82 3616.31C5479.42 3614.16 5479.24 3610.74 5475.82 3608.4L5232.27 3467.85C5230.13 3466.74 5227.76 3466.17 5225.35 3466.17C5222.94 3466.17 5220.57 3466.74 5218.43 3467.85L5131.79 3517.99C5127.12 3519.97 5127.48 3523.57 5131.43 3525.9H5131.79ZM4837.74 3687.67L4750.92 3737.82C4747.33 3739.98 4747.5 3743.57 4750.92 3745.73L4851.22 3803.6C4853.36 3804.71 4855.73 3805.28 4858.14 3805.28C4860.54 3805.28 4862.92 3804.71 4865.06 3803.6L4951.69 3753.46C4955.47 3751.48 4955.29 3747.88 4951.69 3745.55L4851.4 3687.67C4849.35 3686.6 4847.09 3686.01 4844.79 3685.95C4842.48 3685.88 4840.19 3686.35 4838.1 3687.31L4837.74 3687.67ZM3883.84 4238.4L3796.67 4288.55C3793.07 4290.71 3793.25 4294.3 3796.67 4296.46L3896.96 4354.34C3899.1 4355.44 3901.48 4356.01 3903.88 4356.01C3906.29 4356.01 3908.66 4355.44 3910.8 4354.34L3997.44 4304.19C4001.21 4302.21 4001.04 4298.62 3997.44 4296.28L3897.14 4238.4C3895.06 4237.27 3892.73 4236.65 3890.36 4236.59C3887.98 4236.53 3885.63 4237.02 3883.48 4238.04L3883.84 4238.4ZM5121.73 3813.13C5123.87 3814.23 5126.24 3814.81 5128.65 3814.81C5131.06 3814.81 5133.43 3814.23 5135.57 3813.13L5222.38 3762.98C5225.98 3761.01 5225.8 3757.41 5222.38 3755.07L5122.09 3697.2C5119.94 3696.14 5117.57 3695.58 5115.17 3695.58C5112.77 3695.58 5110.4 3696.14 5108.25 3697.2L5021.61 3747.35C5017.84 3749.5 5018.02 3753.1 5021.61 3755.25L5121.73 3813.13ZM4010.56 4165.25L3923.93 4215.39C3920.15 4217.55 3920.33 4220.97 3923.93 4223.3L4024.22 4281.18C4026.36 4282.28 4028.73 4282.86 4031.14 4282.86C4033.55 4282.86 4035.92 4282.28 4038.06 4281.18L4124.88 4231.03C4128.47 4228.87 4128.29 4225.46 4124.88 4223.12L4024.58 4165.25C4022.4 4164 4019.95 4163.31 4017.44 4163.24C4014.93 4163.18 4012.44 4163.75 4010.2 4164.89L4010.56 4165.25ZM3060.44 5003.21C3062.58 5004.31 3064.96 5004.88 3067.36 5004.88C3069.77 5004.88 3072.14 5004.31 3074.28 5003.21L3161.1 4953.06C3164.69 4950.9 3164.51 4947.49 3161.1 4945.15L3060.8 4887.27C3058.66 4886.17 3056.29 4885.59 3053.88 4885.59C3051.47 4885.59 3049.1 4886.17 3046.96 4887.27L2960.33 4937.42C2956.55 4939.58 2956.91 4942.99 2960.33 4945.33L3060.44 5003.21ZM2869.92 4823.46L2783.1 4873.61C2779.51 4875.77 2779.69 4879.18 2783.1 4881.52L2883.4 4939.4C2885.54 4940.5 2887.91 4941.08 2890.32 4941.08C2892.72 4941.08 2895.1 4940.5 2897.24 4939.4L2983.87 4889.25C2987.65 4887.09 2987.47 4883.68 2983.87 4881.34L2883.58 4823.46C2881.41 4822.33 2879.01 4821.74 2876.57 4821.74C2874.12 4821.74 2871.72 4822.33 2869.56 4823.46H2869.92ZM3201.18 4930.05L3287.82 4879.9C3291.41 4877.74 3291.23 4874.15 3287.82 4871.99L3187.52 4814.12C3185.38 4813.01 3183.01 4812.44 3180.6 4812.44C3178.19 4812.44 3175.82 4813.01 3173.68 4814.12L3086.15 4863.73C3082.55 4865.7 3082.73 4869.3 3086.15 4871.63L3186.44 4929.51C3188.61 4930.79 3191.05 4931.51 3193.56 4931.6C3196.07 4931.7 3198.57 4931.16 3200.82 4930.05H3201.18ZM3327.9 4856.89L3414.54 4806.75C3418.31 4804.59 3417.95 4801 3414.54 4798.84L3314.42 4740.96C3312.28 4739.86 3309.91 4739.28 3307.5 4739.28C3305.09 4739.28 3302.72 4739.86 3300.58 4740.96L3213.76 4790.93C3210.17 4793.09 3210.35 4796.68 3213.76 4799.02L3314.06 4856.89C3316.26 4858.02 3318.69 4858.6 3321.16 4858.6C3323.63 4858.6 3326.06 4858.02 3328.26 4856.89H3327.9ZM3453.72 4783.56L3540.36 4733.59C3544.13 4731.43 3543.95 4727.84 3540.36 4725.68L3440.06 4667.63C3437.91 4666.56 3435.54 4666.01 3433.14 4666.01C3430.74 4666.01 3428.37 4666.56 3426.22 4667.63L3339.4 4717.59C3335.81 4719.75 3335.99 4723.35 3339.4 4725.68L3439.7 4783.56C3441.91 4784.76 3444.38 4785.38 3446.89 4785.38C3449.4 4785.38 3451.87 4784.76 3454.08 4783.56H3453.72ZM2995.74 4750.31L2908.92 4800.46C2905.33 4802.43 2905.51 4806.03 2908.92 4808.36L3009.22 4866.24C3011.36 4867.35 3013.73 4867.92 3016.14 4867.92C3018.54 4867.92 3020.92 4867.35 3023.06 4866.24L3109.87 4816.09C3113.47 4813.94 3113.29 4810.34 3109.87 4808.18L3009.58 4750.31C3007.51 4749.29 3005.23 4748.76 3002.93 4748.76C3000.62 4748.76 2998.34 4749.29 2996.28 4750.31H2995.74ZM3122.45 4677.15L3035.82 4727.12C3032.04 4729.28 3032.22 4732.87 3035.82 4735.21L3136.11 4793.09C3138.27 4794.15 3140.63 4794.7 3143.03 4794.7C3145.43 4794.7 3147.8 4794.15 3149.95 4793.09L3238.39 4743.3C3241.98 4741.14 3241.8 4737.55 3238.39 4735.39L3138.09 4677.51C3135.83 4676.13 3133.24 4675.37 3130.59 4675.31C3127.94 4675.25 3125.32 4675.88 3122.99 4677.15H3122.45ZM3629.51 4384.53L3543.95 4434.5C3540.36 4436.66 3540.53 4440.25 3543.95 4442.59L3644.25 4500.47C3646.4 4501.53 3648.77 4502.08 3651.17 4502.08C3653.57 4502.08 3655.93 4501.53 3658.09 4500.47L3744.72 4450.5C3748.5 4448.34 3748.14 4444.75 3744.72 4442.41L3644.61 4384.53C3642.38 4383.3 3639.87 4382.66 3637.33 4382.66C3634.78 4382.66 3632.28 4383.3 3630.05 4384.53H3629.51ZM3502.61 4457.69L3415.97 4507.66C3412.38 4509.81 3412.56 4513.41 3415.97 4515.74L3516.27 4573.62C3518.42 4574.68 3520.79 4575.24 3523.19 4575.24C3525.59 4575.24 3527.96 4574.68 3530.11 4573.62L3616.75 4523.65C3620.52 4521.5 3620.16 4517.9 3616.75 4515.56L3516.45 4457.69C3514.37 4456.71 3512.1 4456.2 3509.8 4456.2C3507.5 4456.2 3505.23 4456.71 3503.15 4457.69H3502.61ZM3756.23 4311.2L3669.77 4361.35C3666.17 4363.5 3666.35 4367.1 3669.77 4369.25L3770.07 4427.31C3772.22 4428.37 3774.59 4428.93 3776.99 4428.93C3779.39 4428.93 3781.75 4428.37 3783.91 4427.31L3870.54 4377.16C3874.32 4375.19 3874.14 4371.59 3870.54 4369.25L3770.25 4311.38C3768.15 4310.34 3765.86 4309.79 3763.53 4309.76C3761.19 4309.73 3758.88 4310.22 3756.76 4311.2H3756.23ZM3249.17 4604L3162.54 4653.97C3158.76 4656.12 3158.94 4659.72 3162.54 4662.05L3262.83 4719.93C3264.99 4720.99 3267.35 4721.55 3269.75 4721.55C3272.15 4721.55 3274.52 4720.99 3276.67 4719.93L3363.49 4669.78C3367.08 4667.63 3366.9 4664.03 3363.49 4661.87L3263.19 4603.82C3261.07 4602.84 3258.76 4602.35 3256.43 4602.38C3254.1 4602.41 3251.8 4602.96 3249.71 4604H3249.17ZM3375.89 4530.84L3289.26 4580.81C3285.48 4582.97 3285.84 4586.56 3289.26 4588.9L3389.55 4646.78C3391.66 4647.88 3394 4648.45 3396.38 4648.45C3398.76 4648.45 3401.1 4647.88 3403.21 4646.78L3490.03 4596.81C3493.62 4594.65 3493.44 4591.06 3490.03 4588.72L3389.73 4530.84C3387.65 4529.86 3385.38 4529.36 3383.08 4529.36C3380.78 4529.36 3378.51 4529.86 3376.43 4530.84H3375.89ZM3283.5 5047.42L3370.14 4997.27C3373.73 4995.12 3373.55 4991.52 3370.14 4989.36L3269.84 4931.49C3267.7 4930.38 3265.33 4929.81 3262.92 4929.81C3260.52 4929.81 3258.14 4930.38 3256 4931.49L3169.37 4981.64C3165.59 4983.61 3165.95 4987.21 3169.37 4989.54L3269.66 5047.42C3271.87 5048.62 3274.34 5049.24 3276.85 5049.24C3279.36 5049.24 3281.83 5048.62 3284.04 5047.42H3283.5ZM2540.27 4971.57L2439.97 4913.69C2437.83 4912.59 2435.46 4912.01 2433.05 4912.01C2430.64 4912.01 2428.27 4912.59 2426.13 4913.69L2339.68 4964.2C2336.08 4966.36 2336.26 4969.77 2339.68 4972.11L2439.97 5029.99C2442.11 5031.09 2444.48 5031.67 2446.89 5031.67C2449.3 5031.67 2451.67 5031.09 2453.81 5029.99L2540.45 4979.84C2544.4 4978.22 2544.22 4974.63 2540.27 4971.57ZM2730.08 5027.29L2629.78 4969.41C2627.66 4968.35 2625.32 4967.8 2622.95 4967.8C2620.58 4967.8 2618.24 4968.35 2616.12 4969.41L2483.47 5046.88C2479.88 5049.04 2480.05 5052.63 2483.47 5054.79L2583.77 5112.67C2585.91 5113.77 2588.28 5114.35 2590.69 5114.35C2593.09 5114.35 2595.47 5113.77 2597.61 5112.67L2730.98 5035.74C2735.11 5033.94 2734.03 5030.35 2730.08 5028.01V5027.29ZM2386.41 4859.59L2285.75 4802.43C2283.61 4801.33 2281.24 4800.75 2278.83 4800.75C2276.43 4800.75 2274.05 4801.33 2271.91 4802.43L2165.51 4863.73C2161.91 4865.88 2162.09 4869.48 2165.51 4871.81L2265.8 4929.69C2267.94 4930.79 2270.31 4931.37 2272.72 4931.37C2275.13 4931.37 2277.5 4930.79 2279.64 4929.69L2386.23 4868.22C2390.54 4866.24 2390.36 4862.65 2386.41 4860.31V4859.59ZM2468.19 4812.32C2470.33 4813.42 2472.7 4814 2475.11 4814C2477.52 4814 2479.89 4813.42 2482.03 4812.32L2568.67 4762.17C2572.44 4760.19 2572.26 4756.6 2568.67 4754.26L2468.37 4696.39C2466.23 4695.28 2463.86 4694.71 2461.45 4694.71C2459.04 4694.71 2456.67 4695.28 2454.53 4696.39L2367.72 4746.53C2364.12 4748.69 2364.3 4752.29 2367.72 4754.44L2468.19 4812.32ZM2906.76 5090.74L2807.01 5033.58C2804.85 5032.52 2802.49 5031.97 2800.09 5031.97C2797.69 5031.97 2795.32 5032.52 2793.17 5033.58L2626.37 5129.92C2622.77 5132.08 2622.95 5135.68 2626.37 5137.83L2726.66 5195.89C2728.81 5196.95 2731.18 5197.5 2733.58 5197.5C2735.98 5197.5 2738.35 5196.95 2740.5 5195.89L2907.3 5099.55C2910.9 5097.39 2910.72 5093.8 2906.76 5091.46V5090.74ZM2989.98 5208.11L2889.69 5151.31C2887.55 5150.21 2885.18 5149.63 2882.77 5149.63C2880.36 5149.63 2877.99 5150.21 2875.85 5151.31L2769.08 5212.96C2765.49 5215.12 2765.67 5218.72 2769.08 5221.05L2869.38 5278.93C2871.53 5279.99 2873.9 5280.54 2876.3 5280.54C2878.7 5280.54 2881.06 5279.99 2883.22 5278.93L2989.98 5217.28C2994.12 5214.76 2993.94 5211.17 2989.98 5208.83V5208.11ZM3410.58 4268.24C3412.72 4269.34 3415.09 4269.92 3417.5 4269.92C3419.91 4269.92 3422.28 4269.34 3424.42 4268.24L3511.06 4218.27C3514.83 4216.11 3514.47 4212.52 3511.06 4210.18L3410.76 4152.31C3408.61 4151.24 3406.24 4150.69 3403.84 4150.69C3401.44 4150.69 3399.07 4151.24 3396.92 4152.31L3310.28 4203.17C3306.69 4205.33 3306.87 4208.92 3310.28 4211.08L3410.58 4268.24ZM3156.96 4414.73C3159.12 4415.79 3161.48 4416.34 3163.88 4416.34C3166.28 4416.34 3168.65 4415.79 3170.8 4414.73L3257.62 4364.76C3261.22 4362.6 3261.04 4359.01 3257.62 4356.67L3157.32 4298.8C3155.17 4297.73 3152.8 4297.18 3150.4 4297.18C3148 4297.18 3145.64 4297.73 3143.48 4298.8L3056.85 4348.76C3053.07 4350.92 3053.43 4354.51 3056.85 4356.85L3156.96 4414.73ZM2594.91 4739.88C2597.05 4740.99 2599.42 4741.56 2601.83 4741.56C2604.24 4741.56 2606.61 4740.99 2608.75 4739.88L2695.39 4689.73C2699.16 4687.58 2698.98 4684.16 2695.39 4681.83L2595.09 4623.95C2592.95 4622.85 2590.58 4622.27 2588.17 4622.27C2585.76 4622.27 2583.39 4622.85 2581.25 4623.95L2494.43 4674.1C2490.84 4676.25 2491.02 4679.67 2494.43 4682.01L2594.91 4739.88ZM3283.86 4342.47C3285.98 4343.53 3288.32 4344.08 3290.69 4344.08C3293.06 4344.08 3295.4 4343.53 3297.52 4342.47L3384.34 4292.5C3387.93 4290.35 3387.75 4286.75 3384.34 4284.42L3284.04 4226.54C3281.9 4225.43 3279.53 4224.86 3277.12 4224.86C3274.71 4224.86 3272.34 4225.43 3270.2 4226.54L3183.57 4276.51C3179.79 4278.66 3180.15 4282.26 3183.57 4284.6L3283.86 4342.47ZM3030.25 4488.78C3032.39 4489.89 3034.76 4490.46 3037.17 4490.46C3039.57 4490.46 3041.95 4489.89 3044.09 4488.78L3130.9 4438.81C3134.5 4436.66 3134.32 4433.06 3130.9 4430.73L3030.61 4372.85C3028.45 4371.79 3026.09 4371.23 3023.69 4371.23C3021.29 4371.23 3018.92 4371.79 3016.77 4372.85L2930.13 4422.82C2926.36 4424.97 2926.54 4428.57 2930.13 4430.91L3030.25 4488.78ZM3059.54 5218.36C3057.39 5217.3 3055.02 5216.74 3052.62 5216.74C3050.22 5216.74 3047.86 5217.3 3045.7 5218.36L2912.34 5295.11C2908.74 5297.26 2908.92 5300.86 2912.34 5303.2L3012.63 5361.07C3014.77 5362.18 3017.14 5362.75 3019.55 5362.75C3021.96 5362.75 3024.33 5362.18 3026.47 5361.07L3159.84 5284.14C3163.62 5281.99 3163.26 5278.39 3159.84 5276.05L3059.54 5218.36ZM2848.35 4594.11C2850.5 4595.17 2852.87 4595.73 2855.27 4595.73C2857.67 4595.73 2860.04 4595.17 2862.19 4594.11L2949 4543.96C2952.6 4541.81 2952.42 4538.21 2949 4536.05L2848.71 4478.18C2846.57 4477.07 2844.19 4476.5 2841.79 4476.5C2839.38 4476.5 2837.01 4477.07 2834.87 4478.18L2748.23 4528.33C2744.46 4530.3 2744.64 4533.9 2748.23 4536.23L2848.35 4594.11ZM2721.63 4666.01C2723.77 4667.11 2726.14 4667.69 2728.55 4667.69C2730.96 4667.69 2733.33 4667.11 2735.47 4666.01L2822.28 4615.86C2825.88 4613.7 2825.7 4610.11 2822.28 4607.95L2721.99 4550.07C2719.85 4548.97 2717.48 4548.4 2715.07 4548.4C2712.66 4548.4 2710.29 4548.97 2708.15 4550.07L2621.51 4600.22C2617.74 4602.2 2617.92 4605.79 2621.51 4608.13L2721.63 4666.01ZM5407.7 3862.56C5405.56 3861.46 5403.19 3860.88 5400.78 3860.88C5398.37 3860.88 5396 3861.46 5393.86 3862.56L5179.61 3985.5C5176.01 3987.66 5176.19 3991.26 5179.61 3993.59L5279.9 4051.47C5282.05 4052.53 5284.42 4053.08 5286.82 4053.08C5289.22 4053.08 5291.59 4052.53 5293.74 4051.47L5508.35 3929.06C5512.13 3926.91 5511.95 3923.31 5508.35 3920.98L5407.7 3862.56ZM5127.48 4024.33C5125.34 4023.22 5122.97 4022.65 5120.56 4022.65C5118.15 4022.65 5115.78 4023.22 5113.64 4024.33L5027 4074.3C5023.23 4076.45 5023.41 4080.05 5027 4082.39L5127.3 4140.26C5129.45 4141.32 5131.82 4141.88 5134.22 4141.88C5136.62 4141.88 5138.99 4141.32 5141.14 4140.26L5227.96 4090.29C5231.55 4088.14 5231.37 4084.54 5227.96 4082.21L5127.48 4024.33ZM3410.76 4974.27L3497.4 4924.12C3501.17 4921.96 3500.81 4918.37 3497.4 4916.21L3397.28 4858.15C3395.13 4857.09 3392.76 4856.54 3390.36 4856.54C3387.96 4856.54 3385.59 4857.09 3383.44 4858.15L3296.62 4908.12C3293.03 4910.28 3293.21 4913.87 3296.62 4916.21L3396.92 4974.09C3399.06 4975.18 3401.42 4975.76 3403.82 4975.79C3406.22 4975.82 3408.59 4975.3 3410.76 4974.27V4974.27ZM4874.04 4170.64C4871.89 4169.58 4869.52 4169.02 4867.12 4169.02C4864.72 4169.02 4862.36 4169.58 4860.2 4170.64L4773.39 4220.61C4769.79 4222.76 4769.97 4226.36 4773.39 4228.7L4873.68 4286.57C4875.82 4287.68 4878.2 4288.25 4880.6 4288.25C4883.01 4288.25 4885.38 4287.68 4887.52 4286.57L4974.16 4236.6C4977.93 4234.45 4977.76 4230.85 4974.16 4228.52L4874.04 4170.64ZM5534.42 3789.41C5532.26 3788.34 5529.9 3787.79 5527.5 3787.79C5525.1 3787.79 5522.73 3788.34 5520.58 3789.41L5433.94 3839.19C5430.17 3841.35 5430.35 3844.95 5433.94 3847.1L5534.24 3905.16C5536.39 3906.22 5538.76 3906.77 5541.16 3906.77C5543.56 3906.77 5545.93 3906.22 5548.08 3905.16L5634.89 3855.19C5638.49 3853.03 5638.31 3849.44 5634.89 3847.1L5534.42 3789.41ZM5761.43 3774.13L5517.88 3633.57C5515.74 3632.46 5513.37 3631.89 5510.96 3631.89C5508.55 3631.89 5506.18 3632.46 5504.04 3633.57L5417.41 3683.72C5413.63 3685.87 5413.81 3689.47 5417.41 3691.63L5660.96 3832.18C5663.1 3833.29 5665.47 3833.86 5667.88 3833.86C5670.28 3833.86 5672.66 3833.29 5674.8 3832.18L5761.61 3782.04C5765.57 3780.06 5765.39 3776.46 5761.43 3774.13ZM4400.42 4444.21C4398.28 4443.1 4395.91 4442.53 4393.5 4442.53C4391.1 4442.53 4388.72 4443.1 4386.58 4444.21L4279.82 4505.86C4276.22 4508.01 4276.4 4511.61 4279.82 4513.77L4380.11 4571.64C4382.25 4572.75 4384.62 4573.32 4387.03 4573.32C4389.44 4573.32 4391.81 4572.75 4393.95 4571.64L4500.72 4509.99C4504.31 4507.84 4504.13 4504.24 4500.72 4502.08L4400.42 4444.21ZM4720.54 4259.25C4718.4 4258.15 4716.03 4257.57 4713.62 4257.57C4711.22 4257.57 4708.84 4258.15 4706.7 4259.25L4573.33 4336.18C4569.74 4338.34 4569.92 4341.93 4573.33 4344.09L4673.63 4402.15C4675.78 4403.21 4678.15 4403.76 4680.55 4403.76C4682.95 4403.76 4685.32 4403.21 4687.47 4402.15L4820.84 4325.22C4824.43 4323.06 4824.26 4319.47 4820.84 4317.13L4720.54 4259.25ZM4106.9 4613.52C4104.75 4612.46 4102.38 4611.91 4099.98 4611.91C4097.58 4611.91 4095.22 4612.46 4093.06 4613.52L3379.31 5025.49C3375.71 5027.65 3375.89 5031.25 3379.31 5033.58L3479.6 5091.46C3481.75 5092.52 3484.12 5093.07 3486.52 5093.07C3488.92 5093.07 3491.29 5092.52 3493.44 5091.46L4207.2 4679.31C4210.79 4677.15 4210.61 4673.56 4207.2 4671.22L4106.9 4613.52ZM3353.06 5048.86C3350.92 5047.76 3348.55 5047.18 3346.14 5047.18C3343.74 5047.18 3341.36 5047.76 3339.22 5048.86L3232.64 5110.51C3228.86 5112.67 3229.04 5116.26 3232.64 5118.42L3332.93 5176.3C3335.07 5177.4 3337.45 5177.98 3339.85 5177.98C3342.26 5177.98 3344.63 5177.4 3346.77 5176.3L3454.08 5115.36C3457.67 5113.21 3457.49 5109.61 3454.08 5107.46L3353.06 5048.86ZM4253.57 4528.87C4251.42 4527.8 4249.05 4527.25 4246.65 4527.25C4244.25 4527.25 4241.88 4527.8 4239.73 4528.87L4133.15 4590.52C4129.37 4592.67 4129.55 4596.27 4133.15 4598.61L4233.44 4656.48C4235.59 4657.54 4237.96 4658.1 4240.36 4658.1C4242.76 4658.1 4245.13 4657.54 4247.28 4656.48L4354.05 4594.83C4357.82 4592.85 4357.46 4589.26 4354.05 4586.92L4253.57 4528.87ZM3206.39 5133.34C3204.24 5132.28 3201.87 5131.72 3199.47 5131.72C3197.07 5131.72 3194.71 5132.28 3192.55 5133.34L3085.79 5194.99C3082.19 5197.15 3082.37 5200.74 3085.79 5203.08L3186.08 5260.96C3188.24 5262.02 3190.6 5262.57 3193 5262.57C3195.4 5262.57 3197.77 5262.02 3199.92 5260.96L3306.51 5199.48C3310.28 5197.33 3310.11 5193.73 3306.51 5191.4L3206.39 5133.34ZM4547.09 4359.19C4544.94 4358.13 4542.57 4357.57 4540.17 4357.57C4537.77 4357.57 4535.4 4358.13 4533.25 4359.19L4426.66 4420.66C4422.89 4422.82 4423.07 4426.41 4426.66 4428.75L4526.96 4486.63C4529.11 4487.69 4531.48 4488.24 4533.88 4488.24C4536.28 4488.24 4538.65 4487.69 4540.8 4486.63L4647.57 4424.97C4651.34 4422.82 4650.98 4419.22 4647.57 4416.89L4547.09 4359.19ZM5000.76 4097.3C4998.62 4096.2 4996.25 4095.62 4993.84 4095.62C4991.43 4095.62 4989.06 4096.2 4986.92 4097.3L4900.29 4147.27C4896.51 4149.43 4896.69 4153.02 4900.29 4155.36L5000.58 4213.24C5002.73 4214.3 5005.1 4214.85 5007.5 4214.85C5009.9 4214.85 5012.27 4214.3 5014.42 4213.24L5101.24 4163.27C5104.83 4161.11 5104.65 4157.52 5101.24 4155.18L5000.76 4097.3ZM5278.46 3895.63L5365.1 3845.66C5368.87 3843.51 5368.69 3839.91 5365.1 3837.58L5264.8 3779.7C5262.65 3778.64 5260.28 3778.08 5257.88 3778.08C5255.48 3778.08 5253.12 3778.64 5250.96 3779.7L5164.15 3829.85C5160.55 3832 5160.73 3835.6 5164.15 3837.76L5264.44 3895.81C5266.62 3896.9 5269.02 3897.47 5271.45 3897.47C5273.89 3897.47 5276.29 3896.9 5278.46 3895.81V3895.63ZM4712.28 3893.12L4799.09 3842.97C4802.69 3840.81 4802.51 3837.22 4799.09 3835.06L4698.79 3777.18C4696.66 3776.08 4694.28 3775.5 4691.87 3775.5C4689.47 3775.5 4687.09 3776.08 4684.95 3777.18L4598.32 3827.33C4594.54 3829.49 4594.9 3832.9 4598.32 3835.24L4698.44 3893.12C4700.58 3894.22 4702.95 3894.8 4705.36 3894.8C4707.76 3894.8 4710.14 3894.22 4712.28 3893.12ZM4424.69 4389.74L4678.12 4243.43C4681.72 4241.28 4681.54 4237.68 4678.12 4235.35L4577.83 4177.47C4575.68 4176.41 4573.31 4175.85 4570.91 4175.85C4568.51 4175.85 4566.14 4176.41 4563.99 4177.47L4310.55 4323.96C4306.96 4325.94 4307.14 4329.53 4310.55 4331.87L4410.85 4389.74C4413.06 4390.71 4415.47 4391.13 4417.88 4390.98C4420.29 4390.82 4422.62 4390.09 4424.69 4388.85V4389.74ZM5137.91 3969.69C5140.06 3970.75 5142.43 3971.3 5144.83 3971.3C5147.23 3971.3 5149.59 3970.75 5151.75 3969.69L5238.38 3919.72C5242.16 3917.56 5241.98 3913.97 5238.38 3911.63L5138.09 3853.75C5135.95 3852.65 5133.57 3852.07 5131.17 3852.07C5128.76 3852.07 5126.39 3852.65 5124.25 3853.75L5037.43 3903.72C5033.83 3905.88 5034.01 3909.47 5037.43 3911.81L5137.91 3969.69ZM5008.49 3887.19L5095.13 3837.22C5098.9 3835.06 5098.72 3831.46 5095.13 3829.13L4994.83 3771.25C4992.68 3770.19 4990.31 3769.64 4987.91 3769.64C4985.51 3769.64 4983.14 3770.19 4980.99 3771.25L4894.17 3821.4C4890.58 3823.56 4890.76 3827.15 4894.17 3829.31L4994.47 3887.36C4996.73 3888.29 4999.17 3888.68 5001.61 3888.49C5004.04 3888.3 5006.4 3887.55 5008.49 3886.29V3887.19ZM4297.97 4462.36L4384.61 4412.21C4388.38 4410.06 4388.02 4406.64 4384.61 4404.3L4284.31 4346.43C4282.17 4345.32 4279.8 4344.75 4277.39 4344.75C4274.98 4344.75 4272.61 4345.32 4270.47 4346.43L4183.29 4396.4C4179.52 4398.55 4179.88 4401.97 4183.29 4404.3L4283.59 4462.18C4285.92 4463.51 4288.57 4464.2 4291.25 4464.17C4293.94 4464.13 4296.57 4463.39 4298.87 4462L4297.97 4462.36ZM4857.69 4130.92C4859.84 4131.98 4862.21 4132.53 4864.61 4132.53C4867.01 4132.53 4869.37 4131.98 4871.53 4130.92L4958.34 4080.95C4961.94 4078.79 4961.76 4075.2 4958.34 4072.86L4858.05 4014.98C4855.89 4013.92 4853.53 4013.37 4851.13 4013.37C4848.73 4013.37 4846.36 4013.92 4844.21 4014.98L4757.57 4065.13C4753.8 4067.29 4753.98 4070.88 4757.57 4073.04L4857.69 4130.92ZM3664.2 4827.78L3750.83 4777.81C3754.61 4775.65 3754.43 4772.06 3750.83 4769.72L3650.54 4711.84C3648.38 4710.78 3646.02 4710.23 3643.62 4710.23C3641.22 4710.23 3638.85 4710.78 3636.7 4711.84L3549.88 4761.81C3546.29 4763.97 3546.47 4767.56 3549.88 4769.9L3650.18 4827.78C3652.35 4828.87 3654.75 4829.44 3657.19 4829.44C3659.62 4829.44 3662.02 4828.87 3664.2 4827.78V4827.78ZM3790.92 4754.62L3877.73 4704.65C3881.33 4702.5 3881.15 4698.9 3877.73 4696.57L3777.62 4638.69C3775.48 4637.58 3773.1 4637.01 3770.7 4637.01C3768.29 4637.01 3765.91 4637.58 3763.77 4638.69L3676.96 4688.66C3673.36 4690.81 3673.54 4694.41 3676.96 4696.74L3777.26 4754.62C3779.38 4755.65 3781.72 4756.19 3784.09 4756.19C3786.45 4756.19 3788.79 4755.65 3790.92 4754.62ZM3537.48 4900.93L3624.12 4850.96C3627.89 4848.81 3627.71 4845.21 3624.12 4842.88L3524 4785C3521.85 4783.94 3519.48 4783.38 3517.08 4783.38C3514.68 4783.38 3512.31 4783.94 3510.16 4785L3423.34 4834.97C3419.75 4837.12 3419.93 4840.72 3423.34 4843.05L3523.64 4900.93C3525.78 4902.04 3528.15 4902.61 3530.56 4902.61C3532.97 4902.61 3535.34 4902.04 3537.48 4900.93V4900.93ZM4044.35 4608.31L4131.17 4558.34C4134.76 4556.19 4134.58 4552.59 4131.17 4550.25L4030.87 4492.38C4028.72 4491.32 4026.35 4490.76 4023.95 4490.76C4021.55 4490.76 4019.18 4491.32 4017.03 4492.38L3930.4 4542.53C3926.62 4544.68 3926.8 4548.28 3930.4 4550.43L4030.69 4608.31C4032.81 4609.39 4035.15 4609.94 4037.52 4609.94C4039.9 4609.94 4042.24 4609.39 4044.35 4608.31V4608.31ZM3918.53 4681.47L4005.35 4631.5C4008.94 4629.34 4008.76 4625.75 4005.35 4623.41L3903.43 4565.53C3901.3 4564.43 3898.92 4563.85 3896.51 4563.85C3894.11 4563.85 3891.73 4564.43 3889.59 4565.53L3802.96 4615.5C3799.18 4617.66 3799.36 4621.25 3802.96 4623.41L3903.26 4681.47C3905.48 4682.62 3907.94 4683.22 3910.44 4683.22C3912.95 4683.22 3915.41 4682.62 3917.63 4681.47H3918.53ZM4171.97 4535.16L4258.79 4485.01C4262.38 4483.03 4262.2 4479.44 4258.79 4477.1L4158.49 4419.22C4156.35 4418.12 4153.98 4417.54 4151.57 4417.54C4149.16 4417.54 4146.79 4418.12 4144.65 4419.22L4056.58 4468.29C4052.8 4470.45 4053.16 4474.04 4056.58 4476.2L4156.69 4534.08C4158.81 4535.44 4161.23 4536.26 4163.74 4536.44C4166.26 4536.63 4168.77 4536.19 4171.07 4535.16H4171.97ZM4751.82 3452.57C4753.96 3453.67 4756.33 3454.25 4758.74 3454.25C4761.15 3454.25 4763.52 3453.67 4765.66 3452.57L4852.47 3402.42C4856.07 3400.44 4855.89 3396.85 4852.47 3394.51L4825.87 3379.05C4823.72 3377.99 4821.35 3377.44 4818.95 3377.44C4816.55 3377.44 4814.18 3377.99 4812.03 3379.05L4725.22 3429.02C4721.62 3431.18 4721.8 3434.77 4725.22 3437.11L4751.82 3452.57ZM4128.29 3855.19C4130.43 3856.29 4132.8 3856.87 4135.21 3856.87C4137.62 3856.87 4139.99 3856.29 4142.13 3855.19L4228.77 3805.22C4232.54 3803.07 4232.36 3799.47 4228.77 3797.13L4128.47 3739.26C4126.32 3738.19 4123.95 3737.64 4121.55 3737.64C4119.15 3737.64 4116.78 3738.19 4114.63 3739.26L4027.82 3789.23C4024.22 3791.38 4024.4 3794.98 4027.82 3797.31L4128.29 3855.19ZM4381.73 3708.88C4383.88 3709.94 4386.25 3710.49 4388.65 3710.49C4391.05 3710.49 4393.42 3709.94 4395.57 3708.88L4482.38 3658.91C4485.98 3656.76 4485.8 3653.16 4482.38 3650.82L4382.09 3592.95C4379.95 3591.84 4377.58 3591.27 4375.17 3591.27C4372.76 3591.27 4370.39 3591.84 4368.25 3592.95L4280.89 3642.91C4277.12 3645.07 4277.3 3648.67 4280.89 3651L4381.73 3708.88ZM3973.53 3944.52C3975.69 3945.58 3978.05 3946.14 3980.45 3946.14C3982.85 3946.14 3985.22 3945.58 3987.37 3944.52L4074.01 3894.37C4077.78 3892.22 4077.61 3888.62 4074.01 3886.47L3973.71 3828.41C3971.56 3827.35 3969.19 3826.79 3966.79 3826.79C3964.39 3826.79 3962.03 3827.35 3959.87 3828.41L3873.06 3878.38C3869.46 3880.53 3869.64 3884.13 3873.06 3886.47L3973.53 3944.52ZM4255.01 3782.75C4257.16 3783.82 4259.53 3784.37 4261.93 3784.37C4264.33 3784.37 4266.7 3783.82 4268.85 3782.75L4355.67 3732.79C4359.26 3730.63 4359.08 3727.03 4355.67 3724.7L4255.37 3666.82C4253.22 3665.76 4250.85 3665.21 4248.45 3665.21C4246.05 3665.21 4243.68 3665.76 4241.53 3666.82L4154.89 3716.79C4151.12 3718.95 4151.3 3722.54 4154.89 3724.88L4255.01 3782.75ZM3719.2 4090.83C3721.34 4091.94 3723.71 4092.51 3726.12 4092.51C3728.53 4092.51 3730.9 4091.94 3733.04 4090.83L3819.67 4040.68C3823.45 4038.53 3823.09 4034.93 3819.67 4032.78L3719.56 3974.9C3717.42 3973.8 3715.05 3973.22 3712.64 3973.22C3710.23 3973.22 3707.86 3973.8 3705.72 3974.9L3618.9 4025.05C3615.31 4027.02 3615.49 4030.62 3618.9 4032.96L3719.2 4090.83ZM3845.92 4017.68C3848.07 4018.74 3850.44 4019.29 3852.84 4019.29C3855.24 4019.29 3857.61 4018.74 3859.76 4017.68L3946.39 3967.53C3950.17 3965.37 3949.99 3961.78 3946.39 3959.62L3846.28 3901.74C3844.14 3900.64 3841.76 3900.06 3839.36 3900.06C3836.95 3900.06 3834.58 3900.64 3832.44 3901.74L3745.62 3951.89C3742.03 3953.87 3742.21 3957.46 3745.62 3959.8L3845.92 4017.68ZM4497.48 3599.06C4499.64 3600.12 4502 3600.67 4504.4 3600.67C4506.8 3600.67 4509.17 3600.12 4511.32 3599.06L4598.14 3549.09C4601.73 3546.93 4601.55 3543.34 4598.14 3541L4571.36 3525.54C4569.21 3524.48 4566.84 3523.93 4564.44 3523.93C4562.04 3523.93 4559.67 3524.48 4557.52 3525.54L4470.88 3575.51C4467.11 3577.67 4467.47 3581.26 4470.88 3583.6L4497.48 3599.06ZM4877.82 3379.41C4879.93 3380.52 4882.27 3381.09 4884.65 3381.09C4887.03 3381.09 4889.37 3380.52 4891.48 3379.41L4978.29 3329.26C4981.89 3327.11 4981.71 3323.69 4978.29 3321.36L4951.69 3305.9C4949.55 3304.79 4947.18 3304.22 4944.77 3304.22C4942.36 3304.22 4939.99 3304.79 4937.85 3305.9L4851.04 3355.87C4847.44 3358.02 4847.62 3361.62 4851.04 3363.95L4877.82 3379.41ZM5088.3 3501.1C5090.45 3502.16 5092.82 3502.71 5095.22 3502.71C5097.62 3502.71 5099.98 3502.16 5102.14 3501.1L5188.95 3450.95C5192.55 3448.79 5192.37 3445.2 5188.95 3443.04L5088.66 3384.98C5086.5 3383.92 5084.14 3383.37 5081.74 3383.37C5079.34 3383.37 5076.97 3383.92 5074.82 3384.98L4988.18 3434.95C4984.41 3437.11 4984.77 3440.7 4988.18 3443.04L5088.3 3501.1ZM5405.18 3822.66L5492 3772.51C5495.59 3770.53 5495.41 3766.94 5492 3764.6L5391.7 3706.72C5389.55 3705.66 5387.18 3705.11 5384.78 3705.11C5382.38 3705.11 5380.01 3705.66 5377.86 3706.72L5291.23 3756.87C5287.45 3759.03 5287.63 3762.62 5291.23 3764.78L5391.52 3822.66C5393.64 3823.73 5395.98 3824.29 5398.35 3824.29C5400.73 3824.29 5403.07 3823.73 5405.18 3822.66V3822.66ZM4624.2 3525.9C4626.35 3526.96 4628.72 3527.52 4631.12 3527.52C4633.52 3527.52 4635.89 3526.96 4638.04 3525.9L4724.86 3475.93C4728.45 3473.78 4728.27 3470.18 4724.86 3467.85L4698.08 3452.39C4695.92 3451.33 4693.56 3450.77 4691.16 3450.77C4688.76 3450.77 4686.39 3451.33 4684.24 3452.39L4597.6 3502.36C4594.01 3504.51 4594.18 3508.11 4597.6 3510.44L4624.2 3525.9ZM3592.48 4163.99C3594.62 4165.09 3596.99 4165.67 3599.4 4165.67C3601.81 4165.67 3604.18 4165.09 3606.32 4163.99L3692.96 4113.84C3696.55 4111.68 3696.37 4108.27 3692.96 4105.93L3592.66 4048.05C3590.52 4046.95 3588.15 4046.38 3585.74 4046.38C3583.33 4046.38 3580.96 4046.95 3578.82 4048.05L3492.18 4098.2C3488.59 4100.36 3488.77 4103.77 3492.18 4106.11L3592.48 4163.99Z"
        fill="#455A64" />
    <path d="M4107.8 4951.8L5056.84 4403.77L5641 4740.96L4691.78 5289L4107.8 4951.8Z" fill="#263238" />
    <path
        d="M1998.17 2190.24L4826.59 557.279C4881.77 525.285 4927.07 551.527 4927.07 615.336V2805.86C4926.16 2822.06 4921.46 2837.82 4913.34 2851.87C4905.22 2865.92 4893.92 2877.86 4880.34 2886.74L1980.19 4561.22C1954.49 4575.96 1933.46 4563.92 1933.46 4534.26V2302.22C1934.75 2279.8 1941.28 2257.99 1952.51 2238.54C1963.75 2219.1 1979.38 2202.55 1998.17 2190.24Z"
        fill="#F5F5F5" />
    <path
        d="M4927.97 667.823V615.339C4927.97 551.53 4882.67 525.468 4827.49 557.282L1998.17 2190.24C1979.38 2202.56 1963.75 2219.1 1952.51 2238.55C1941.28 2257.99 1934.75 2279.8 1933.46 2302.22V2396.23L4927.97 667.823Z"
        fill="#384B78" />
    <path
        d="M4505.93 787.348C4495.83 793.92 4487.43 802.781 4481.4 813.213C4475.37 823.645 4471.89 835.351 4471.24 847.382C4471.24 869.49 4486.7 878.477 4505.93 867.333C4515.99 860.78 4524.36 851.943 4530.36 841.541C4536.36 831.14 4539.81 819.469 4540.44 807.479C4540.44 785.37 4524.98 776.383 4505.93 787.348Z"
        fill="white" />
    <path
        d="M4643.26 708.08C4633.19 714.672 4624.82 723.543 4618.83 733.973C4612.83 744.403 4609.38 756.1 4608.74 768.114C4608.74 790.222 4624.2 799.03 4643.26 788.066C4653.35 781.494 4661.76 772.632 4667.79 762.2C4673.81 751.769 4677.29 740.062 4677.95 728.032C4677.95 705.923 4662.49 696.936 4643.26 708.08Z"
        fill="white" />
    <path
        d="M4780.76 628.641C4770.69 635.244 4762.31 644.114 4756.28 654.539C4750.26 664.964 4746.76 676.654 4746.07 688.675C4746.07 710.783 4761.71 719.77 4780.76 708.626C4790.84 702.082 4799.24 693.251 4805.27 682.851C4811.29 672.45 4814.78 660.774 4815.45 648.772C4815.45 626.663 4799.81 617.676 4780.76 628.641Z"
        fill="white" />
    <path d="M2631.89 3468.69L2521.84 3405.15L2252.31 3871.98L2362.36 3935.52L2631.89 3468.69Z" fill="#37474F" />
    <path d="M2632.11 3468.55L2577.16 3436.82L2307.63 3903.65L2362.58 3935.38L2632.11 3468.55Z" fill="#263238" />
    <path
        d="M1956.82 4783.56C1906.68 4870.73 1669.24 4732.33 1719.2 4646.41L2338.42 3680.66C2340.08 3678.04 2342.7 3676.17 2345.71 3675.43C2348.73 3674.7 2351.91 3675.15 2354.59 3676.7L2478.98 3748.6C2481.65 3750.12 2483.64 3752.61 2484.51 3755.56C2485.38 3758.52 2485.07 3761.69 2483.65 3764.42L1956.82 4783.56Z"
        fill="#384B78" />
    <path opacity="0.1"
        d="M1956.82 4783.56L2483.47 3764.42C2484.89 3761.69 2485.2 3758.52 2484.33 3755.57C2483.46 3752.62 2481.48 3750.12 2478.8 3748.6L2422.18 3715.89L1818.42 4789.13C1873.42 4816.27 1934.18 4822.92 1956.82 4783.56Z"
        fill="black" />
    <path
        d="M3777.61 2510C3777.61 2502.63 3777.61 2495.44 3776.54 2488.25C3775.46 2481.06 3776.54 2474.05 3774.92 2467.04C3773.3 2460.03 3774.92 2457.69 3773.48 2453.02C3772.22 2440.8 3770.42 2428.75 3768.45 2417.07C3767.55 2411.86 3766.65 2406.47 3765.57 2401.25C3764.49 2396.04 3763.59 2391.37 3762.52 2386.51C3759.46 2373.21 3756.23 2360.27 3752.45 2347.87C3750.47 2341.94 3748.68 2336.01 3746.7 2329.9C3746.32 2329.03 3746.02 2328.12 3745.8 2327.2C3743.64 2321.45 3741.67 2315.88 3739.51 2310.48C3737.35 2305.09 3734.48 2297.9 3731.6 2292.51C3728.72 2287.12 3727.65 2283.7 3725.31 2279.39C3724.01 2276.15 3722.44 2273.03 3720.64 2270.04C3718.84 2266.27 3716.86 2262.49 3714.7 2258.9C3712.55 2255.3 3713.81 2257.1 3713.27 2256.38C3712.73 2255.66 3709.49 2249.91 3707.51 2246.67C3705.54 2243.44 3704.82 2242.54 3703.56 2240.56C3694.35 2226.05 3684.01 2212.29 3672.64 2199.4L3666.89 2192.93L3662.04 2187.9C3660.06 2185.74 3657.91 2183.76 3655.75 2181.61C3650.1 2175.67 3644.1 2170.09 3637.77 2164.89C3634.72 2162.2 3631.48 2159.68 3628.25 2157.34L3618.36 2150.15C3613.23 2146.39 3607.89 2142.91 3602.37 2139.73L3598.05 2137.03H3597.15L3342.46 1990L3341.02 1989.1C3292.16 1961.85 3236.99 1947.91 3181.05 1948.66C3097.65 1948.66 3003.46 1975.98 2903.71 2033.5C2561.12 2231.22 2283.24 2712.57 2283.24 3108.36C2283.24 3306.08 2352.26 3444.48 2463.88 3509.54H2464.96L2719.83 3656.39H2720.91L2723.96 3658.01C2728.74 3660.84 2733.66 3663.41 2738.7 3665.74C2744.81 3668.8 2751.11 3671.49 2756.68 3674.01C2762.25 3676.53 2768 3678.5 2773.75 3680.3L2782.92 3683C2786.13 3684.23 2789.44 3685.19 2792.81 3685.87C2796.12 3686.88 2799.48 3687.72 2802.87 3688.39C2805.29 3689.1 2807.75 3689.64 2810.24 3690.01C2814.55 3690.9 2819.23 3691.8 2823.72 3692.34C2824.73 3692.51 2825.77 3692.51 2826.78 3692.34C2832.17 3693.3 2837.56 3694.02 2842.95 3694.5C2935.34 3704.21 3042.83 3678.14 3157.86 3611.82C3500.63 3414.1 3778.51 2932.57 3778.51 2536.96C3777.61 2528.69 3777.61 2519.34 3777.61 2510ZM3361.87 2230.14C3375.33 2279.32 3381.93 2330.13 3381.46 2381.12C3381.46 2730.18 3126.05 3171.99 2824.26 3347.06C2780.15 3373.28 2732.51 3393.07 2682.8 3405.83C2669.42 3356.57 2662.83 3305.71 2663.21 3254.67C2663.21 2905.61 2918.63 2463.8 3220.41 2288.73C3264.36 2262.61 3311.81 2242.88 3361.33 2230.14H3361.87Z"
        fill="#384B78" />
    <path opacity="0.1"
        d="M2709.41 3651.36L2461.9 3508.64C2350.28 3443.39 2281.26 3304.63 2281.26 3107.64C2281.26 2931.13 2336.62 2737.73 2428.11 2560.14L2682.98 2706.81C2591.32 2884.4 2536.13 3077.8 2536.13 3254.31C2536.13 3447.71 2601.92 3584.49 2709.41 3651.36Z"
        fill="black" />
    <path opacity="0.4"
        d="M3777.61 2509.99C3777.61 2502.62 3777.61 2495.43 3776.54 2488.25C3775.46 2481.06 3776.54 2474.05 3774.92 2467.04C3773.3 2460.03 3774.92 2457.69 3773.48 2453.02C3772.22 2440.79 3770.42 2428.75 3768.45 2417.07C3767.55 2411.85 3766.65 2406.46 3765.57 2401.25C3764.49 2396.04 3763.59 2391.36 3762.52 2386.51C3759.46 2373.21 3756.22 2360.27 3752.45 2347.87C3750.47 2341.93 3748.68 2336 3746.7 2329.89C3746.32 2329.02 3746.02 2328.12 3745.8 2327.2C3743.64 2321.44 3741.67 2315.87 3739.51 2310.48C3737.35 2305.09 3734.48 2297.9 3731.6 2292.51C3728.72 2287.11 3727.65 2283.7 3725.31 2279.38C3724.01 2276.15 3722.44 2273.02 3720.64 2270.04C3718.84 2266.26 3716.86 2262.49 3714.7 2258.89C3712.55 2255.3 3713.81 2257.1 3713.27 2256.38C3712.73 2255.66 3709.49 2249.91 3707.51 2246.67C3705.54 2243.44 3704.82 2242.54 3703.56 2240.56C3694.35 2226.05 3684.01 2212.29 3672.64 2199.4L3666.89 2192.93L3662.04 2187.9C3660.06 2185.74 3657.91 2183.76 3655.75 2181.6C3650.1 2175.67 3644.1 2170.09 3637.77 2164.89C3634.72 2162.19 3631.48 2159.68 3628.25 2157.34L3618.36 2150.15C3613.22 2146.38 3607.88 2142.9 3602.36 2139.72C3489.67 2071.24 3332.75 2079.33 3158.22 2179.81C2815.45 2377.52 2537.57 2858.87 2537.57 3254.67C2537.57 3455.08 2609.47 3595.1 2723.6 3658.73C2728.38 3661.55 2733.3 3664.13 2738.34 3666.46C2744.45 3669.51 2750.75 3672.21 2756.32 3674.72C2761.89 3677.24 2767.64 3679.22 2773.39 3681.02L2782.56 3683.71C2785.77 3684.94 2789.08 3685.9 2792.45 3686.59C2795.76 3687.6 2799.12 3688.43 2802.51 3689.1C2804.93 3689.81 2807.39 3690.35 2809.88 3690.72C2814.19 3691.62 2818.87 3692.52 2823.36 3693.06C2824.37 3693.23 2825.41 3693.23 2826.42 3693.06C2831.81 3694.02 2837.2 3694.74 2842.59 3695.21C2934.98 3704.92 3042.47 3678.86 3157.5 3612.53C3500.27 3414.82 3778.15 2933.29 3778.15 2537.67C3777.61 2528.69 3777.61 2519.34 3777.61 2509.99ZM3094.59 3504.15C3017.66 3548.55 2943.61 3571.91 2880.34 3571.91C2761.53 3571.91 2706.89 3490.85 2682.62 3405.83C2669.24 3356.57 2662.65 3305.71 2663.03 3254.67C2663.03 2905.61 2918.45 2463.8 3220.23 2288.73C3264.35 2262.56 3311.99 2242.82 3361.69 2230.13C3385.22 2224.3 3409.35 2221.23 3433.59 2220.97C3630.05 2220.97 3651.08 2442.77 3651.08 2538.21C3651.79 2886.55 3396.38 3329.62 3094.59 3504.15Z"
        fill="white" />
    <path opacity="0.1"
        d="M3651.79 2538.22C3651.79 2887.28 3396.56 3329.08 3094.59 3504.15C3017.66 3548.55 2943.61 3571.92 2880.34 3571.92C2761.53 3571.92 2706.89 3490.85 2682.62 3405.83C2732.33 3393.07 2779.97 3373.28 2824.08 3347.06C3126.41 3172.53 3381.28 2730.18 3381.28 2381.12C3381.74 2330.13 3375.15 2279.32 3361.69 2230.14C3385.22 2224.31 3409.35 2221.23 3433.59 2220.97C3630.58 2221.51 3651.79 2442.77 3651.79 2538.22Z"
        fill="black" />
    <path opacity="0.7"
        d="M3543.95 2477.28C3543.95 2826.34 3288.71 3268.15 2986.75 3443.22C2909.82 3487.61 2835.76 3510.98 2772.49 3510.98C2759.91 3511.01 2747.34 3509.99 2734.93 3507.93C2710.64 3477.92 2692.94 3443.13 2682.98 3405.83C2669.6 3356.57 2663.01 3305.71 2663.39 3254.67C2663.39 2905.61 2918.8 2463.8 3220.59 2288.73C3264.71 2262.56 3312.35 2242.83 3362.05 2230.14C3385.58 2224.31 3409.71 2221.23 3433.95 2220.97C3446.59 2220.94 3459.22 2221.96 3471.69 2224.03C3533.88 2297.18 3543.95 2414.55 3543.95 2477.28Z"
        fill="white" />
</svg>