<svg width="6388" height="5810" viewBox="0 0 6388 5810" fill="none" xmlns="http://www.w3.org/2000/svg">
    <path
        d="M935.422 5321.06C2182.58 5972.68 4204.9 5972.68 5452.06 5321.06C6699.22 4669.45 6699.36 3613.05 5452.06 2961.44C4204.76 2309.82 2182.58 2309.82 935.422 2961.44C-311.733 3613.05 -311.882 4669.45 935.422 5321.06Z"
        fill="#F5F5F5" />
    <path
        d="M4168.42 5156.27C4544.51 5156.27 4849.4 5010.97 4849.4 4831.72C4849.4 4652.48 4544.51 4507.18 4168.42 4507.18C3792.32 4507.18 3487.43 4652.48 3487.43 4831.72C3487.43 5010.97 3792.32 5156.27 4168.42 5156.27Z"
        fill="#EBEBEB" />
    <path
        d="M5374.78 4416.1C5664.94 4416.1 5900.16 4304.01 5900.16 4165.72C5900.16 4027.44 5664.94 3915.34 5374.78 3915.34C5084.62 3915.34 4849.4 4027.44 4849.4 4165.72C4849.4 4304.01 5084.62 4416.1 5374.78 4416.1Z"
        fill="#EBEBEB" />
    <path
        d="M1630.2 4095.56C1600.53 3938.93 1491.95 3715.69 1359.5 3591.24C1232.08 3471.69 1042.96 3430.01 967.61 3485.19C892.258 3540.36 941.652 3659.62 1087.91 3804.99C1253 3968.89 1569.98 4423.67 1630.2 4681.32V4095.56Z"
        fill="#384B78" />
    <g opacity="0.2">
        <path
            d="M1630.2 4095.56C1600.53 3938.93 1491.95 3715.69 1359.5 3591.24C1232.08 3471.69 1042.96 3430.01 967.61 3485.19C892.258 3540.36 941.652 3659.62 1087.91 3804.99C1253 3968.89 1569.98 4423.67 1630.2 4681.32V4095.56Z"
            fill="black" />
    </g>
    <path
        d="M1630.2 4472.47C1628.34 4472.44 1626.56 4471.73 1625.19 4470.47C1623.82 4469.22 1622.96 4467.5 1622.78 4465.65C1585.4 4071.09 1309.51 3627.59 1044.3 3535.18C1042.44 3534.5 1040.93 3533.14 1040.07 3531.36C1039.21 3529.59 1039.08 3527.55 1039.7 3525.68C1040.37 3523.83 1041.74 3522.31 1043.51 3521.46C1045.28 3520.6 1047.32 3520.46 1049.19 3521.08C1324.19 3616.76 1599.35 4057.59 1637.91 4464.31C1638.08 4466.27 1637.47 4468.22 1636.23 4469.75C1634.98 4471.27 1633.19 4472.25 1631.24 4472.47H1630.2Z"
        fill="white" />
    <path
        d="M1630.2 4870.73C1630.2 4870.73 1578.88 4911.67 1407.7 4895.65C1236.53 4879.63 1148.28 4757.26 1148.28 4704.75C1148.28 4652.24 1305.65 4643.2 1339.77 4512.96C1305.07 4550.16 1258.9 4574.65 1208.65 4582.53C1119.65 4599.29 1048.15 4570.81 1027.83 4408.69C1071.7 4415.1 1116.45 4411.4 1158.66 4397.86C1229.11 4375.16 1245.88 4336.45 1227.48 4328.14C1209.09 4319.84 1110.9 4328.14 1048 4304.26C985.112 4280.38 1033.17 3952.87 1074.41 3929.58C1115.64 3906.29 1310.7 3961.18 1348.67 3990.55C1382.49 4016.65 1429.95 4061.89 1408 4157.57C1434 4133.26 1454.27 4103.46 1467.33 4070.35C1485.73 4025.85 1499.07 4036.23 1526.66 4053.29C1543.23 4062.63 1557.61 4075.4 1568.84 4090.75C1580.07 4106.1 1587.89 4123.67 1591.78 4142.29C1598.46 4183.82 1587.63 4327.11 1529.19 4373.68C1529.19 4373.68 1585.25 4380.8 1631.09 4286.17C1631.09 4286.17 1720.09 4322.06 1740.26 4380.21C1760.43 4438.35 1782.38 4723 1630.2 4870.73Z"
        fill="#384B78" />
    <path
        d="M1645.33 4903.07C1643.52 4903.05 1641.77 4902.38 1640.41 4901.18C1639.05 4899.99 1638.16 4898.34 1637.91 4896.54C1598.75 4576 1355.05 4154.9 1116.09 3996.78C1114.44 3995.67 1113.29 3993.96 1112.9 3992.01C1112.51 3990.07 1112.91 3988.04 1114.01 3986.39C1115.11 3984.74 1116.83 3983.59 1118.77 3983.2C1120.72 3982.81 1122.74 3983.21 1124.39 3984.32C1366.32 4145.25 1613.88 4570.66 1652.6 4894.76C1652.85 4896.71 1652.32 4898.68 1651.12 4900.23C1649.93 4901.79 1648.16 4902.81 1646.22 4903.07H1645.33Z"
        fill="white" />
    <path
        d="M1660.31 4947.87C1651.46 4941.74 1644.17 4933.62 1639.02 4924.17C1633.86 4914.72 1631 4904.19 1630.64 4893.43V1349.68C1631.25 1338.53 1634.48 1327.68 1640.07 1318.02C1645.67 1308.35 1653.46 1300.14 1662.83 1294.06L3887.78 9.22985C3897.07 3.39676 3907.79 0.209125 3918.76 0.0099429C3929.74 -0.189239 3940.56 2.60752 3950.06 8.09937C3959.57 13.5912 3967.39 21.5703 3972.7 31.1783C3978.01 40.7863 3980.6 51.6596 3980.19 62.6285L1722.61 4946.68C1713.05 4951.76 1702.43 4954.52 1691.6 4954.73C1680.78 4954.93 1670.06 4952.58 1660.31 4947.87V4947.87Z"
        fill="#E0E0E0" />
    <path
        d="M1690.42 1417.02L2594.19 825.635L2533.97 790.777L1662.39 1294.06C1653.02 1300.14 1645.22 1308.35 1639.63 1318.02C1634.03 1327.68 1630.8 1338.53 1630.2 1349.68V1382.17L1690.42 1417.02Z"
        fill="#37474F" />
    <path opacity="0.2"
        d="M1690.42 1417.02L2594.19 825.635L2533.97 790.777L1662.39 1294.06C1653.02 1300.14 1645.22 1308.35 1639.63 1318.02C1634.03 1327.68 1630.8 1338.53 1630.2 1349.68V1382.17L1690.42 1417.02Z"
        fill="#37474F" />
    <path
        d="M1992.27 1521.3L1639.54 1318.39C1633.8 1327.95 1630.58 1338.83 1630.2 1349.98V4893.13C1629.82 4904.09 1632.42 4914.94 1637.74 4924.53C1643.06 4934.11 1650.89 4942.07 1660.39 4947.54C1669.89 4953.02 1680.7 4955.8 1691.66 4955.6C1702.62 4955.39 1713.32 4952.21 1722.61 4946.38L1992.27 4791.38V1521.3Z"
        fill="#263238" />
    <path opacity="0.4"
        d="M1992.27 1521.3L1639.54 1318.39C1633.8 1327.95 1630.58 1338.83 1630.2 1349.98V4893.13C1629.82 4904.09 1632.42 4914.94 1637.74 4924.53C1643.06 4934.11 1650.89 4942.07 1660.39 4947.54C1669.89 4953.02 1680.7 4955.8 1691.66 4955.6C1702.62 4955.39 1713.32 4952.21 1722.61 4946.38L1992.27 4791.38V1521.3Z"
        fill="#263238" />
    <path
        d="M1722.61 4946.68L3947.55 3661.85C3956.92 3655.77 3964.72 3647.56 3970.31 3637.89C3975.9 3628.23 3979.14 3617.38 3979.74 3606.22V62.6301C3979.74 42.1606 3964.91 33.8541 3947.55 44.0889L1722.61 1328.92C1713.24 1335 1705.44 1343.21 1699.85 1352.88C1694.26 1362.54 1691.03 1373.39 1690.42 1384.54V4928.14C1690.42 4948.61 1704.81 4956.91 1722.61 4946.68Z"
        fill="#455A64" />
    <path opacity="0.1"
        d="M1722.61 4946.68L3947.55 3661.85C3956.92 3655.77 3964.72 3647.56 3970.31 3637.89C3975.9 3628.23 3979.14 3617.38 3979.74 3606.22V62.6301C3979.74 42.1606 3964.91 33.8541 3947.55 44.0889L1722.61 1328.92C1713.24 1335 1705.44 1343.21 1699.85 1352.88C1694.26 1362.54 1691.03 1373.39 1690.42 1384.54V4928.14C1690.42 4948.61 1704.81 4956.91 1722.61 4946.68Z"
        fill="#455A64" />
    <path
        d="M1875.24 2203.02L2409.23 1894.5C2444.68 1874.03 2473.45 1888.57 2473.45 1926.98C2471.87 1948.55 2465.23 1969.45 2454.07 1987.97C2442.91 2006.5 2427.55 2022.14 2409.23 2033.63L1875.24 2342.16C1839.64 2362.63 1811.01 2348.09 1811.01 2309.67C1812.56 2288.1 1819.19 2267.19 1830.35 2248.65C1841.51 2230.12 1856.89 2214.49 1875.24 2203.02V2203.02Z"
        fill="#384B78" />
    <path
        d="M1875.24 2421.96L2228.71 2217.86C2264.16 2197.39 2292.94 2211.93 2292.94 2250.34C2291.35 2271.91 2284.71 2292.81 2273.55 2311.33C2262.4 2329.86 2247.03 2345.5 2228.71 2356.99L1875.24 2561.09C1839.64 2581.56 1811.01 2567.03 1811.01 2528.61C1812.56 2507.03 1819.19 2486.12 1830.35 2467.59C1841.51 2449.06 1856.89 2433.42 1875.24 2421.96Z"
        fill="#384B78" />
    <path
        d="M1836.67 2796.64L1905.8 2756.74C1920.63 2748.58 1931.46 2755.26 1931.46 2771.57V2851.37C1930.97 2860.29 1928.4 2868.96 1923.94 2876.69C1919.48 2884.42 1913.27 2890.99 1905.8 2895.87L1836.67 2935.18C1821.84 2943.49 1811.01 2936.81 1811.01 2920.35V2840.55C1811.6 2831.74 1814.22 2823.19 1818.67 2815.57C1823.12 2807.95 1829.29 2801.47 1836.67 2796.64Z"
        fill="#384B78" />
    <path opacity="0.2"
        d="M1836.67 2796.64L1905.8 2756.74C1920.63 2748.58 1931.46 2755.26 1931.46 2771.57V2851.37C1930.97 2860.29 1928.4 2868.96 1923.94 2876.69C1919.48 2884.42 1913.27 2890.99 1905.8 2895.87L1836.67 2935.18C1821.84 2943.49 1811.01 2936.81 1811.01 2920.35V2840.55C1811.6 2831.74 1814.22 2823.19 1818.67 2815.57C1823.12 2807.95 1829.29 2801.47 1836.67 2796.64Z"
        fill="black" />
    <path
        d="M1836.67 3075.06L1905.8 3035.16C1920.63 3026.85 1931.46 3033.52 1931.46 3049.99V3129.79C1930.94 3138.69 1928.35 3147.35 1923.9 3155.08C1919.44 3162.8 1913.24 3169.38 1905.8 3174.29L1836.67 3214.19C1821.84 3222.35 1811.01 3215.67 1811.01 3199.36V3119.56C1811.47 3110.64 1814.03 3101.96 1818.5 3094.22C1822.96 3086.49 1829.19 3079.92 1836.67 3075.06Z"
        fill="#384B78" />
    <g opacity="0.2">
        <path
            d="M1836.67 3075.06L1905.8 3035.16C1920.63 3026.85 1931.46 3033.52 1931.46 3049.99V3129.79C1930.94 3138.69 1928.35 3147.35 1923.9 3155.08C1919.44 3162.8 1913.24 3169.38 1905.8 3174.29L1836.67 3214.19C1821.84 3222.35 1811.01 3215.67 1811.01 3199.36V3119.56C1811.47 3110.64 1814.03 3101.96 1818.5 3094.22C1822.96 3086.49 1829.19 3079.92 1836.67 3075.06Z"
            fill="black" />
    </g>
    <path
        d="M2023.87 3001.78L2441.56 2760.45C2459.36 2750.21 2473.75 2757.48 2473.75 2776.76C2472.94 2787.55 2469.61 2797.98 2464.02 2807.24C2458.43 2816.49 2450.73 2824.29 2441.56 2830.02L2023.87 3071.35C2006.07 3081.58 1991.68 3074.31 1991.68 3055.03C1992.48 3044.25 1995.82 3033.81 2001.41 3024.56C2007 3015.31 2014.7 3007.51 2023.87 3001.78Z"
        fill="#384B78" />
    <path opacity="0.2"
        d="M2023.87 3001.78L2441.56 2760.45C2459.36 2750.21 2473.75 2757.48 2473.75 2776.76C2472.94 2787.55 2469.61 2797.98 2464.02 2807.24C2458.43 2816.49 2450.73 2824.29 2441.56 2830.02L2023.87 3071.35C2006.07 3081.58 1991.68 3074.31 1991.68 3055.03C1992.48 3044.25 1995.82 3033.81 2001.41 3024.56C2007 3015.31 2014.7 3007.51 2023.87 3001.78Z"
        fill="black" />
    <path
        d="M1836.67 3353.32L1905.8 3313.42C1920.63 3305.11 1931.46 3311.79 1931.46 3328.25V3408.06C1930.95 3416.96 1928.37 3425.63 1923.91 3433.35C1919.46 3441.08 1913.25 3447.66 1905.8 3452.55L1836.67 3492.46C1821.84 3500.61 1811.01 3493.94 1811.01 3477.62V3397.82C1811.47 3388.9 1814.03 3380.22 1818.5 3372.49C1822.96 3364.75 1829.19 3358.18 1836.67 3353.32V3353.32Z"
        fill="#E0E0E0" />
    <path
        d="M2023.87 3280.05L2441.56 3039.01C2459.36 3028.78 2473.75 3036.04 2473.75 3055.33C2472.97 3066.11 2469.64 3076.56 2464.05 3085.82C2458.45 3095.07 2450.75 3102.87 2441.56 3108.58L2023.87 3349.91C2006.07 3360.14 1991.68 3352.88 1991.68 3333.59C1992.44 3322.76 1995.75 3312.26 2001.35 3302.96C2006.94 3293.65 2014.66 3285.8 2023.87 3280.05V3280.05Z"
        fill="#F0F0F0" />
    <path
        d="M1836.67 3632.33L1905.8 3592.43C1920.63 3584.12 1931.46 3590.8 1931.46 3607.26V3687.06C1930.95 3695.97 1928.37 3704.63 1923.91 3712.36C1919.46 3720.09 1913.25 3726.66 1905.8 3731.56L1836.67 3771.46C1821.84 3779.62 1811.01 3772.95 1811.01 3756.63V3676.83C1811.47 3667.91 1814.03 3659.23 1818.5 3651.5C1822.96 3643.76 1829.19 3637.19 1836.67 3632.33V3632.33Z"
        fill="#E0E0E0" />
    <path
        d="M2023.87 3559.05L2441.56 3317.87C2459.36 3307.49 2473.75 3314.9 2473.75 3334.04C2472.97 3344.84 2469.64 3355.31 2464.05 3364.59C2458.46 3373.87 2450.75 3381.7 2441.56 3387.44L2023.87 3628.62C2006.07 3638.86 1991.68 3631.59 1991.68 3612.3C1992.48 3601.52 1995.82 3591.09 2001.41 3581.83C2007 3572.58 2014.7 3564.78 2023.87 3559.05Z"
        fill="#F0F0F0" />
    <path
        d="M1836.67 3910.6L1905.8 3870.69C1920.63 3862.39 1931.46 3869.06 1931.46 3885.53V3965.33C1930.95 3974.24 1928.37 3982.9 1923.91 3990.63C1919.46 3998.35 1913.25 4004.93 1905.8 4009.83L1836.67 4049.73C1821.84 4057.89 1811.01 4051.21 1811.01 4034.9V3955.09C1811.47 3946.18 1814.03 3937.5 1818.5 3929.76C1822.96 3922.03 1829.19 3915.46 1836.67 3910.6Z"
        fill="#E0E0E0" />
    <path
        d="M2023.87 3837.32L2441.56 3596.14C2459.36 3585.75 2473.75 3593.17 2473.75 3612.3C2472.97 3623.11 2469.64 3633.58 2464.05 3642.86C2458.46 3652.14 2450.75 3659.96 2441.56 3665.7L2023.87 3906.89C2006.07 3917.12 1991.68 3909.85 1991.68 3890.57C1992.48 3879.79 1995.82 3869.35 2001.41 3860.1C2007 3850.85 2014.7 3843.04 2023.87 3837.32V3837.32Z"
        fill="#F0F0F0" />
    <path
        d="M1843.05 4184.41L2139.71 4012.8C2157.51 4002.56 2171.9 4009.83 2171.9 4029.11C2171.09 4039.89 2167.76 4050.33 2162.17 4059.58C2156.57 4068.83 2148.88 4076.64 2139.71 4082.36L1843.05 4253.98C1825.4 4264.22 1811.01 4256.95 1811.01 4237.81C1811.79 4227.02 1815.1 4216.57 1820.66 4207.29C1826.23 4198.02 1833.9 4190.18 1843.05 4184.41V4184.41Z"
        fill="#384B78" />
    <path
        d="M1843.05 4323.55L2441.56 3978.09C2459.36 3967.85 2473.75 3975.12 2473.75 3994.25C2472.97 4005.06 2469.64 4015.53 2464.05 4024.81C2458.46 4034.09 2450.75 4041.91 2441.56 4047.65L1843.05 4393.11C1825.4 4403.35 1811.01 4396.08 1811.01 4376.94C1811.79 4366.15 1815.1 4355.7 1820.66 4346.42C1826.23 4337.15 1833.9 4329.31 1843.05 4323.55V4323.55Z"
        fill="#384B78" />
    <path opacity="0.8"
        d="M1843.05 4323.55L2441.56 3978.09C2459.36 3967.85 2473.75 3975.12 2473.75 3994.25C2472.97 4005.06 2469.64 4015.53 2464.05 4024.81C2458.46 4034.09 2450.75 4041.91 2441.56 4047.65L1843.05 4393.11C1825.4 4403.35 1811.01 4396.08 1811.01 4376.94C1811.79 4366.15 1815.1 4355.7 1820.66 4346.42C1826.23 4337.15 1833.9 4329.31 1843.05 4323.55V4323.55Z"
        fill="white" />
    <path
        d="M1843.05 4323.55L2260.9 4082.36C2278.55 4072.13 2292.94 4079.4 2292.94 4098.68C2292.13 4109.44 2288.82 4119.87 2283.25 4129.12C2277.69 4138.37 2270.03 4146.18 2260.9 4151.93L1843.05 4393.11C1825.4 4403.35 1811.01 4396.08 1811.01 4376.95C1811.79 4366.16 1815.1 4355.7 1820.66 4346.42C1826.23 4337.15 1833.9 4329.31 1843.05 4323.55V4323.55Z"
        fill="#384B78" />
    <path
        d="M1843.05 4462.98L2139.71 4291.36C2157.51 4281.12 2171.9 4288.39 2171.9 4307.68C2171.09 4318.46 2167.76 4328.89 2162.17 4338.15C2156.57 4347.4 2148.88 4355.2 2139.71 4360.93L1843.05 4532.54C1825.4 4542.78 1811.01 4535.51 1811.01 4516.38C1811.79 4505.59 1815.1 4495.13 1820.66 4485.85C1826.23 4476.58 1833.9 4468.74 1843.05 4462.98V4462.98Z"
        fill="#384B78" />
    <path
        d="M2023.87 2723.37L2441.56 2482.18C2459.36 2471.95 2473.75 2479.22 2473.75 2498.5C2472.94 2509.28 2469.61 2519.72 2464.02 2528.97C2458.43 2538.22 2450.73 2546.02 2441.56 2551.75L2023.87 2792.93C2006.07 2803.17 1991.68 2795.9 1991.68 2776.77C1992.46 2765.96 1995.79 2755.49 2001.38 2746.21C2006.97 2736.93 2014.68 2729.11 2023.87 2723.37V2723.37Z"
        fill="#384B78" />
    <path opacity="0.2"
        d="M2023.87 2723.37L2441.56 2482.18C2459.36 2471.95 2473.75 2479.22 2473.75 2498.5C2472.94 2509.28 2469.61 2519.72 2464.02 2528.97C2458.43 2538.22 2450.73 2546.02 2441.56 2551.75L2023.87 2792.93C2006.07 2803.17 1991.68 2795.9 1991.68 2776.77C1992.46 2765.96 1995.79 2755.49 2001.38 2746.21C2006.97 2736.93 2014.68 2729.11 2023.87 2723.37V2723.37Z"
        fill="black" />
    <path
        d="M1843.05 4462.98L2139.71 4291.36C2157.51 4281.12 2171.9 4288.39 2171.9 4307.68C2171.09 4318.46 2167.76 4328.89 2162.17 4338.15C2156.57 4347.4 2148.88 4355.2 2139.71 4360.93L1843.05 4532.54C1825.4 4542.78 1811.01 4535.51 1811.01 4516.38C1811.79 4505.59 1815.1 4495.13 1820.66 4485.85C1826.23 4476.58 1833.9 4468.74 1843.05 4462.98V4462.98Z"
        fill="#384B78" />
    <path
        d="M1843.05 4601.66L2441.56 4256.2C2459.36 4245.97 2473.75 4253.24 2473.75 4272.37C2472.97 4283.18 2469.64 4293.64 2464.05 4302.92C2458.46 4312.2 2450.75 4320.03 2441.56 4325.77L1843.05 4670.64C1825.4 4681.02 1811.01 4673.6 1811.01 4654.47C1811.88 4643.78 1815.23 4633.44 1820.79 4624.28C1826.35 4615.11 1833.97 4607.37 1843.05 4601.66V4601.66Z"
        fill="#384B78" />
    <path opacity="0.8"
        d="M1843.05 4601.66L2441.56 4256.2C2459.36 4245.97 2473.75 4253.24 2473.75 4272.37C2472.97 4283.18 2469.64 4293.64 2464.05 4302.92C2458.46 4312.2 2450.75 4320.03 2441.56 4325.77L1843.05 4670.64C1825.4 4681.02 1811.01 4673.6 1811.01 4654.47C1811.88 4643.78 1815.23 4633.44 1820.79 4624.28C1826.35 4615.11 1833.97 4607.37 1843.05 4601.66V4601.66Z"
        fill="white" />
    <path
        d="M1843.05 4601.66L2381.34 4290.17C2399.14 4279.94 2413.53 4287.2 2413.53 4306.49C2412.72 4317.27 2409.39 4327.71 2403.8 4336.96C2398.2 4346.21 2390.51 4354.01 2381.34 4359.74L1843.05 4671.23C1825.4 4681.61 1811.01 4674.2 1811.01 4655.06C1811.79 4644.27 1815.1 4633.82 1820.66 4624.54C1826.23 4615.27 1833.9 4607.43 1843.05 4601.66V4601.66Z"
        fill="#384B78" />
    <path
        d="M3947.85 44.0856L2594.19 825.634V4443.39L3947.85 3661.99C3957.22 3655.91 3965.01 3647.7 3970.61 3638.04C3976.2 3628.37 3979.43 3617.52 3980.04 3606.37V62.6268C3979.89 42.7506 3965.06 33.8508 3947.85 44.0856Z"
        fill="#EBEBEB" />
    <path opacity="0.6"
        d="M3947.85 44.0856L2594.19 825.634V4443.39L3947.85 3661.99C3957.22 3655.91 3965.01 3647.7 3970.61 3638.04C3976.2 3628.37 3979.43 3617.52 3980.04 3606.37V62.6268C3979.89 42.7506 3965.06 33.8508 3947.85 44.0856Z"
        fill="#FAFAFA" />
    <path d="M2594.19 964.77V1243.04L2473.75 1382.17H2594.19V1660.44L3859.45 929.912V234.246L2594.19 964.77Z"
        fill="#384B78" />
    <g opacity="0.6">
        <path
            d="M2759.73 974.412L3272.36 677.753C3297.13 662.92 3316.86 675.083 3316.86 703.711C3316.04 719.265 3311.59 734.411 3303.86 747.935C3296.13 761.459 3285.34 772.983 3272.36 781.584L2759.73 1077.5C2734.81 1092.33 2715.23 1080.17 2715.23 1051.54C2716.13 1036.11 2720.62 1021.1 2728.34 1007.71C2736.07 994.315 2746.82 982.914 2759.73 974.412V974.412Z"
            fill="white" />
    </g>
    <path
        d="M2730.8 1199.72L3722.98 626.875C3731.88 621.832 3739 625.392 3739 635.033C3738.62 640.43 3736.97 645.659 3734.18 650.298C3731.4 654.937 3727.56 658.855 3722.98 661.733L2730.8 1233.84C2721.9 1238.88 2714.79 1235.32 2714.79 1225.68C2715.28 1220.41 2716.98 1215.33 2719.76 1210.83C2722.54 1206.33 2726.32 1202.53 2730.8 1199.72V1199.72Z"
        fill="#384B78" />
    <path
        d="M2730.8 1199.72L3722.98 626.875C3731.88 621.832 3739 625.392 3739 635.033C3738.62 640.43 3736.97 645.659 3734.18 650.298C3731.4 654.937 3727.56 658.855 3722.98 661.733L2730.8 1233.84C2721.9 1238.88 2714.79 1235.32 2714.79 1225.68C2715.28 1220.41 2716.98 1215.33 2719.76 1210.83C2722.54 1206.33 2726.32 1202.53 2730.8 1199.72V1199.72Z"
        fill="#384B78" />
    <path opacity="0.6"
        d="M2730.8 1199.72L3722.98 626.875C3731.88 621.832 3739 625.392 3739 635.033C3738.62 640.43 3736.97 645.659 3734.18 650.298C3731.4 654.937 3727.56 658.855 3722.98 661.733L2730.8 1233.84C2721.9 1238.88 2714.79 1235.32 2714.79 1225.68C2715.28 1220.41 2716.98 1215.33 2719.76 1210.83C2722.54 1206.33 2726.32 1202.53 2730.8 1199.72V1199.72Z"
        fill="white" />
    <path
        d="M2730.8 1303.56L3722.98 730.706C3731.88 725.515 3739 729.223 3739 738.864C3738.62 744.241 3736.97 749.45 3734.18 754.065C3731.4 758.68 3727.56 762.57 3722.98 765.416L2730.8 1338.26C2721.9 1343.46 2714.79 1339.75 2714.79 1330.11C2715.17 1324.73 2716.82 1319.52 2719.6 1314.91C2722.39 1310.29 2726.23 1306.4 2730.8 1303.56Z"
        fill="#384B78" />
    <path opacity="0.6"
        d="M2730.8 1303.56L3722.98 730.706C3731.88 725.515 3739 729.223 3739 738.864C3738.62 744.241 3736.97 749.45 3734.18 754.065C3731.4 758.68 3727.56 762.57 3722.98 765.416L2730.8 1338.26C2721.9 1343.46 2714.79 1339.75 2714.79 1330.11C2715.17 1324.73 2716.82 1319.52 2719.6 1314.91C2722.39 1310.29 2726.23 1306.4 2730.8 1303.56Z"
        fill="white" />
    <path opacity="0.6"
        d="M2730.8 1407.38L3722.98 834.535C3731.88 829.492 3739 833.052 3739 842.693C3738.62 848.09 3736.97 853.32 3734.18 857.959C3731.4 862.598 3727.56 866.515 3722.98 869.393L2730.8 1442.24C2721.9 1447.29 2714.79 1443.73 2714.79 1434.08C2715.17 1428.69 2716.82 1423.46 2719.6 1418.82C2722.39 1414.18 2726.22 1410.26 2730.8 1407.38V1407.38Z"
        fill="white" />
    <path
        d="M2768.18 1699.6L2837.75 1659.55C2852.58 1651.24 2863.41 1657.91 2863.41 1674.38V1754.18C2862.92 1763.09 2860.34 1771.76 2855.88 1779.49C2851.42 1787.22 2845.21 1793.79 2837.75 1798.68L2768.63 1838.58C2753.8 1846.74 2742.97 1840.06 2742.97 1823.75V1744.09C2743.38 1735.22 2745.87 1726.56 2750.25 1718.83C2754.64 1711.1 2760.78 1704.51 2768.18 1699.6V1699.6Z"
        fill="#384B78" />
    <path opacity="0.2"
        d="M2768.18 1699.6L2837.75 1659.55C2852.58 1651.24 2863.41 1657.91 2863.41 1674.38V1754.18C2862.92 1763.09 2860.34 1771.76 2855.88 1779.49C2851.42 1787.22 2845.21 1793.79 2837.75 1798.68L2768.63 1838.58C2753.8 1846.74 2742.97 1840.06 2742.97 1823.75V1744.09C2743.38 1735.22 2745.87 1726.56 2750.25 1718.83C2754.64 1711.1 2760.78 1704.51 2768.18 1699.6V1699.6Z"
        fill="white" />
    <path
        d="M2955.38 1626.32L3373.07 1384.99C3390.87 1374.75 3405.26 1382.02 3405.26 1401.3C3404.45 1412.08 3401.12 1422.52 3395.53 1431.77C3389.94 1441.03 3382.24 1448.83 3373.07 1454.55L2955.38 1695.89C2937.58 1706.12 2923.19 1698.85 2923.19 1679.57C2923.99 1668.79 2927.33 1658.35 2932.92 1649.1C2938.51 1639.85 2946.21 1632.04 2955.38 1626.32V1626.32Z"
        fill="#384B78" />
    <path opacity="0.8"
        d="M2955.38 1626.32L3373.07 1384.99C3390.87 1374.75 3405.26 1382.02 3405.26 1401.3C3404.45 1412.08 3401.12 1422.52 3395.53 1431.77C3389.94 1441.03 3382.24 1448.83 3373.07 1454.55L2955.38 1695.89C2937.58 1706.12 2923.19 1698.85 2923.19 1679.57C2923.99 1668.79 2927.33 1658.35 2932.92 1649.1C2938.51 1639.85 2946.21 1632.04 2955.38 1626.32V1626.32Z"
        fill="white" />
    <path
        d="M2758.54 1948.79L3811.68 1340.64C3820.58 1335.44 3827.7 1339.15 3827.7 1348.65C3827.33 1354.05 3825.68 1359.28 3822.9 1363.92C3820.12 1368.56 3816.27 1372.48 3811.68 1375.35L2758.54 1983.5C2749.64 1988.69 2742.52 1984.98 2742.52 1975.34C2742.91 1969.96 2744.56 1964.75 2747.34 1960.14C2750.13 1955.52 2753.96 1951.63 2758.54 1948.79Z"
        fill="#384B78" />
    <path
        d="M2758.54 2053.07L3811.68 1444.91C3820.58 1439.87 3827.7 1443.43 3827.7 1453.07C3827.32 1458.47 3825.67 1463.7 3822.88 1468.34C3820.1 1472.98 3816.26 1476.89 3811.68 1479.77L2758.54 2087.92C2749.64 2092.97 2742.52 2089.41 2742.52 2079.77C2742.91 2074.37 2744.56 2069.14 2747.34 2064.5C2750.12 2059.86 2753.96 2055.94 2758.54 2053.07Z"
        fill="#384B78" />
    <path
        d="M2758.54 2157.49L3811.68 1549.34C3820.58 1544.14 3827.7 1547.85 3827.7 1557.35C3827.33 1562.74 3825.68 1567.98 3822.9 1572.62C3820.12 1577.26 3816.27 1581.18 3811.68 1584.04L2758.54 2192.2C2749.64 2197.39 2742.52 2193.68 2742.52 2184.19C2742.89 2178.79 2744.54 2173.55 2747.32 2168.91C2750.11 2164.27 2753.95 2160.36 2758.54 2157.49Z"
        fill="#384B78" />
    <path
        d="M2758.54 2262.06L3811.68 1653.91C3820.58 1648.87 3827.7 1652.43 3827.7 1662.07C3827.32 1667.46 3825.67 1672.69 3822.88 1677.33C3820.1 1681.97 3816.26 1685.89 3811.68 1688.77L2758.54 2296.92C2749.64 2301.96 2742.52 2298.4 2742.52 2288.76C2742.91 2283.36 2744.56 2278.14 2747.34 2273.5C2750.12 2268.86 2753.96 2264.94 2758.54 2262.06Z"
        fill="#384B78" />
    <path
        d="M2758.54 1948.79L3811.68 1340.64C3820.58 1335.44 3827.7 1339.15 3827.7 1348.65C3827.33 1354.05 3825.68 1359.28 3822.9 1363.92C3820.12 1368.56 3816.27 1372.48 3811.68 1375.35L2758.54 1983.5C2749.64 1988.69 2742.52 1984.98 2742.52 1975.34C2742.91 1969.96 2744.56 1964.75 2747.34 1960.14C2750.13 1955.52 2753.96 1951.63 2758.54 1948.79Z"
        fill="#E0E0E0" />
    <path
        d="M2758.54 2053.07L3811.68 1444.91C3820.58 1439.87 3827.7 1443.43 3827.7 1453.07C3827.32 1458.47 3825.67 1463.7 3822.88 1468.34C3820.1 1472.98 3816.26 1476.89 3811.68 1479.77L2758.54 2087.92C2749.64 2092.97 2742.52 2089.41 2742.52 2079.77C2742.91 2074.37 2744.56 2069.14 2747.34 2064.5C2750.12 2059.86 2753.96 2055.94 2758.54 2053.07Z"
        fill="#E0E0E0" />
    <path
        d="M2758.54 2157.49L3811.68 1549.34C3820.58 1544.14 3827.7 1547.85 3827.7 1557.35C3827.33 1562.74 3825.68 1567.98 3822.9 1572.62C3820.12 1577.26 3816.27 1581.18 3811.68 1584.04L2758.54 2192.2C2749.64 2197.39 2742.52 2193.68 2742.52 2184.19C2742.89 2178.79 2744.54 2173.55 2747.32 2168.91C2750.11 2164.27 2753.95 2160.36 2758.54 2157.49Z"
        fill="#E0E0E0" />
    <path
        d="M2758.54 2262.06L3811.68 1653.91C3820.58 1648.87 3827.7 1652.43 3827.7 1662.07C3827.32 1667.46 3825.67 1672.69 3822.88 1677.33C3820.1 1681.97 3816.26 1685.89 3811.68 1688.77L2758.54 2296.92C2749.64 2301.96 2742.52 2298.4 2742.52 2288.76C2742.91 2283.36 2744.56 2278.14 2747.34 2273.5C2750.12 2268.86 2753.96 2264.94 2758.54 2262.06Z"
        fill="#E0E0E0" />
    <path opacity="0.8"
        d="M2758.54 1948.79L3811.68 1340.64C3820.58 1335.44 3827.7 1339.15 3827.7 1348.65C3827.33 1354.05 3825.68 1359.28 3822.9 1363.92C3820.12 1368.56 3816.27 1372.48 3811.68 1375.35L2758.54 1983.5C2749.64 1988.69 2742.52 1984.98 2742.52 1975.34C2742.91 1969.96 2744.56 1964.75 2747.34 1960.14C2750.13 1955.52 2753.96 1951.63 2758.54 1948.79Z"
        fill="#E0E0E0" />
    <path opacity="0.8"
        d="M2758.54 2053.07L3811.68 1444.91C3820.58 1439.87 3827.7 1443.43 3827.7 1453.07C3827.32 1458.47 3825.67 1463.7 3822.88 1468.34C3820.1 1472.98 3816.26 1476.89 3811.68 1479.77L2758.54 2087.92C2749.64 2092.97 2742.52 2089.41 2742.52 2079.77C2742.91 2074.37 2744.56 2069.14 2747.34 2064.5C2750.12 2059.86 2753.96 2055.94 2758.54 2053.07Z"
        fill="#E0E0E0" />
    <path opacity="0.8"
        d="M2758.54 2157.49L3811.68 1549.34C3820.58 1544.14 3827.7 1547.85 3827.7 1557.35C3827.33 1562.74 3825.68 1567.98 3822.9 1572.62C3820.12 1577.26 3816.27 1581.18 3811.68 1584.04L2758.54 2192.2C2749.64 2197.39 2742.52 2193.68 2742.52 2184.19C2742.89 2178.79 2744.54 2173.55 2747.32 2168.91C2750.11 2164.27 2753.95 2160.36 2758.54 2157.49Z"
        fill="#E0E0E0" />
    <path opacity="0.8"
        d="M2758.54 2262.06L3811.68 1653.91C3820.58 1648.87 3827.7 1652.43 3827.7 1662.07C3827.32 1667.46 3825.67 1672.69 3822.88 1677.33C3820.1 1681.97 3816.26 1685.89 3811.68 1688.77L2758.54 2296.92C2749.64 2301.96 2742.52 2298.4 2742.52 2288.76C2742.91 2283.36 2744.56 2278.14 2747.34 2273.5C2750.12 2268.86 2753.96 2264.94 2758.54 2262.06Z"
        fill="#E0E0E0" />
    <path
        d="M2758.54 2705.27L3811.68 2097.12C3820.58 2091.93 3827.7 2095.63 3827.7 2105.13C3827.33 2110.53 3825.68 2115.76 3822.9 2120.4C3820.12 2125.04 3816.27 2128.96 3811.68 2131.83L2758.54 2739.98C2749.64 2745.17 2742.52 2741.46 2742.52 2731.82C2742.91 2726.44 2744.56 2721.23 2747.34 2716.62C2750.13 2712 2753.96 2708.11 2758.54 2705.27Z"
        fill="#E0E0E0" />
    <path
        d="M2758.54 2809.55L3811.68 2201.39C3820.58 2196.35 3827.7 2199.91 3827.7 2209.55C3827.32 2214.95 3825.67 2220.18 3822.88 2224.82C3820.1 2229.46 3816.26 2233.37 3811.68 2236.25L2758.54 2844.4C2749.64 2849.45 2742.52 2845.89 2742.52 2836.25C2742.91 2830.85 2744.56 2825.62 2747.34 2820.98C2750.12 2816.34 2753.96 2812.42 2758.54 2809.55V2809.55Z"
        fill="#E0E0E0" />
    <path
        d="M2758.54 2913.97L3811.68 2305.82C3820.58 2300.62 3827.7 2304.33 3827.7 2313.83C3827.33 2319.23 3825.68 2324.46 3822.9 2329.1C3820.12 2333.74 3816.27 2337.66 3811.68 2340.53L2758.54 2948.68C2749.64 2953.87 2742.52 2950.16 2742.52 2940.67C2742.89 2935.27 2744.54 2930.03 2747.32 2925.39C2750.11 2920.75 2753.95 2916.84 2758.54 2913.97V2913.97Z"
        fill="#E0E0E0" />
    <path
        d="M2758.54 3018.54L3811.68 2410.39C3820.58 2405.35 3827.7 2408.91 3827.7 2418.55C3827.32 2423.95 3825.67 2429.17 3822.88 2433.81C3820.1 2438.45 3816.26 2442.37 3811.68 2445.25L2758.54 3053.4C2749.64 3058.44 2742.52 3054.88 2742.52 3045.24C2742.91 3039.85 2744.56 3034.62 2747.34 3029.98C2750.12 3025.34 2753.96 3021.42 2758.54 3018.54V3018.54Z"
        fill="#E0E0E0" />
    <path opacity="0.8"
        d="M2758.54 2705.27L3811.68 2097.12C3820.58 2091.93 3827.7 2095.63 3827.7 2105.13C3827.33 2110.53 3825.68 2115.76 3822.9 2120.4C3820.12 2125.04 3816.27 2128.96 3811.68 2131.83L2758.54 2739.98C2749.64 2745.17 2742.52 2741.46 2742.52 2731.82C2742.91 2726.44 2744.56 2721.23 2747.34 2716.62C2750.13 2712 2753.96 2708.11 2758.54 2705.27Z"
        fill="#E0E0E0" />
    <path opacity="0.8"
        d="M2758.54 2809.55L3811.68 2201.39C3820.58 2196.35 3827.7 2199.91 3827.7 2209.55C3827.32 2214.95 3825.67 2220.18 3822.88 2224.82C3820.1 2229.46 3816.26 2233.37 3811.68 2236.25L2758.54 2844.4C2749.64 2849.45 2742.52 2845.89 2742.52 2836.25C2742.91 2830.85 2744.56 2825.62 2747.34 2820.98C2750.12 2816.34 2753.96 2812.42 2758.54 2809.55V2809.55Z"
        fill="#E0E0E0" />
    <path opacity="0.8"
        d="M2758.54 2913.97L3811.68 2305.82C3820.58 2300.62 3827.7 2304.33 3827.7 2313.83C3827.33 2319.23 3825.68 2324.46 3822.9 2329.1C3820.12 2333.74 3816.27 2337.66 3811.68 2340.53L2758.54 2948.68C2749.64 2953.87 2742.52 2950.16 2742.52 2940.67C2742.89 2935.27 2744.54 2930.03 2747.32 2925.39C2750.11 2920.75 2753.95 2916.84 2758.54 2913.97V2913.97Z"
        fill="#E0E0E0" />
    <path opacity="0.8"
        d="M2758.54 3018.54L3811.68 2410.39C3820.58 2405.35 3827.7 2408.91 3827.7 2418.55C3827.32 2423.95 3825.67 2429.17 3822.88 2433.81C3820.1 2438.45 3816.26 2442.37 3811.68 2445.25L2758.54 3053.4C2749.64 3058.44 2742.52 3054.88 2742.52 3045.24C2742.91 3039.85 2744.56 3034.62 2747.34 3029.98C2750.12 3025.34 2753.96 3021.42 2758.54 3018.54V3018.54Z"
        fill="#E0E0E0" />
    <path
        d="M2758.54 3476.58L3811.68 2868.43C3820.58 2863.24 3827.7 2866.95 3827.7 2876.44C3827.33 2881.84 3825.68 2887.08 3822.9 2891.72C3820.12 2896.36 3816.27 2900.27 3811.68 2903.14L2758.54 3511.29C2749.64 3516.49 2742.52 3512.78 2742.52 3503.14C2742.91 3497.76 2744.56 3492.55 2747.34 3487.94C2750.13 3483.32 2753.96 3479.43 2758.54 3476.58V3476.58Z"
        fill="#E0E0E0" />
    <path
        d="M2758.54 3580.86L3811.68 2972.71C3820.58 2967.66 3827.7 2971.22 3827.7 2980.87C3827.32 2986.26 3825.67 2991.49 3822.88 2996.13C3820.1 3000.77 3816.26 3004.69 3811.68 3007.56L2758.54 3615.72C2749.64 3620.76 2742.52 3617.2 2742.52 3607.56C2742.91 3602.16 2744.56 3596.93 2747.34 3592.29C2750.12 3587.65 2753.96 3583.74 2758.54 3580.86V3580.86Z"
        fill="#E0E0E0" />
    <path
        d="M2758.54 3685.28L3811.68 3077.13C3820.58 3071.94 3827.7 3075.65 3827.7 3085.14C3827.33 3090.54 3825.68 3095.78 3822.9 3100.42C3820.12 3105.06 3816.27 3108.97 3811.68 3111.84L2758.54 3719.99C2749.64 3725.18 2742.52 3721.48 2742.52 3711.98C2742.89 3706.58 2744.54 3701.35 2747.32 3696.71C2750.11 3692.07 2753.95 3688.15 2758.54 3685.28Z"
        fill="#E0E0E0" />
    <path
        d="M2758.54 3789.85L3811.68 3181.7C3820.58 3176.66 3827.7 3180.22 3827.7 3189.86C3827.32 3195.26 3825.67 3200.49 3822.88 3205.13C3820.1 3209.77 3816.26 3213.68 3811.68 3216.56L2758.54 3824.71C2749.64 3829.76 2742.52 3826.2 2742.52 3816.55C2742.91 3811.16 2744.56 3805.93 2747.34 3801.29C2750.12 3796.65 2753.96 3792.73 2758.54 3789.85V3789.85Z"
        fill="#E0E0E0" />
    <path opacity="0.8"
        d="M2758.54 3476.58L3811.68 2868.43C3820.58 2863.24 3827.7 2866.95 3827.7 2876.44C3827.33 2881.84 3825.68 2887.08 3822.9 2891.72C3820.12 2896.36 3816.27 2900.27 3811.68 2903.14L2758.54 3511.29C2749.64 3516.49 2742.52 3512.78 2742.52 3503.14C2742.91 3497.76 2744.56 3492.55 2747.34 3487.94C2750.13 3483.32 2753.96 3479.43 2758.54 3476.58V3476.58Z"
        fill="#E0E0E0" />
    <path opacity="0.8"
        d="M2758.54 3580.86L3811.68 2972.71C3820.58 2967.66 3827.7 2971.22 3827.7 2980.87C3827.32 2986.26 3825.67 2991.49 3822.88 2996.13C3820.1 3000.77 3816.26 3004.69 3811.68 3007.56L2758.54 3615.72C2749.64 3620.76 2742.52 3617.2 2742.52 3607.56C2742.91 3602.16 2744.56 3596.93 2747.34 3592.29C2750.12 3587.65 2753.96 3583.74 2758.54 3580.86V3580.86Z"
        fill="#E0E0E0" />
    <path opacity="0.8"
        d="M2758.54 3685.28L3811.68 3077.13C3820.58 3071.94 3827.7 3075.65 3827.7 3085.14C3827.33 3090.54 3825.68 3095.78 3822.9 3100.42C3820.12 3105.06 3816.27 3108.97 3811.68 3111.84L2758.54 3719.99C2749.64 3725.18 2742.52 3721.48 2742.52 3711.98C2742.89 3706.58 2744.54 3701.35 2747.32 3696.71C2750.11 3692.07 2753.95 3688.15 2758.54 3685.28Z"
        fill="#E0E0E0" />
    <path opacity="0.8"
        d="M2758.54 3789.85L3811.68 3181.7C3820.58 3176.66 3827.7 3180.22 3827.7 3189.86C3827.32 3195.26 3825.67 3200.49 3822.88 3205.13C3820.1 3209.77 3816.26 3213.68 3811.68 3216.56L2758.54 3824.71C2749.64 3829.76 2742.52 3826.2 2742.52 3816.55C2742.91 3811.16 2744.56 3805.93 2747.34 3801.29C2750.12 3796.65 2753.96 3792.73 2758.54 3789.85V3789.85Z"
        fill="#E0E0E0" />
    <path
        d="M2768.18 2464.83L2837.75 2424.93C2852.58 2416.77 2863.41 2423.44 2863.41 2439.76V2519.86C2862.95 2528.78 2860.39 2537.46 2855.93 2545.19C2851.47 2552.93 2845.24 2559.49 2837.75 2564.36L2768.63 2604.26C2753.8 2612.42 2742.97 2605.89 2742.97 2589.42V2509.62C2743.34 2500.7 2745.82 2491.99 2750.2 2484.2C2754.59 2476.42 2760.75 2469.78 2768.18 2464.83V2464.83Z"
        fill="#384B78" />
    <path opacity="0.2"
        d="M2768.18 2464.83L2837.75 2424.93C2852.58 2416.77 2863.41 2423.44 2863.41 2439.76V2519.86C2862.95 2528.78 2860.39 2537.46 2855.93 2545.19C2851.47 2552.93 2845.24 2559.49 2837.75 2564.36L2768.63 2604.26C2753.8 2612.42 2742.97 2605.89 2742.97 2589.42V2509.62C2743.34 2500.7 2745.82 2491.99 2750.2 2484.2C2754.59 2476.42 2760.75 2469.78 2768.18 2464.83V2464.83Z"
        fill="white" />
    <path
        d="M2955.38 2391.55L3373.07 2150.37C3390.87 2140.13 3405.26 2147.4 3405.26 2166.53C3404.48 2177.34 3401.15 2187.81 3395.56 2197.09C3389.97 2206.37 3382.26 2214.19 3373.07 2219.93L2955.38 2460.52C2937.58 2470.76 2923.19 2463.49 2923.19 2444.36C2924.06 2433.65 2927.43 2423.3 2933.02 2414.13C2938.61 2404.97 2946.26 2397.23 2955.38 2391.55V2391.55Z"
        fill="#384B78" />
    <path opacity="0.8"
        d="M2955.38 2391.55L3373.07 2150.37C3390.87 2140.13 3405.26 2147.4 3405.26 2166.53C3404.48 2177.34 3401.15 2187.81 3395.56 2197.09C3389.97 2206.37 3382.26 2214.19 3373.07 2219.93L2955.38 2460.52C2937.58 2470.76 2923.19 2463.49 2923.19 2444.36C2924.06 2433.65 2927.43 2423.3 2933.02 2414.13C2938.61 2404.97 2946.26 2397.23 2955.38 2391.55V2391.55Z"
        fill="white" />
    <path
        d="M2768.18 3230.21L2837.75 3190.31C2852.58 3182 2863.41 3188.68 2863.41 3205.14V3284.94C2862.94 3293.86 2860.37 3302.53 2855.91 3310.27C2851.45 3318 2845.23 3324.57 2837.75 3329.44L2768.63 3369.34C2753.8 3377.5 2742.97 3370.82 2742.97 3354.51V3274.71C2743.38 3265.83 2745.87 3257.17 2750.25 3249.44C2754.64 3241.71 2760.78 3235.12 2768.18 3230.21V3230.21Z"
        fill="#384B78" />
    <path opacity="0.2"
        d="M2768.18 3230.21L2837.75 3190.31C2852.58 3182 2863.41 3188.68 2863.41 3205.14V3284.94C2862.94 3293.86 2860.37 3302.53 2855.91 3310.27C2851.45 3318 2845.23 3324.57 2837.75 3329.44L2768.63 3369.34C2753.8 3377.5 2742.97 3370.82 2742.97 3354.51V3274.71C2743.38 3265.83 2745.87 3257.17 2750.25 3249.44C2754.64 3241.71 2760.78 3235.12 2768.18 3230.21V3230.21Z"
        fill="white" />
    <path
        d="M2955.38 3157.68L3373.07 2916.34C3390.87 2906.11 3405.26 2913.38 3405.26 2932.66C3404.46 2943.46 3401.14 2953.93 3395.54 2963.2C3389.95 2972.48 3382.25 2980.31 3373.07 2986.06L2955.38 3227.24C2937.58 3237.48 2923.19 3230.21 2923.19 3210.93C2923.99 3200.15 2927.33 3189.71 2932.92 3180.46C2938.51 3171.2 2946.21 3163.4 2955.38 3157.68V3157.68Z"
        fill="#384B78" />
    <path opacity="0.8"
        d="M2955.38 3157.68L3373.07 2916.34C3390.87 2906.11 3405.26 2913.38 3405.26 2932.66C3404.46 2943.46 3401.14 2953.93 3395.54 2963.2C3389.95 2972.48 3382.25 2980.31 3373.07 2986.06L2955.38 3227.24C2937.58 3237.48 2923.19 3230.21 2923.19 3210.93C2923.99 3200.15 2927.33 3189.71 2932.92 3180.46C2938.51 3171.2 2946.21 3163.4 2955.38 3157.68V3157.68Z"
        fill="white" />
    <path
        d="M2866.53 3903.92L2935.65 3864.02C2950.48 3855.86 2961.46 3862.54 2961.46 3878.85V3958.66C2960.97 3967.58 2958.38 3976.27 2953.89 3984C2949.41 3991.74 2943.16 3998.3 2935.65 4003.15L2866.53 4043.05C2852.43 4051.36 2840.87 4044.69 2840.87 4028.22V3948.42C2841.38 3939.52 2843.97 3930.86 2848.43 3923.13C2852.88 3915.41 2859.08 3908.83 2866.53 3903.92V3903.92Z"
        fill="#384B78" />
    <path
        d="M2758.54 4175.07L3043.78 4010.42C3052.68 4005.38 3059.8 4008.94 3059.8 4018.58C3059.42 4023.98 3057.77 4029.21 3054.98 4033.85C3052.2 4038.48 3048.36 4042.4 3043.78 4045.28L2758.54 4209.93C2749.64 4214.97 2742.52 4211.41 2742.52 4201.77C2742.91 4196.37 2744.56 4191.14 2747.34 4186.5C2750.12 4181.86 2753.96 4177.95 2758.54 4175.07V4175.07Z"
        fill="#E0E0E0" />
    <path
        d="M3250.26 3682.32L3319.38 3642.42C3333.47 3634.26 3345.04 3640.93 3345.04 3657.25V3737.05C3344.56 3745.96 3341.98 3754.63 3337.52 3762.37C3333.07 3770.1 3326.85 3776.67 3319.38 3781.55L3250.26 3821.45C3235.42 3829.61 3224.45 3823.08 3224.45 3806.62V3726.82C3224.94 3717.89 3227.54 3709.21 3232.03 3701.48C3236.51 3693.74 3242.76 3687.18 3250.26 3682.32V3682.32Z"
        fill="#384B78" />
    <path
        d="M3142.12 3953.46L3427.36 3788.82C3436.26 3783.62 3443.38 3787.33 3443.38 3796.97C3443 3802.35 3441.35 3807.56 3438.56 3812.17C3435.78 3816.79 3431.94 3820.68 3427.36 3823.53L3142.12 3988.32C3133.22 3993.51 3126.1 3989.8 3126.1 3980.31C3126.45 3974.88 3128.09 3969.62 3130.87 3964.95C3133.66 3960.28 3137.51 3956.35 3142.12 3953.46Z"
        fill="#E0E0E0" />
    <path
        d="M3633.84 3460.71L3702.96 3420.81C3717.05 3412.51 3728.62 3419.18 3728.62 3435.64V3515.45C3728.11 3524.35 3725.53 3533.02 3721.07 3540.74C3716.62 3548.47 3710.41 3555.05 3702.96 3559.95L3633.84 3599.85C3619 3608 3608.17 3601.33 3608.17 3585.01V3505.21C3608.63 3496.29 3611.2 3487.61 3615.66 3479.88C3620.12 3472.14 3626.35 3465.58 3633.84 3460.71V3460.71Z"
        fill="#384B78" />
    <path opacity="0.2"
        d="M2866.53 3903.92L2935.65 3864.02C2950.48 3855.86 2961.46 3862.54 2961.46 3878.85V3958.66C2960.97 3967.58 2958.38 3976.27 2953.89 3984C2949.41 3991.74 2943.16 3998.3 2935.65 4003.15L2866.53 4043.05C2852.43 4051.36 2840.87 4044.69 2840.87 4028.22V3948.42C2841.38 3939.52 2843.97 3930.86 2848.43 3923.13C2852.88 3915.41 2859.08 3908.83 2866.53 3903.92V3903.92Z"
        fill="white" />
    <path opacity="0.2"
        d="M3250.26 3682.32L3319.38 3642.42C3333.47 3634.26 3345.04 3640.93 3345.04 3657.25V3737.05C3344.56 3745.96 3341.98 3754.63 3337.52 3762.37C3333.07 3770.1 3326.85 3776.67 3319.38 3781.55L3250.26 3821.45C3235.42 3829.61 3224.45 3823.08 3224.45 3806.62V3726.82C3224.94 3717.89 3227.54 3709.21 3232.03 3701.48C3236.51 3693.74 3242.76 3687.18 3250.26 3682.32V3682.32Z"
        fill="white" />
    <path opacity="0.2"
        d="M3633.84 3460.71L3702.96 3420.81C3717.05 3412.51 3728.62 3419.18 3728.62 3435.64V3515.45C3728.11 3524.35 3725.53 3533.02 3721.07 3540.74C3716.62 3548.47 3710.41 3555.05 3702.96 3559.95L3633.84 3599.85C3619 3608 3608.17 3601.33 3608.17 3585.01V3505.21C3608.63 3496.29 3611.2 3487.61 3615.66 3479.88C3620.12 3472.14 3626.35 3465.58 3633.84 3460.71V3460.71Z"
        fill="white" />
    <path
        d="M3525.7 3731.86L3810.94 3567.21C3819.84 3562.02 3826.96 3565.73 3826.96 3575.22C3826.59 3580.62 3824.94 3585.86 3822.16 3590.5C3819.37 3595.14 3815.53 3599.06 3810.94 3601.92L3525.7 3766.57C3516.95 3771.76 3509.68 3768.05 3509.68 3758.41C3510.1 3753.04 3511.77 3747.85 3514.55 3743.24C3517.33 3738.63 3521.15 3734.73 3525.7 3731.86V3731.86Z"
        fill="#E0E0E0" />
    <path
        d="M2112.27 1256.98C1945.84 1350.72 1811.01 1584.34 1811.01 1778.65C1811.01 1972.96 1945.84 2052.77 2112.27 1956.65C2278.7 1860.53 2413.53 1627.06 2413.53 1434.82C2413.53 1242.59 2278.55 1163.08 2112.27 1256.98Z"
        fill="#FAFAFA" />
    <path
        d="M2258.23 1855.78L2017.04 1920.45C2012.89 1921.81 2008.46 1922.11 2004.17 1921.32C1999.87 1920.53 1995.84 1918.68 1992.44 1915.94C1989.03 1913.2 1986.37 1909.66 1984.68 1905.63C1983 1901.6 1982.34 1897.21 1982.78 1892.86V1482.29C1983.63 1448.3 1994.98 1415.42 2015.27 1388.14C2035.56 1360.87 2063.8 1340.54 2096.1 1329.95L2178.57 1307.85C2241.32 1291.09 2292.19 1332.03 2292.19 1399.22V1809.95C2291.93 1820.15 2288.52 1830.02 2282.44 1838.23C2276.37 1846.43 2267.91 1852.56 2258.23 1855.78V1855.78Z"
        fill="#37474F" />
    <path
        d="M2269.8 1961.99L2244.43 1850C2244.43 1850 2244.43 1698.85 2222.92 1684.91C2201.42 1670.96 2195.19 1668.29 2195.19 1668.29C2222.78 1658.8 2280.92 1651.68 2299.02 1704.78C2316.37 1754.92 2342.33 1878.48 2354.64 1939.29L2269.8 1961.99Z"
        fill="#F28F8F" />
    <path
        d="M2267.72 1962.58L2181.69 1669.63C2219.81 1654.8 2268.76 1642.49 2292.49 1681.79C2313.85 1717.1 2347.97 1902.06 2354.64 1939.29L2267.72 1962.58Z"
        fill="#384B78" />
    <g opacity="0.4">
        <path
            d="M2267.72 1962.58L2181.69 1669.63C2219.81 1654.8 2268.76 1642.49 2292.49 1681.79C2313.85 1717.1 2347.97 1902.06 2354.64 1939.29L2267.72 1962.58Z"
            fill="black" />
    </g>
    <path
        d="M2279.29 1959.47L2194.74 1982.16C2198.15 1957.88 2206.15 1934.47 2218.33 1913.19C2235.25 1888.8 2259.6 1870.54 2287.74 1861.12C2281.65 1893.54 2278.82 1926.49 2279.29 1959.47Z"
        fill="#384B78" />
    <path
        d="M2279.29 1959.47L2194.74 1982.16C2198.15 1957.88 2206.15 1934.47 2218.33 1913.19C2235.25 1888.8 2259.6 1870.54 2287.74 1861.12C2281.65 1893.54 2278.82 1926.49 2279.29 1959.47Z"
        fill="#384B78" />
    <g opacity="0.7">
        <path
            d="M2279.29 1959.47L2194.74 1982.16C2198.15 1957.88 2206.15 1934.47 2218.33 1913.19C2235.25 1888.8 2259.6 1870.54 2287.74 1861.12C2281.65 1893.54 2278.82 1926.49 2279.29 1959.47Z"
            fill="black" />
    </g>
    <path
        d="M2261.19 1964.36L2023.87 2027.7L1997.76 1946.86C1997.76 1946.86 2067.03 1784.73 1981.44 1743.05C1992.27 1734.9 2083.49 1699.3 2083.49 1699.3L2181.54 1669.63C2200.23 1664.59 2275.73 1698.11 2294.86 1772.42C2301.69 1798.68 2299.31 1822.26 2260.9 1959.02C2261.34 1960.8 2261.19 1962.58 2261.19 1964.36Z"
        fill="#384B78" />
    <path
        d="M2241.61 1358.29C2257.93 1364.22 2278.1 1402.78 2276.17 1495.79C2274.54 1574.7 2250.81 1599.62 2238.94 1609.11C2221.17 1618.01 2201.56 1622.63 2181.69 1622.61V1669.63C2181.69 1669.63 2212.54 1699.29 2210.61 1721.84C2208.68 1744.39 2166.11 1760.41 2137.34 1747.06C2116.32 1735.21 2098.14 1718.91 2084.09 1699.29V1591.01C2081.92 1593.51 2079.28 1595.55 2076.32 1597.02C2073.35 1598.48 2070.13 1599.34 2066.83 1599.55C2063.53 1599.76 2060.22 1599.31 2057.1 1598.22C2053.98 1597.14 2051.1 1595.45 2048.64 1593.24C2044 1590.07 2040.06 1586 2037.02 1581.28C2033.99 1576.55 2031.94 1571.27 2030.98 1565.74C2030.03 1560.2 2030.19 1554.54 2031.47 1549.07C2032.74 1543.6 2035.1 1538.45 2038.4 1533.91C2053.24 1514.48 2079.19 1511.66 2089.28 1531.09C2101.84 1500.61 2124.31 1475.27 2153.06 1459.15C2199.93 1430.67 2225.45 1405.31 2241.61 1358.29Z"
        fill="#FFA8A7" />
    <path
        d="M2194.59 1498.01C2194.66 1500.82 2193.85 1503.59 2192.29 1505.92C2190.72 1508.26 2188.47 1510.06 2185.84 1511.07C2184.73 1511.45 2183.53 1511.56 2182.37 1511.38C2181.2 1511.2 2180.1 1510.74 2179.15 1510.04C2178.2 1509.34 2177.43 1508.42 2176.92 1507.36C2176.41 1506.3 2176.16 1505.12 2176.2 1503.95C2176.14 1501.13 2176.94 1498.37 2178.51 1496.03C2180.08 1493.7 2182.33 1491.9 2184.95 1490.89C2186.07 1490.51 2187.26 1490.4 2188.43 1490.58C2189.59 1490.75 2190.7 1491.21 2191.65 1491.91C2192.6 1492.61 2193.36 1493.54 2193.87 1494.6C2194.39 1495.66 2194.63 1496.83 2194.59 1498.01V1498.01Z"
        fill="#37474F" />
    <path
        d="M2196.97 1563.87L2218.33 1565.35C2217.7 1568.61 2216 1571.56 2213.5 1573.74C2211 1575.92 2207.84 1577.2 2204.53 1577.37C2198.6 1576.92 2195.19 1570.55 2196.97 1563.87Z"
        fill="#F28F8F" />
    <path
        d="M2269.94 1447.58L2251.4 1438.83C2252.51 1435.96 2254.63 1433.6 2257.37 1432.2C2260.11 1430.81 2263.27 1430.47 2266.24 1431.26C2267.56 1432.08 2268.71 1433.15 2269.62 1434.42C2270.53 1435.69 2271.17 1437.12 2271.52 1438.64C2271.86 1440.16 2271.9 1441.73 2271.63 1443.27C2271.36 1444.8 2270.79 1446.27 2269.94 1447.58V1447.58Z"
        fill="#37474F" />
    <path
        d="M2167.89 1482.29L2186.43 1463.45C2185.45 1462.45 2184.27 1461.67 2182.96 1461.16C2181.65 1460.65 2180.25 1460.42 2178.85 1460.49C2177.45 1460.56 2176.08 1460.93 2174.83 1461.57C2173.58 1462.2 2172.48 1463.1 2171.6 1464.19C2169.03 1466.35 2167.26 1469.31 2166.59 1472.59C2165.91 1475.88 2166.37 1479.3 2167.89 1482.29V1482.29Z"
        fill="#37474F" />
    <path
        d="M2265.64 1471.9C2265.73 1474.72 2264.93 1477.5 2263.36 1479.84C2261.79 1482.18 2259.53 1483.97 2256.89 1484.96C2255.76 1485.35 2254.56 1485.46 2253.38 1485.27C2252.2 1485.09 2251.09 1484.61 2250.13 1483.9C2249.18 1483.18 2248.42 1482.24 2247.92 1481.15C2247.41 1480.07 2247.18 1478.88 2247.25 1477.69C2247.21 1474.88 2248.02 1472.13 2249.59 1469.79C2251.15 1467.46 2253.39 1465.66 2256 1464.64C2257.13 1464.25 2258.34 1464.14 2259.51 1464.32C2260.69 1464.51 2261.81 1464.98 2262.76 1465.7C2263.71 1466.42 2264.48 1467.36 2264.98 1468.44C2265.48 1469.52 2265.71 1470.71 2265.64 1471.9Z"
        fill="#37474F" />
    <path d="M2222.33 1477.84L2223.67 1536.73L2252.89 1519.22L2222.33 1477.84Z" fill="#F28F8F" />
    <path
        d="M2181.69 1622.61C2158.25 1625.58 2109.9 1623.65 2102.33 1605.25C2105.07 1614.29 2111.11 1621.96 2119.24 1626.76C2134.07 1636.25 2181.69 1638.33 2181.69 1638.33V1622.61Z"
        fill="#F28F8F" />
    <path d="M2025.2 2027.55L2015.26 1992.25L2041.37 2023.25L2025.2 2027.55Z" fill="#384B78" />
    <path
        d="M2005.77 2032.74C1995.12 1982 1980.69 1932.12 1962.61 1883.52C1937.69 1815.14 1965.57 1756.11 1982.33 1743.05C1999.1 1730 2084.38 1699.3 2084.38 1699.3C2115.24 1787.11 2123.69 1904.73 2124.43 2001L2005.77 2032.74Z"
        fill="#384B78" />
    <path opacity="0.4"
        d="M2005.77 2032.74C1995.12 1982 1980.69 1932.12 1962.61 1883.52C1937.69 1815.14 1965.57 1756.11 1982.33 1743.05C1999.1 1730 2084.38 1699.3 2084.38 1699.3C2115.24 1787.11 2123.69 1904.73 2124.43 2001L2005.77 2032.74Z"
        fill="black" />
    <path
        d="M1963.64 2044.02L1878.95 2066.71C1876.58 2065.12 1874.35 2063.33 1872.27 2061.37C1872.27 2061.37 1912.32 1906.81 1925.08 1855.49C1937.83 1804.17 1947.62 1768.86 1982.04 1743.05C2043.89 1783.25 2015.26 1894.94 2015.26 1894.94L1963.64 2044.02Z"
        fill="#384B78" />
    <path opacity="0.4"
        d="M1963.64 2044.02L1878.95 2066.71C1876.58 2065.12 1874.35 2063.33 1872.27 2061.37C1872.27 2061.37 1912.32 1906.81 1925.08 1855.49C1937.83 1804.17 1947.62 1768.86 1982.04 1743.05C2043.89 1783.25 2015.26 1894.94 2015.26 1894.94L1963.64 2044.02Z"
        fill="black" />
    <path
        d="M730.431 1056.29V762.446C729.541 705.487 766.623 648.381 841.826 605.068C990.156 519.186 1231.34 519.186 1379.97 605.068C1455.17 648.381 1492.25 705.487 1491.36 762.446V1055.25C1491.36 1111.91 1454.87 1213.22 1379.97 1256.38C1231.64 1342.27 990.453 1342.27 841.826 1256.38C767.661 1213.66 730.579 1113.1 730.431 1056.88V1056.29Z"
        fill="#EBEBEB" />
    <path d="M1110.9 397.852L1738.78 760.369L1110.9 1122.89L483.017 760.369L1110.9 397.852Z" fill="#F5F5F5" />
    <path
        d="M796.733 941.48L1106 764.968C1107.28 764.237 1108.68 763.765 1110.14 763.579C1111.6 763.392 1113.08 763.495 1114.5 763.88C1115.92 764.266 1117.25 764.927 1118.41 765.827C1119.57 766.726 1120.55 767.845 1121.28 769.121C1122.01 770.397 1122.48 771.804 1122.67 773.263C1122.85 774.721 1122.75 776.202 1122.37 777.62C1121.98 779.039 1121.32 780.368 1120.42 781.531C1119.52 782.694 1118.4 783.669 1117.13 784.399L818.834 954.236L796.733 941.48Z"
        fill="#E0E0E0" />
    <path d="M1738.78 760.367V786.325L1110.9 1148.69V1122.88L1738.78 760.367Z" fill="#E6E6E6" />
    <path d="M483.017 760.367V786.325L1110.9 1148.69V1122.88L483.017 760.367Z" fill="#F0F0F0" />
    <path
        d="M781.159 958.39L800.294 969.367C803.187 964.642 807.215 960.716 812.012 957.945L818.687 954.089L796.882 941.629C790.442 945.956 785.066 951.686 781.159 958.39V958.39Z"
        fill="#E0E0E0" />
    <path d="M1492.1 928.723L1110.9 1187.56L730.728 929.316L1110.9 1148.7L1492.1 928.723Z" fill="#E0E0E0" />
    <path
        d="M756.684 1263.65C762.005 1266.4 767.904 1267.83 773.891 1267.83C779.877 1267.83 785.777 1266.4 791.097 1263.65L819.428 1446.54C819.428 1481.1 729.688 1481.1 729.688 1446.54L756.684 1263.65Z"
        fill="#F5F5F5" />
    <path d="M755.054 1368.07L749.417 1468.34C747.567 1467.78 745.778 1467.04 744.077 1466.12L755.054 1368.07Z"
        fill="#EBEBEB" />
    <path d="M797.476 1469.09L785.609 1305.93L803.261 1466.72C801.381 1467.62 799.449 1468.41 797.476 1469.09V1469.09Z"
        fill="#EBEBEB" />
    <path d="M777.303 1472.35H771.666L774.633 1342.86L777.303 1472.35Z" fill="#EBEBEB" />
    <path
        d="M773.743 1278.93C780.318 1278.77 786.685 1276.59 791.987 1272.7C794.242 1271.04 795.774 1268.57 796.27 1265.82C796.767 1263.06 796.19 1260.21 794.657 1257.87C793.038 1255.56 790.583 1253.97 787.813 1253.45C785.043 1252.92 782.177 1253.5 779.824 1255.05C778.413 1256.42 776.524 1257.18 774.559 1257.18C772.593 1257.18 770.704 1256.42 769.293 1255.05C768.139 1254.02 766.784 1253.25 765.315 1252.77C763.845 1252.3 762.292 1252.13 760.756 1252.29C759.219 1252.45 757.733 1252.93 756.391 1253.69C755.048 1254.46 753.88 1255.49 752.96 1256.73C752.04 1257.97 751.388 1259.39 751.046 1260.9C750.704 1262.4 750.68 1263.96 750.975 1265.48C751.269 1267 751.876 1268.44 752.757 1269.7C753.638 1270.97 754.774 1272.04 756.092 1272.85C761.197 1276.67 767.369 1278.8 773.743 1278.93V1278.93Z"
        fill="#E0E0E0" />
    <path
        d="M774.484 1250.45C775.938 1250.47 777.381 1250.2 778.73 1249.66C780.079 1249.12 781.306 1248.31 782.341 1247.29C783.376 1246.27 784.198 1245.05 784.759 1243.71C785.32 1242.37 785.609 1240.93 785.609 1239.47V980.194C785.623 974.365 787.165 968.641 790.079 963.592C792.994 958.543 797.18 954.346 802.222 951.419L1117.13 771.94C1119.63 770.508 1121.46 768.149 1122.24 765.374C1123.02 762.599 1122.67 759.629 1121.28 757.107C1120.58 755.854 1119.65 754.751 1118.52 753.863C1117.4 752.975 1116.11 752.319 1114.73 751.932C1113.35 751.546 1111.91 751.437 1110.49 751.613C1109.06 751.788 1107.69 752.244 1106.45 752.953L790.8 932.729C782.386 937.587 775.396 944.569 770.528 952.977C765.66 961.385 763.086 970.924 763.062 980.639V1239.92C763.12 1241.36 763.461 1242.78 764.066 1244.09C764.671 1245.4 765.529 1246.58 766.59 1247.55C767.65 1248.53 768.894 1249.29 770.248 1249.79C771.603 1250.29 773.042 1250.51 774.484 1250.45V1250.45Z"
        fill="#FAFAFA" />
    <path
        d="M798.811 1239.47C798.84 1234.66 797.439 1229.94 794.784 1225.92C792.128 1221.9 788.34 1218.76 783.897 1216.89C779.455 1215.03 774.559 1214.53 769.831 1215.45C765.102 1216.37 760.754 1218.68 757.337 1222.07C753.92 1225.47 751.588 1229.8 750.638 1234.53C749.687 1239.25 750.16 1244.15 751.997 1248.6C753.833 1253.05 756.951 1256.86 760.955 1259.54C764.958 1262.22 769.667 1263.65 774.485 1263.65C777.672 1263.67 780.832 1263.06 783.783 1261.85C786.733 1260.65 789.416 1258.87 791.677 1256.62C793.938 1254.38 795.732 1251.7 796.956 1248.76C798.181 1245.82 798.811 1242.66 798.811 1239.47V1239.47Z"
        fill="#F5F5F5" />
    <path
        d="M750.455 1240.81C751.468 1243.32 753.01 1245.58 754.976 1247.44C756.942 1249.3 759.286 1250.71 761.848 1251.59C764.409 1252.46 767.129 1252.77 769.822 1252.5C772.514 1252.22 775.116 1251.38 777.451 1250.01C780.43 1248.21 782.894 1245.68 784.605 1242.65C786.316 1239.62 787.215 1236.2 787.215 1232.73C787.215 1229.25 786.316 1225.83 784.605 1222.8C782.894 1219.77 780.43 1217.24 777.451 1215.45C781.988 1216.07 786.255 1217.97 789.753 1220.93C793.252 1223.89 795.838 1227.78 797.212 1232.15C798.585 1236.52 798.689 1241.19 797.511 1245.61C796.333 1250.04 793.921 1254.04 790.557 1257.15C787.194 1260.26 783.016 1262.35 778.51 1263.18C774.005 1264 769.357 1263.53 765.108 1261.82C760.86 1260.11 757.185 1257.22 754.512 1253.51C751.839 1249.79 750.278 1245.38 750.01 1240.81H750.455Z"
        fill="#EBEBEB" />
    <path d="M5071.74 1096.34L4957.08 1030.33L5020.13 1016.98L5082.87 1060.74L5071.74 1096.34Z" fill="#E0E0E0" />
    <path
        d="M4871.05 505.539C4871.05 327.543 4762.03 244.924 4628.09 322.204L4430.22 436.417C4296.72 513.697 4187.4 721.952 4187.4 900.541C4187.4 907.809 4187.4 915.374 4187.4 921.752C4187.4 925.757 4187.4 929.168 4187.4 933.025C4187.4 936.882 4188.14 939.997 4188.44 943.408C4188.74 946.82 4189.33 951.27 4189.92 955.126C4192.91 976.205 4198.18 996.895 4205.65 1016.83C4208.76 1024.25 4212.03 1031.66 4215.59 1037.89C4217.23 1041.33 4219.11 1044.66 4221.22 1047.83L4223.15 1050.95C4226.45 1056.26 4230.28 1061.23 4234.57 1065.78C4236.94 1068.45 4239.17 1071.27 4241.69 1073.79L4249.4 1081.21C4252.07 1083.28 4254.6 1085.8 4257.41 1087.88C4260.08 1090.03 4262.9 1091.96 4265.87 1093.67L4274.62 1098.71C4285.96 1104.83 4298.24 1108.99 4310.96 1111.02C4311.94 1110.78 4312.95 1110.78 4313.93 1111.02C4317.34 1111.02 4320.45 1111.76 4323.87 1111.76C4327.47 1112.06 4331.09 1112.06 4334.69 1111.76C4344.23 1111.87 4353.74 1110.82 4363.02 1108.65C4368.58 1107.54 4374.08 1106.16 4379.49 1104.49C4396.82 1099.18 4413.45 1091.81 4429.03 1082.54L4626.9 968.328C4640.46 960.453 4653.45 951.63 4665.77 941.925C4665.77 939.552 4665.77 937.475 4665.77 935.25C4665.77 933.025 4665.77 928.278 4665.77 925.609C4665.77 919.675 4665.77 913.594 4665.77 907.512C4665.32 755.771 4756.69 576.737 4871.05 505.539Z"
        fill="#E0E0E0" />
    <path
        d="M4904.43 377.233L4789.47 311.078C4790.21 311.078 4801.19 391.028 4801.19 391.028L4886.48 401.114L4904.43 377.233Z"
        fill="#E0E0E0" />
    <path d="M4373.26 1154.63L4267.06 1094.41L4330.99 1066.97L4373.26 1154.63Z" fill="#E0E0E0" />
    <path
        d="M4430.22 1084.32C4429.46 1128.28 4415.34 1170.96 4389.72 1206.69C4384.98 1212.92 4392.25 1218.41 4397.59 1215.59C4421.83 1203.01 4443.31 1185.72 4460.77 1164.72C4494.32 1125.07 4517.78 1077.89 4529.15 1027.21L4430.22 1084.32Z"
        fill="#E0E0E0" />
    <path
        d="M4390.91 1215.3L4505.87 1281.45C4505.87 1281.45 4570.39 1227.02 4570.39 1116.81L4445.64 1108.35C4445.64 1108.35 4442.68 1180.14 4390.91 1215.3Z"
        fill="#E0E0E0" />
    <path
        d="M4697.06 891.048C4697.06 896.585 4697.06 901.925 4697.06 907.067C4697.06 910.034 4697.06 912.556 4697.06 915.374C4697.06 918.192 4697.06 920.565 4697.95 923.235C4698.84 925.905 4697.95 929.169 4698.99 932.135C4700.71 945.275 4703.79 958.2 4708.19 970.701C4708.82 972.978 4709.62 975.209 4710.56 977.376C4711.64 980.355 4712.88 983.276 4714.27 986.127C4715.43 988.883 4716.76 991.559 4718.27 994.137C4719.45 996.721 4720.84 999.202 4722.43 1001.55L4723.91 1003.93C4726.53 1008.01 4729.4 1011.93 4732.51 1015.64C4734.13 1017.81 4735.92 1019.84 4737.85 1021.73L4743.49 1027.21C4745.41 1029.02 4747.44 1030.7 4749.57 1032.26C4751.6 1033.83 4753.73 1035.26 4755.95 1036.56C4758.18 1037.89 4760.25 1039.23 4762.62 1040.42L4769.45 1043.68L4776.57 1046.2C4780.91 1047.51 4785.32 1048.6 4789.77 1049.46H4791.99C4794.46 1049.69 4796.94 1049.69 4799.41 1049.46C4802.07 1049.77 4804.76 1049.77 4807.42 1049.46C4813.8 1049.46 4820.16 1048.82 4826.41 1047.54C4831.41 1046.69 4836.37 1045.55 4841.24 1044.12C4854.26 1040.13 4866.76 1034.61 4878.47 1027.66L5026.8 941.925C5040.03 934.289 5052.5 925.398 5064.03 915.374V915.374C5068.18 911.814 5072.34 907.957 5076.49 904.101C5083.97 897.135 5091.05 889.757 5097.7 882L5107.19 873.397C5109.72 870.43 5112.09 867.315 5114.61 864.2C5115.23 863.122 5115.97 862.125 5116.84 861.234C5126.71 848.175 5135.83 834.555 5144.13 820.443C5146.35 816.735 5148.43 812.878 5150.66 809.022C5152.88 805.165 5154.96 801.308 5157.03 797.304C5159.11 793.299 5161.04 789.294 5163.11 785.437L5168.75 773.274C5170.68 769.269 5172.46 764.968 5174.24 761.111C5177.35 753.991 5180.17 746.278 5182.69 739.455C5182.69 738.12 5183.73 736.785 5184.18 735.45C5185.81 731.297 5187.14 727.144 5188.48 722.99C5191.15 714.981 5193.52 706.971 5195.9 698.664C5201.12 679.169 5205.03 659.348 5207.61 639.332C5207.61 635.921 5208.36 632.658 5208.8 629.246C5209.25 625.834 5208.8 623.461 5209.54 620.494C5210.28 617.528 5209.54 614.561 5209.54 611.595C5209.54 606.057 5209.54 600.569 5209.54 595.13C5209.54 461.633 5127.81 399.187 5027.24 457.184L4878.92 543.066C4778.79 600.767 4697.06 756.958 4697.06 891.048Z"
        fill="#E0E0E0" />
    <path d="M5263.09 514.144L5149.02 448.582L5106.01 478.99L5239.06 559.533L5263.09 514.144Z" fill="#E0E0E0" />
    <path d="M4871.5 1102.57L4756.84 1036.56L4846.73 1009.71L4871.5 1102.57Z" fill="#E0E0E0" />
    <path
        d="M5005.29 956.312C5005.29 980.045 5034.96 1012.38 5068.93 1018.46C5073.52 1019.35 5072.34 1029.44 5066.85 1033.3C5046.61 1044.29 5023.25 1048.16 5000.55 1044.27C4985.8 1043.83 4971.43 1039.48 4958.92 1031.66C4946.41 1023.84 4936.21 1012.84 4929.35 999.773L5005.29 956.312Z"
        fill="#384B78" />
    <path
        d="M4742.9 388.211L4544.88 502.573C4411.38 579.852 4302.21 788.107 4302.21 966.548C4302.21 973.964 4302.21 981.381 4302.21 987.907C4302.21 991.912 4302.21 995.324 4302.21 999.18C4302.21 1003.04 4302.95 1006 4303.4 1009.42C4303.84 1012.83 4304.29 1017.57 4304.88 1021.28C4307.56 1042.28 4312.53 1062.92 4319.71 1082.84C4322.83 1090.4 4326.09 1097.67 4329.65 1104.05C4331.29 1107.45 4333.17 1110.72 4335.29 1113.84C4335.91 1114.92 4336.6 1115.96 4337.36 1116.95C4340.59 1122.56 4344.36 1127.83 4348.64 1132.68C4351.01 1135.35 4353.38 1138.31 4355.91 1140.69L4363.47 1148.1C4366.14 1150.18 4368.81 1152.7 4371.48 1154.78C4374.17 1156.89 4376.99 1158.82 4379.93 1160.56L4388.83 1165.61C4400.13 1171.7 4412.36 1175.86 4425.03 1177.92C4425.99 1177.59 4427.03 1177.59 4427.99 1177.92C4431.4 1177.92 4434.67 1177.92 4437.93 1177.92C4441.54 1178.14 4445.15 1178.14 4448.76 1177.92C4458.29 1177.96 4467.8 1176.91 4477.09 1174.8C4482.65 1173.7 4488.14 1172.31 4493.56 1170.65V1170.65C4510.85 1165.29 4527.47 1157.98 4543.1 1148.85V1148.85C4542.36 1192.78 4528.18 1235.44 4502.45 1271.07C4497.71 1277.45 4504.98 1282.93 4510.46 1280.12C4534.74 1267.52 4556.23 1250.17 4573.65 1229.09C4607.11 1189.44 4630.56 1142.34 4642.03 1091.74L4627.2 1099.9L4740.38 1034.63C4751.33 1028.32 4761.88 1021.33 4771.97 1013.72C4771.1 1009.95 4770.45 1006.14 4770.04 1002.3C4770.04 999.774 4769.15 996.065 4768.85 992.209C4768.32 988.919 4767.97 985.601 4767.82 982.271V980.491C4767.67 978.021 4767.67 975.544 4767.82 973.074C4767.82 967.438 4767.82 961.505 4767.82 955.571C4767.82 805.462 4856.81 636.218 4971.32 569.914L4983.93 562.498C4982.75 390.88 4874.91 311.969 4742.9 388.211Z"
        fill="#F0F0F0" />
    <path
        d="M5142.65 522.892L4994.32 608.627C4893.9 666.772 4812.02 822.963 4812.02 957.053C4812.02 962.541 4812.02 967.881 4812.02 973.073C4812.02 978.264 4812.02 978.561 4812.02 981.379C4812.02 984.197 4812.02 986.571 4812.76 989.241C4813 992.177 4813.4 995.098 4813.95 997.992C4815.58 1011.2 4818.66 1024.18 4823.14 1036.71C4823.71 1039 4824.51 1041.24 4825.52 1043.38C4826.52 1046.32 4827.71 1049.19 4829.08 1051.98C4830.26 1054.77 4831.6 1057.5 4833.08 1060.14C4834.3 1062.73 4835.74 1065.21 4837.38 1067.56C4837.73 1068.4 4838.18 1069.2 4838.72 1069.93C4841.54 1074.09 4844.35 1077.94 4847.32 1081.65C4849.03 1083.78 4850.87 1085.81 4852.81 1087.73L4858.45 1093.22C4860.37 1095.02 4862.4 1096.71 4864.53 1098.26C4866.48 1099.86 4868.57 1101.3 4870.76 1102.56C4872.98 1103.9 4875.06 1105.23 4877.43 1106.42L4884.26 1109.68L4891.38 1112.21C4895.72 1113.52 4900.12 1114.61 4904.58 1115.47H4906.8C4909.27 1115.7 4911.75 1115.7 4914.22 1115.47C4916.92 1115.84 4919.67 1115.84 4922.38 1115.47C4928.75 1115.51 4935.11 1114.91 4941.36 1113.69C4946.37 1112.83 4951.32 1111.69 4956.2 1110.28C4969.24 1106.34 4981.74 1100.81 4993.43 1093.81L5043.56 1065.04C5050.52 1077.96 5060.76 1088.82 5073.27 1096.5C5085.77 1104.19 5100.09 1108.43 5114.76 1108.79C5137.48 1112.62 5160.83 1108.7 5181.06 1097.67C5186.4 1094.26 5187.74 1084.17 5182.99 1082.84C5149.02 1076.76 5119.51 1044.42 5119.51 1020.69L5142.05 1007.63C5155.26 999.962 5167.73 991.073 5179.28 981.082V981.082C5183.44 977.523 5187.59 973.666 5191.59 969.809C5199.12 962.846 5206.25 955.467 5212.95 947.708C5215.62 944.593 5218.29 941.627 5220.96 938.067C5223.63 934.507 5225.86 932.134 5228.38 929.019L5230.6 926.052C5240.48 912.993 5249.59 899.374 5257.9 885.262L5264.57 873.84C5266.8 869.983 5268.87 866.127 5270.95 862.122C5273.03 858.117 5274.81 854.112 5276.88 850.256L5282.67 838.093C5284.6 833.939 5286.23 829.786 5288.01 825.93C5291.12 818.81 5294.09 811.097 5296.61 804.273L5297.95 800.269C5299.58 796.115 5301.06 791.962 5302.25 787.809C5305.07 779.651 5307.29 771.789 5309.81 763.483C5315.03 743.988 5318.95 724.166 5321.53 704.151C5321.53 700.739 5322.27 697.476 5322.57 694.065C5322.87 690.653 5322.57 688.131 5323.31 685.313C5324.05 682.495 5323.31 679.38 5323.31 676.413C5323.31 670.925 5323.31 665.289 5323.31 659.8C5324.94 526.749 5243.06 464.895 5142.65 522.892Z"
        fill="#F0F0F0" />
    <path
        d="M3950.96 2485C3894.9 2467.5 3837.34 2512.89 3799.67 2604.55C3761.99 2696.22 3682.93 2929.4 3671.22 2991.55C3659.5 3053.7 3924.71 3188.97 3917.29 3185.41C3909.88 3181.85 3950.96 2485 3950.96 2485Z"
        fill="#263238" />
    <path
        d="M3827.7 4642.6C3819.69 4645.57 3817.76 4660.7 3816.58 4690.66C3815.69 4713.36 3810.79 4752.96 3837.34 4760.82C3863.9 4768.68 3902.91 4764.68 3919.96 4743.32C3941.17 4716.62 3955.56 4693.18 3985.82 4660.55C4012.22 4632.37 4040.56 4605.97 4051.24 4566.36C4060.88 4530.47 4052.87 4515.04 4028.39 4504.66C3994.87 4489.82 3942.06 4536.99 3915.81 4544.41C3893.12 4550.79 3835.56 4639.64 3827.7 4642.6Z"
        fill="#263238" />
    <path
        d="M3827.7 4614.87V4651.65C3841.51 4660.48 3857.47 4665.39 3873.85 4665.83C3890.24 4666.27 3906.44 4662.24 3920.71 4654.17C3922.34 4650.61 3930.35 4601.52 3930.35 4601.52L3827.7 4614.87Z"
        fill="#FFA8A7" />
    <path
        d="M4125.7 4854.71C4125.7 4854.71 4115.17 4886.75 4109.53 4914.05C4104.93 4936.3 4098.55 4973.38 4106.27 4990.29C4113.98 5007.2 4144.53 5017.88 4191.56 5017.43C4222.11 5017.43 4269.73 5038.05 4302.21 5056.15C4334.69 5074.24 4406.04 5082.4 4441.49 5078.25C4483.32 5073.35 4526.78 5048.58 4533.6 5031.67C4540.43 5014.76 4531.38 4996.22 4432.59 4954.1C4431.7 4954.1 4295.24 4909.6 4247.33 4856.64L4125.7 4854.71Z"
        fill="#263238" />
    <path
        d="M4125.7 4814.96C4125.7 4814.96 4125.7 4842.25 4125.7 4857.83C4125.7 4873.4 4144.09 4896.69 4191.85 4895.06C4225.37 4893.87 4248.66 4884.82 4247.33 4857.23V4817.33L4125.7 4814.96Z"
        fill="#FFA8A7" />
    <path
        d="M3803.67 4126.41C3811.87 4061.22 3826.43 3996.98 3847.13 3934.62C3847.13 3934.62 3834.08 3769.24 3827.7 3612.45C3820.88 3443.06 3827.7 3230.06 3824.88 3187.93C3824.88 3187.93 4371.48 3077.28 4381.27 3273.07C4391.06 3468.87 4359.61 3967.26 4353.23 4053.29C4346.86 4139.32 4331.88 4215.41 4314.08 4354.84C4296.28 4494.27 4247.33 4817.33 4247.33 4817.33C4228.42 4826.97 4207.43 4831.79 4186.21 4831.38C4165 4830.96 4144.21 4825.33 4125.7 4814.96C4125.7 4814.96 4087.28 4423.37 4091.28 4324.14C4094.41 4250.43 4107.07 4177.44 4128.96 4106.98L4109.53 3805.13C4100.33 3664.66 4090.69 3597.47 4088.47 3536.21L4076.75 3530.28C4076.75 3530.28 4064.73 3772.65 4058.36 3858.68C4051.98 3944.71 4038.18 4027.18 4013.86 4186.93C3992.2 4325.47 3927.97 4618.72 3927.97 4618.72C3865.53 4652.54 3828.3 4614.42 3828.3 4614.42C3828.3 4614.42 3787.06 4246.56 3803.67 4126.41Z"
        fill="#455A64" />
    <path
        d="M4088.47 3536.66C4088.47 3536.66 3955.86 3471.24 3889.56 3412.36C3889.56 3412.36 3951.11 3499.13 4032.1 3537.69C4032.1 3537.69 4060.88 3838.65 4060.73 3832.72L4077.34 3536.06L4088.47 3536.66Z"
        fill="#37474F" />
    <path d="M4206.54 2423L4174.2 2600.99L4013.41 2589.27L4047.08 2387.4L4206.54 2423Z" fill="#FFA8A7" />
    <path
        d="M3843.57 2576.22C3859.44 2527.87 3920.85 2475.21 3982.26 2487.23C4073.59 2502.68 4163.6 2525.14 4251.48 2554.42C4307.7 2574.44 4358.87 2623.1 4363.62 2808.21L4392.1 3359.4L4324.01 3374.24L4300.28 3249.34L4289.3 3374.24C4218.11 3392.04 4094.55 3377.35 4013.41 3359.4C3844.32 3322.47 3823.99 3252.31 3823.99 3252.31C3823.99 3252.31 3821.77 2942.15 3826.81 2808.21C3831.56 2693.7 3832.6 2608.86 3843.57 2576.22Z"
        fill="#37474F" />
    <path
        d="M4325.5 2212.07C4325.5 2212.07 4364.51 2269.77 4359.46 2275.86C4350.45 2281.93 4340.39 2286.31 4329.8 2288.76L4325.5 2212.07Z"
        fill="#FFA8A7" />
    <path
        d="M4206.54 2029.33C4244.06 2048.32 4308.88 2083.32 4326.68 2220.53C4345.08 2361.44 4320.9 2406.83 4301.91 2425.52C4289.01 2438.13 4219 2438.87 4183.99 2428.34C4139.49 2415.13 4041.3 2377.61 3996.2 2305.22C3943.1 2220.08 3931.24 2106.02 3991.16 2060.63C4075.26 1996.84 4174.79 2013.31 4206.54 2029.33Z"
        fill="#FFA8A7" />
    <path
        d="M4334.55 2076.5C4322.23 2110.32 4301.47 2193.09 4215.14 2227.65C4215.14 2227.65 4202.83 2174.84 4158.48 2180.48C4114.13 2186.12 4106.56 2242.63 4133.86 2277.78C4161.15 2312.94 4187.55 2300.18 4187.55 2300.18C4187.55 2300.18 4193.48 2375.83 4143.05 2410.09C4143.05 2410.09 4082.09 2448.66 4017.56 2418.99C3987.9 2405.64 3947.4 2336.08 3923.38 2278.97C3872.35 2158.23 3865.08 2061.37 3942.07 2030.81C3951.56 1975.93 3976.33 1955.32 4026.02 1945.08C4132.96 1922.98 4213.8 1993.29 4303.69 1980.98C4350.71 1974.45 4348.64 2037.93 4334.55 2076.5Z"
        fill="#37474F" />
    <path
        d="M3940.28 2049.21L3889.85 2018.06C3891.81 2014.56 3894.45 2011.5 3897.62 2009.06C3900.79 2006.61 3904.42 2004.83 3908.3 2003.83C3912.17 2002.82 3916.21 2002.61 3920.17 2003.21C3924.13 2003.8 3927.93 2005.2 3931.33 2007.3C3934.74 2009.41 3937.68 2012.18 3939.99 2015.45C3942.3 2018.72 3943.92 2022.43 3944.76 2026.34C3945.59 2030.26 3945.63 2034.3 3944.86 2038.23C3944.09 2042.16 3942.53 2045.9 3940.28 2049.21V2049.21Z"
        fill="#37474F" />
    <path
        d="M4194.67 2487.82L4213.06 2541.07C4213.06 2541.07 4199.57 2564.8 4142.16 2565.99C4084.76 2567.17 4023.5 2548.93 4004.51 2524.46C4000.19 2519.66 3996.99 2513.97 3995.14 2507.79C3993.29 2501.6 3992.85 2495.09 3993.83 2488.71C3993.83 2488.71 4016.67 2438.28 4038.33 2440.5L4034.77 2462.45C4034.77 2462.45 4039.67 2480.4 4091.73 2494.2C4172.72 2515.7 4194.67 2487.82 4194.67 2487.82Z"
        fill="#455A64" />
    <path
        d="M4655.98 2841.73C4679.12 2815.18 4688.02 2756.3 4718.87 2715.95C4749.72 2675.6 4761.14 2646.09 4773.3 2663.74C4789.47 2687.03 4752.98 2733.75 4761.14 2737.9C4769.3 2742.06 4799.41 2804.06 4802.53 2838.17C4805.64 2872.29 4715.16 2958.32 4715.16 2958.32L4655.98 2841.73Z"
        fill="#FFA8A7" />
    <path
        d="M4194.67 2487.82C4198.4 2487.74 4202.08 2488.68 4205.32 2490.54C4208.56 2492.39 4211.24 2495.09 4213.06 2498.35C4222.13 2514.73 4230.26 2531.62 4237.39 2548.93L4213.06 2541.07L4194.67 2487.82Z"
        fill="#455A64" />
    <path
        d="M4758.62 2733.16C4758.62 2733.16 4867.94 2723.66 4883.81 2733.16C4899.68 2742.65 4894.93 2789.97 4883.81 2819.04C4872.68 2848.11 4816.91 2866.95 4765.15 2901.96C4765.15 2896.62 4758.62 2733.16 4758.62 2733.16Z"
        fill="#FFA8A7" />
    <path
        d="M4237.39 2549.52C4284.41 2565.99 4325.5 2584.83 4369.4 2667.3C4425.77 2773.2 4532.57 2942.6 4532.57 2942.6L4655.53 2834.17C4655.53 2834.17 4674.07 2816.22 4708.63 2873.33C4718.76 2888.7 4725.17 2906.22 4727.36 2924.5C4729.55 2942.78 4727.45 2961.31 4721.24 2978.64C4721.24 2978.64 4579.29 3145.22 4552.14 3170.58C4525 3195.94 4480.06 3176.22 4450.84 3136.32C4421.61 3096.41 4236.94 2865.76 4236.94 2865.76C4236.94 2865.76 4136.67 2732.56 4237.39 2549.52Z"
        fill="#37474F" />
    <path
        d="M5505.76 2272.59H5155.55C5142.33 2272.59 5129.65 2267.34 5120.31 2257.99C5110.96 2248.65 5105.71 2235.97 5105.71 2222.75V1666.37C5105.71 1622.58 5123.1 1580.59 5154.06 1549.63C5185.03 1518.67 5227.02 1501.28 5270.8 1501.28H5390.95C5434.66 1501.39 5476.53 1518.84 5507.4 1549.79C5538.26 1580.73 5555.59 1622.66 5555.59 1666.37V2222.75C5555.59 2235.97 5550.34 2248.65 5541 2257.99C5531.65 2267.34 5518.97 2272.59 5505.76 2272.59Z"
        fill="#37474F" />
    <path
        d="M5096.51 2082.73C5062.55 2182.85 5005.59 2470.91 5005.59 2470.91C5005.59 2470.91 4886.92 2615.97 4848.21 2651.13C4827 2670.71 4779.24 2705.86 4779.24 2705.86L4866.01 2769.64C4944.36 2709.38 5017.95 2643.18 5086.13 2571.62C5101.3 2555.49 5111.94 2535.63 5116.98 2514.07L5176.32 2259.54C5176.32 2259.54 5176.32 2054.84 5207.61 2027.99C5238.91 2001.15 5247.96 1995.51 5247.96 1995.51C5207.76 1992.54 5123.21 2003.97 5096.51 2082.73Z"
        fill="#F28F8F" />
    <path
        d="M5266.5 1992.55C5211.17 1986.17 5140.27 1987.36 5105.71 2049.21C5071.15 2111.06 5013.6 2430.86 5013.6 2430.86C5013.6 2430.86 5068.04 2473.13 5126.77 2472.39L5266.5 1992.55Z"
        fill="#384B78" />
    <path
        d="M5112.68 2290.54C5122.64 2338.21 5126.48 2386.96 5124.1 2435.61C5119.8 2499.68 5075.6 2611.52 5075.6 2611.52C5075.6 2611.52 5110.16 2649.5 5207.61 2634.22C5286.97 2621.91 5258.94 2382.06 5213.4 2336.08C5186.84 2308.64 5150.82 2292.36 5112.68 2290.54V2290.54Z"
        fill="#384B78" />
    <path opacity="0.3"
        d="M5112.68 2290.54C5122.64 2338.21 5126.48 2386.96 5124.1 2435.61C5119.8 2499.68 5075.6 2611.52 5075.6 2611.52C5075.6 2611.52 5110.16 2649.5 5207.61 2634.22C5286.97 2621.91 5258.94 2382.06 5213.4 2336.08C5186.84 2308.64 5150.82 2292.36 5112.68 2290.54V2290.54Z"
        fill="black" />
    <path
        d="M5296.02 3984.46C5296.65 3995.41 5293.9 4006.28 5288.16 4015.61C5273.49 4039.85 5256.23 4062.43 5236.69 4082.95C5209.25 4112.62 5168.16 4147.48 5138.64 4173.14C5122.32 4187.97 5121.73 4209.03 5145.17 4216.6C5188.85 4227.24 5234.95 4220.82 5274.07 4198.65C5303.73 4182.93 5344.97 4109.65 5369.29 4099.27C5397.33 4086.66 5412.9 4080.43 5422.4 4067.53C5429.57 4060.19 5434.05 4050.64 5435.1 4040.43C5436.15 4030.22 5433.71 4019.95 5428.18 4011.31C5414.98 3986.69 5395.1 3948.86 5386.94 3953.17L5389.47 3960.88C5383.09 3980.9 5328.5 4004.19 5300.47 3998.7L5296.02 3984.46Z"
        fill="#37474F" />
    <path
        d="M5581.85 3147.59C5594.46 3014.09 5630.65 2799.31 5593.57 2640.3L5101.11 2666.41C5087.47 2823.19 5071.45 3312.68 5088.65 3368.75C5108.53 3434.9 5286.08 3892.8 5296.31 3984.91C5297.02 3995.72 5294.27 4006.47 5288.45 4015.61C5273.8 4039.91 5256.54 4062.54 5236.98 4083.1C5223.63 4097.94 5207.32 4112.77 5190.11 4127.6C5188.67 4129.72 5187.8 4132.17 5187.59 4134.72C5187.59 4149.55 5224.97 4154.15 5246.92 4147.77C5274.3 4138.11 5297.89 4119.98 5314.26 4096.01C5326.87 4079.25 5355.2 4047.06 5373.59 4022.88C5379.73 4015.42 5384.96 4007.25 5389.17 3998.56C5394.08 3987.69 5394.92 3975.43 5391.54 3963.99L5390.36 3960.29C5380.73 3930.26 5374.75 3899.18 5372.56 3867.73C5365.73 3766.72 5348.38 3533.39 5332.36 3471.24C5321.24 3425.95 5304.34 3382.28 5282.07 3341.31L5338.29 2903.88C5338.29 2903.88 5344.22 3289.54 5361.73 3387.88C5375.52 3466.65 5380.86 3565.14 5397.03 3700.26C5411.86 3829.61 5429.07 4057.44 5429.07 4057.44C5429.51 4057.52 5429.96 4057.52 5430.4 4057.44V4166.32H5522.52V4103.13C5522.52 4074.6 5524.9 4046.12 5529.64 4017.99C5544.47 3931.96 5575.32 3735.12 5581.7 3668.52C5591.79 3562.91 5553.67 3430.16 5553.67 3430.16C5553.67 3430.16 5569.54 3277.82 5581.85 3147.59Z"
        fill="#FFA8A7" />
    <path
        d="M5408.3 1997.14C5408.3 1997.14 5540.76 2011.97 5556.63 2019.54C5432.33 2106.91 5533.05 2301.37 5533.05 2301.37L5485.44 2450.73C5538.39 2518.52 5584.07 2558.87 5612.41 2633.18C5643.85 2716.24 5671.74 2839.8 5664.32 3093C5545.66 3182 5184.62 3172.36 5044.01 3093C5044.01 3093 5067.74 2869.47 5095.77 2695.77C5114.31 2581.12 5158.07 2456.22 5150.65 2413.95C5094.88 2242.48 5091.32 2211.63 5101.41 2173.36C5129.15 2065.67 5238.91 1992.84 5265.91 1992.84L5408.3 1997.14Z"
        fill="#384B78" />
    <path opacity="0.6"
        d="M5408.3 1997.14C5408.3 1997.14 5540.76 2011.97 5556.63 2019.54C5432.33 2106.91 5533.05 2301.37 5533.05 2301.37L5485.44 2450.73C5538.39 2518.52 5584.07 2558.87 5612.41 2633.18C5643.85 2716.24 5671.74 2839.8 5664.32 3093C5545.66 3182 5184.62 3172.36 5044.01 3093C5044.01 3093 5067.74 2869.47 5095.77 2695.77C5114.31 2581.12 5158.07 2456.22 5150.65 2413.95C5094.88 2242.48 5091.32 2211.63 5101.41 2173.36C5129.15 2065.67 5238.91 1992.84 5265.91 1992.84L5408.3 1997.14Z"
        fill="white" />
    <path
        d="M5429.51 4120.18V4106.98C5417.94 4151.34 5394.81 4191.82 5362.47 4224.31C5332.8 4251.16 5292.75 4282.31 5282.37 4312.42C5271.99 4342.53 5329.99 4356.03 5368.25 4352.17C5405.34 4347.64 5439.5 4329.77 5464.37 4301.89C5488.7 4274 5488.25 4255.02 5499.53 4239.59C5510.8 4224.16 5537.05 4207.25 5543.14 4189.45C5545.03 4172.85 5543.21 4156.02 5537.8 4140.21C5533.49 4123.74 5528.75 4105.5 5522.96 4106.98V4117.22C5509.62 4127.72 5493.07 4133.32 5476.09 4133.09C5463.19 4133.39 5429.37 4130.57 5429.51 4120.18Z"
        fill="#37474F" />
    <path
        d="M5522.52 4116.92C5509.17 4127.42 5492.62 4133.03 5475.64 4132.79C5462 4132.79 5428.77 4130.57 5428.92 4120.19V4106.98C5417.35 4151.34 5394.21 4191.83 5361.88 4224.31L5339.48 4244.34C5323.76 4261.84 5328.21 4277.12 5365.14 4280.23C5402.07 4283.35 5434.56 4261.1 5462.44 4226.83C5486.22 4192.38 5506.35 4155.54 5522.52 4116.92V4116.92Z"
        fill="#FFA8A7" />
    <path
        d="M5179.58 1592.2C5155.85 1606.29 5126.48 1666.37 5129.3 1791.26C5131.82 1897.47 5166.23 1923.72 5183.58 1931.28C5200.94 1938.85 5234.16 1934.25 5266.5 1928.91V1992.54C5266.5 1992.54 5222 2044.61 5224.52 2073.83C5227.04 2103.05 5289.19 2109.87 5331.17 2081.39C5361.48 2057.89 5387.56 2029.4 5408.3 1997.14L5407.56 1850.74C5407.56 1850.74 5426.7 1869.13 5459.03 1840.95C5485.73 1817.66 5494.63 1778.21 5473.87 1757.15C5468.47 1752.08 5461.95 1748.37 5454.83 1746.33C5447.72 1744.3 5440.22 1743.99 5432.96 1745.45C5425.7 1746.9 5418.9 1750.06 5413.11 1754.68C5407.33 1759.29 5402.73 1765.23 5399.7 1771.98C5399.7 1771.98 5381.75 1721.99 5307.14 1697.81C5239.8 1675.42 5203.16 1650.05 5179.58 1592.2Z"
        fill="#FFA8A7" />
    <path
        d="M5247.96 1764.71C5247.96 1767.33 5248.73 1769.88 5250.17 1772.06C5251.62 1774.24 5253.67 1775.95 5256.07 1776.98C5258.48 1778 5261.13 1778.3 5263.7 1777.83C5266.27 1777.36 5268.65 1776.15 5270.54 1774.34C5272.43 1772.53 5273.75 1770.21 5274.33 1767.66C5274.91 1765.11 5274.72 1762.45 5273.8 1760C5272.88 1757.55 5271.27 1755.43 5269.15 1753.9C5267.03 1752.36 5264.51 1751.48 5261.9 1751.36C5260.11 1751.32 5258.33 1751.64 5256.66 1752.29C5254.99 1752.94 5253.46 1753.91 5252.16 1755.15C5250.87 1756.39 5249.83 1757.87 5249.11 1759.51C5248.39 1761.15 5248 1762.92 5247.96 1764.71V1764.71Z"
        fill="#37474F" />
    <path
        d="M5244.4 1854.6L5213.4 1864.54C5213.94 1866.61 5214.9 1868.54 5216.21 1870.23C5217.53 1871.92 5219.17 1873.33 5221.04 1874.37C5222.91 1875.41 5224.97 1876.06 5227.1 1876.28C5229.23 1876.5 5231.38 1876.29 5233.42 1875.66C5237.61 1874.23 5241.08 1871.25 5243.13 1867.33C5245.17 1863.4 5245.63 1858.85 5244.4 1854.6V1854.6Z"
        fill="#F28F8F" />
    <path
        d="M5138.49 1723.62L5165.49 1704.93C5164.35 1703.11 5162.85 1701.54 5161.08 1700.31C5159.31 1699.08 5157.31 1698.23 5155.2 1697.8C5153.09 1697.37 5150.92 1697.37 5148.81 1697.81C5146.7 1698.24 5144.71 1699.1 5142.94 1700.34C5139.32 1702.88 5136.84 1706.74 5136.01 1711.08C5135.18 1715.43 5136.07 1719.92 5138.49 1723.62V1723.62Z"
        fill="#37474F" />
    <path
        d="M5286.82 1733.71L5259.68 1715.02C5260.82 1713.2 5262.32 1711.63 5264.08 1710.4C5265.85 1709.17 5267.84 1708.31 5269.94 1707.86C5272.05 1707.42 5274.22 1707.41 5276.33 1707.82C5278.44 1708.23 5280.44 1709.07 5282.22 1710.27C5285.81 1712.87 5288.29 1716.74 5289.14 1721.08C5289.99 1725.43 5289.17 1729.95 5286.82 1733.71V1733.71Z"
        fill="#37474F" />
    <path
        d="M5144.72 1754.92C5144.69 1757.54 5145.44 1760.11 5146.86 1762.31C5148.29 1764.51 5150.33 1766.24 5152.73 1767.29C5155.13 1768.34 5157.79 1768.66 5160.37 1768.2C5162.95 1767.75 5165.35 1766.55 5167.25 1764.75C5169.15 1762.95 5170.48 1760.62 5171.07 1758.07C5171.67 1755.52 5171.49 1752.85 5170.58 1750.39C5169.66 1747.94 5168.05 1745.8 5165.93 1744.26C5163.81 1742.72 5161.28 1741.83 5158.66 1741.72C5155.07 1741.64 5151.59 1742.98 5148.98 1745.45C5146.37 1747.92 5144.84 1751.33 5144.72 1754.92V1754.92Z"
        fill="#37474F" />
    <path d="M5207.61 1747.36L5205.54 1827.75L5163.26 1814.7L5207.61 1747.36Z" fill="#F28F8F" />
    <path
        d="M5266.5 1928.91C5300.62 1924.31 5370.33 1904.14 5381.9 1876.4C5377.5 1890.45 5368.91 1902.82 5357.28 1911.85C5336.21 1929.8 5266.5 1950.12 5266.5 1950.12V1928.91Z"
        fill="#F28F8F" />
    <path d="M5508.43 2369.3L5414.83 2495.97L5485.44 2450.73L5508.43 2369.3Z" fill="#384B78" />
    <path
        d="M4771.08 2705.86C4751.05 2731.67 4738.74 2781.81 4728.21 2798.72C4717.68 2815.62 4705.07 2830.31 4728.21 2833.42C4751.35 2836.54 4785.17 2791.3 4797.78 2763.86C4804.16 2748.38 4816.2 2735.92 4831.45 2729C4820.62 2725.29 4826.26 2681.83 4818.69 2675.75C4818.69 2675.75 4779.24 2691.92 4771.08 2705.86Z"
        fill="#F28F8F" />
    <path
        d="M4765.15 2901.66C4786.06 2886.08 4786.8 2866.95 4790.81 2836.54C4794.81 2806.13 4878.62 2773.2 4881.29 2795.9C4883.96 2818.59 4891.52 2837.58 4866.46 2865.17C4841.39 2892.76 4803.42 2922.13 4765.15 2901.66Z"
        fill="#F28F8F" />
    <path
        d="M5408.3 1997.14C5408.3 1997.14 5532.31 2007.97 5556.63 2019.54C5580.96 2031.11 5621.45 2101.12 5585.26 2202.73C5549.07 2304.34 5516.14 2423.89 5519.85 2447.92C5523.56 2471.95 5610.03 2596.25 5610.03 2596.25C5586.17 2613.86 5559.2 2626.79 5530.53 2634.37L5486.03 2537.66L5496.41 2640.45C5451.71 2651.32 5405.79 2656.31 5359.8 2655.28C5359.8 2655.28 5317.82 2260.43 5408.3 1997.14Z"
        fill="#384B78" />
    <path
        d="M5713.86 2481.44C5723.8 2423 5713.86 2403.86 5693.39 2346.61L5589.56 2413.8C5598.08 2435.41 5603.09 2458.25 5604.39 2481.44C5603.5 2498.35 5580.51 2665.96 5559.01 2724.4C5555.13 2734.8 5547.51 2743.37 5537.65 2748.43C5516.26 2761.5 5496.87 2777.58 5480.1 2796.2C5464.22 2811.03 5451.47 2813.7 5453.1 2818.74C5455.55 2824.21 5459.93 2828.58 5465.41 2831.02C5470.88 2833.45 5477.06 2833.78 5482.76 2831.94C5495.69 2827.75 5508.08 2822.07 5519.7 2815.03C5509.4 2836.85 5495.68 2856.88 5479.06 2874.37C5440.94 2915.01 5437.52 2941.41 5508.72 2946.9C5553.22 2950.31 5590.45 2925.39 5630.65 2829.72C5643.11 2794.65 5653.36 2758.83 5661.35 2722.48C5683.01 2639.56 5704.07 2540.33 5713.86 2481.44Z"
        fill="#FFA8A7" />
    <path
        d="M5556.63 2019.54C5606.62 2041.94 5620.86 2086.14 5639.4 2151.11C5657.94 2216.08 5716.09 2410.98 5716.09 2410.98C5716.09 2410.98 5666.25 2470.32 5597.42 2453.7L5508.43 2237.59C5508.43 2237.59 5466.89 2096.53 5556.63 2019.54Z"
        fill="#384B78" />
</svg>